<svg width="1134" height="1099" viewBox="0 0 1134 1099" fill="none" xmlns="http://www.w3.org/2000/svg">
<g filter="url(#filter0_f_1_4)">
<path d="M734 549.5C734 632.067 659.232 699 567 699C474.768 699 400 632.067 400 549.5C400 466.933 474.768 400 567 400C659.232 400 734 466.933 734 549.5Z" fill="#C948DE"/>
</g>
<path d="M486 466.344C486 465.602 486.602 465 487.344 465H489.061C489.804 465 490.405 465.602 490.405 466.344V468.061C490.405 468.804 489.804 469.405 489.061 469.405H487.344C486.602 469.405 486 468.804 486 468.061V466.344Z" fill="white" fill-opacity="0.5"/>
<path d="M503.621 466.344C503.621 465.602 504.223 465 504.965 465H506.682C507.425 465 508.027 465.602 508.027 466.344V468.061C508.027 468.804 507.425 469.405 506.682 469.405H504.965C504.223 469.405 503.621 468.804 503.621 468.061V466.344Z" fill="white" fill-opacity="0.5"/>
<path d="M521.242 466.344C521.242 465.602 521.844 465 522.586 465H524.304C525.046 465 525.648 465.602 525.648 466.344V468.061C525.648 468.804 525.046 469.405 524.304 469.405H522.586C521.844 469.405 521.242 468.804 521.242 468.061V466.344Z" fill="white" fill-opacity="0.5"/>
<path d="M538.867 466.344C538.867 465.602 539.469 465 540.211 465H541.929C542.671 465 543.273 465.602 543.273 466.344V468.061C543.273 468.804 542.671 469.405 541.929 469.405H540.211C539.469 469.405 538.867 468.804 538.867 468.061V466.344Z" fill="white" fill-opacity="0.5"/>
<path d="M556.488 466.344C556.488 465.602 557.09 465 557.832 465H559.55C560.292 465 560.894 465.602 560.894 466.344V468.061C560.894 468.804 560.292 469.405 559.55 469.405H557.832C557.09 469.405 556.488 468.804 556.488 468.061V466.344Z" fill="white" fill-opacity="0.5"/>
<path d="M574.109 466.344C574.109 465.602 574.711 465 575.453 465H577.171C577.913 465 578.515 465.602 578.515 466.344V468.061C578.515 468.804 577.913 469.405 577.171 469.405H575.453C574.711 469.405 574.109 468.804 574.109 468.061V466.344Z" fill="white" fill-opacity="0.5"/>
<path d="M591.73 466.344C591.73 465.602 592.332 465 593.075 465H594.792C595.534 465 596.136 465.602 596.136 466.344V468.061C596.136 468.804 595.534 469.405 594.792 469.405H593.075C592.332 469.405 591.73 468.804 591.73 468.061V466.344Z" fill="white" fill-opacity="0.5"/>
<path d="M609.355 466.344C609.355 465.602 609.957 465 610.7 465H612.417C613.159 465 613.761 465.602 613.761 466.344V468.061C613.761 468.804 613.159 469.405 612.417 469.405H610.7C609.957 469.405 609.355 468.804 609.355 468.061V466.344Z" fill="white" fill-opacity="0.5"/>
<path d="M626.977 466.344C626.977 465.602 627.578 465 628.321 465H630.038C630.78 465 631.382 465.602 631.382 466.344V468.061C631.382 468.804 630.78 469.405 630.038 469.405H628.321C627.578 469.405 626.977 468.804 626.977 468.061V466.344Z" fill="white" fill-opacity="0.5"/>
<path d="M644.59 466.344C644.59 465.602 645.192 465 645.934 465H647.651C648.393 465 648.995 465.602 648.995 466.344V468.061C648.995 468.804 648.393 469.405 647.651 469.405H645.934C645.192 469.405 644.59 468.804 644.59 468.061V466.344Z" fill="white" fill-opacity="0.5"/>
<path d="M486 483.966C486 483.223 486.602 482.622 487.344 482.622H489.061C489.804 482.622 490.405 483.223 490.405 483.966V485.683C490.405 486.425 489.804 487.027 489.061 487.027H487.344C486.602 487.027 486 486.425 486 485.683V483.966Z" fill="white" fill-opacity="0.5"/>
<path d="M503.621 483.966C503.621 483.223 504.223 482.622 504.965 482.622H506.682C507.425 482.622 508.027 483.223 508.027 483.966V485.683C508.027 486.425 507.425 487.027 506.682 487.027H504.965C504.223 487.027 503.621 486.425 503.621 485.683V483.966Z" fill="white" fill-opacity="0.5"/>
<path d="M521.242 483.966C521.242 483.223 521.844 482.622 522.586 482.622H524.304C525.046 482.622 525.648 483.223 525.648 483.966V485.683C525.648 486.425 525.046 487.027 524.304 487.027H522.586C521.844 487.027 521.242 486.425 521.242 485.683V483.966Z" fill="white" fill-opacity="0.5"/>
<path d="M538.867 483.966C538.867 483.223 539.469 482.622 540.211 482.622H541.929C542.671 482.622 543.273 483.223 543.273 483.966V485.683C543.273 486.425 542.671 487.027 541.929 487.027H540.211C539.469 487.027 538.867 486.425 538.867 485.683V483.966Z" fill="white" fill-opacity="0.5"/>
<path d="M556.488 483.966C556.488 483.223 557.09 482.622 557.832 482.622H559.55C560.292 482.622 560.894 483.223 560.894 483.966V485.683C560.894 486.425 560.292 487.027 559.55 487.027H557.832C557.09 487.027 556.488 486.425 556.488 485.683V483.966Z" fill="white" fill-opacity="0.5"/>
<path d="M574.109 483.966C574.109 483.223 574.711 482.622 575.453 482.622H577.171C577.913 482.622 578.515 483.223 578.515 483.966V485.683C578.515 486.425 577.913 487.027 577.171 487.027H575.453C574.711 487.027 574.109 486.425 574.109 485.683V483.966Z" fill="white" fill-opacity="0.5"/>
<path d="M591.73 483.966C591.73 483.223 592.332 482.622 593.075 482.622H594.792C595.534 482.622 596.136 483.223 596.136 483.966V485.683C596.136 486.425 595.534 487.027 594.792 487.027H593.075C592.332 487.027 591.73 486.425 591.73 485.683V483.966Z" fill="white" fill-opacity="0.5"/>
<path d="M609.355 483.966C609.355 483.223 609.957 482.622 610.7 482.622H612.417C613.159 482.622 613.761 483.223 613.761 483.966V485.683C613.761 486.425 613.159 487.027 612.417 487.027H610.7C609.957 487.027 609.355 486.425 609.355 485.683V483.966Z" fill="white" fill-opacity="0.5"/>
<path d="M626.977 483.966C626.977 483.223 627.578 482.622 628.321 482.622H630.038C630.78 482.622 631.382 483.223 631.382 483.966V485.683C631.382 486.425 630.78 487.027 630.038 487.027H628.321C627.578 487.027 626.977 486.425 626.977 485.683V483.966Z" fill="white" fill-opacity="0.5"/>
<path d="M644.59 483.966C644.59 483.223 645.192 482.622 645.934 482.622H647.651C648.393 482.622 648.995 483.223 648.995 483.966V485.683C648.995 486.425 648.393 487.027 647.651 487.027H645.934C645.192 487.027 644.59 486.425 644.59 485.683V483.966Z" fill="white" fill-opacity="0.5"/>
<path d="M486 501.587C486 500.845 486.602 500.243 487.344 500.243H489.061C489.804 500.243 490.405 500.845 490.405 501.587V503.305C490.405 504.047 489.804 504.649 489.061 504.649H487.344C486.602 504.649 486 504.047 486 503.305V501.587Z" fill="white" fill-opacity="0.5"/>
<path d="M503.621 501.587C503.621 500.845 504.223 500.243 504.965 500.243H506.682C507.425 500.243 508.027 500.845 508.027 501.587V503.305C508.027 504.047 507.425 504.649 506.682 504.649H504.965C504.223 504.649 503.621 504.047 503.621 503.305V501.587Z" fill="white" fill-opacity="0.5"/>
<path d="M521.242 501.587C521.242 500.845 521.844 500.243 522.586 500.243H524.304C525.046 500.243 525.648 500.845 525.648 501.587V503.305C525.648 504.047 525.046 504.649 524.304 504.649H522.586C521.844 504.649 521.242 504.047 521.242 503.305V501.587Z" fill="white" fill-opacity="0.5"/>
<path d="M538.867 501.587C538.867 500.845 539.469 500.243 540.211 500.243H541.929C542.671 500.243 543.273 500.845 543.273 501.587V503.305C543.273 504.047 542.671 504.649 541.929 504.649H540.211C539.469 504.649 538.867 504.047 538.867 503.305V501.587Z" fill="white" fill-opacity="0.5"/>
<path d="M556.488 501.587C556.488 500.845 557.09 500.243 557.832 500.243H559.55C560.292 500.243 560.894 500.845 560.894 501.587V503.305C560.894 504.047 560.292 504.649 559.55 504.649H557.832C557.09 504.649 556.488 504.047 556.488 503.305V501.587Z" fill="white" fill-opacity="0.5"/>
<path d="M574.109 501.587C574.109 500.845 574.711 500.243 575.453 500.243H577.171C577.913 500.243 578.515 500.845 578.515 501.587V503.305C578.515 504.047 577.913 504.649 577.171 504.649H575.453C574.711 504.649 574.109 504.047 574.109 503.305V501.587Z" fill="white" fill-opacity="0.5"/>
<path d="M591.73 501.587C591.73 500.845 592.332 500.243 593.075 500.243H594.792C595.534 500.243 596.136 500.845 596.136 501.587V503.305C596.136 504.047 595.534 504.649 594.792 504.649H593.075C592.332 504.649 591.73 504.047 591.73 503.305V501.587Z" fill="white" fill-opacity="0.5"/>
<path d="M609.355 501.587C609.355 500.845 609.957 500.243 610.7 500.243H612.417C613.159 500.243 613.761 500.845 613.761 501.587V503.305C613.761 504.047 613.159 504.649 612.417 504.649H610.7C609.957 504.649 609.355 504.047 609.355 503.305V501.587Z" fill="white" fill-opacity="0.5"/>
<path d="M626.977 501.587C626.977 500.845 627.578 500.243 628.321 500.243H630.038C630.78 500.243 631.382 500.845 631.382 501.587V503.305C631.382 504.047 630.78 504.649 630.038 504.649H628.321C627.578 504.649 626.977 504.047 626.977 503.305V501.587Z" fill="white" fill-opacity="0.5"/>
<path d="M644.59 501.587C644.59 500.845 645.192 500.243 645.934 500.243H647.651C648.393 500.243 648.995 500.845 648.995 501.587V503.305C648.995 504.047 648.393 504.649 647.651 504.649H645.934C645.192 504.649 644.59 504.047 644.59 503.305V501.587Z" fill="white" fill-opacity="0.5"/>
<path d="M486 519.209C486 518.467 486.602 517.865 487.344 517.865H489.061C489.804 517.865 490.405 518.467 490.405 519.209V520.926C490.405 521.669 489.804 522.27 489.061 522.27H487.344C486.602 522.27 486 521.669 486 520.926V519.209Z" fill="white" fill-opacity="0.5"/>
<path d="M503.621 519.209C503.621 518.467 504.223 517.865 504.965 517.865H506.682C507.425 517.865 508.027 518.467 508.027 519.209V520.926C508.027 521.669 507.425 522.27 506.682 522.27H504.965C504.223 522.27 503.621 521.669 503.621 520.926V519.209Z" fill="white" fill-opacity="0.5"/>
<path d="M521.242 519.209C521.242 518.467 521.844 517.865 522.586 517.865H524.304C525.046 517.865 525.648 518.467 525.648 519.209V520.926C525.648 521.669 525.046 522.27 524.304 522.27H522.586C521.844 522.27 521.242 521.669 521.242 520.926V519.209Z" fill="white" fill-opacity="0.5"/>
<path d="M538.867 519.209C538.867 518.467 539.469 517.865 540.211 517.865H541.929C542.671 517.865 543.273 518.467 543.273 519.209V520.926C543.273 521.669 542.671 522.27 541.929 522.27H540.211C539.469 522.27 538.867 521.669 538.867 520.926V519.209Z" fill="white" fill-opacity="0.5"/>
<path d="M556.488 519.209C556.488 518.467 557.09 517.865 557.832 517.865H559.55C560.292 517.865 560.894 518.467 560.894 519.209V520.926C560.894 521.669 560.292 522.27 559.55 522.27H557.832C557.09 522.27 556.488 521.669 556.488 520.926V519.209Z" fill="white" fill-opacity="0.5"/>
<path d="M574.109 519.209C574.109 518.467 574.711 517.865 575.453 517.865H577.171C577.913 517.865 578.515 518.467 578.515 519.209V520.926C578.515 521.669 577.913 522.27 577.171 522.27H575.453C574.711 522.27 574.109 521.669 574.109 520.926V519.209Z" fill="white" fill-opacity="0.5"/>
<path d="M591.73 519.209C591.73 518.467 592.332 517.865 593.075 517.865H594.792C595.534 517.865 596.136 518.467 596.136 519.209V520.926C596.136 521.669 595.534 522.27 594.792 522.27H593.075C592.332 522.27 591.73 521.669 591.73 520.926V519.209Z" fill="white" fill-opacity="0.5"/>
<path d="M609.355 519.209C609.355 518.467 609.957 517.865 610.7 517.865H612.417C613.159 517.865 613.761 518.467 613.761 519.209V520.926C613.761 521.669 613.159 522.27 612.417 522.27H610.7C609.957 522.27 609.355 521.669 609.355 520.926V519.209Z" fill="white" fill-opacity="0.5"/>
<path d="M626.977 519.209C626.977 518.467 627.578 517.865 628.321 517.865H630.038C630.78 517.865 631.382 518.467 631.382 519.209V520.926C631.382 521.669 630.78 522.27 630.038 522.27H628.321C627.578 522.27 626.977 521.669 626.977 520.926V519.209Z" fill="white" fill-opacity="0.5"/>
<path d="M644.59 519.209C644.59 518.467 645.192 517.865 645.934 517.865H647.651C648.393 517.865 648.995 518.467 648.995 519.209V520.926C648.995 521.669 648.393 522.27 647.651 522.27H645.934C645.192 522.27 644.59 521.669 644.59 520.926V519.209Z" fill="white" fill-opacity="0.5"/>
<path d="M486 536.831C486 536.088 486.602 535.487 487.344 535.487H489.061C489.804 535.487 490.405 536.088 490.405 536.831V538.548C490.405 539.29 489.804 539.892 489.061 539.892H487.344C486.602 539.892 486 539.29 486 538.548V536.831Z" fill="white" fill-opacity="0.5"/>
<path d="M503.621 536.831C503.621 536.088 504.223 535.487 504.965 535.487H506.682C507.425 535.487 508.027 536.088 508.027 536.831V538.548C508.027 539.29 507.425 539.892 506.682 539.892H504.965C504.223 539.892 503.621 539.29 503.621 538.548V536.831Z" fill="white" fill-opacity="0.5"/>
<path d="M521.242 536.831C521.242 536.088 521.844 535.487 522.586 535.487H524.304C525.046 535.487 525.648 536.088 525.648 536.831V538.548C525.648 539.29 525.046 539.892 524.304 539.892H522.586C521.844 539.892 521.242 539.29 521.242 538.548V536.831Z" fill="white" fill-opacity="0.5"/>
<path d="M538.867 536.831C538.867 536.088 539.469 535.487 540.211 535.487H541.929C542.671 535.487 543.273 536.088 543.273 536.831V538.548C543.273 539.29 542.671 539.892 541.929 539.892H540.211C539.469 539.892 538.867 539.29 538.867 538.548V536.831Z" fill="white" fill-opacity="0.5"/>
<path d="M556.488 536.831C556.488 536.088 557.09 535.487 557.832 535.487H559.55C560.292 535.487 560.894 536.088 560.894 536.831V538.548C560.894 539.29 560.292 539.892 559.55 539.892H557.832C557.09 539.892 556.488 539.29 556.488 538.548V536.831Z" fill="white" fill-opacity="0.5"/>
<path d="M574.109 536.831C574.109 536.088 574.711 535.487 575.453 535.487H577.171C577.913 535.487 578.515 536.088 578.515 536.831V538.548C578.515 539.29 577.913 539.892 577.171 539.892H575.453C574.711 539.892 574.109 539.29 574.109 538.548V536.831Z" fill="white" fill-opacity="0.5"/>
<path d="M591.73 536.831C591.73 536.088 592.332 535.487 593.075 535.487H594.792C595.534 535.487 596.136 536.088 596.136 536.831V538.548C596.136 539.29 595.534 539.892 594.792 539.892H593.075C592.332 539.892 591.73 539.29 591.73 538.548V536.831Z" fill="white" fill-opacity="0.5"/>
<path d="M609.355 536.831C609.355 536.088 609.957 535.487 610.7 535.487H612.417C613.159 535.487 613.761 536.088 613.761 536.831V538.548C613.761 539.29 613.159 539.892 612.417 539.892H610.7C609.957 539.892 609.355 539.29 609.355 538.548V536.831Z" fill="white" fill-opacity="0.5"/>
<path d="M626.977 536.831C626.977 536.088 627.578 535.487 628.321 535.487H630.038C630.78 535.487 631.382 536.088 631.382 536.831V538.548C631.382 539.29 630.78 539.892 630.038 539.892H628.321C627.578 539.892 626.977 539.29 626.977 538.548V536.831Z" fill="white" fill-opacity="0.5"/>
<path d="M644.59 536.831C644.59 536.088 645.192 535.487 645.934 535.487H647.651C648.393 535.487 648.995 536.088 648.995 536.831V538.548C648.995 539.29 648.393 539.892 647.651 539.892H645.934C645.192 539.892 644.59 539.29 644.59 538.548V536.831Z" fill="white" fill-opacity="0.5"/>
<path d="M486 554.452C486 553.71 486.602 553.108 487.344 553.108H489.061C489.804 553.108 490.405 553.71 490.405 554.452V556.169C490.405 556.912 489.804 557.514 489.061 557.514H487.344C486.602 557.514 486 556.912 486 556.169V554.452Z" fill="white" fill-opacity="0.5"/>
<path d="M503.621 554.452C503.621 553.71 504.223 553.108 504.965 553.108H506.682C507.425 553.108 508.027 553.71 508.027 554.452V556.169C508.027 556.912 507.425 557.514 506.682 557.514H504.965C504.223 557.514 503.621 556.912 503.621 556.169V554.452Z" fill="white" fill-opacity="0.5"/>
<path d="M521.242 554.452C521.242 553.71 521.844 553.108 522.586 553.108H524.304C525.046 553.108 525.648 553.71 525.648 554.452V556.169C525.648 556.912 525.046 557.514 524.304 557.514H522.586C521.844 557.514 521.242 556.912 521.242 556.169V554.452Z" fill="white" fill-opacity="0.5"/>
<path d="M538.867 554.452C538.867 553.71 539.469 553.108 540.211 553.108H541.929C542.671 553.108 543.273 553.71 543.273 554.452V556.169C543.273 556.912 542.671 557.514 541.929 557.514H540.211C539.469 557.514 538.867 556.912 538.867 556.169V554.452Z" fill="white" fill-opacity="0.5"/>
<path d="M556.488 554.452C556.488 553.71 557.09 553.108 557.832 553.108H559.55C560.292 553.108 560.894 553.71 560.894 554.452V556.169C560.894 556.912 560.292 557.514 559.55 557.514H557.832C557.09 557.514 556.488 556.912 556.488 556.169V554.452Z" fill="white" fill-opacity="0.5"/>
<path d="M574.109 554.452C574.109 553.71 574.711 553.108 575.453 553.108H577.171C577.913 553.108 578.515 553.71 578.515 554.452V556.169C578.515 556.912 577.913 557.514 577.171 557.514H575.453C574.711 557.514 574.109 556.912 574.109 556.169V554.452Z" fill="white" fill-opacity="0.5"/>
<path d="M591.73 554.452C591.73 553.71 592.332 553.108 593.075 553.108H594.792C595.534 553.108 596.136 553.71 596.136 554.452V556.169C596.136 556.912 595.534 557.514 594.792 557.514H593.075C592.332 557.514 591.73 556.912 591.73 556.169V554.452Z" fill="white" fill-opacity="0.5"/>
<path d="M609.355 554.452C609.355 553.71 609.957 553.108 610.7 553.108H612.417C613.159 553.108 613.761 553.71 613.761 554.452V556.169C613.761 556.912 613.159 557.514 612.417 557.514H610.7C609.957 557.514 609.355 556.912 609.355 556.169V554.452Z" fill="white" fill-opacity="0.5"/>
<path d="M626.977 554.452C626.977 553.71 627.578 553.108 628.321 553.108H630.038C630.78 553.108 631.382 553.71 631.382 554.452V556.169C631.382 556.912 630.78 557.514 630.038 557.514H628.321C627.578 557.514 626.977 556.912 626.977 556.169V554.452Z" fill="white" fill-opacity="0.5"/>
<path d="M644.59 554.452C644.59 553.71 645.192 553.108 645.934 553.108H647.651C648.393 553.108 648.995 553.71 648.995 554.452V556.169C648.995 556.912 648.393 557.514 647.651 557.514H645.934C645.192 557.514 644.59 556.912 644.59 556.169V554.452Z" fill="white" fill-opacity="0.5"/>
<path d="M486 572.074C486 571.332 486.602 570.73 487.344 570.73H489.061C489.804 570.73 490.405 571.332 490.405 572.074V573.791C490.405 574.534 489.804 575.135 489.061 575.135H487.344C486.602 575.135 486 574.534 486 573.791V572.074Z" fill="white" fill-opacity="0.5"/>
<path d="M486 589.069C486 588.327 486.602 587.725 487.344 587.725H489.061C489.804 587.725 490.405 588.327 490.405 589.069V590.787C490.405 591.529 489.804 592.131 489.061 592.131H487.344C486.602 592.131 486 591.529 486 590.787V589.069Z" fill="white" fill-opacity="0.5"/>
<path d="M486 606.065C486 605.322 486.602 604.721 487.344 604.721H489.061C489.804 604.721 490.405 605.322 490.405 606.065V607.782C490.405 608.524 489.804 609.126 489.061 609.126H487.344C486.602 609.126 486 608.524 486 607.782V606.065Z" fill="white" fill-opacity="0.5"/>
<path d="M486 623.06C486 622.318 486.602 621.716 487.344 621.716H489.061C489.804 621.716 490.405 622.318 490.405 623.06V624.777C490.405 625.52 489.804 626.122 489.061 626.122H487.344C486.602 626.122 486 625.52 486 624.777V623.06Z" fill="white" fill-opacity="0.5"/>
<path d="M503.621 572.074C503.621 571.332 504.223 570.73 504.965 570.73H506.682C507.425 570.73 508.027 571.332 508.027 572.074V573.791C508.027 574.534 507.425 575.135 506.682 575.135H504.965C504.223 575.135 503.621 574.534 503.621 573.791V572.074Z" fill="white" fill-opacity="0.5"/>
<path d="M503.621 589.069C503.621 588.327 504.223 587.725 504.965 587.725H506.682C507.425 587.725 508.027 588.327 508.027 589.069V590.787C508.027 591.529 507.425 592.131 506.682 592.131H504.965C504.223 592.131 503.621 591.529 503.621 590.787V589.069Z" fill="white" fill-opacity="0.5"/>
<path d="M503.621 606.065C503.621 605.322 504.223 604.721 504.965 604.721H506.682C507.425 604.721 508.027 605.322 508.027 606.065V607.782C508.027 608.524 507.425 609.126 506.682 609.126H504.965C504.223 609.126 503.621 608.524 503.621 607.782V606.065Z" fill="white" fill-opacity="0.5"/>
<path d="M503.621 623.06C503.621 622.318 504.223 621.716 504.965 621.716H506.682C507.425 621.716 508.027 622.318 508.027 623.06V624.777C508.027 625.52 507.425 626.121 506.682 626.121H504.965C504.223 626.121 503.621 625.52 503.621 624.777V623.06Z" fill="white" fill-opacity="0.5"/>
<path d="M521.242 572.074C521.242 571.332 521.844 570.73 522.586 570.73H524.304C525.046 570.73 525.648 571.332 525.648 572.074V573.791C525.648 574.534 525.046 575.135 524.304 575.135H522.586C521.844 575.135 521.242 574.534 521.242 573.791V572.074Z" fill="white" fill-opacity="0.5"/>
<path d="M521.242 589.069C521.242 588.327 521.844 587.725 522.586 587.725H524.304C525.046 587.725 525.648 588.327 525.648 589.069V590.787C525.648 591.529 525.046 592.131 524.304 592.131H522.586C521.844 592.131 521.242 591.529 521.242 590.787V589.069Z" fill="white" fill-opacity="0.5"/>
<path d="M521.242 606.065C521.242 605.322 521.844 604.721 522.586 604.721H524.304C525.046 604.721 525.648 605.322 525.648 606.065V607.782C525.648 608.524 525.046 609.126 524.304 609.126H522.586C521.844 609.126 521.242 608.524 521.242 607.782V606.065Z" fill="white" fill-opacity="0.5"/>
<path d="M521.242 623.06C521.242 622.318 521.844 621.716 522.586 621.716H524.304C525.046 621.716 525.648 622.318 525.648 623.06V624.777C525.648 625.52 525.046 626.121 524.304 626.121H522.586C521.844 626.121 521.242 625.52 521.242 624.777V623.06Z" fill="white" fill-opacity="0.5"/>
<path d="M538.867 572.074C538.867 571.332 539.469 570.73 540.211 570.73H541.929C542.671 570.73 543.273 571.332 543.273 572.074V573.791C543.273 574.534 542.671 575.135 541.929 575.135H540.211C539.469 575.135 538.867 574.534 538.867 573.791V572.074Z" fill="white" fill-opacity="0.5"/>
<path d="M538.867 589.069C538.867 588.327 539.469 587.725 540.211 587.725H541.929C542.671 587.725 543.273 588.327 543.273 589.069V590.787C543.273 591.529 542.671 592.131 541.929 592.131H540.211C539.469 592.131 538.867 591.529 538.867 590.787V589.069Z" fill="white" fill-opacity="0.5"/>
<path d="M538.867 606.065C538.867 605.322 539.469 604.721 540.211 604.721H541.929C542.671 604.721 543.273 605.322 543.273 606.065V607.782C543.273 608.524 542.671 609.126 541.929 609.126H540.211C539.469 609.126 538.867 608.524 538.867 607.782V606.065Z" fill="white" fill-opacity="0.5"/>
<path d="M538.867 623.06C538.867 622.318 539.469 621.716 540.211 621.716H541.929C542.671 621.716 543.273 622.318 543.273 623.06V624.777C543.273 625.52 542.671 626.121 541.929 626.121H540.211C539.469 626.121 538.867 625.52 538.867 624.777V623.06Z" fill="white" fill-opacity="0.5"/>
<path d="M556.488 572.074C556.488 571.332 557.09 570.73 557.832 570.73H559.55C560.292 570.73 560.894 571.332 560.894 572.074V573.791C560.894 574.534 560.292 575.135 559.55 575.135H557.832C557.09 575.135 556.488 574.534 556.488 573.791V572.074Z" fill="white" fill-opacity="0.5"/>
<path d="M556.488 589.069C556.488 588.327 557.09 587.725 557.832 587.725H559.55C560.292 587.725 560.894 588.327 560.894 589.069V590.787C560.894 591.529 560.292 592.131 559.55 592.131H557.832C557.09 592.131 556.488 591.529 556.488 590.787V589.069Z" fill="white" fill-opacity="0.5"/>
<path d="M556.488 606.065C556.488 605.322 557.09 604.721 557.832 604.721H559.55C560.292 604.721 560.894 605.322 560.894 606.065V607.782C560.894 608.524 560.292 609.126 559.55 609.126H557.832C557.09 609.126 556.488 608.524 556.488 607.782V606.065Z" fill="white" fill-opacity="0.5"/>
<path d="M556.488 623.06C556.488 622.318 557.09 621.716 557.832 621.716H559.55C560.292 621.716 560.894 622.318 560.894 623.06V624.777C560.894 625.52 560.292 626.121 559.55 626.121H557.832C557.09 626.121 556.488 625.52 556.488 624.777V623.06Z" fill="white" fill-opacity="0.5"/>
<path d="M574.109 572.074C574.109 571.332 574.711 570.73 575.453 570.73H577.171C577.913 570.73 578.515 571.332 578.515 572.074V573.791C578.515 574.534 577.913 575.135 577.171 575.135H575.453C574.711 575.135 574.109 574.534 574.109 573.791V572.074Z" fill="white" fill-opacity="0.5"/>
<path d="M574.109 589.069C574.109 588.327 574.711 587.725 575.453 587.725H577.171C577.913 587.725 578.515 588.327 578.515 589.069V590.787C578.515 591.529 577.913 592.131 577.171 592.131H575.453C574.711 592.131 574.109 591.529 574.109 590.787V589.069Z" fill="white" fill-opacity="0.5"/>
<path d="M574.109 606.065C574.109 605.322 574.711 604.721 575.453 604.721H577.171C577.913 604.721 578.515 605.322 578.515 606.065V607.782C578.515 608.524 577.913 609.126 577.171 609.126H575.453C574.711 609.126 574.109 608.524 574.109 607.782V606.065Z" fill="white" fill-opacity="0.5"/>
<path d="M574.109 623.06C574.109 622.318 574.711 621.716 575.453 621.716H577.171C577.913 621.716 578.515 622.318 578.515 623.06V624.777C578.515 625.52 577.913 626.121 577.171 626.121H575.453C574.711 626.121 574.109 625.52 574.109 624.777V623.06Z" fill="white" fill-opacity="0.5"/>
<path d="M591.73 572.074C591.73 571.332 592.332 570.73 593.075 570.73H594.792C595.534 570.73 596.136 571.332 596.136 572.074V573.791C596.136 574.534 595.534 575.135 594.792 575.135H593.075C592.332 575.135 591.73 574.534 591.73 573.791V572.074Z" fill="white" fill-opacity="0.5"/>
<path d="M591.73 589.069C591.73 588.327 592.332 587.725 593.075 587.725H594.792C595.534 587.725 596.136 588.327 596.136 589.069V590.787C596.136 591.529 595.534 592.131 594.792 592.131H593.075C592.332 592.131 591.73 591.529 591.73 590.787V589.069Z" fill="white" fill-opacity="0.5"/>
<path d="M591.73 606.065C591.73 605.322 592.332 604.721 593.075 604.721H594.792C595.534 604.721 596.136 605.322 596.136 606.065V607.782C596.136 608.524 595.534 609.126 594.792 609.126H593.075C592.332 609.126 591.73 608.524 591.73 607.782V606.065Z" fill="white" fill-opacity="0.5"/>
<path d="M591.73 623.06C591.73 622.318 592.332 621.716 593.075 621.716H594.792C595.534 621.716 596.136 622.318 596.136 623.06V624.777C596.136 625.52 595.534 626.121 594.792 626.121H593.075C592.332 626.121 591.73 625.52 591.73 624.777V623.06Z" fill="white" fill-opacity="0.5"/>
<path d="M609.355 572.074C609.355 571.332 609.957 570.73 610.7 570.73H612.417C613.159 570.73 613.761 571.332 613.761 572.074V573.791C613.761 574.534 613.159 575.135 612.417 575.135H610.7C609.957 575.135 609.355 574.534 609.355 573.791V572.074Z" fill="white" fill-opacity="0.5"/>
<path d="M609.355 589.069C609.355 588.327 609.957 587.725 610.7 587.725H612.417C613.159 587.725 613.761 588.327 613.761 589.069V590.787C613.761 591.529 613.159 592.131 612.417 592.131H610.7C609.957 592.131 609.355 591.529 609.355 590.787V589.069Z" fill="white" fill-opacity="0.5"/>
<path d="M609.355 606.065C609.355 605.322 609.957 604.721 610.7 604.721H612.417C613.159 604.721 613.761 605.322 613.761 606.065V607.782C613.761 608.524 613.159 609.126 612.417 609.126H610.7C609.957 609.126 609.355 608.524 609.355 607.782V606.065Z" fill="white" fill-opacity="0.5"/>
<path d="M609.355 623.06C609.355 622.318 609.957 621.716 610.7 621.716H612.417C613.159 621.716 613.761 622.318 613.761 623.06V624.777C613.761 625.52 613.159 626.121 612.417 626.121H610.7C609.957 626.121 609.355 625.52 609.355 624.777V623.06Z" fill="white" fill-opacity="0.5"/>
<path d="M626.977 572.074C626.977 571.332 627.578 570.73 628.321 570.73H630.038C630.78 570.73 631.382 571.332 631.382 572.074V573.791C631.382 574.534 630.78 575.135 630.038 575.135H628.321C627.578 575.135 626.977 574.534 626.977 573.791V572.074Z" fill="white" fill-opacity="0.5"/>
<path d="M626.977 589.069C626.977 588.327 627.578 587.725 628.321 587.725H630.038C630.78 587.725 631.382 588.327 631.382 589.069V590.787C631.382 591.529 630.78 592.131 630.038 592.131H628.321C627.578 592.131 626.977 591.529 626.977 590.787V589.069Z" fill="white" fill-opacity="0.5"/>
<path d="M626.977 606.065C626.977 605.322 627.578 604.721 628.321 604.721H630.038C630.78 604.721 631.382 605.322 631.382 606.065V607.782C631.382 608.524 630.78 609.126 630.038 609.126H628.321C627.578 609.126 626.977 608.524 626.977 607.782V606.065Z" fill="white" fill-opacity="0.5"/>
<path d="M626.977 623.06C626.977 622.318 627.578 621.716 628.321 621.716H630.038C630.78 621.716 631.382 622.318 631.382 623.06V624.777C631.382 625.52 630.78 626.121 630.038 626.121H628.321C627.578 626.121 626.977 625.52 626.977 624.777V623.06Z" fill="white" fill-opacity="0.5"/>
<path d="M644.59 572.074C644.59 571.332 645.192 570.73 645.934 570.73H647.651C648.393 570.73 648.995 571.332 648.995 572.074V573.791C648.995 574.534 648.393 575.135 647.651 575.135H645.934C645.192 575.135 644.59 574.534 644.59 573.791V572.074Z" fill="white" fill-opacity="0.5"/>
<path d="M644.59 589.069C644.59 588.327 645.192 587.725 645.934 587.725H647.651C648.393 587.725 648.995 588.327 648.995 589.069V590.787C648.995 591.529 648.393 592.131 647.651 592.131H645.934C645.192 592.131 644.59 591.529 644.59 590.787V589.069Z" fill="white" fill-opacity="0.5"/>
<path d="M644.59 606.065C644.59 605.322 645.192 604.721 645.934 604.721H647.651C648.393 604.721 648.995 605.322 648.995 606.065V607.782C648.995 608.524 648.393 609.126 647.651 609.126H645.934C645.192 609.126 644.59 608.524 644.59 607.782V606.065Z" fill="white" fill-opacity="0.5"/>
<path d="M644.59 623.06C644.59 622.318 645.192 621.716 645.934 621.716H647.651C648.393 621.716 648.995 622.318 648.995 623.06V624.777C648.995 625.52 648.393 626.121 647.651 626.121H645.934C645.192 626.121 644.59 625.52 644.59 624.777V623.06Z" fill="white" fill-opacity="0.5"/>
<defs>
<filter id="filter0_f_1_4" x="0" y="0" width="1134" height="1099" filterUnits="userSpaceOnUse" color-interpolation-filters="sRGB">
<feFlood flood-opacity="0" result="BackgroundImageFix"/>
<feBlend mode="normal" in="SourceGraphic" in2="BackgroundImageFix" result="shape"/>
<feGaussianBlur stdDeviation="200" result="effect1_foregroundBlur_1_4"/>
</filter>
</defs>
</svg>
