<svg width="1500" height="1000" viewBox="0 0 1500 1000" fill="none" xmlns="http://www.w3.org/2000/svg">
<g clip-path="url(#clip0)">
<rect width="1500" height="1000" fill="#182328"/>
<path d="M742.804 18.3277C756.797 72.1554 756.797 72.1554 799.575 120.41C842.354 168.665 842.354 168.665 884.438 184.379C926.523 200.093 926.523 200.093 943.001 82.2966C959.48 -35.5 959.48 -35.5 844.145 -35.5C728.811 -35.5 728.811 -35.5 742.804 18.3277Z" fill="#25353D"/>
<path d="M996.238 263.149C1059.21 322.616 1059.21 322.616 1113.64 332.214C1168.07 341.812 1168.07 341.812 1265.22 316.585C1362.37 291.358 1362.37 291.358 1431.08 261.889C1499.8 232.42 1499.8 232.42 1526.52 214.98C1553.25 197.54 1553.25 197.54 1553.25 81.0198C1553.25 -35.5 1553.25 -35.5 1259.98 -35.5C966.721 -35.5 966.721 -35.5 949.991 84.0908C933.262 203.682 933.262 203.682 996.238 263.149Z" fill="#3D5866"/>
<path d="M560.513 72.7387C593.12 180.977 593.12 180.977 639.595 175.855C686.07 170.732 686.07 170.732 717.872 121.997C749.675 73.2624 749.675 73.2624 735.538 18.8812C721.401 -35.5 721.401 -35.5 624.654 -35.5C527.906 -35.5 527.906 -35.5 560.513 72.7387Z" fill="#25353D"/>
<path d="M125.007 753.778C303.263 649.148 303.263 649.148 405.246 515.131C507.228 381.114 507.228 381.114 546.988 282.907C586.749 184.701 586.749 184.701 553.581 74.6004C520.414 -35.5 520.414 -35.5 233.582 -35.5C-53.25 -35.5 -53.25 -35.5 -53.25 411.454C-53.25 858.407 -53.25 858.407 125.007 753.778Z" fill="#25353D"/>
<path d="M691.984 209.894C692.23 244.611 692.23 244.611 724.617 256.614C757.004 268.616 757.004 268.616 796.282 220.22C835.56 171.823 835.56 171.823 794.769 125.81C753.979 79.7973 753.979 79.7973 722.858 127.487C691.738 175.178 691.738 175.178 691.984 209.894Z" fill="#3D5866"/>
<path d="M601.836 308.735C685.064 245.347 685.064 245.347 684.826 211.736C684.587 178.126 684.587 178.126 638.827 183.17C593.067 188.214 593.067 188.214 555.838 280.168C518.609 372.123 518.609 372.123 601.836 308.735Z" fill="#25353D"/>
<path d="M764.004 283.464C765.987 293.102 765.987 293.102 833.356 340.242C900.725 387.381 900.725 387.381 975.887 356.081C1051.05 324.781 1051.05 324.781 989.285 266.459C927.522 208.138 927.522 208.138 884.473 192.064C841.424 175.99 841.423 175.99 801.722 224.907C762.021 273.825 762.021 273.825 764.004 283.464Z" fill="#25353D"/>
<path d="M431.555 605.506C547.461 566.287 547.461 566.287 653.19 430.307C758.919 294.327 758.919 294.327 756.988 284.942C755.057 275.557 755.057 275.557 722.161 263.365C689.265 251.174 689.265 251.174 601.097 318.325C512.928 385.476 512.928 385.476 414.288 515.101C315.648 644.725 315.648 644.725 431.555 605.506Z" fill="#25353D"/>
<path d="M649.064 545.938C739.756 527.926 739.756 527.926 817.12 459.853C894.484 391.78 894.484 391.78 828.993 345.954C763.502 300.129 763.502 300.129 660.937 432.039C558.372 563.95 558.372 563.95 649.064 545.938Z" fill="#25353D"/>
<path d="M803.973 561.783C860.347 592.977 860.347 592.977 987.586 513.501C1114.82 434.025 1114.82 434.025 1138.72 391.088C1162.62 348.152 1162.62 348.152 1110.29 338.922C1057.95 329.692 1057.95 329.692 980.077 362.12C902.207 394.548 902.207 394.548 824.903 462.569C747.599 530.59 747.599 530.59 803.973 561.783Z" fill="#E67E17"/>
<path d="M898.792 631.452C931.453 665.071 931.453 665.071 1003.5 597.954C1075.55 530.836 1075.55 530.836 1092.79 488.159C1110.04 445.482 1110.04 445.482 988.086 521.658C866.131 597.833 866.131 597.833 898.792 631.452Z" fill="#3D5866"/>
<path d="M1087.07 611.028C1091.94 688.542 1091.94 688.542 1122.07 714.963C1152.2 741.385 1152.2 741.385 1161.23 738.577C1170.27 735.77 1170.27 735.77 1171.78 734.423C1173.28 733.076 1173.28 733.076 1265.33 516.577C1357.38 300.079 1357.38 300.079 1263.99 324.329C1170.6 348.579 1170.6 348.579 1145.67 393.359C1120.75 438.139 1120.75 438.139 1101.47 485.826C1082.2 533.513 1082.2 533.513 1087.07 611.028Z" fill="#3D5866"/>
<path d="M938.167 693.653C941.2 715.851 941.2 715.851 950.487 721.431C959.774 727.012 959.774 727.012 1022.23 707.344C1084.7 687.677 1084.7 687.677 1080.08 614.199C1075.47 540.721 1075.47 540.721 1005.3 606.088C935.134 671.454 935.134 671.454 938.167 693.653Z" fill="#3D5866"/>
<path d="M698.005 875.909C934.026 716.319 934.026 716.319 930.981 694.036C927.937 671.753 927.937 671.753 893.098 635.892C858.259 600.031 858.259 600.031 799.535 567.537C740.811 535.043 740.811 535.043 645.682 553.936C550.553 572.829 550.553 572.829 428.867 614.004C307.181 655.178 307.181 655.178 126.965 760.957C-53.25 866.736 -53.25 866.736 -53.25 951.118C-53.25 1035.5 -53.25 1035.5 204.367 1035.5C461.984 1035.5 461.984 1035.5 698.005 875.909Z" fill="#3D5866"/>
<path d="M1259.61 735.889C1337.64 739.88 1337.64 739.88 1416.67 490.938C1495.7 241.996 1495.7 241.996 1430.99 269.751C1366.27 297.506 1366.27 297.506 1273.93 514.702C1181.58 731.898 1181.58 731.898 1259.61 735.889Z" fill="#E67E17"/>
<path d="M1013.84 815.863C1062.97 898.735 1062.97 898.735 1104.89 822.474C1146.81 746.213 1146.81 746.213 1117.21 720.254C1087.61 694.296 1087.61 694.296 1026.16 713.644C964.711 732.992 964.711 732.992 1013.84 815.863Z" fill="#3D5866"/>
<path d="M1345.56 757.789C1347.25 771.627 1347.25 771.627 1450.25 881.083C1553.25 990.54 1553.25 990.54 1553.25 598.328C1553.25 206.116 1553.25 206.116 1528.89 222.015C1504.52 237.913 1504.52 237.913 1424.2 490.933C1343.88 743.952 1343.88 743.952 1345.56 757.789Z" fill="#3D5866"/>
<path d="M1218.78 787.91C1260.46 836.515 1260.46 836.515 1300.25 804.106C1340.03 771.698 1340.03 771.698 1338.53 759.372C1337.03 747.045 1337.03 747.045 1257.29 742.967C1177.56 738.889 1177.56 738.889 1177.32 739.097C1177.09 739.305 1177.09 739.305 1218.78 787.91Z" fill="#3D5866"/>
<path d="M1059.36 971.223C1059.5 906.95 1059.5 906.95 1008.1 820.244C956.694 733.538 956.694 733.538 947.345 727.921C937.996 722.303 937.996 722.303 706.403 878.9C474.809 1035.5 474.809 1035.5 767.016 1035.5C1059.22 1035.5 1059.22 1035.5 1059.36 971.223Z" fill="#E67E17"/>
<path d="M1231.18 938.964C1256.08 842.428 1256.08 842.428 1213.49 792.766C1170.89 743.104 1170.89 743.104 1162.34 745.761C1153.79 748.418 1153.79 748.418 1110.23 827.658C1066.67 906.898 1066.67 906.898 1066.53 971.198C1066.39 1035.5 1066.39 1035.5 1136.34 1035.5C1206.29 1035.5 1206.29 1035.5 1231.18 938.964Z" fill="#25353D"/>
<path d="M1448.38 889.574C1343.51 778.13 1343.51 778.13 1303.35 810.842C1263.2 843.554 1263.2 843.554 1238.45 939.527C1213.69 1035.5 1213.69 1035.5 1383.47 1035.5C1553.25 1035.5 1553.25 1035.5 1553.25 1018.26C1553.25 1001.02 1553.25 1001.02 1448.38 889.574Z" fill="#E67E17"/>
</g>
<defs>
<clipPath id="clip0">
<rect width="1500" height="1000" fill="white"/>
</clipPath>
</defs>
</svg>
