<svg width="580" height="575" viewBox="0 0 580 575" fill="none" xmlns="http://www.w3.org/2000/svg">
<rect x="20.5" y="20.5" width="559" height="554" fill="#F4F6F8" stroke="black"/>
<rect x="103" y="113" width="424" height="381" fill="white"/>
<path d="M134.125 187.958C134.125 182.416 134.125 179.645 135.204 177.528C136.152 175.666 137.666 174.152 139.528 173.204C141.645 172.125 144.416 172.125 149.958 172.125H162.042C167.584 172.125 170.355 172.125 172.472 173.204C174.334 174.152 175.848 175.666 176.796 177.528C177.875 179.645 177.875 182.416 177.875 187.958V200.042C177.875 205.584 177.875 208.355 176.796 210.472C175.848 212.334 174.334 213.848 172.472 214.796C170.355 215.875 167.584 215.875 162.042 215.875H149.958C144.416 215.875 141.645 215.875 139.528 214.796C137.666 213.848 136.152 212.334 135.204 210.472C134.125 208.355 134.125 205.584 134.125 200.042V187.958Z" fill="#00005B"/>
<path d="M199.592 201L200.654 197.958H205.568L206.63 201H209.06L204.308 187.842H201.95L197.198 201H199.592ZM202.832 191.766C202.958 191.406 203.066 191.01 203.12 190.758C203.156 191.028 203.282 191.424 203.39 191.766L204.902 196.014H201.338L202.832 191.766ZM212.6 201V198.606L213.896 197.256L216.218 201H218.738L215.426 195.636L218.81 192.108H216.056L212.6 195.834V187.608H210.422V201H212.6ZM221.17 190.326C221.89 190.326 222.484 189.732 222.484 188.994C222.484 188.256 221.89 187.68 221.17 187.68C220.414 187.68 219.82 188.256 219.82 188.994C219.82 189.732 220.414 190.326 221.17 190.326ZM220.072 201H222.268V192.108H220.072V201ZM223.852 198.3C223.852 200.046 225.256 201.234 227.47 201.234C229.666 201.234 231.196 200.118 231.196 198.318C231.196 196.95 230.44 196.266 228.946 195.924L227.344 195.546C226.588 195.366 226.192 195.042 226.192 194.538C226.192 193.872 226.696 193.476 227.56 193.476C228.406 193.476 228.91 193.962 228.928 194.718H231.016C230.998 192.99 229.648 191.838 227.65 191.838C225.598 191.838 224.122 192.882 224.122 194.628C224.122 196.05 224.896 196.806 226.498 197.166L228.1 197.544C228.892 197.724 229.126 198.048 229.126 198.498C229.126 199.146 228.568 199.56 227.542 199.56C226.534 199.56 225.958 199.074 225.94 198.3H223.852ZM235.064 201V195.96C235.064 194.52 235.91 193.836 236.954 193.836C237.998 193.836 238.664 194.502 238.664 195.744V201H240.86V195.96C240.86 194.502 241.67 193.818 242.732 193.818C243.776 193.818 244.46 194.484 244.46 195.762V201H246.638V195.186C246.638 193.134 245.45 191.838 243.29 191.838C241.94 191.838 240.896 192.504 240.446 193.53C239.978 192.504 239.042 191.838 237.692 191.838C236.414 191.838 235.514 192.414 235.064 193.152L234.884 192.108H232.868V201H235.064ZM252.772 201.234C255.094 201.234 256.714 200.064 257.092 198.12H255.058C254.806 198.966 254.014 199.434 252.808 199.434C251.35 199.434 250.522 198.642 250.36 197.076L257.056 197.058V196.392C257.056 193.62 255.364 191.838 252.7 191.838C250.09 191.838 248.272 193.764 248.272 196.554C248.272 199.308 250.126 201.234 252.772 201.234ZM252.718 193.638C254.032 193.638 254.878 194.448 254.878 195.672H250.414C250.63 194.34 251.422 193.638 252.718 193.638ZM261.75 201V193.944H263.478V192.108H261.75V189.336H259.554V192.108H257.844V193.944H259.554V201H261.75Z" fill="#0F1922"/>
<rect x="467" y="178" width="32" height="32" rx="16" fill="#C948DE"/>
<path d="M477 194.444L480.514 198L490 190" stroke="white" stroke-width="2" stroke-linecap="round"/>
<path d="M131 235H499" stroke="black" stroke-opacity="0.1"/>
<path d="M134.125 285.958C134.125 280.416 134.125 277.645 135.204 275.528C136.152 273.666 137.666 272.152 139.528 271.204C141.645 270.125 144.416 270.125 149.958 270.125H162.042C167.584 270.125 170.355 270.125 172.472 271.204C174.334 272.152 175.848 273.666 176.796 275.528C177.875 277.645 177.875 280.416 177.875 285.958V298.042C177.875 303.584 177.875 306.355 176.796 308.472C175.848 310.334 174.334 311.848 172.472 312.796C170.355 313.875 167.584 313.875 162.042 313.875H149.958C144.416 313.875 141.645 313.875 139.528 312.796C137.666 311.848 136.152 310.334 135.204 308.472C134.125 306.355 134.125 303.584 134.125 298.042V285.958Z" fill="#00005B"/>
<path d="M204.02 299.216C207.134 299.216 209.546 297.38 210.05 294.608H207.656C207.224 296.066 205.856 297.002 204.074 297.002C201.662 297.002 200.114 295.202 200.114 292.412C200.114 289.604 201.644 287.84 204.074 287.84C205.82 287.84 207.134 288.74 207.584 290.27H210.014C209.564 287.444 207.242 285.626 204.128 285.626C200.276 285.626 197.702 288.344 197.702 292.43C197.702 296.552 200.186 299.216 204.02 299.216ZM212.688 299L213.75 295.958H218.664L219.726 299H222.156L217.404 285.842H215.046L210.294 299H212.688ZM215.928 289.766C216.054 289.406 216.162 289.01 216.216 288.758C216.252 289.028 216.378 289.424 216.486 289.766L217.998 294.014H214.434L215.928 289.766ZM229.008 294.464C231.636 294.464 233.364 292.682 233.364 290.144C233.364 287.57 231.654 285.842 229.008 285.842H223.806V299H226.11V294.464H229.008ZM228.558 287.894C230.088 287.894 230.952 288.686 230.952 290.126C230.952 291.566 230.106 292.412 228.522 292.412H226.11V287.894H228.558ZM234.15 287.966H238.002V299H240.306V287.966H244.158V285.842H234.15V287.966ZM250.954 299.216C254.068 299.216 256.48 297.38 256.984 294.608H254.59C254.158 296.066 252.79 297.002 251.008 297.002C248.596 297.002 247.048 295.202 247.048 292.412C247.048 289.604 248.578 287.84 251.008 287.84C252.754 287.84 254.068 288.74 254.518 290.27H256.948C256.498 287.444 254.176 285.626 251.062 285.626C247.21 285.626 244.636 288.344 244.636 292.43C244.636 296.552 247.12 299.216 250.954 299.216ZM261.354 299V293.42H267.186V299H269.49V285.842H267.186V291.278H261.354V285.842H259.05V299H261.354ZM273.543 299L274.605 295.958H279.519L280.581 299H283.011L278.259 285.842H275.901L271.149 299H273.543ZM276.783 289.766C276.909 289.406 277.017 289.01 277.071 288.758C277.107 289.028 277.233 289.424 277.341 289.766L278.853 294.014H275.289L276.783 289.766Z" fill="#0F1922"/>
<rect x="467.5" y="276.5" width="31" height="31" rx="15.5" stroke="#C948DE"/>
<path d="M477 292.444L480.514 296L490 288" stroke="white" stroke-width="2" stroke-linecap="round"/>
<path d="M131 329H499" stroke="black" stroke-opacity="0.1"/>
<path d="M134.125 379.958C134.125 374.416 134.125 371.645 135.204 369.528C136.152 367.666 137.666 366.152 139.528 365.204C141.645 364.125 144.416 364.125 149.958 364.125H162.042C167.584 364.125 170.355 364.125 172.472 365.204C174.334 366.152 175.848 367.666 176.796 369.528C177.875 371.645 177.875 374.416 177.875 379.958V392.042C177.875 397.584 177.875 400.355 176.796 402.472C175.848 404.334 174.334 405.848 172.472 406.796C170.355 407.875 167.584 407.875 162.042 407.875H149.958C144.416 407.875 141.645 407.875 139.528 406.796C137.666 405.848 136.152 404.334 135.204 402.472C134.125 400.355 134.125 397.584 134.125 392.042V379.958Z" fill="#470137"/>
<path d="M200.762 393V387.42H206.594V393H208.898V379.842H206.594V385.278H200.762V379.842H198.458V393H200.762ZM210.971 388.536C210.971 391.308 212.969 393.216 215.723 393.216C218.477 393.216 220.475 391.308 220.475 388.536C220.475 385.764 218.477 383.856 215.723 383.856C212.969 383.856 210.971 385.764 210.971 388.536ZM213.167 388.536C213.167 386.916 214.211 385.818 215.723 385.818C217.235 385.818 218.279 386.916 218.279 388.536C218.279 390.156 217.235 391.254 215.723 391.254C214.211 391.254 213.167 390.156 213.167 388.536ZM224.412 393V388.212C224.412 386.772 225.24 385.836 226.59 385.836C227.724 385.836 228.462 386.556 228.462 388.05V393H230.658V387.528C230.658 385.224 229.506 383.838 227.274 383.838C226.068 383.838 224.988 384.36 224.43 385.26L224.25 384.108H222.216V393H224.412ZM236.794 393.234C239.116 393.234 240.736 392.064 241.114 390.12H239.08C238.828 390.966 238.036 391.434 236.83 391.434C235.372 391.434 234.544 390.642 234.382 389.076L241.078 389.058V388.392C241.078 385.62 239.386 383.838 236.722 383.838C234.112 383.838 232.294 385.764 232.294 388.554C232.294 391.308 234.148 393.234 236.794 393.234ZM236.74 385.638C238.054 385.638 238.9 386.448 238.9 387.672H234.436C234.652 386.34 235.444 385.638 236.74 385.638ZM241.762 397.122C242.248 397.248 242.788 397.32 243.4 397.32C244.858 397.32 245.794 396.636 246.46 394.98L250.816 384.108H248.548L246.136 390.588L243.85 384.108H241.528L245.11 393.378L244.858 394.044C244.48 395.088 243.94 395.286 243.076 395.286H241.762V397.122ZM252.064 397.122H254.26V391.812C254.818 392.712 255.97 393.234 257.302 393.234C259.948 393.234 261.46 391.218 261.46 388.446C261.46 385.656 259.804 383.838 257.302 383.838C255.952 383.838 254.782 384.432 254.242 385.458L254.098 384.108H252.064V397.122ZM254.278 388.554C254.278 386.952 255.268 385.836 256.78 385.836C258.328 385.836 259.246 386.97 259.246 388.554C259.246 390.138 258.328 391.254 256.78 391.254C255.268 391.254 254.278 390.156 254.278 388.554ZM262.686 388.536C262.686 391.308 264.684 393.216 267.438 393.216C270.192 393.216 272.19 391.308 272.19 388.536C272.19 385.764 270.192 383.856 267.438 383.856C264.684 383.856 262.686 385.764 262.686 388.536ZM264.882 388.536C264.882 386.916 265.926 385.818 267.438 385.818C268.95 385.818 269.994 386.916 269.994 388.536C269.994 390.156 268.95 391.254 267.438 391.254C265.926 391.254 264.882 390.156 264.882 388.536ZM276.867 393V385.944H278.595V384.108H276.867V381.336H274.671V384.108H272.961V385.944H274.671V393H276.867Z" fill="#0F1922"/>
<rect x="467" y="370" width="32" height="32" rx="16" fill="#C948DE"/>
<path d="M477 386.444L480.514 390L490 382" stroke="white" stroke-width="2" stroke-linecap="round"/>
<path d="M131 423H499" stroke="black" stroke-opacity="0.1"/>
<path fill-rule="evenodd" clip-rule="evenodd" d="M72.2565 479.955C63.8424 477.551 55.1306 475.516 47.5809 471.368C47.1305 471.122 46.5551 471.15 46.2924 471.434C46.0334 471.719 46.1842 472.149 46.6339 472.398C54.3603 476.642 63.2617 478.755 71.8715 481.215C72.3801 481.362 72.8811 481.196 72.9862 480.849C73.095 480.502 72.7651 480.103 72.2565 479.955Z" fill="#280F2C"/>
<path fill-rule="evenodd" clip-rule="evenodd" d="M70.7619 488.579C67.6819 489.537 64.4728 490.012 60.8318 489.699C60.3118 489.653 59.9224 489.921 59.9573 490.294C59.996 490.669 60.4489 491.009 60.9653 491.053C64.9244 491.395 68.4152 490.891 71.7636 489.851C72.2051 489.715 72.3389 489.319 72.0598 488.968C71.7844 488.617 71.1998 488.442 70.7619 488.579Z" fill="#280F2C"/>
<path fill-rule="evenodd" clip-rule="evenodd" d="M73.2257 508.7C71.2566 511.218 68.2823 512.803 64.2063 513.431C63.7258 513.505 63.4943 513.865 63.6931 514.234C63.8882 514.603 64.4396 514.843 64.9201 514.769C69.4312 514.073 72.7283 512.32 74.9088 509.533C75.1435 509.235 74.9528 508.805 74.49 508.576C74.0236 508.346 73.4567 508.401 73.2257 508.7Z" fill="#280F2C"/>
<path fill-rule="evenodd" clip-rule="evenodd" d="M113.819 523.71C114.694 523.323 115.506 522.87 116.233 522.351C116.557 522.12 117.155 521.605 117.367 521.083C117.595 520.527 117.44 519.965 116.775 519.513C115.891 518.913 115.104 518.739 114.449 518.784C113.818 518.826 113.262 519.092 112.838 519.535C112.027 520.381 111.702 521.919 111.756 522.861C110.843 523.199 109.87 523.466 108.852 523.662C101.272 525.126 91.7571 521.288 85.4937 514.384C83.3018 511.967 82.9877 508.041 83.3608 503.996C83.9406 497.697 86.3319 491.129 86.9414 489.18C87.0903 488.699 87.101 488.392 87.0794 488.325C86.9813 487.994 86.6935 487.838 86.4861 487.752C86.1851 487.631 85.926 487.605 85.7068 487.623C85.4102 487.648 85.1418 487.76 84.967 487.997C84.8722 488.129 84.8028 488.329 84.7519 488.548C84.7189 488.701 84.7193 488.878 84.6459 488.974C84.1714 489.588 83.6421 490.171 83.1188 490.76C81.3683 492.743 79.3229 494.493 77.1151 496.196C70.1009 501.61 63.154 507.454 53.2541 510.357C52.8101 510.487 52.6653 510.88 52.9358 511.233C53.2027 511.586 53.7817 511.767 54.2295 511.637C64.3273 508.677 71.4445 502.746 78.5985 497.226C80.4761 495.776 82.2394 494.294 83.8104 492.67C82.7986 496.016 81.5875 500.699 81.3802 505.074C81.1954 508.965 81.8477 512.622 83.9782 514.971C90.8395 522.534 101.345 526.59 109.645 524.986C110.533 524.814 111.394 524.594 112.213 524.325C114.78 530.115 122.494 534.227 130.374 533.898C130.88 533.877 131.185 533.555 131.059 533.179C130.93 532.802 130.419 532.515 129.913 532.535C122.813 532.832 115.874 529.01 113.819 523.71ZM113.709 521.973C114.087 521.762 114.446 521.535 114.789 521.293C114.971 521.162 115.294 520.904 115.478 520.616C115.52 520.549 115.555 520.434 115.569 520.381C115.337 520.226 115.148 520.131 114.97 520.143C114.748 520.158 114.6 520.293 114.451 520.448C114.077 520.836 113.834 521.419 113.709 521.973Z" fill="#280F2C"/>
<path fill-rule="evenodd" clip-rule="evenodd" d="M448.855 81.2856C451.529 82.3026 454.166 83.3323 456.869 84.2709C457.45 84.4749 458.081 84.1704 458.281 83.5928C458.486 83.0121 458.178 82.378 457.6 82.1771C454.913 81.2416 452.298 80.2214 449.643 79.2106C449.068 78.994 448.428 79.2828 448.211 79.8509C447.995 80.4254 448.28 81.069 448.855 81.2856Z" fill="#2E1133"/>
<path fill-rule="evenodd" clip-rule="evenodd" d="M445.097 57.9195C453.582 54.796 461.904 51.2457 470.316 47.9434C470.888 47.7174 471.167 47.0738 470.944 46.5056C470.718 45.9343 470.078 45.6519 469.503 45.8747C461.106 49.174 452.8 52.7212 444.331 55.8352C443.753 56.0487 443.461 56.6858 443.671 57.2603C443.885 57.8379 444.522 58.1298 445.097 57.9195Z" fill="#2E1133"/>
<path fill-rule="evenodd" clip-rule="evenodd" d="M423.604 33.4139C428.084 27.2203 432.397 20.8919 436.945 14.7486C437.306 14.2557 437.203 13.5621 436.713 13.1979C436.22 12.8307 435.523 12.9374 435.159 13.4271C430.608 19.5798 426.288 25.9146 421.805 32.1175C421.448 32.6135 421.557 33.3072 422.053 33.6651C422.552 34.0261 423.243 33.913 423.604 33.4139Z" fill="#2E1133"/>
<rect width="207" height="63" transform="translate(24 61)" fill="#280F2C"/>
<path d="M63.416 101.336C62.12 101.336 60.976 101.104 59.984 100.64C58.992 100.176 58.216 99.512 57.656 98.648C57.096 97.784 56.816 96.744 56.816 95.528V94.856H59.936V95.528C59.936 96.536 60.248 97.296 60.872 97.808C61.496 98.304 62.344 98.552 63.416 98.552C64.504 98.552 65.312 98.336 65.84 97.904C66.384 97.472 66.656 96.92 66.656 96.248C66.656 95.784 66.52 95.408 66.248 95.12C65.992 94.832 65.608 94.6 65.096 94.424C64.6 94.232 63.992 94.056 63.272 93.896L62.72 93.776C61.568 93.52 60.576 93.2 59.744 92.816C58.928 92.416 58.296 91.896 57.848 91.256C57.416 90.616 57.2 89.784 57.2 88.76C57.2 87.736 57.44 86.864 57.92 86.144C58.416 85.408 59.104 84.848 59.984 84.464C60.88 84.064 61.928 83.864 63.128 83.864C64.328 83.864 65.392 84.072 66.32 84.488C67.264 84.888 68 85.496 68.528 86.312C69.072 87.112 69.344 88.12 69.344 89.336V90.056H66.224V89.336C66.224 88.696 66.096 88.184 65.84 87.8C65.6 87.4 65.248 87.112 64.784 86.936C64.32 86.744 63.768 86.648 63.128 86.648C62.168 86.648 61.456 86.832 60.992 87.2C60.544 87.552 60.32 88.04 60.32 88.664C60.32 89.08 60.424 89.432 60.632 89.72C60.856 90.008 61.184 90.248 61.616 90.44C62.048 90.632 62.6 90.8 63.272 90.944L63.824 91.064C65.024 91.32 66.064 91.648 66.944 92.048C67.84 92.448 68.536 92.976 69.032 93.632C69.528 94.288 69.776 95.128 69.776 96.152C69.776 97.176 69.512 98.08 68.984 98.864C68.472 99.632 67.736 100.24 66.776 100.688C65.832 101.12 64.712 101.336 63.416 101.336ZM72.2347 105.8V89.096H75.2107V90.536H75.6427C75.9147 90.072 76.3387 89.664 76.9147 89.312C77.4907 88.944 78.3147 88.76 79.3867 88.76C80.3467 88.76 81.2347 89 82.0507 89.48C82.8667 89.944 83.5227 90.632 84.0187 91.544C84.5147 92.456 84.7627 93.56 84.7627 94.856V95.24C84.7627 96.536 84.5147 97.64 84.0187 98.552C83.5227 99.464 82.8667 100.16 82.0507 100.64C81.2347 101.104 80.3467 101.336 79.3867 101.336C78.6667 101.336 78.0587 101.248 77.5627 101.072C77.0827 100.912 76.6907 100.704 76.3867 100.448C76.0987 100.176 75.8667 99.904 75.6907 99.632H75.2587V105.8H72.2347ZM78.4747 98.696C79.4187 98.696 80.1947 98.4 80.8027 97.808C81.4267 97.2 81.7387 96.32 81.7387 95.168V94.928C81.7387 93.776 81.4267 92.904 80.8027 92.312C80.1787 91.704 79.4027 91.4 78.4747 91.4C77.5467 91.4 76.7707 91.704 76.1467 92.312C75.5227 92.904 75.2107 93.776 75.2107 94.928V95.168C75.2107 96.32 75.5227 97.2 76.1467 97.808C76.7707 98.4 77.5467 98.696 78.4747 98.696ZM91.2354 101.336C90.3874 101.336 89.6274 101.192 88.9554 100.904C88.2834 100.6 87.7474 100.168 87.3474 99.608C86.9634 99.032 86.7714 98.336 86.7714 97.52C86.7714 96.704 86.9634 96.024 87.3474 95.48C87.7474 94.92 88.2914 94.504 88.9794 94.232C89.6834 93.944 90.4834 93.8 91.3794 93.8H94.6434V93.128C94.6434 92.568 94.4674 92.112 94.1154 91.76C93.7634 91.392 93.2034 91.208 92.4354 91.208C91.6834 91.208 91.1234 91.384 90.7554 91.736C90.3874 92.072 90.1474 92.512 90.0354 93.056L87.2514 92.12C87.4434 91.512 87.7474 90.96 88.1634 90.464C88.5954 89.952 89.1634 89.544 89.8674 89.24C90.5874 88.92 91.4594 88.76 92.4834 88.76C94.0514 88.76 95.2914 89.152 96.2034 89.936C97.1154 90.72 97.5714 91.856 97.5714 93.344V97.784C97.5714 98.264 97.7954 98.504 98.2434 98.504H99.2034V101H97.1874C96.5954 101 96.1074 100.856 95.7234 100.568C95.3394 100.28 95.1474 99.896 95.1474 99.416V99.392H94.6914C94.6274 99.584 94.4834 99.84 94.2594 100.16C94.0354 100.464 93.6834 100.736 93.2034 100.976C92.7234 101.216 92.0674 101.336 91.2354 101.336ZM91.7634 98.888C92.6114 98.888 93.2994 98.656 93.8274 98.192C94.3714 97.712 94.6434 97.08 94.6434 96.296V96.056H91.5954C91.0354 96.056 90.5954 96.176 90.2754 96.416C89.9554 96.656 89.7954 96.992 89.7954 97.424C89.7954 97.856 89.9634 98.208 90.2994 98.48C90.6354 98.752 91.1234 98.888 91.7634 98.888ZM101.414 101V89.096H104.39V90.392H104.822C105.03 89.992 105.374 89.648 105.854 89.36C106.334 89.056 106.966 88.904 107.75 88.904C108.598 88.904 109.278 89.072 109.79 89.408C110.302 89.728 110.694 90.152 110.966 90.68H111.398C111.67 90.168 112.054 89.744 112.55 89.408C113.046 89.072 113.75 88.904 114.662 88.904C115.398 88.904 116.062 89.064 116.654 89.384C117.262 89.688 117.742 90.16 118.094 90.8C118.462 91.424 118.646 92.216 118.646 93.176V101H115.622V93.392C115.622 92.736 115.454 92.248 115.118 91.928C114.782 91.592 114.31 91.424 113.702 91.424C113.014 91.424 112.478 91.648 112.094 92.096C111.726 92.528 111.542 93.152 111.542 93.968V101H108.518V93.392C108.518 92.736 108.35 92.248 108.014 91.928C107.678 91.592 107.206 91.424 106.598 91.424C105.91 91.424 105.374 91.648 104.99 92.096C104.622 92.528 104.438 93.152 104.438 93.968V101H101.414ZM127.896 101V84.2H138.457V87.08H131.065V91.136H137.881V94.016H131.065V101H127.896ZM140.813 101V89.096H143.837V101H140.813ZM142.325 87.704C141.781 87.704 141.317 87.528 140.933 87.176C140.565 86.824 140.381 86.36 140.381 85.784C140.381 85.208 140.565 84.744 140.933 84.392C141.317 84.04 141.781 83.864 142.325 83.864C142.885 83.864 143.349 84.04 143.717 84.392C144.085 84.744 144.269 85.208 144.269 85.784C144.269 86.36 144.085 86.824 143.717 87.176C143.349 87.528 142.885 87.704 142.325 87.704ZM147.188 101V84.2H150.212V101H147.188ZM158.123 101C157.339 101 156.699 100.76 156.203 100.28C155.723 99.784 155.483 99.128 155.483 98.312V91.592H152.507V89.096H155.483V85.4H158.507V89.096H161.771V91.592H158.507V97.784C158.507 98.264 158.731 98.504 159.179 98.504H161.483V101H158.123ZM169.51 101.336C168.326 101.336 167.278 101.088 166.366 100.592C165.47 100.08 164.766 99.368 164.254 98.456C163.758 97.528 163.51 96.44 163.51 95.192V94.904C163.51 93.656 163.758 92.576 164.254 91.664C164.75 90.736 165.446 90.024 166.342 89.528C167.238 89.016 168.278 88.76 169.462 88.76C170.63 88.76 171.646 89.024 172.51 89.552C173.374 90.064 174.046 90.784 174.526 91.712C175.006 92.624 175.246 93.688 175.246 94.904V95.936H166.582C166.614 96.752 166.918 97.416 167.494 97.928C168.07 98.44 168.774 98.696 169.606 98.696C170.454 98.696 171.078 98.512 171.478 98.144C171.878 97.776 172.182 97.368 172.39 96.92L174.862 98.216C174.638 98.632 174.31 99.088 173.878 99.584C173.462 100.064 172.902 100.48 172.198 100.832C171.494 101.168 170.598 101.336 169.51 101.336ZM166.606 93.68H172.174C172.11 92.992 171.83 92.44 171.334 92.024C170.854 91.608 170.222 91.4 169.438 91.4C168.622 91.4 167.974 91.608 167.494 92.024C167.014 92.44 166.718 92.992 166.606 93.68ZM177.938 101V89.096H180.914V90.44H181.346C181.522 89.96 181.81 89.608 182.21 89.384C182.626 89.16 183.106 89.048 183.65 89.048H185.09V91.736H183.602C182.834 91.736 182.202 91.944 181.706 92.36C181.21 92.76 180.962 93.384 180.962 94.232V101H177.938ZM192.116 101.336C190.564 101.336 189.292 101 188.3 100.328C187.308 99.656 186.708 98.696 186.5 97.448L189.284 96.728C189.396 97.288 189.58 97.728 189.836 98.048C190.108 98.368 190.436 98.6 190.82 98.744C191.22 98.872 191.652 98.936 192.116 98.936C192.82 98.936 193.34 98.816 193.676 98.576C194.012 98.32 194.18 98.008 194.18 97.64C194.18 97.272 194.02 96.992 193.7 96.8C193.38 96.592 192.868 96.424 192.164 96.296L191.492 96.176C190.66 96.016 189.9 95.8 189.212 95.528C188.524 95.24 187.972 94.848 187.556 94.352C187.14 93.856 186.932 93.216 186.932 92.432C186.932 91.248 187.364 90.344 188.228 89.72C189.092 89.08 190.228 88.76 191.636 88.76C192.964 88.76 194.068 89.056 194.948 89.648C195.828 90.24 196.404 91.016 196.676 91.976L193.868 92.84C193.74 92.232 193.476 91.8 193.076 91.544C192.692 91.288 192.212 91.16 191.636 91.16C191.06 91.16 190.62 91.264 190.316 91.472C190.012 91.664 189.86 91.936 189.86 92.288C189.86 92.672 190.02 92.96 190.34 93.152C190.66 93.328 191.092 93.464 191.636 93.56L192.308 93.68C193.204 93.84 194.012 94.056 194.732 94.328C195.468 94.584 196.044 94.96 196.46 95.456C196.892 95.936 197.108 96.592 197.108 97.424C197.108 98.672 196.652 99.64 195.74 100.328C194.844 101 193.636 101.336 192.116 101.336Z" fill="white"/>
<rect x="10.5" y="10.5" width="559" height="554" fill="#F4F6F8" stroke="black"/>
<rect x="103" y="113" width="424" height="381" fill="white"/>
<path d="M134.125 187.958C134.125 182.416 134.125 179.645 135.204 177.528C136.152 175.666 137.666 174.152 139.528 173.204C141.645 172.125 144.416 172.125 149.958 172.125H162.042C167.584 172.125 170.355 172.125 172.472 173.204C174.334 174.152 175.848 175.666 176.796 177.528C177.875 179.645 177.875 182.416 177.875 187.958V200.042C177.875 205.584 177.875 208.355 176.796 210.472C175.848 212.334 174.334 213.848 172.472 214.796C170.355 215.875 167.584 215.875 162.042 215.875H149.958C144.416 215.875 141.645 215.875 139.528 214.796C137.666 213.848 136.152 212.334 135.204 210.472C134.125 208.355 134.125 205.584 134.125 200.042V187.958Z" fill="#00005B"/>
<path d="M199.592 201L200.654 197.958H205.568L206.63 201H209.06L204.308 187.842H201.95L197.198 201H199.592ZM202.832 191.766C202.958 191.406 203.066 191.01 203.12 190.758C203.156 191.028 203.282 191.424 203.39 191.766L204.902 196.014H201.338L202.832 191.766ZM212.6 201V198.606L213.896 197.256L216.218 201H218.738L215.426 195.636L218.81 192.108H216.056L212.6 195.834V187.608H210.422V201H212.6ZM221.17 190.326C221.89 190.326 222.484 189.732 222.484 188.994C222.484 188.256 221.89 187.68 221.17 187.68C220.414 187.68 219.82 188.256 219.82 188.994C219.82 189.732 220.414 190.326 221.17 190.326ZM220.072 201H222.268V192.108H220.072V201ZM223.852 198.3C223.852 200.046 225.256 201.234 227.47 201.234C229.666 201.234 231.196 200.118 231.196 198.318C231.196 196.95 230.44 196.266 228.946 195.924L227.344 195.546C226.588 195.366 226.192 195.042 226.192 194.538C226.192 193.872 226.696 193.476 227.56 193.476C228.406 193.476 228.91 193.962 228.928 194.718H231.016C230.998 192.99 229.648 191.838 227.65 191.838C225.598 191.838 224.122 192.882 224.122 194.628C224.122 196.05 224.896 196.806 226.498 197.166L228.1 197.544C228.892 197.724 229.126 198.048 229.126 198.498C229.126 199.146 228.568 199.56 227.542 199.56C226.534 199.56 225.958 199.074 225.94 198.3H223.852ZM235.064 201V195.96C235.064 194.52 235.91 193.836 236.954 193.836C237.998 193.836 238.664 194.502 238.664 195.744V201H240.86V195.96C240.86 194.502 241.67 193.818 242.732 193.818C243.776 193.818 244.46 194.484 244.46 195.762V201H246.638V195.186C246.638 193.134 245.45 191.838 243.29 191.838C241.94 191.838 240.896 192.504 240.446 193.53C239.978 192.504 239.042 191.838 237.692 191.838C236.414 191.838 235.514 192.414 235.064 193.152L234.884 192.108H232.868V201H235.064ZM252.772 201.234C255.094 201.234 256.714 200.064 257.092 198.12H255.058C254.806 198.966 254.014 199.434 252.808 199.434C251.35 199.434 250.522 198.642 250.36 197.076L257.056 197.058V196.392C257.056 193.62 255.364 191.838 252.7 191.838C250.09 191.838 248.272 193.764 248.272 196.554C248.272 199.308 250.126 201.234 252.772 201.234ZM252.718 193.638C254.032 193.638 254.878 194.448 254.878 195.672H250.414C250.63 194.34 251.422 193.638 252.718 193.638ZM261.75 201V193.944H263.478V192.108H261.75V189.336H259.554V192.108H257.844V193.944H259.554V201H261.75Z" fill="#0F1922"/>
<rect x="467" y="178" width="32" height="32" rx="16" fill="#C948DE"/>
<path d="M477 194.444L480.514 198L490 190" stroke="white" stroke-width="2" stroke-linecap="round"/>
<path d="M131 235H499" stroke="black" stroke-opacity="0.1"/>
<path d="M134.125 285.958C134.125 280.416 134.125 277.645 135.204 275.528C136.152 273.666 137.666 272.152 139.528 271.204C141.645 270.125 144.416 270.125 149.958 270.125H162.042C167.584 270.125 170.355 270.125 172.472 271.204C174.334 272.152 175.848 273.666 176.796 275.528C177.875 277.645 177.875 280.416 177.875 285.958V298.042C177.875 303.584 177.875 306.355 176.796 308.472C175.848 310.334 174.334 311.848 172.472 312.796C170.355 313.875 167.584 313.875 162.042 313.875H149.958C144.416 313.875 141.645 313.875 139.528 312.796C137.666 311.848 136.152 310.334 135.204 308.472C134.125 306.355 134.125 303.584 134.125 298.042V285.958Z" fill="#00005B"/>
<path d="M204.02 299.216C207.134 299.216 209.546 297.38 210.05 294.608H207.656C207.224 296.066 205.856 297.002 204.074 297.002C201.662 297.002 200.114 295.202 200.114 292.412C200.114 289.604 201.644 287.84 204.074 287.84C205.82 287.84 207.134 288.74 207.584 290.27H210.014C209.564 287.444 207.242 285.626 204.128 285.626C200.276 285.626 197.702 288.344 197.702 292.43C197.702 296.552 200.186 299.216 204.02 299.216ZM212.688 299L213.75 295.958H218.664L219.726 299H222.156L217.404 285.842H215.046L210.294 299H212.688ZM215.928 289.766C216.054 289.406 216.162 289.01 216.216 288.758C216.252 289.028 216.378 289.424 216.486 289.766L217.998 294.014H214.434L215.928 289.766ZM229.008 294.464C231.636 294.464 233.364 292.682 233.364 290.144C233.364 287.57 231.654 285.842 229.008 285.842H223.806V299H226.11V294.464H229.008ZM228.558 287.894C230.088 287.894 230.952 288.686 230.952 290.126C230.952 291.566 230.106 292.412 228.522 292.412H226.11V287.894H228.558ZM234.15 287.966H238.002V299H240.306V287.966H244.158V285.842H234.15V287.966ZM250.954 299.216C254.068 299.216 256.48 297.38 256.984 294.608H254.59C254.158 296.066 252.79 297.002 251.008 297.002C248.596 297.002 247.048 295.202 247.048 292.412C247.048 289.604 248.578 287.84 251.008 287.84C252.754 287.84 254.068 288.74 254.518 290.27H256.948C256.498 287.444 254.176 285.626 251.062 285.626C247.21 285.626 244.636 288.344 244.636 292.43C244.636 296.552 247.12 299.216 250.954 299.216ZM261.354 299V293.42H267.186V299H269.49V285.842H267.186V291.278H261.354V285.842H259.05V299H261.354ZM273.543 299L274.605 295.958H279.519L280.581 299H283.011L278.259 285.842H275.901L271.149 299H273.543ZM276.783 289.766C276.909 289.406 277.017 289.01 277.071 288.758C277.107 289.028 277.233 289.424 277.341 289.766L278.853 294.014H275.289L276.783 289.766Z" fill="#0F1922"/>
<rect x="467.5" y="276.5" width="31" height="31" rx="15.5" stroke="#C948DE"/>
<path d="M477 292.444L480.514 296L490 288" stroke="white" stroke-width="2" stroke-linecap="round"/>
<path d="M131 329H499" stroke="black" stroke-opacity="0.1"/>
<path d="M134.125 379.958C134.125 374.416 134.125 371.645 135.204 369.528C136.152 367.666 137.666 366.152 139.528 365.204C141.645 364.125 144.416 364.125 149.958 364.125H162.042C167.584 364.125 170.355 364.125 172.472 365.204C174.334 366.152 175.848 367.666 176.796 369.528C177.875 371.645 177.875 374.416 177.875 379.958V392.042C177.875 397.584 177.875 400.355 176.796 402.472C175.848 404.334 174.334 405.848 172.472 406.796C170.355 407.875 167.584 407.875 162.042 407.875H149.958C144.416 407.875 141.645 407.875 139.528 406.796C137.666 405.848 136.152 404.334 135.204 402.472C134.125 400.355 134.125 397.584 134.125 392.042V379.958Z" fill="#470137"/>
<path d="M200.762 393V387.42H206.594V393H208.898V379.842H206.594V385.278H200.762V379.842H198.458V393H200.762ZM210.971 388.536C210.971 391.308 212.969 393.216 215.723 393.216C218.477 393.216 220.475 391.308 220.475 388.536C220.475 385.764 218.477 383.856 215.723 383.856C212.969 383.856 210.971 385.764 210.971 388.536ZM213.167 388.536C213.167 386.916 214.211 385.818 215.723 385.818C217.235 385.818 218.279 386.916 218.279 388.536C218.279 390.156 217.235 391.254 215.723 391.254C214.211 391.254 213.167 390.156 213.167 388.536ZM224.412 393V388.212C224.412 386.772 225.24 385.836 226.59 385.836C227.724 385.836 228.462 386.556 228.462 388.05V393H230.658V387.528C230.658 385.224 229.506 383.838 227.274 383.838C226.068 383.838 224.988 384.36 224.43 385.26L224.25 384.108H222.216V393H224.412ZM236.794 393.234C239.116 393.234 240.736 392.064 241.114 390.12H239.08C238.828 390.966 238.036 391.434 236.83 391.434C235.372 391.434 234.544 390.642 234.382 389.076L241.078 389.058V388.392C241.078 385.62 239.386 383.838 236.722 383.838C234.112 383.838 232.294 385.764 232.294 388.554C232.294 391.308 234.148 393.234 236.794 393.234ZM236.74 385.638C238.054 385.638 238.9 386.448 238.9 387.672H234.436C234.652 386.34 235.444 385.638 236.74 385.638ZM241.762 397.122C242.248 397.248 242.788 397.32 243.4 397.32C244.858 397.32 245.794 396.636 246.46 394.98L250.816 384.108H248.548L246.136 390.588L243.85 384.108H241.528L245.11 393.378L244.858 394.044C244.48 395.088 243.94 395.286 243.076 395.286H241.762V397.122ZM252.064 397.122H254.26V391.812C254.818 392.712 255.97 393.234 257.302 393.234C259.948 393.234 261.46 391.218 261.46 388.446C261.46 385.656 259.804 383.838 257.302 383.838C255.952 383.838 254.782 384.432 254.242 385.458L254.098 384.108H252.064V397.122ZM254.278 388.554C254.278 386.952 255.268 385.836 256.78 385.836C258.328 385.836 259.246 386.97 259.246 388.554C259.246 390.138 258.328 391.254 256.78 391.254C255.268 391.254 254.278 390.156 254.278 388.554ZM262.686 388.536C262.686 391.308 264.684 393.216 267.438 393.216C270.192 393.216 272.19 391.308 272.19 388.536C272.19 385.764 270.192 383.856 267.438 383.856C264.684 383.856 262.686 385.764 262.686 388.536ZM264.882 388.536C264.882 386.916 265.926 385.818 267.438 385.818C268.95 385.818 269.994 386.916 269.994 388.536C269.994 390.156 268.95 391.254 267.438 391.254C265.926 391.254 264.882 390.156 264.882 388.536ZM276.867 393V385.944H278.595V384.108H276.867V381.336H274.671V384.108H272.961V385.944H274.671V393H276.867Z" fill="#0F1922"/>
<rect x="467" y="370" width="32" height="32" rx="16" fill="#C948DE"/>
<path d="M477 386.444L480.514 390L490 382" stroke="white" stroke-width="2" stroke-linecap="round"/>
<path d="M131 423H499" stroke="black" stroke-opacity="0.1"/>
<path fill-rule="evenodd" clip-rule="evenodd" d="M72.2565 479.955C63.8424 477.551 55.1306 475.516 47.5809 471.368C47.1305 471.122 46.5551 471.15 46.2924 471.434C46.0334 471.719 46.1842 472.149 46.6339 472.398C54.3603 476.642 63.2617 478.755 71.8715 481.215C72.3801 481.362 72.8811 481.196 72.9862 480.849C73.095 480.502 72.7651 480.103 72.2565 479.955Z" fill="#280F2C"/>
<path fill-rule="evenodd" clip-rule="evenodd" d="M70.7619 488.579C67.6819 489.537 64.4728 490.012 60.8318 489.699C60.3118 489.653 59.9224 489.921 59.9573 490.294C59.996 490.669 60.4489 491.009 60.9653 491.053C64.9244 491.395 68.4152 490.891 71.7636 489.851C72.2051 489.715 72.3389 489.319 72.0598 488.968C71.7844 488.617 71.1998 488.442 70.7619 488.579Z" fill="#280F2C"/>
<path fill-rule="evenodd" clip-rule="evenodd" d="M73.2257 508.7C71.2566 511.218 68.2823 512.803 64.2063 513.431C63.7258 513.505 63.4943 513.865 63.6931 514.234C63.8882 514.603 64.4396 514.843 64.9201 514.769C69.4312 514.073 72.7283 512.32 74.9088 509.533C75.1435 509.235 74.9528 508.805 74.49 508.576C74.0236 508.346 73.4567 508.401 73.2257 508.7Z" fill="#280F2C"/>
<path fill-rule="evenodd" clip-rule="evenodd" d="M113.819 523.71C114.694 523.323 115.506 522.87 116.233 522.351C116.557 522.12 117.155 521.605 117.367 521.083C117.595 520.527 117.44 519.965 116.775 519.513C115.891 518.913 115.104 518.739 114.449 518.784C113.818 518.826 113.262 519.092 112.838 519.535C112.027 520.381 111.702 521.919 111.756 522.861C110.843 523.199 109.87 523.466 108.852 523.662C101.272 525.126 91.7571 521.288 85.4937 514.384C83.3018 511.967 82.9877 508.041 83.3608 503.996C83.9406 497.697 86.3319 491.129 86.9414 489.18C87.0903 488.699 87.101 488.392 87.0794 488.325C86.9813 487.994 86.6935 487.838 86.4861 487.752C86.1851 487.631 85.926 487.605 85.7068 487.623C85.4102 487.648 85.1418 487.76 84.967 487.997C84.8722 488.129 84.8028 488.329 84.7519 488.548C84.7189 488.701 84.7193 488.878 84.6459 488.974C84.1714 489.588 83.6421 490.171 83.1188 490.76C81.3683 492.743 79.3229 494.493 77.1151 496.196C70.1009 501.61 63.154 507.454 53.2541 510.357C52.8101 510.487 52.6653 510.88 52.9358 511.233C53.2027 511.586 53.7817 511.767 54.2295 511.637C64.3273 508.677 71.4445 502.746 78.5985 497.226C80.4761 495.776 82.2394 494.294 83.8104 492.67C82.7986 496.016 81.5875 500.699 81.3802 505.074C81.1954 508.965 81.8477 512.622 83.9782 514.971C90.8395 522.534 101.345 526.59 109.645 524.986C110.533 524.814 111.394 524.594 112.213 524.325C114.78 530.115 122.494 534.227 130.374 533.898C130.88 533.877 131.185 533.555 131.059 533.179C130.93 532.802 130.419 532.515 129.913 532.535C122.813 532.832 115.874 529.01 113.819 523.71ZM113.709 521.973C114.087 521.762 114.446 521.535 114.789 521.293C114.971 521.162 115.294 520.904 115.478 520.616C115.52 520.549 115.555 520.434 115.569 520.381C115.337 520.226 115.148 520.131 114.97 520.143C114.748 520.158 114.6 520.293 114.451 520.448C114.077 520.836 113.834 521.419 113.709 521.973Z" fill="#280F2C"/>
<path fill-rule="evenodd" clip-rule="evenodd" d="M448.855 81.2856C451.529 82.3026 454.166 83.3323 456.869 84.2709C457.45 84.4749 458.081 84.1704 458.281 83.5928C458.486 83.0121 458.178 82.378 457.6 82.1771C454.913 81.2416 452.298 80.2214 449.643 79.2106C449.068 78.994 448.428 79.2828 448.211 79.8509C447.995 80.4254 448.28 81.069 448.855 81.2856Z" fill="#2E1133"/>
<path fill-rule="evenodd" clip-rule="evenodd" d="M445.097 57.9195C453.582 54.796 461.904 51.2457 470.316 47.9434C470.888 47.7174 471.167 47.0738 470.944 46.5056C470.718 45.9343 470.078 45.6519 469.503 45.8747C461.106 49.174 452.8 52.7212 444.331 55.8352C443.753 56.0487 443.461 56.6858 443.671 57.2603C443.885 57.8379 444.522 58.1298 445.097 57.9195Z" fill="#2E1133"/>
<path fill-rule="evenodd" clip-rule="evenodd" d="M423.604 33.4139C428.084 27.2203 432.397 20.8919 436.945 14.7486C437.306 14.2557 437.203 13.5621 436.713 13.1979C436.22 12.8307 435.523 12.9374 435.159 13.4271C430.608 19.5798 426.288 25.9146 421.805 32.1175C421.448 32.6135 421.557 33.3072 422.053 33.6651C422.552 34.0261 423.243 33.913 423.604 33.4139Z" fill="#2E1133"/>
<rect width="207" height="63" transform="translate(24 61)" fill="#280F2C"/>
<path d="M63.416 101.336C62.12 101.336 60.976 101.104 59.984 100.64C58.992 100.176 58.216 99.512 57.656 98.648C57.096 97.784 56.816 96.744 56.816 95.528V94.856H59.936V95.528C59.936 96.536 60.248 97.296 60.872 97.808C61.496 98.304 62.344 98.552 63.416 98.552C64.504 98.552 65.312 98.336 65.84 97.904C66.384 97.472 66.656 96.92 66.656 96.248C66.656 95.784 66.52 95.408 66.248 95.12C65.992 94.832 65.608 94.6 65.096 94.424C64.6 94.232 63.992 94.056 63.272 93.896L62.72 93.776C61.568 93.52 60.576 93.2 59.744 92.816C58.928 92.416 58.296 91.896 57.848 91.256C57.416 90.616 57.2 89.784 57.2 88.76C57.2 87.736 57.44 86.864 57.92 86.144C58.416 85.408 59.104 84.848 59.984 84.464C60.88 84.064 61.928 83.864 63.128 83.864C64.328 83.864 65.392 84.072 66.32 84.488C67.264 84.888 68 85.496 68.528 86.312C69.072 87.112 69.344 88.12 69.344 89.336V90.056H66.224V89.336C66.224 88.696 66.096 88.184 65.84 87.8C65.6 87.4 65.248 87.112 64.784 86.936C64.32 86.744 63.768 86.648 63.128 86.648C62.168 86.648 61.456 86.832 60.992 87.2C60.544 87.552 60.32 88.04 60.32 88.664C60.32 89.08 60.424 89.432 60.632 89.72C60.856 90.008 61.184 90.248 61.616 90.44C62.048 90.632 62.6 90.8 63.272 90.944L63.824 91.064C65.024 91.32 66.064 91.648 66.944 92.048C67.84 92.448 68.536 92.976 69.032 93.632C69.528 94.288 69.776 95.128 69.776 96.152C69.776 97.176 69.512 98.08 68.984 98.864C68.472 99.632 67.736 100.24 66.776 100.688C65.832 101.12 64.712 101.336 63.416 101.336ZM72.2347 105.8V89.096H75.2107V90.536H75.6427C75.9147 90.072 76.3387 89.664 76.9147 89.312C77.4907 88.944 78.3147 88.76 79.3867 88.76C80.3467 88.76 81.2347 89 82.0507 89.48C82.8667 89.944 83.5227 90.632 84.0187 91.544C84.5147 92.456 84.7627 93.56 84.7627 94.856V95.24C84.7627 96.536 84.5147 97.64 84.0187 98.552C83.5227 99.464 82.8667 100.16 82.0507 100.64C81.2347 101.104 80.3467 101.336 79.3867 101.336C78.6667 101.336 78.0587 101.248 77.5627 101.072C77.0827 100.912 76.6907 100.704 76.3867 100.448C76.0987 100.176 75.8667 99.904 75.6907 99.632H75.2587V105.8H72.2347ZM78.4747 98.696C79.4187 98.696 80.1947 98.4 80.8027 97.808C81.4267 97.2 81.7387 96.32 81.7387 95.168V94.928C81.7387 93.776 81.4267 92.904 80.8027 92.312C80.1787 91.704 79.4027 91.4 78.4747 91.4C77.5467 91.4 76.7707 91.704 76.1467 92.312C75.5227 92.904 75.2107 93.776 75.2107 94.928V95.168C75.2107 96.32 75.5227 97.2 76.1467 97.808C76.7707 98.4 77.5467 98.696 78.4747 98.696ZM91.2354 101.336C90.3874 101.336 89.6274 101.192 88.9554 100.904C88.2834 100.6 87.7474 100.168 87.3474 99.608C86.9634 99.032 86.7714 98.336 86.7714 97.52C86.7714 96.704 86.9634 96.024 87.3474 95.48C87.7474 94.92 88.2914 94.504 88.9794 94.232C89.6834 93.944 90.4834 93.8 91.3794 93.8H94.6434V93.128C94.6434 92.568 94.4674 92.112 94.1154 91.76C93.7634 91.392 93.2034 91.208 92.4354 91.208C91.6834 91.208 91.1234 91.384 90.7554 91.736C90.3874 92.072 90.1474 92.512 90.0354 93.056L87.2514 92.12C87.4434 91.512 87.7474 90.96 88.1634 90.464C88.5954 89.952 89.1634 89.544 89.8674 89.24C90.5874 88.92 91.4594 88.76 92.4834 88.76C94.0514 88.76 95.2914 89.152 96.2034 89.936C97.1154 90.72 97.5714 91.856 97.5714 93.344V97.784C97.5714 98.264 97.7954 98.504 98.2434 98.504H99.2034V101H97.1874C96.5954 101 96.1074 100.856 95.7234 100.568C95.3394 100.28 95.1474 99.896 95.1474 99.416V99.392H94.6914C94.6274 99.584 94.4834 99.84 94.2594 100.16C94.0354 100.464 93.6834 100.736 93.2034 100.976C92.7234 101.216 92.0674 101.336 91.2354 101.336ZM91.7634 98.888C92.6114 98.888 93.2994 98.656 93.8274 98.192C94.3714 97.712 94.6434 97.08 94.6434 96.296V96.056H91.5954C91.0354 96.056 90.5954 96.176 90.2754 96.416C89.9554 96.656 89.7954 96.992 89.7954 97.424C89.7954 97.856 89.9634 98.208 90.2994 98.48C90.6354 98.752 91.1234 98.888 91.7634 98.888ZM101.414 101V89.096H104.39V90.392H104.822C105.03 89.992 105.374 89.648 105.854 89.36C106.334 89.056 106.966 88.904 107.75 88.904C108.598 88.904 109.278 89.072 109.79 89.408C110.302 89.728 110.694 90.152 110.966 90.68H111.398C111.67 90.168 112.054 89.744 112.55 89.408C113.046 89.072 113.75 88.904 114.662 88.904C115.398 88.904 116.062 89.064 116.654 89.384C117.262 89.688 117.742 90.16 118.094 90.8C118.462 91.424 118.646 92.216 118.646 93.176V101H115.622V93.392C115.622 92.736 115.454 92.248 115.118 91.928C114.782 91.592 114.31 91.424 113.702 91.424C113.014 91.424 112.478 91.648 112.094 92.096C111.726 92.528 111.542 93.152 111.542 93.968V101H108.518V93.392C108.518 92.736 108.35 92.248 108.014 91.928C107.678 91.592 107.206 91.424 106.598 91.424C105.91 91.424 105.374 91.648 104.99 92.096C104.622 92.528 104.438 93.152 104.438 93.968V101H101.414ZM127.896 101V84.2H138.457V87.08H131.065V91.136H137.881V94.016H131.065V101H127.896ZM140.813 101V89.096H143.837V101H140.813ZM142.325 87.704C141.781 87.704 141.317 87.528 140.933 87.176C140.565 86.824 140.381 86.36 140.381 85.784C140.381 85.208 140.565 84.744 140.933 84.392C141.317 84.04 141.781 83.864 142.325 83.864C142.885 83.864 143.349 84.04 143.717 84.392C144.085 84.744 144.269 85.208 144.269 85.784C144.269 86.36 144.085 86.824 143.717 87.176C143.349 87.528 142.885 87.704 142.325 87.704ZM147.188 101V84.2H150.212V101H147.188ZM158.123 101C157.339 101 156.699 100.76 156.203 100.28C155.723 99.784 155.483 99.128 155.483 98.312V91.592H152.507V89.096H155.483V85.4H158.507V89.096H161.771V91.592H158.507V97.784C158.507 98.264 158.731 98.504 159.179 98.504H161.483V101H158.123ZM169.51 101.336C168.326 101.336 167.278 101.088 166.366 100.592C165.47 100.08 164.766 99.368 164.254 98.456C163.758 97.528 163.51 96.44 163.51 95.192V94.904C163.51 93.656 163.758 92.576 164.254 91.664C164.75 90.736 165.446 90.024 166.342 89.528C167.238 89.016 168.278 88.76 169.462 88.76C170.63 88.76 171.646 89.024 172.51 89.552C173.374 90.064 174.046 90.784 174.526 91.712C175.006 92.624 175.246 93.688 175.246 94.904V95.936H166.582C166.614 96.752 166.918 97.416 167.494 97.928C168.07 98.44 168.774 98.696 169.606 98.696C170.454 98.696 171.078 98.512 171.478 98.144C171.878 97.776 172.182 97.368 172.39 96.92L174.862 98.216C174.638 98.632 174.31 99.088 173.878 99.584C173.462 100.064 172.902 100.48 172.198 100.832C171.494 101.168 170.598 101.336 169.51 101.336ZM166.606 93.68H172.174C172.11 92.992 171.83 92.44 171.334 92.024C170.854 91.608 170.222 91.4 169.438 91.4C168.622 91.4 167.974 91.608 167.494 92.024C167.014 92.44 166.718 92.992 166.606 93.68ZM177.938 101V89.096H180.914V90.44H181.346C181.522 89.96 181.81 89.608 182.21 89.384C182.626 89.16 183.106 89.048 183.65 89.048H185.09V91.736H183.602C182.834 91.736 182.202 91.944 181.706 92.36C181.21 92.76 180.962 93.384 180.962 94.232V101H177.938ZM192.116 101.336C190.564 101.336 189.292 101 188.3 100.328C187.308 99.656 186.708 98.696 186.5 97.448L189.284 96.728C189.396 97.288 189.58 97.728 189.836 98.048C190.108 98.368 190.436 98.6 190.82 98.744C191.22 98.872 191.652 98.936 192.116 98.936C192.82 98.936 193.34 98.816 193.676 98.576C194.012 98.32 194.18 98.008 194.18 97.64C194.18 97.272 194.02 96.992 193.7 96.8C193.38 96.592 192.868 96.424 192.164 96.296L191.492 96.176C190.66 96.016 189.9 95.8 189.212 95.528C188.524 95.24 187.972 94.848 187.556 94.352C187.14 93.856 186.932 93.216 186.932 92.432C186.932 91.248 187.364 90.344 188.228 89.72C189.092 89.08 190.228 88.76 191.636 88.76C192.964 88.76 194.068 89.056 194.948 89.648C195.828 90.24 196.404 91.016 196.676 91.976L193.868 92.84C193.74 92.232 193.476 91.8 193.076 91.544C192.692 91.288 192.212 91.16 191.636 91.16C191.06 91.16 190.62 91.264 190.316 91.472C190.012 91.664 189.86 91.936 189.86 92.288C189.86 92.672 190.02 92.96 190.34 93.152C190.66 93.328 191.092 93.464 191.636 93.56L192.308 93.68C193.204 93.84 194.012 94.056 194.732 94.328C195.468 94.584 196.044 94.96 196.46 95.456C196.892 95.936 197.108 96.592 197.108 97.424C197.108 98.672 196.652 99.64 195.74 100.328C194.844 101 193.636 101.336 192.116 101.336Z" fill="white"/>
<rect x="0.5" y="0.5" width="559" height="554" fill="#F4F6F8" stroke="black"/>
<rect x="103" y="113" width="424" height="381" fill="white"/>
<path fill-rule="evenodd" clip-rule="evenodd" d="M72.2565 479.955C63.8424 477.551 55.1306 475.516 47.5809 471.368C47.1305 471.122 46.5551 471.15 46.2924 471.434C46.0334 471.719 46.1842 472.149 46.6339 472.398C54.3603 476.642 63.2617 478.755 71.8715 481.215C72.3801 481.362 72.8811 481.196 72.9862 480.849C73.095 480.502 72.7651 480.103 72.2565 479.955Z" fill="#280F2C"/>
<path fill-rule="evenodd" clip-rule="evenodd" d="M70.7619 488.579C67.6819 489.537 64.4728 490.012 60.8318 489.699C60.3118 489.653 59.9224 489.921 59.9573 490.294C59.996 490.669 60.4489 491.009 60.9653 491.053C64.9244 491.395 68.4152 490.891 71.7636 489.851C72.2051 489.715 72.3389 489.319 72.0598 488.968C71.7844 488.617 71.1998 488.442 70.7619 488.579Z" fill="#280F2C"/>
<path fill-rule="evenodd" clip-rule="evenodd" d="M73.2257 508.7C71.2566 511.218 68.2823 512.803 64.2063 513.431C63.7258 513.505 63.4943 513.865 63.6931 514.234C63.8882 514.603 64.4396 514.843 64.9201 514.769C69.4312 514.073 72.7283 512.32 74.9088 509.533C75.1435 509.235 74.9528 508.805 74.49 508.576C74.0236 508.346 73.4567 508.401 73.2257 508.7Z" fill="#280F2C"/>
<path fill-rule="evenodd" clip-rule="evenodd" d="M113.819 523.71C114.694 523.323 115.506 522.87 116.233 522.351C116.557 522.12 117.155 521.605 117.367 521.083C117.595 520.527 117.44 519.965 116.775 519.513C115.891 518.913 115.104 518.739 114.449 518.784C113.818 518.826 113.262 519.092 112.838 519.535C112.027 520.381 111.702 521.919 111.756 522.861C110.843 523.199 109.87 523.466 108.852 523.662C101.272 525.126 91.7571 521.288 85.4937 514.384C83.3018 511.967 82.9877 508.041 83.3608 503.996C83.9406 497.697 86.3319 491.129 86.9414 489.18C87.0903 488.699 87.101 488.392 87.0794 488.325C86.9813 487.994 86.6935 487.838 86.4861 487.752C86.1851 487.631 85.926 487.605 85.7068 487.623C85.4102 487.648 85.1418 487.76 84.967 487.997C84.8722 488.129 84.8028 488.329 84.7519 488.548C84.7189 488.701 84.7193 488.878 84.6459 488.974C84.1714 489.588 83.6421 490.171 83.1188 490.76C81.3683 492.743 79.3229 494.493 77.1151 496.196C70.1009 501.61 63.154 507.454 53.2541 510.357C52.8101 510.487 52.6653 510.88 52.9358 511.233C53.2027 511.586 53.7817 511.767 54.2295 511.637C64.3273 508.677 71.4445 502.746 78.5985 497.226C80.4761 495.776 82.2394 494.294 83.8104 492.67C82.7986 496.016 81.5875 500.699 81.3802 505.074C81.1954 508.965 81.8477 512.622 83.9782 514.971C90.8395 522.534 101.345 526.59 109.645 524.986C110.533 524.814 111.394 524.594 112.213 524.325C114.78 530.115 122.494 534.227 130.374 533.898C130.88 533.877 131.185 533.555 131.059 533.179C130.93 532.802 130.419 532.515 129.913 532.535C122.813 532.832 115.874 529.01 113.819 523.71ZM113.709 521.973C114.087 521.762 114.446 521.535 114.789 521.293C114.971 521.162 115.294 520.904 115.478 520.616C115.52 520.549 115.555 520.434 115.569 520.381C115.337 520.226 115.148 520.131 114.97 520.143C114.748 520.158 114.6 520.293 114.451 520.448C114.077 520.836 113.834 521.419 113.709 521.973Z" fill="#280F2C"/>
<path fill-rule="evenodd" clip-rule="evenodd" d="M448.855 81.2856C451.529 82.3026 454.166 83.3323 456.869 84.2709C457.45 84.4749 458.081 84.1704 458.281 83.5928C458.486 83.0121 458.178 82.378 457.6 82.1771C454.913 81.2416 452.298 80.2214 449.643 79.2106C449.068 78.994 448.428 79.2828 448.211 79.8509C447.995 80.4254 448.28 81.069 448.855 81.2856Z" fill="#2E1133"/>
<path fill-rule="evenodd" clip-rule="evenodd" d="M445.097 57.9195C453.582 54.796 461.904 51.2457 470.316 47.9434C470.888 47.7174 471.167 47.0738 470.944 46.5056C470.718 45.9343 470.078 45.6519 469.503 45.8747C461.106 49.174 452.8 52.7212 444.331 55.8352C443.753 56.0487 443.461 56.6858 443.671 57.2603C443.885 57.8379 444.522 58.1298 445.097 57.9195Z" fill="#2E1133"/>
<path fill-rule="evenodd" clip-rule="evenodd" d="M423.604 33.4139C428.084 27.2203 432.397 20.8919 436.945 14.7486C437.306 14.2557 437.203 13.5621 436.713 13.1979C436.22 12.8307 435.523 12.9374 435.159 13.4271C430.608 19.5798 426.288 25.9146 421.805 32.1175C421.448 32.6135 421.557 33.3072 422.053 33.6651C422.552 34.0261 423.243 33.913 423.604 33.4139Z" fill="#2E1133"/>
<rect width="227" height="63" transform="translate(24 61)" fill="#280F2C"/>
<path d="M64.064 101.336C62.688 101.336 61.504 101.088 60.512 100.592C59.536 100.08 58.784 99.36 58.256 98.432C57.744 97.488 57.488 96.376 57.488 95.096V84.2H60.656V95.192C60.656 96.216 60.944 97.024 61.52 97.616C62.112 98.208 62.96 98.504 64.064 98.504C65.168 98.504 66.008 98.208 66.584 97.616C67.176 97.024 67.472 96.216 67.472 95.192V84.2H70.64V95.096C70.64 96.376 70.376 97.488 69.848 98.432C69.336 99.36 68.584 100.08 67.592 100.592C66.616 101.088 65.44 101.336 64.064 101.336ZM78.749 101.336C77.197 101.336 75.925 101 74.933 100.328C73.941 99.656 73.341 98.696 73.133 97.448L75.917 96.728C76.029 97.288 76.213 97.728 76.469 98.048C76.741 98.368 77.069 98.6 77.453 98.744C77.853 98.872 78.285 98.936 78.749 98.936C79.453 98.936 79.973 98.816 80.309 98.576C80.645 98.32 80.813 98.008 80.813 97.64C80.813 97.272 80.653 96.992 80.333 96.8C80.013 96.592 79.501 96.424 78.797 96.296L78.125 96.176C77.293 96.016 76.533 95.8 75.845 95.528C75.157 95.24 74.605 94.848 74.189 94.352C73.773 93.856 73.565 93.216 73.565 92.432C73.565 91.248 73.997 90.344 74.861 89.72C75.725 89.08 76.861 88.76 78.269 88.76C79.597 88.76 80.701 89.056 81.581 89.648C82.461 90.24 83.037 91.016 83.309 91.976L80.501 92.84C80.373 92.232 80.109 91.8 79.709 91.544C79.325 91.288 78.845 91.16 78.269 91.16C77.693 91.16 77.253 91.264 76.949 91.472C76.645 91.664 76.493 91.936 76.493 92.288C76.493 92.672 76.653 92.96 76.973 93.152C77.293 93.328 77.725 93.464 78.269 93.56L78.941 93.68C79.837 93.84 80.645 94.056 81.365 94.328C82.101 94.584 82.677 94.96 83.093 95.456C83.525 95.936 83.741 96.592 83.741 97.424C83.741 98.672 83.285 99.64 82.373 100.328C81.477 101 80.269 101.336 78.749 101.336ZM91.8149 101.336C90.6309 101.336 89.5829 101.088 88.6709 100.592C87.7749 100.08 87.0709 99.368 86.5589 98.456C86.0629 97.528 85.8149 96.44 85.8149 95.192V94.904C85.8149 93.656 86.0629 92.576 86.5589 91.664C87.0549 90.736 87.7509 90.024 88.6469 89.528C89.5429 89.016 90.5829 88.76 91.7669 88.76C92.9349 88.76 93.9509 89.024 94.8149 89.552C95.6789 90.064 96.3509 90.784 96.8309 91.712C97.3109 92.624 97.5509 93.688 97.5509 94.904V95.936H88.8869C88.9189 96.752 89.2229 97.416 89.7989 97.928C90.3749 98.44 91.0789 98.696 91.9109 98.696C92.7589 98.696 93.3829 98.512 93.7829 98.144C94.1829 97.776 94.4869 97.368 94.6949 96.92L97.1669 98.216C96.9429 98.632 96.6149 99.088 96.1829 99.584C95.7669 100.064 95.2069 100.48 94.5029 100.832C93.7989 101.168 92.9029 101.336 91.8149 101.336ZM88.9109 93.68H94.4789C94.4149 92.992 94.1349 92.44 93.6389 92.024C93.1589 91.608 92.5269 91.4 91.7429 91.4C90.9269 91.4 90.2789 91.608 89.7989 92.024C89.3189 92.44 89.0229 92.992 88.9109 93.68ZM100.243 101V89.096H103.219V90.44H103.651C103.827 89.96 104.115 89.608 104.515 89.384C104.931 89.16 105.411 89.048 105.955 89.048H107.395V91.736H105.907C105.139 91.736 104.507 91.944 104.011 92.36C103.515 92.76 103.267 93.384 103.267 94.232V101H100.243ZM115.852 101V89.096H118.828V90.44H119.26C119.436 89.96 119.724 89.608 120.124 89.384C120.54 89.16 121.02 89.048 121.564 89.048H123.004V91.736H121.516C120.748 91.736 120.116 91.944 119.62 92.36C119.124 92.76 118.876 93.384 118.876 94.232V101H115.852ZM130.37 101.336C129.186 101.336 128.138 101.088 127.226 100.592C126.33 100.08 125.626 99.368 125.114 98.456C124.618 97.528 124.37 96.44 124.37 95.192V94.904C124.37 93.656 124.618 92.576 125.114 91.664C125.61 90.736 126.306 90.024 127.202 89.528C128.098 89.016 129.138 88.76 130.322 88.76C131.49 88.76 132.506 89.024 133.37 89.552C134.234 90.064 134.906 90.784 135.386 91.712C135.866 92.624 136.106 93.688 136.106 94.904V95.936H127.442C127.474 96.752 127.778 97.416 128.354 97.928C128.93 98.44 129.634 98.696 130.466 98.696C131.314 98.696 131.938 98.512 132.338 98.144C132.738 97.776 133.042 97.368 133.25 96.92L135.722 98.216C135.498 98.632 135.17 99.088 134.738 99.584C134.322 100.064 133.762 100.48 133.058 100.832C132.354 101.168 131.458 101.336 130.37 101.336ZM127.466 93.68H133.034C132.97 92.992 132.69 92.44 132.194 92.024C131.714 91.608 131.082 91.4 130.298 91.4C129.482 91.4 128.834 91.608 128.354 92.024C127.874 92.44 127.578 92.992 127.466 93.68ZM143.597 101.336C142.653 101.336 141.765 101.104 140.933 100.64C140.117 100.16 139.461 99.464 138.965 98.552C138.469 97.64 138.221 96.536 138.221 95.24V94.856C138.221 93.56 138.469 92.456 138.965 91.544C139.461 90.632 140.117 89.944 140.933 89.48C141.749 89 142.637 88.76 143.597 88.76C144.317 88.76 144.917 88.848 145.397 89.024C145.893 89.184 146.293 89.392 146.597 89.648C146.901 89.904 147.133 90.176 147.293 90.464H147.725V84.2H150.749V101H147.773V99.56H147.341C147.069 100.008 146.645 100.416 146.069 100.784C145.509 101.152 144.685 101.336 143.597 101.336ZM144.509 98.696C145.437 98.696 146.213 98.4 146.837 97.808C147.461 97.2 147.773 96.32 147.773 95.168V94.928C147.773 93.776 147.461 92.904 146.837 92.312C146.229 91.704 145.453 91.4 144.509 91.4C143.581 91.4 142.805 91.704 142.181 92.312C141.557 92.904 141.245 93.776 141.245 94.928V95.168C141.245 96.32 141.557 97.2 142.181 97.808C142.805 98.4 143.581 98.696 144.509 98.696ZM154.102 101V89.096H157.126V101H154.102ZM155.614 87.704C155.07 87.704 154.606 87.528 154.222 87.176C153.854 86.824 153.67 86.36 153.67 85.784C153.67 85.208 153.854 84.744 154.222 84.392C154.606 84.04 155.07 83.864 155.614 83.864C156.174 83.864 156.638 84.04 157.006 84.392C157.374 84.744 157.558 85.208 157.558 85.784C157.558 86.36 157.374 86.824 157.006 87.176C156.638 87.528 156.174 87.704 155.614 87.704ZM160.477 101V89.096H163.453V90.44H163.885C164.061 89.96 164.349 89.608 164.749 89.384C165.165 89.16 165.645 89.048 166.189 89.048H167.629V91.736H166.141C165.373 91.736 164.741 91.944 164.245 92.36C163.749 92.76 163.501 93.384 163.501 94.232V101H160.477ZM174.995 101.336C173.811 101.336 172.763 101.088 171.851 100.592C170.955 100.08 170.251 99.368 169.739 98.456C169.243 97.528 168.995 96.44 168.995 95.192V94.904C168.995 93.656 169.243 92.576 169.739 91.664C170.235 90.736 170.931 90.024 171.827 89.528C172.723 89.016 173.763 88.76 174.947 88.76C176.115 88.76 177.131 89.024 177.995 89.552C178.859 90.064 179.531 90.784 180.011 91.712C180.491 92.624 180.731 93.688 180.731 94.904V95.936H172.067C172.099 96.752 172.403 97.416 172.979 97.928C173.555 98.44 174.259 98.696 175.091 98.696C175.939 98.696 176.563 98.512 176.963 98.144C177.363 97.776 177.667 97.368 177.875 96.92L180.347 98.216C180.123 98.632 179.795 99.088 179.363 99.584C178.947 100.064 178.387 100.48 177.683 100.832C176.979 101.168 176.083 101.336 174.995 101.336ZM172.091 93.68H177.659C177.595 92.992 177.315 92.44 176.819 92.024C176.339 91.608 175.707 91.4 174.923 91.4C174.107 91.4 173.459 91.608 172.979 92.024C172.499 92.44 172.203 92.992 172.091 93.68ZM189.014 101.336C187.862 101.336 186.814 101.096 185.87 100.616C184.942 100.136 184.206 99.44 183.662 98.528C183.118 97.616 182.846 96.512 182.846 95.216V94.88C182.846 93.584 183.118 92.48 183.662 91.568C184.206 90.656 184.942 89.96 185.87 89.48C186.814 89 187.862 88.76 189.014 88.76C190.15 88.76 191.126 88.96 191.942 89.36C192.758 89.76 193.414 90.312 193.91 91.016C194.422 91.704 194.758 92.488 194.918 93.368L191.99 93.992C191.926 93.512 191.782 93.08 191.558 92.696C191.334 92.312 191.014 92.008 190.598 91.784C190.198 91.56 189.694 91.448 189.086 91.448C188.478 91.448 187.926 91.584 187.43 91.856C186.95 92.112 186.566 92.504 186.278 93.032C186.006 93.544 185.87 94.176 185.87 94.928V95.168C185.87 95.92 186.006 96.56 186.278 97.088C186.566 97.6 186.95 97.992 187.43 98.264C187.926 98.52 188.478 98.648 189.086 98.648C189.998 98.648 190.686 98.416 191.15 97.952C191.63 97.472 191.934 96.848 192.062 96.08L194.99 96.776C194.782 97.624 194.422 98.4 193.91 99.104C193.414 99.792 192.758 100.336 191.942 100.736C191.126 101.136 190.15 101.336 189.014 101.336ZM201.646 101C200.862 101 200.222 100.76 199.726 100.28C199.246 99.784 199.006 99.128 199.006 98.312V91.592H196.03V89.096H199.006V85.4H202.03V89.096H205.294V91.592H202.03V97.784C202.03 98.264 202.254 98.504 202.702 98.504H205.006V101H201.646ZM212.976 101.336C211.424 101.336 210.152 101 209.16 100.328C208.168 99.656 207.568 98.696 207.36 97.448L210.144 96.728C210.256 97.288 210.44 97.728 210.696 98.048C210.968 98.368 211.296 98.6 211.68 98.744C212.08 98.872 212.512 98.936 212.976 98.936C213.68 98.936 214.2 98.816 214.536 98.576C214.872 98.32 215.04 98.008 215.04 97.64C215.04 97.272 214.88 96.992 214.56 96.8C214.24 96.592 213.728 96.424 213.024 96.296L212.352 96.176C211.52 96.016 210.76 95.8 210.072 95.528C209.384 95.24 208.832 94.848 208.416 94.352C208 93.856 207.792 93.216 207.792 92.432C207.792 91.248 208.224 90.344 209.088 89.72C209.952 89.08 211.088 88.76 212.496 88.76C213.824 88.76 214.928 89.056 215.808 89.648C216.688 90.24 217.264 91.016 217.536 91.976L214.728 92.84C214.6 92.232 214.336 91.8 213.936 91.544C213.552 91.288 213.072 91.16 212.496 91.16C211.92 91.16 211.48 91.264 211.176 91.472C210.872 91.664 210.72 91.936 210.72 92.288C210.72 92.672 210.88 92.96 211.2 93.152C211.52 93.328 211.952 93.464 212.496 93.56L213.168 93.68C214.064 93.84 214.872 94.056 215.592 94.328C216.328 94.584 216.904 94.96 217.32 95.456C217.752 95.936 217.968 96.592 217.968 97.424C217.968 98.672 217.512 99.64 216.6 100.328C215.704 101 214.496 101.336 212.976 101.336Z" fill="white"/>
<path d="M131.306 326.966H135.158V338H137.462V326.966H141.314V324.842H131.306V326.966ZM144.947 338V333.14C144.947 331.808 145.757 330.836 147.143 330.836C148.259 330.836 148.997 331.556 148.997 333.05V338H151.193V332.528C151.193 330.224 150.041 328.838 147.845 328.838C146.567 328.838 145.523 329.396 144.965 330.26V324.608H142.751V338H144.947ZM155.997 338.234C157.383 338.234 158.589 337.604 158.967 336.686L159.129 338H161.055V332.6C161.055 330.134 159.579 328.838 157.185 328.838C154.773 328.838 153.189 330.098 153.189 332.024H155.061C155.061 331.088 155.781 330.548 157.077 330.548C158.193 330.548 158.913 331.034 158.913 332.24V332.438L156.249 332.636C154.143 332.798 152.955 333.824 152.955 335.462C152.955 337.136 154.107 338.234 155.997 338.234ZM156.717 336.578C155.727 336.578 155.187 336.182 155.187 335.372C155.187 334.652 155.709 334.202 157.077 334.076L158.931 333.932V334.4C158.931 335.768 158.067 336.578 156.717 336.578ZM165.408 338V333.212C165.408 331.772 166.236 330.836 167.586 330.836C168.72 330.836 169.458 331.556 169.458 333.05V338H171.654V332.528C171.654 330.224 170.502 328.838 168.27 328.838C167.064 328.838 165.984 329.36 165.426 330.26L165.246 329.108H163.212V338H165.408ZM176.026 338V335.606L177.322 334.256L179.644 338H182.164L178.852 332.636L182.236 329.108H179.482L176.026 332.834V324.608H173.848V338H176.026ZM187.575 342.122C188.061 342.248 188.601 342.32 189.213 342.32C190.671 342.32 191.607 341.636 192.273 339.98L196.629 329.108H194.361L191.949 335.588L189.663 329.108H187.341L190.923 338.378L190.671 339.044C190.293 340.088 189.753 340.286 188.889 340.286H187.575V342.122ZM196.95 333.536C196.95 336.308 198.948 338.216 201.702 338.216C204.456 338.216 206.454 336.308 206.454 333.536C206.454 330.764 204.456 328.856 201.702 328.856C198.948 328.856 196.95 330.764 196.95 333.536ZM199.146 333.536C199.146 331.916 200.19 330.818 201.702 330.818C203.214 330.818 204.258 331.916 204.258 333.536C204.258 335.156 203.214 336.254 201.702 336.254C200.19 336.254 199.146 335.156 199.146 333.536ZM214.014 329.108V333.77C214.014 335.462 213.348 336.272 211.962 336.272C210.738 336.272 210.072 335.588 210.072 333.896V329.108H207.876V334.67C207.876 336.848 209.082 338.234 211.134 338.234C212.322 338.234 213.474 337.658 214.014 336.812L214.176 338H216.21V329.108H214.014ZM222.447 329.108V330.944H223.725V338H225.903V330.944H228.027V329.108H225.903V328.028C225.903 327.146 226.173 326.57 227.289 326.57H228.063V324.698C227.685 324.626 227.271 324.608 226.929 324.608C225.003 324.608 223.725 325.616 223.725 328.028V329.108H222.447ZM228.643 333.536C228.643 336.308 230.641 338.216 233.395 338.216C236.149 338.216 238.147 336.308 238.147 333.536C238.147 330.764 236.149 328.856 233.395 328.856C230.641 328.856 228.643 330.764 228.643 333.536ZM230.839 333.536C230.839 331.916 231.883 330.818 233.395 330.818C234.907 330.818 235.951 331.916 235.951 333.536C235.951 335.156 234.907 336.254 233.395 336.254C231.883 336.254 230.839 335.156 230.839 333.536ZM245.468 329.072C245.108 328.982 244.802 328.946 244.496 328.946C243.308 328.946 242.462 329.54 242.084 330.422L241.958 329.126H239.888V338H242.084V333.68C242.084 331.952 243.074 331.106 244.658 331.106H245.468V329.072ZM254.83 338V330.944H256.558V329.108H254.83V326.336H252.634V329.108H250.924V330.944H252.634V338H254.83ZM263.503 329.072C263.143 328.982 262.837 328.946 262.531 328.946C261.343 328.946 260.497 329.54 260.119 330.422L259.993 329.126H257.923V338H260.119V333.68C260.119 331.952 261.109 331.106 262.693 331.106H263.503V329.072ZM264.479 342.122C264.965 342.248 265.505 342.32 266.117 342.32C267.575 342.32 268.511 341.636 269.177 339.98L273.533 329.108H271.265L268.853 335.588L266.567 329.108H264.245L267.827 338.378L267.575 339.044C267.197 340.088 266.657 340.286 265.793 340.286H264.479V342.122ZM275.878 327.326C276.598 327.326 277.192 326.732 277.192 325.994C277.192 325.256 276.598 324.68 275.878 324.68C275.122 324.68 274.528 325.256 274.528 325.994C274.528 326.732 275.122 327.326 275.878 327.326ZM274.78 338H276.976V329.108H274.78V338ZM281.441 338V333.212C281.441 331.772 282.269 330.836 283.619 330.836C284.753 330.836 285.491 331.556 285.491 333.05V338H287.687V332.528C287.687 330.224 286.535 328.838 284.303 328.838C283.097 328.838 282.017 329.36 281.459 330.26L281.279 329.108H279.245V338H281.441ZM289.341 333.356C289.341 335.93 290.997 337.82 293.517 337.82C294.795 337.82 295.893 337.298 296.451 336.47V337.946C296.451 339.422 295.479 340.376 293.967 340.376C292.617 340.376 291.735 339.692 291.591 338.54H289.395C289.665 340.916 291.411 342.374 293.967 342.374C296.847 342.374 298.629 340.52 298.629 337.55V329.108H296.595L296.469 330.332C295.947 329.378 294.903 328.82 293.571 328.82C291.033 328.82 289.341 330.764 289.341 333.356ZM291.555 333.302C291.555 331.844 292.491 330.746 293.949 330.746C295.479 330.746 296.397 331.79 296.397 333.302C296.397 334.85 295.461 335.912 293.949 335.912C292.509 335.912 291.555 334.796 291.555 333.302ZM305.231 333.536C305.231 336.308 307.229 338.216 309.983 338.216C312.737 338.216 314.735 336.308 314.735 333.536C314.735 330.764 312.737 328.856 309.983 328.856C307.229 328.856 305.231 330.764 305.231 333.536ZM307.427 333.536C307.427 331.916 308.471 330.818 309.983 330.818C311.495 330.818 312.539 331.916 312.539 333.536C312.539 335.156 311.495 336.254 309.983 336.254C308.471 336.254 307.427 335.156 307.427 333.536ZM322.295 329.108V333.77C322.295 335.462 321.629 336.272 320.243 336.272C319.019 336.272 318.353 335.588 318.353 333.896V329.108H316.157V334.67C316.157 336.848 317.363 338.234 319.415 338.234C320.603 338.234 321.755 337.658 322.295 336.812L322.457 338H324.491V329.108H322.295ZM332.339 329.072C331.979 328.982 331.673 328.946 331.367 328.946C330.179 328.946 329.333 329.54 328.955 330.422L328.829 329.126H326.759V338H328.955V333.68C328.955 331.952 329.945 331.106 331.529 331.106H332.339V329.072ZM338.677 342.122H340.873V336.812C341.431 337.712 342.583 338.234 343.915 338.234C346.561 338.234 348.073 336.218 348.073 333.446C348.073 330.656 346.417 328.838 343.915 328.838C342.565 328.838 341.395 329.432 340.855 330.458L340.711 329.108H338.677V342.122ZM340.891 333.554C340.891 331.952 341.881 330.836 343.393 330.836C344.941 330.836 345.859 331.97 345.859 333.554C345.859 335.138 344.941 336.254 343.393 336.254C341.881 336.254 340.891 335.156 340.891 333.554ZM355.402 329.072C355.042 328.982 354.736 328.946 354.43 328.946C353.242 328.946 352.396 329.54 352.018 330.422L351.892 329.126H349.822V338H352.018V333.68C352.018 331.952 353.008 331.106 354.592 331.106H355.402V329.072ZM356.067 333.536C356.067 336.308 358.065 338.216 360.819 338.216C363.573 338.216 365.571 336.308 365.571 333.536C365.571 330.764 363.573 328.856 360.819 328.856C358.065 328.856 356.067 330.764 356.067 333.536ZM358.263 333.536C358.263 331.916 359.307 330.818 360.819 330.818C362.331 330.818 363.375 331.916 363.375 333.536C363.375 335.156 362.331 336.254 360.819 336.254C359.307 336.254 358.263 335.156 358.263 333.536ZM370.966 338.234C372.316 338.234 373.468 337.64 374.008 336.614L374.152 338H376.168V324.608H373.99V330.242C373.432 329.36 372.334 328.838 371.092 328.838C368.41 328.838 366.79 330.818 366.79 333.59C366.79 336.344 368.392 338.234 370.966 338.234ZM371.452 336.218C369.922 336.218 368.986 335.102 368.986 333.518C368.986 331.934 369.922 330.8 371.452 330.8C372.982 330.8 373.972 331.916 373.972 333.518C373.972 335.12 372.982 336.218 371.452 336.218ZM384.486 329.108V333.77C384.486 335.462 383.82 336.272 382.434 336.272C381.21 336.272 380.544 335.588 380.544 333.896V329.108H378.348V334.67C378.348 336.848 379.554 338.234 381.606 338.234C382.794 338.234 383.946 337.658 384.486 336.812L384.648 338H386.682V329.108H384.486ZM388.253 333.536C388.253 336.362 390.017 338.234 392.717 338.234C395.039 338.234 396.767 336.812 397.037 334.742H394.823C394.589 335.714 393.815 336.254 392.717 336.254C391.313 336.254 390.449 335.21 390.449 333.536C390.449 331.862 391.385 330.8 392.789 330.8C393.833 330.8 394.571 331.322 394.823 332.33H397.019C396.785 330.188 395.129 328.838 392.699 328.838C390.071 328.838 388.253 330.782 388.253 333.536ZM401.695 338V330.944H403.423V329.108H401.695V326.336H399.499V329.108H397.789V330.944H399.499V338H401.695ZM404.104 335.3C404.104 337.046 405.508 338.234 407.722 338.234C409.918 338.234 411.448 337.118 411.448 335.318C411.448 333.95 410.692 333.266 409.198 332.924L407.596 332.546C406.84 332.366 406.444 332.042 406.444 331.538C406.444 330.872 406.948 330.476 407.812 330.476C408.658 330.476 409.162 330.962 409.18 331.718H411.268C411.25 329.99 409.9 328.838 407.902 328.838C405.85 328.838 404.374 329.882 404.374 331.628C404.374 333.05 405.148 333.806 406.75 334.166L408.352 334.544C409.144 334.724 409.378 335.048 409.378 335.498C409.378 336.146 408.82 336.56 407.794 336.56C406.786 336.56 406.21 336.074 406.192 335.3H404.104ZM415.73 334.058C415.982 332.672 416.162 330.26 416.162 327.866V324.842H413.57V327.866C413.57 330.206 413.732 332.618 413.966 334.058H415.73ZM414.866 338.234C415.64 338.234 416.306 337.586 416.306 336.812C416.306 336.02 415.64 335.372 414.866 335.372C414.056 335.372 413.39 336.02 413.39 336.812C413.39 337.586 414.056 338.234 414.866 338.234ZM421.496 334.058C421.748 332.672 421.928 330.26 421.928 327.866V324.842H419.336V327.866C419.336 330.206 419.498 332.618 419.732 334.058H421.496ZM420.632 338.234C421.406 338.234 422.072 337.586 422.072 336.812C422.072 336.02 421.406 335.372 420.632 335.372C419.822 335.372 419.156 336.02 419.156 336.812C419.156 337.586 419.822 338.234 420.632 338.234ZM135.194 386H137.462L140.324 376.424L143.132 386H145.364L149.36 372.842H147.02L144.896 379.808C144.698 380.474 144.518 381.176 144.266 382.4C144.05 381.284 143.852 380.528 143.636 379.79L141.602 372.842H139.064L136.994 379.79C136.76 380.546 136.562 381.23 136.346 382.4C136.148 381.248 135.95 380.51 135.752 379.79L133.664 372.842H131.27L135.194 386ZM153.462 386.234C155.784 386.234 157.404 385.064 157.782 383.12H155.748C155.496 383.966 154.704 384.434 153.498 384.434C152.04 384.434 151.212 383.642 151.05 382.076L157.746 382.058V381.392C157.746 378.62 156.054 376.838 153.39 376.838C150.78 376.838 148.962 378.764 148.962 381.554C148.962 384.308 150.816 386.234 153.462 386.234ZM153.408 378.638C154.722 378.638 155.568 379.448 155.568 380.672H151.104C151.32 379.34 152.112 378.638 153.408 378.638ZM169.935 377.072C169.575 376.982 169.269 376.946 168.963 376.946C167.775 376.946 166.929 377.54 166.551 378.422L166.425 377.126H164.355V386H166.551V381.68C166.551 379.952 167.541 379.106 169.125 379.106H169.935V377.072ZM175.1 386.234C177.422 386.234 179.042 385.064 179.42 383.12H177.386C177.134 383.966 176.342 384.434 175.136 384.434C173.678 384.434 172.85 383.642 172.688 382.076L179.384 382.058V381.392C179.384 378.62 177.692 376.838 175.028 376.838C172.418 376.838 170.6 378.764 170.6 381.554C170.6 384.308 172.454 386.234 175.1 386.234ZM175.046 378.638C176.36 378.638 177.206 379.448 177.206 380.672H172.742C172.958 379.34 173.75 378.638 175.046 378.638ZM180.62 381.536C180.62 384.362 182.384 386.234 185.084 386.234C187.406 386.234 189.134 384.812 189.404 382.742H187.19C186.956 383.714 186.182 384.254 185.084 384.254C183.68 384.254 182.816 383.21 182.816 381.536C182.816 379.862 183.752 378.8 185.156 378.8C186.2 378.8 186.938 379.322 187.19 380.33H189.386C189.152 378.188 187.496 376.838 185.066 376.838C182.438 376.838 180.62 378.782 180.62 381.536ZM195.016 386.234C197.338 386.234 198.958 385.064 199.336 383.12H197.302C197.05 383.966 196.258 384.434 195.052 384.434C193.594 384.434 192.766 383.642 192.604 382.076L199.3 382.058V381.392C199.3 378.62 197.608 376.838 194.944 376.838C192.334 376.838 190.516 378.764 190.516 381.554C190.516 384.308 192.37 386.234 195.016 386.234ZM194.962 378.638C196.276 378.638 197.122 379.448 197.122 380.672H192.658C192.874 379.34 193.666 378.638 194.962 378.638ZM202.156 375.326C202.876 375.326 203.47 374.732 203.47 373.994C203.47 373.256 202.876 372.68 202.156 372.68C201.4 372.68 200.806 373.256 200.806 373.994C200.806 374.732 201.4 375.326 202.156 375.326ZM201.058 386H203.254V377.108H201.058V386ZM208.043 386H210.203L213.911 377.108H211.643L210.023 381.194C209.645 382.166 209.321 383.102 209.195 383.66C209.087 383.174 208.781 382.256 208.403 381.194L206.855 377.108H204.515L208.043 386ZM218.712 386.234C221.034 386.234 222.654 385.064 223.032 383.12H220.998C220.746 383.966 219.954 384.434 218.748 384.434C217.29 384.434 216.462 383.642 216.3 382.076L222.996 382.058V381.392C222.996 378.62 221.304 376.838 218.64 376.838C216.03 376.838 214.212 378.764 214.212 381.554C214.212 384.308 216.066 386.234 218.712 386.234ZM218.658 378.638C219.972 378.638 220.818 379.448 220.818 380.672H216.354C216.57 379.34 217.362 378.638 218.658 378.638ZM228.407 386.234C229.757 386.234 230.909 385.64 231.449 384.614L231.593 386H233.609V372.608H231.431V378.242C230.873 377.36 229.775 376.838 228.533 376.838C225.851 376.838 224.231 378.818 224.231 381.59C224.231 384.344 225.833 386.234 228.407 386.234ZM228.893 384.218C227.363 384.218 226.427 383.102 226.427 381.518C226.427 379.934 227.363 378.8 228.893 378.8C230.423 378.8 231.413 379.916 231.413 381.518C231.413 383.12 230.423 384.218 228.893 384.218ZM239.975 390.122C240.461 390.248 241.001 390.32 241.613 390.32C243.071 390.32 244.007 389.636 244.673 387.98L249.029 377.108H246.761L244.349 383.588L242.063 377.108H239.741L243.323 386.378L243.071 387.044C242.693 388.088 242.153 388.286 241.289 388.286H239.975V390.122ZM249.35 381.536C249.35 384.308 251.348 386.216 254.102 386.216C256.856 386.216 258.854 384.308 258.854 381.536C258.854 378.764 256.856 376.856 254.102 376.856C251.348 376.856 249.35 378.764 249.35 381.536ZM251.546 381.536C251.546 379.916 252.59 378.818 254.102 378.818C255.614 378.818 256.658 379.916 256.658 381.536C256.658 383.156 255.614 384.254 254.102 384.254C252.59 384.254 251.546 383.156 251.546 381.536ZM266.414 377.108V381.77C266.414 383.462 265.748 384.272 264.362 384.272C263.138 384.272 262.472 383.588 262.472 381.896V377.108H260.276V382.67C260.276 384.848 261.482 386.234 263.534 386.234C264.722 386.234 265.874 385.658 266.414 384.812L266.576 386H268.61V377.108H266.414ZM276.458 377.072C276.098 376.982 275.792 376.946 275.486 376.946C274.298 376.946 273.452 377.54 273.074 378.422L272.948 377.126H270.878V386H273.074V381.68C273.074 379.952 274.064 379.106 275.648 379.106H276.458V377.072ZM282.112 383.3C282.112 385.046 283.516 386.234 285.73 386.234C287.926 386.234 289.456 385.118 289.456 383.318C289.456 381.95 288.7 381.266 287.206 380.924L285.604 380.546C284.848 380.366 284.452 380.042 284.452 379.538C284.452 378.872 284.956 378.476 285.82 378.476C286.666 378.476 287.17 378.962 287.188 379.718H289.276C289.258 377.99 287.908 376.838 285.91 376.838C283.858 376.838 282.382 377.882 282.382 379.628C282.382 381.05 283.156 381.806 284.758 382.166L286.36 382.544C287.152 382.724 287.386 383.048 287.386 383.498C287.386 384.146 286.828 384.56 285.802 384.56C284.794 384.56 284.218 384.074 284.2 383.3H282.112ZM297.158 377.108V381.77C297.158 383.462 296.492 384.272 295.106 384.272C293.882 384.272 293.216 383.588 293.216 381.896V377.108H291.02V382.67C291.02 384.848 292.226 386.234 294.278 386.234C295.466 386.234 296.618 385.658 297.158 384.812L297.32 386H299.354V377.108H297.158ZM301.622 390.122H303.818V384.812C304.376 385.712 305.528 386.234 306.86 386.234C309.506 386.234 311.018 384.218 311.018 381.446C311.018 378.656 309.362 376.838 306.86 376.838C305.51 376.838 304.34 377.432 303.8 378.458L303.656 377.108H301.622V390.122ZM303.836 381.554C303.836 379.952 304.826 378.836 306.338 378.836C307.886 378.836 308.804 379.97 308.804 381.554C308.804 383.138 307.886 384.254 306.338 384.254C304.826 384.254 303.836 383.156 303.836 381.554ZM312.767 390.122H314.963V384.812C315.521 385.712 316.673 386.234 318.005 386.234C320.651 386.234 322.163 384.218 322.163 381.446C322.163 378.656 320.507 376.838 318.005 376.838C316.655 376.838 315.485 377.432 314.945 378.458L314.801 377.108H312.767V390.122ZM314.981 381.554C314.981 379.952 315.971 378.836 317.483 378.836C319.031 378.836 319.949 379.97 319.949 381.554C319.949 383.138 319.031 384.254 317.483 384.254C315.971 384.254 314.981 383.156 314.981 381.554ZM323.389 381.536C323.389 384.308 325.387 386.216 328.141 386.216C330.895 386.216 332.893 384.308 332.893 381.536C332.893 378.764 330.895 376.856 328.141 376.856C325.387 376.856 323.389 378.764 323.389 381.536ZM325.585 381.536C325.585 379.916 326.629 378.818 328.141 378.818C329.653 378.818 330.697 379.916 330.697 381.536C330.697 383.156 329.653 384.254 328.141 384.254C326.629 384.254 325.585 383.156 325.585 381.536ZM340.214 377.072C339.854 376.982 339.548 376.946 339.242 376.946C338.054 376.946 337.208 377.54 336.83 378.422L336.704 377.126H334.634V386H336.83V381.68C336.83 379.952 337.82 379.106 339.404 379.106H340.214V377.072ZM345.076 386V378.944H346.804V377.108H345.076V374.336H342.88V377.108H341.17V378.944H342.88V386H345.076ZM358.601 377.072C358.241 376.982 357.935 376.946 357.629 376.946C356.441 376.946 355.595 377.54 355.217 378.422L355.091 377.126H353.021V386H355.217V381.68C355.217 379.952 356.207 379.106 357.791 379.106H358.601V377.072ZM363.766 386.234C366.088 386.234 367.708 385.064 368.086 383.12H366.052C365.8 383.966 365.008 384.434 363.802 384.434C362.344 384.434 361.516 383.642 361.354 382.076L368.05 382.058V381.392C368.05 378.62 366.358 376.838 363.694 376.838C361.084 376.838 359.266 378.764 359.266 381.554C359.266 384.308 361.12 386.234 363.766 386.234ZM363.712 378.638C365.026 378.638 365.872 379.448 365.872 380.672H361.408C361.624 379.34 362.416 378.638 363.712 378.638ZM369.286 381.446C369.286 384.218 370.798 386.234 373.444 386.234C374.758 386.234 375.928 385.712 376.486 384.812V390.122H378.664V377.108H376.648L376.504 378.458C375.964 377.432 374.794 376.838 373.444 376.838C370.942 376.838 369.286 378.656 369.286 381.446ZM371.482 381.554C371.482 379.97 372.418 378.836 373.948 378.836C375.478 378.836 376.468 379.952 376.468 381.554C376.468 383.156 375.478 384.254 373.948 384.254C372.418 384.254 371.482 383.138 371.482 381.554ZM386.982 377.108V381.77C386.982 383.462 386.316 384.272 384.93 384.272C383.706 384.272 383.04 383.588 383.04 381.896V377.108H380.844V382.67C380.844 384.848 382.05 386.234 384.102 386.234C385.29 386.234 386.442 385.658 386.982 384.812L387.144 386H389.178V377.108H386.982ZM395.249 386.234C397.571 386.234 399.191 385.064 399.569 383.12H397.535C397.283 383.966 396.491 384.434 395.285 384.434C393.827 384.434 392.999 383.642 392.837 382.076L399.533 382.058V381.392C399.533 378.62 397.841 376.838 395.177 376.838C392.567 376.838 390.749 378.764 390.749 381.554C390.749 384.308 392.603 386.234 395.249 386.234ZM395.195 378.638C396.509 378.638 397.355 379.448 397.355 380.672H392.891C393.107 379.34 393.899 378.638 395.195 378.638ZM400.606 383.3C400.606 385.046 402.01 386.234 404.224 386.234C406.42 386.234 407.95 385.118 407.95 383.318C407.95 381.95 407.194 381.266 405.7 380.924L404.098 380.546C403.342 380.366 402.946 380.042 402.946 379.538C402.946 378.872 403.45 378.476 404.314 378.476C405.16 378.476 405.664 378.962 405.682 379.718H407.77C407.752 377.99 406.402 376.838 404.404 376.838C402.352 376.838 400.876 377.882 400.876 379.628C400.876 381.05 401.65 381.806 403.252 382.166L404.854 382.544C405.646 382.724 405.88 383.048 405.88 383.498C405.88 384.146 405.322 384.56 404.296 384.56C403.288 384.56 402.712 384.074 402.694 383.3H400.606ZM412.646 386V378.944H414.374V377.108H412.646V374.336H410.45V377.108H408.74V378.944H410.45V386H412.646ZM418.129 385.208C418.129 384.092 417.481 383.354 416.581 383.354C415.771 383.354 415.213 383.93 415.213 384.794C415.213 385.514 415.789 386.036 416.491 386.036C416.707 386.036 416.869 386 417.013 385.928C417.013 386.558 416.401 387.044 415.591 387.188V388.07C417.049 387.89 418.129 386.702 418.129 385.208ZM424.51 390.122C424.996 390.248 425.536 390.32 426.148 390.32C427.606 390.32 428.542 389.636 429.208 387.98L433.564 377.108H431.296L428.884 383.588L426.598 377.108H424.276L427.858 386.378L427.606 387.044C427.228 388.088 426.688 388.286 425.824 388.286H424.51V390.122ZM433.885 381.536C433.885 384.308 435.883 386.216 438.637 386.216C441.391 386.216 443.389 384.308 443.389 381.536C443.389 378.764 441.391 376.856 438.637 376.856C435.883 376.856 433.885 378.764 433.885 381.536ZM436.081 381.536C436.081 379.916 437.125 378.818 438.637 378.818C440.149 378.818 441.193 379.916 441.193 381.536C441.193 383.156 440.149 384.254 438.637 384.254C437.125 384.254 436.081 383.156 436.081 381.536ZM450.949 377.108V381.77C450.949 383.462 450.283 384.272 448.897 384.272C447.673 384.272 447.007 383.588 447.007 381.896V377.108H444.811V382.67C444.811 384.848 446.017 386.234 448.069 386.234C449.257 386.234 450.409 385.658 450.949 384.812L451.111 386H453.145V377.108H450.949ZM457.658 374.354C457.658 373.274 457.046 372.59 456.2 372.59C455.408 372.59 454.868 373.148 454.868 373.94C454.868 374.732 455.39 375.182 456.038 375.182C456.236 375.182 456.398 375.146 456.542 375.092C456.542 375.722 455.984 376.208 455.21 376.352V377.216C456.65 377.036 457.658 375.866 457.658 374.354ZM462.145 386V372.608H459.967V386H462.145ZM466.662 386V372.608H464.484V386H466.662ZM134.33 410V405.14C134.33 403.808 135.14 402.836 136.526 402.836C137.642 402.836 138.38 403.556 138.38 405.05V410H140.576V404.528C140.576 402.224 139.424 400.838 137.228 400.838C135.95 400.838 134.906 401.396 134.348 402.26V396.608H132.134V410H134.33ZM146.712 410.234C149.034 410.234 150.654 409.064 151.032 407.12H148.998C148.746 407.966 147.954 408.434 146.748 408.434C145.29 408.434 144.462 407.642 144.3 406.076L150.996 406.058V405.392C150.996 402.62 149.304 400.838 146.64 400.838C144.03 400.838 142.212 402.764 142.212 405.554C142.212 408.308 144.066 410.234 146.712 410.234ZM146.658 402.638C147.972 402.638 148.818 403.448 148.818 404.672H144.354C144.57 403.34 145.362 402.638 146.658 402.638ZM155.311 410.234C156.697 410.234 157.903 409.604 158.281 408.686L158.443 410H160.369V404.6C160.369 402.134 158.893 400.838 156.499 400.838C154.087 400.838 152.503 402.098 152.503 404.024H154.375C154.375 403.088 155.095 402.548 156.391 402.548C157.507 402.548 158.227 403.034 158.227 404.24V404.438L155.563 404.636C153.457 404.798 152.269 405.824 152.269 407.462C152.269 409.136 153.421 410.234 155.311 410.234ZM156.031 408.578C155.041 408.578 154.501 408.182 154.501 407.372C154.501 406.652 155.023 406.202 156.391 406.076L158.245 405.932V406.4C158.245 407.768 157.381 408.578 156.031 408.578ZM168.107 401.072C167.747 400.982 167.441 400.946 167.135 400.946C165.947 400.946 165.101 401.54 164.723 402.422L164.597 401.126H162.527V410H164.723V405.68C164.723 403.952 165.713 403.106 167.297 403.106H168.107V401.072ZM173.563 401.108V402.944H174.841V410H177.019V402.944H179.143V401.108H177.019V400.028C177.019 399.146 177.289 398.57 178.405 398.57H179.179V396.698C178.801 396.626 178.387 396.608 178.045 396.608C176.119 396.608 174.841 397.616 174.841 400.028V401.108H173.563ZM186.124 401.072C185.764 400.982 185.458 400.946 185.152 400.946C183.964 400.946 183.118 401.54 182.74 402.422L182.614 401.126H180.544V410H182.74V405.68C182.74 403.952 183.73 403.106 185.314 403.106H186.124V401.072ZM186.79 405.536C186.79 408.308 188.788 410.216 191.542 410.216C194.296 410.216 196.294 408.308 196.294 405.536C196.294 402.764 194.296 400.856 191.542 400.856C188.788 400.856 186.79 402.764 186.79 405.536ZM188.986 405.536C188.986 403.916 190.03 402.818 191.542 402.818C193.054 402.818 194.098 403.916 194.098 405.536C194.098 407.156 193.054 408.254 191.542 408.254C190.03 408.254 188.986 407.156 188.986 405.536ZM200.23 410V404.96C200.23 403.52 201.076 402.836 202.12 402.836C203.164 402.836 203.83 403.502 203.83 404.744V410H206.026V404.96C206.026 403.502 206.836 402.818 207.898 402.818C208.942 402.818 209.626 403.484 209.626 404.762V410H211.804V404.186C211.804 402.134 210.616 400.838 208.456 400.838C207.106 400.838 206.062 401.504 205.612 402.53C205.144 401.504 204.208 400.838 202.858 400.838C201.58 400.838 200.68 401.414 200.23 402.152L200.05 401.108H198.034V410H200.23ZM224.842 401.108V405.77C224.842 407.462 224.176 408.272 222.79 408.272C221.566 408.272 220.9 407.588 220.9 405.896V401.108H218.704V406.67C218.704 408.848 219.91 410.234 221.962 410.234C223.15 410.234 224.302 409.658 224.842 408.812L225.004 410H227.038V401.108H224.842ZM228.446 407.3C228.446 409.046 229.85 410.234 232.064 410.234C234.26 410.234 235.79 409.118 235.79 407.318C235.79 405.95 235.034 405.266 233.54 404.924L231.938 404.546C231.182 404.366 230.786 404.042 230.786 403.538C230.786 402.872 231.29 402.476 232.154 402.476C233 402.476 233.504 402.962 233.522 403.718H235.61C235.592 401.99 234.242 400.838 232.244 400.838C230.192 400.838 228.716 401.882 228.716 403.628C228.716 405.05 229.49 405.806 231.092 406.166L232.694 406.544C233.486 406.724 233.72 407.048 233.72 407.498C233.72 408.146 233.162 408.56 232.136 408.56C231.128 408.56 230.552 408.074 230.534 407.3H228.446ZM244.834 410H246.994L250.702 401.108H248.434L246.814 405.194C246.436 406.166 246.112 407.102 245.986 407.66C245.878 407.174 245.572 406.256 245.194 405.194L243.646 401.108H241.306L244.834 410ZM255.503 410.234C257.825 410.234 259.445 409.064 259.823 407.12H257.789C257.537 407.966 256.745 408.434 255.539 408.434C254.081 408.434 253.253 407.642 253.091 406.076L259.787 406.058V405.392C259.787 402.62 258.095 400.838 255.431 400.838C252.821 400.838 251.003 402.764 251.003 405.554C251.003 408.308 252.857 410.234 255.503 410.234ZM255.449 402.638C256.763 402.638 257.609 403.448 257.609 404.672H253.145C253.361 403.34 254.153 402.638 255.449 402.638ZM267.124 401.072C266.764 400.982 266.458 400.946 266.152 400.946C264.964 400.946 264.118 401.54 263.74 402.422L263.614 401.126H261.544V410H263.74V405.68C263.74 403.952 264.73 403.106 266.314 403.106H267.124V401.072ZM268.1 414.122C268.586 414.248 269.126 414.32 269.738 414.32C271.196 414.32 272.132 413.636 272.798 411.98L277.154 401.108H274.886L272.474 407.588L270.188 401.108H267.866L271.448 410.378L271.196 411.044C270.818 412.088 270.278 412.286 269.414 412.286H268.1V414.122ZM282.569 407.3C282.569 409.046 283.973 410.234 286.187 410.234C288.383 410.234 289.913 409.118 289.913 407.318C289.913 405.95 289.157 405.266 287.663 404.924L286.061 404.546C285.305 404.366 284.909 404.042 284.909 403.538C284.909 402.872 285.413 402.476 286.277 402.476C287.123 402.476 287.627 402.962 287.645 403.718H289.733C289.715 401.99 288.365 400.838 286.367 400.838C284.315 400.838 282.839 401.882 282.839 403.628C282.839 405.05 283.613 405.806 285.215 406.166L286.817 406.544C287.609 406.724 287.843 407.048 287.843 407.498C287.843 408.146 287.285 408.56 286.259 408.56C285.251 408.56 284.675 408.074 284.657 407.3H282.569ZM291.063 405.536C291.063 408.308 293.061 410.216 295.815 410.216C298.569 410.216 300.567 408.308 300.567 405.536C300.567 402.764 298.569 400.856 295.815 400.856C293.061 400.856 291.063 402.764 291.063 405.536ZM293.259 405.536C293.259 403.916 294.303 402.818 295.815 402.818C297.327 402.818 298.371 403.916 298.371 405.536C298.371 407.156 297.327 408.254 295.815 408.254C294.303 408.254 293.259 407.156 293.259 405.536ZM301.786 405.536C301.786 408.308 303.784 410.216 306.538 410.216C309.292 410.216 311.29 408.308 311.29 405.536C311.29 402.764 309.292 400.856 306.538 400.856C303.784 400.856 301.786 402.764 301.786 405.536ZM303.982 405.536C303.982 403.916 305.026 402.818 306.538 402.818C308.05 402.818 309.094 403.916 309.094 405.536C309.094 407.156 308.05 408.254 306.538 408.254C305.026 408.254 303.982 407.156 303.982 405.536ZM315.226 410V405.212C315.226 403.772 316.054 402.836 317.404 402.836C318.538 402.836 319.276 403.556 319.276 405.05V410H321.472V404.528C321.472 402.224 320.32 400.838 318.088 400.838C316.882 400.838 315.802 401.36 315.244 402.26L315.064 401.108H313.03V410H315.226ZM325.106 410.216C325.898 410.216 326.564 409.568 326.564 408.794C326.564 408.002 325.898 407.354 325.106 407.354C324.314 407.354 323.648 408.002 323.648 408.794C323.648 409.568 324.314 410.216 325.106 410.216Z" fill="#0F1922"/>
<rect x="272" y="189" width="85" height="85" rx="42.5" fill="#C948DE"/>
<path d="M298.562 231.681L307.895 241.125L333.094 219.875" stroke="white" stroke-width="2" stroke-linecap="round"/>
</svg>
