<svg width="580" height="575" viewBox="0 0 580 575" fill="none" xmlns="http://www.w3.org/2000/svg">
<rect x="20.5" y="20.5" width="559" height="554" fill="#F4F6F8" stroke="black"/>
<rect x="103" y="113" width="424" height="381" fill="white"/>
<path d="M134.125 187.958C134.125 182.416 134.125 179.645 135.204 177.528C136.152 175.666 137.666 174.152 139.528 173.204C141.645 172.125 144.416 172.125 149.958 172.125H162.042C167.584 172.125 170.355 172.125 172.472 173.204C174.334 174.152 175.848 175.666 176.796 177.528C177.875 179.645 177.875 182.416 177.875 187.958V200.042C177.875 205.584 177.875 208.355 176.796 210.472C175.848 212.334 174.334 213.848 172.472 214.796C170.355 215.875 167.584 215.875 162.042 215.875H149.958C144.416 215.875 141.645 215.875 139.528 214.796C137.666 213.848 136.152 212.334 135.204 210.472C134.125 208.355 134.125 205.584 134.125 200.042V187.958Z" fill="#00005B"/>
<path d="M199.592 201L200.654 197.958H205.568L206.63 201H209.06L204.308 187.842H201.95L197.198 201H199.592ZM202.832 191.766C202.958 191.406 203.066 191.01 203.12 190.758C203.156 191.028 203.282 191.424 203.39 191.766L204.902 196.014H201.338L202.832 191.766ZM212.6 201V198.606L213.896 197.256L216.218 201H218.738L215.426 195.636L218.81 192.108H216.056L212.6 195.834V187.608H210.422V201H212.6ZM221.17 190.326C221.89 190.326 222.484 189.732 222.484 188.994C222.484 188.256 221.89 187.68 221.17 187.68C220.414 187.68 219.82 188.256 219.82 188.994C219.82 189.732 220.414 190.326 221.17 190.326ZM220.072 201H222.268V192.108H220.072V201ZM223.852 198.3C223.852 200.046 225.256 201.234 227.47 201.234C229.666 201.234 231.196 200.118 231.196 198.318C231.196 196.95 230.44 196.266 228.946 195.924L227.344 195.546C226.588 195.366 226.192 195.042 226.192 194.538C226.192 193.872 226.696 193.476 227.56 193.476C228.406 193.476 228.91 193.962 228.928 194.718H231.016C230.998 192.99 229.648 191.838 227.65 191.838C225.598 191.838 224.122 192.882 224.122 194.628C224.122 196.05 224.896 196.806 226.498 197.166L228.1 197.544C228.892 197.724 229.126 198.048 229.126 198.498C229.126 199.146 228.568 199.56 227.542 199.56C226.534 199.56 225.958 199.074 225.94 198.3H223.852ZM235.064 201V195.96C235.064 194.52 235.91 193.836 236.954 193.836C237.998 193.836 238.664 194.502 238.664 195.744V201H240.86V195.96C240.86 194.502 241.67 193.818 242.732 193.818C243.776 193.818 244.46 194.484 244.46 195.762V201H246.638V195.186C246.638 193.134 245.45 191.838 243.29 191.838C241.94 191.838 240.896 192.504 240.446 193.53C239.978 192.504 239.042 191.838 237.692 191.838C236.414 191.838 235.514 192.414 235.064 193.152L234.884 192.108H232.868V201H235.064ZM252.772 201.234C255.094 201.234 256.714 200.064 257.092 198.12H255.058C254.806 198.966 254.014 199.434 252.808 199.434C251.35 199.434 250.522 198.642 250.36 197.076L257.056 197.058V196.392C257.056 193.62 255.364 191.838 252.7 191.838C250.09 191.838 248.272 193.764 248.272 196.554C248.272 199.308 250.126 201.234 252.772 201.234ZM252.718 193.638C254.032 193.638 254.878 194.448 254.878 195.672H250.414C250.63 194.34 251.422 193.638 252.718 193.638ZM261.75 201V193.944H263.478V192.108H261.75V189.336H259.554V192.108H257.844V193.944H259.554V201H261.75Z" fill="#0F1922"/>
<rect x="467" y="178" width="32" height="32" rx="16" fill="#C948DE"/>
<path d="M477 194.444L480.514 198L490 190" stroke="white" stroke-width="2" stroke-linecap="round"/>
<path d="M131 235H499" stroke="black" stroke-opacity="0.1"/>
<path d="M134.125 285.958C134.125 280.416 134.125 277.645 135.204 275.528C136.152 273.666 137.666 272.152 139.528 271.204C141.645 270.125 144.416 270.125 149.958 270.125H162.042C167.584 270.125 170.355 270.125 172.472 271.204C174.334 272.152 175.848 273.666 176.796 275.528C177.875 277.645 177.875 280.416 177.875 285.958V298.042C177.875 303.584 177.875 306.355 176.796 308.472C175.848 310.334 174.334 311.848 172.472 312.796C170.355 313.875 167.584 313.875 162.042 313.875H149.958C144.416 313.875 141.645 313.875 139.528 312.796C137.666 311.848 136.152 310.334 135.204 308.472C134.125 306.355 134.125 303.584 134.125 298.042V285.958Z" fill="#00005B"/>
<path d="M204.02 299.216C207.134 299.216 209.546 297.38 210.05 294.608H207.656C207.224 296.066 205.856 297.002 204.074 297.002C201.662 297.002 200.114 295.202 200.114 292.412C200.114 289.604 201.644 287.84 204.074 287.84C205.82 287.84 207.134 288.74 207.584 290.27H210.014C209.564 287.444 207.242 285.626 204.128 285.626C200.276 285.626 197.702 288.344 197.702 292.43C197.702 296.552 200.186 299.216 204.02 299.216ZM212.688 299L213.75 295.958H218.664L219.726 299H222.156L217.404 285.842H215.046L210.294 299H212.688ZM215.928 289.766C216.054 289.406 216.162 289.01 216.216 288.758C216.252 289.028 216.378 289.424 216.486 289.766L217.998 294.014H214.434L215.928 289.766ZM229.008 294.464C231.636 294.464 233.364 292.682 233.364 290.144C233.364 287.57 231.654 285.842 229.008 285.842H223.806V299H226.11V294.464H229.008ZM228.558 287.894C230.088 287.894 230.952 288.686 230.952 290.126C230.952 291.566 230.106 292.412 228.522 292.412H226.11V287.894H228.558ZM234.15 287.966H238.002V299H240.306V287.966H244.158V285.842H234.15V287.966ZM250.954 299.216C254.068 299.216 256.48 297.38 256.984 294.608H254.59C254.158 296.066 252.79 297.002 251.008 297.002C248.596 297.002 247.048 295.202 247.048 292.412C247.048 289.604 248.578 287.84 251.008 287.84C252.754 287.84 254.068 288.74 254.518 290.27H256.948C256.498 287.444 254.176 285.626 251.062 285.626C247.21 285.626 244.636 288.344 244.636 292.43C244.636 296.552 247.12 299.216 250.954 299.216ZM261.354 299V293.42H267.186V299H269.49V285.842H267.186V291.278H261.354V285.842H259.05V299H261.354ZM273.543 299L274.605 295.958H279.519L280.581 299H283.011L278.259 285.842H275.901L271.149 299H273.543ZM276.783 289.766C276.909 289.406 277.017 289.01 277.071 288.758C277.107 289.028 277.233 289.424 277.341 289.766L278.853 294.014H275.289L276.783 289.766Z" fill="#0F1922"/>
<rect x="467.5" y="276.5" width="31" height="31" rx="15.5" stroke="#C948DE"/>
<path d="M477 292.444L480.514 296L490 288" stroke="white" stroke-width="2" stroke-linecap="round"/>
<path d="M131 329H499" stroke="black" stroke-opacity="0.1"/>
<path d="M134.125 379.958C134.125 374.416 134.125 371.645 135.204 369.528C136.152 367.666 137.666 366.152 139.528 365.204C141.645 364.125 144.416 364.125 149.958 364.125H162.042C167.584 364.125 170.355 364.125 172.472 365.204C174.334 366.152 175.848 367.666 176.796 369.528C177.875 371.645 177.875 374.416 177.875 379.958V392.042C177.875 397.584 177.875 400.355 176.796 402.472C175.848 404.334 174.334 405.848 172.472 406.796C170.355 407.875 167.584 407.875 162.042 407.875H149.958C144.416 407.875 141.645 407.875 139.528 406.796C137.666 405.848 136.152 404.334 135.204 402.472C134.125 400.355 134.125 397.584 134.125 392.042V379.958Z" fill="#470137"/>
<path d="M200.762 393V387.42H206.594V393H208.898V379.842H206.594V385.278H200.762V379.842H198.458V393H200.762ZM210.971 388.536C210.971 391.308 212.969 393.216 215.723 393.216C218.477 393.216 220.475 391.308 220.475 388.536C220.475 385.764 218.477 383.856 215.723 383.856C212.969 383.856 210.971 385.764 210.971 388.536ZM213.167 388.536C213.167 386.916 214.211 385.818 215.723 385.818C217.235 385.818 218.279 386.916 218.279 388.536C218.279 390.156 217.235 391.254 215.723 391.254C214.211 391.254 213.167 390.156 213.167 388.536ZM224.412 393V388.212C224.412 386.772 225.24 385.836 226.59 385.836C227.724 385.836 228.462 386.556 228.462 388.05V393H230.658V387.528C230.658 385.224 229.506 383.838 227.274 383.838C226.068 383.838 224.988 384.36 224.43 385.26L224.25 384.108H222.216V393H224.412ZM236.794 393.234C239.116 393.234 240.736 392.064 241.114 390.12H239.08C238.828 390.966 238.036 391.434 236.83 391.434C235.372 391.434 234.544 390.642 234.382 389.076L241.078 389.058V388.392C241.078 385.62 239.386 383.838 236.722 383.838C234.112 383.838 232.294 385.764 232.294 388.554C232.294 391.308 234.148 393.234 236.794 393.234ZM236.74 385.638C238.054 385.638 238.9 386.448 238.9 387.672H234.436C234.652 386.34 235.444 385.638 236.74 385.638ZM241.762 397.122C242.248 397.248 242.788 397.32 243.4 397.32C244.858 397.32 245.794 396.636 246.46 394.98L250.816 384.108H248.548L246.136 390.588L243.85 384.108H241.528L245.11 393.378L244.858 394.044C244.48 395.088 243.94 395.286 243.076 395.286H241.762V397.122ZM252.064 397.122H254.26V391.812C254.818 392.712 255.97 393.234 257.302 393.234C259.948 393.234 261.46 391.218 261.46 388.446C261.46 385.656 259.804 383.838 257.302 383.838C255.952 383.838 254.782 384.432 254.242 385.458L254.098 384.108H252.064V397.122ZM254.278 388.554C254.278 386.952 255.268 385.836 256.78 385.836C258.328 385.836 259.246 386.97 259.246 388.554C259.246 390.138 258.328 391.254 256.78 391.254C255.268 391.254 254.278 390.156 254.278 388.554ZM262.686 388.536C262.686 391.308 264.684 393.216 267.438 393.216C270.192 393.216 272.19 391.308 272.19 388.536C272.19 385.764 270.192 383.856 267.438 383.856C264.684 383.856 262.686 385.764 262.686 388.536ZM264.882 388.536C264.882 386.916 265.926 385.818 267.438 385.818C268.95 385.818 269.994 386.916 269.994 388.536C269.994 390.156 268.95 391.254 267.438 391.254C265.926 391.254 264.882 390.156 264.882 388.536ZM276.867 393V385.944H278.595V384.108H276.867V381.336H274.671V384.108H272.961V385.944H274.671V393H276.867Z" fill="#0F1922"/>
<rect x="467" y="370" width="32" height="32" rx="16" fill="#C948DE"/>
<path d="M477 386.444L480.514 390L490 382" stroke="white" stroke-width="2" stroke-linecap="round"/>
<path d="M131 423H499" stroke="black" stroke-opacity="0.1"/>
<path fill-rule="evenodd" clip-rule="evenodd" d="M72.2565 479.955C63.8424 477.551 55.1306 475.516 47.5809 471.368C47.1305 471.122 46.5551 471.15 46.2924 471.434C46.0334 471.719 46.1842 472.149 46.6339 472.398C54.3603 476.642 63.2617 478.755 71.8715 481.215C72.3801 481.362 72.8811 481.196 72.9862 480.849C73.095 480.502 72.7651 480.103 72.2565 479.955Z" fill="#280F2C"/>
<path fill-rule="evenodd" clip-rule="evenodd" d="M70.7619 488.579C67.6819 489.537 64.4728 490.012 60.8318 489.699C60.3118 489.653 59.9224 489.921 59.9573 490.294C59.996 490.669 60.4489 491.009 60.9653 491.053C64.9244 491.395 68.4152 490.891 71.7636 489.851C72.2051 489.715 72.3389 489.319 72.0598 488.968C71.7844 488.617 71.1998 488.442 70.7619 488.579Z" fill="#280F2C"/>
<path fill-rule="evenodd" clip-rule="evenodd" d="M73.2257 508.7C71.2566 511.218 68.2823 512.803 64.2063 513.431C63.7258 513.505 63.4943 513.865 63.6931 514.234C63.8882 514.603 64.4396 514.843 64.9201 514.769C69.4312 514.073 72.7283 512.32 74.9088 509.533C75.1435 509.235 74.9528 508.805 74.49 508.576C74.0236 508.346 73.4567 508.401 73.2257 508.7Z" fill="#280F2C"/>
<path fill-rule="evenodd" clip-rule="evenodd" d="M113.819 523.71C114.694 523.323 115.506 522.87 116.233 522.351C116.557 522.12 117.155 521.605 117.367 521.083C117.595 520.527 117.44 519.965 116.775 519.513C115.891 518.913 115.104 518.739 114.449 518.784C113.818 518.826 113.262 519.092 112.838 519.535C112.027 520.381 111.702 521.919 111.756 522.861C110.843 523.199 109.87 523.466 108.852 523.662C101.272 525.126 91.7571 521.288 85.4937 514.384C83.3018 511.967 82.9877 508.041 83.3608 503.996C83.9406 497.697 86.3319 491.129 86.9414 489.18C87.0903 488.699 87.101 488.392 87.0794 488.325C86.9813 487.994 86.6935 487.838 86.4861 487.752C86.1851 487.631 85.926 487.605 85.7068 487.623C85.4102 487.648 85.1418 487.76 84.967 487.997C84.8722 488.129 84.8028 488.329 84.7519 488.548C84.7189 488.701 84.7193 488.878 84.6459 488.974C84.1714 489.588 83.6421 490.171 83.1188 490.76C81.3683 492.743 79.3229 494.493 77.1151 496.196C70.1009 501.61 63.154 507.454 53.2541 510.357C52.8101 510.487 52.6653 510.88 52.9358 511.233C53.2027 511.586 53.7817 511.767 54.2295 511.637C64.3273 508.677 71.4445 502.746 78.5985 497.226C80.4761 495.776 82.2394 494.294 83.8104 492.67C82.7986 496.016 81.5875 500.699 81.3802 505.074C81.1954 508.965 81.8477 512.622 83.9782 514.971C90.8395 522.534 101.345 526.59 109.645 524.986C110.533 524.814 111.394 524.594 112.213 524.325C114.78 530.115 122.494 534.227 130.374 533.898C130.88 533.877 131.185 533.555 131.059 533.179C130.93 532.802 130.419 532.515 129.913 532.535C122.813 532.832 115.874 529.01 113.819 523.71ZM113.709 521.973C114.087 521.762 114.446 521.535 114.789 521.293C114.971 521.162 115.294 520.904 115.478 520.616C115.52 520.549 115.555 520.434 115.569 520.381C115.337 520.226 115.148 520.131 114.97 520.143C114.748 520.158 114.6 520.293 114.451 520.448C114.077 520.836 113.834 521.419 113.709 521.973Z" fill="#280F2C"/>
<path fill-rule="evenodd" clip-rule="evenodd" d="M448.855 81.2856C451.529 82.3026 454.166 83.3323 456.869 84.2709C457.45 84.4749 458.081 84.1704 458.281 83.5928C458.486 83.0121 458.178 82.378 457.6 82.1771C454.913 81.2416 452.298 80.2214 449.643 79.2106C449.068 78.994 448.428 79.2828 448.211 79.8509C447.995 80.4254 448.28 81.069 448.855 81.2856Z" fill="#2E1133"/>
<path fill-rule="evenodd" clip-rule="evenodd" d="M445.097 57.9195C453.582 54.796 461.904 51.2457 470.316 47.9434C470.888 47.7174 471.167 47.0738 470.944 46.5056C470.718 45.9343 470.078 45.6519 469.503 45.8747C461.106 49.174 452.8 52.7212 444.331 55.8352C443.753 56.0487 443.461 56.6858 443.671 57.2603C443.885 57.8379 444.522 58.1298 445.097 57.9195Z" fill="#2E1133"/>
<path fill-rule="evenodd" clip-rule="evenodd" d="M423.604 33.4139C428.084 27.2203 432.397 20.8919 436.945 14.7486C437.306 14.2557 437.203 13.5621 436.713 13.1979C436.22 12.8307 435.523 12.9374 435.159 13.4271C430.608 19.5798 426.288 25.9146 421.805 32.1175C421.448 32.6135 421.557 33.3072 422.053 33.6651C422.552 34.0261 423.243 33.913 423.604 33.4139Z" fill="#2E1133"/>
<rect width="207" height="63" transform="translate(24 61)" fill="#280F2C"/>
<path d="M63.416 101.336C62.12 101.336 60.976 101.104 59.984 100.64C58.992 100.176 58.216 99.512 57.656 98.648C57.096 97.784 56.816 96.744 56.816 95.528V94.856H59.936V95.528C59.936 96.536 60.248 97.296 60.872 97.808C61.496 98.304 62.344 98.552 63.416 98.552C64.504 98.552 65.312 98.336 65.84 97.904C66.384 97.472 66.656 96.92 66.656 96.248C66.656 95.784 66.52 95.408 66.248 95.12C65.992 94.832 65.608 94.6 65.096 94.424C64.6 94.232 63.992 94.056 63.272 93.896L62.72 93.776C61.568 93.52 60.576 93.2 59.744 92.816C58.928 92.416 58.296 91.896 57.848 91.256C57.416 90.616 57.2 89.784 57.2 88.76C57.2 87.736 57.44 86.864 57.92 86.144C58.416 85.408 59.104 84.848 59.984 84.464C60.88 84.064 61.928 83.864 63.128 83.864C64.328 83.864 65.392 84.072 66.32 84.488C67.264 84.888 68 85.496 68.528 86.312C69.072 87.112 69.344 88.12 69.344 89.336V90.056H66.224V89.336C66.224 88.696 66.096 88.184 65.84 87.8C65.6 87.4 65.248 87.112 64.784 86.936C64.32 86.744 63.768 86.648 63.128 86.648C62.168 86.648 61.456 86.832 60.992 87.2C60.544 87.552 60.32 88.04 60.32 88.664C60.32 89.08 60.424 89.432 60.632 89.72C60.856 90.008 61.184 90.248 61.616 90.44C62.048 90.632 62.6 90.8 63.272 90.944L63.824 91.064C65.024 91.32 66.064 91.648 66.944 92.048C67.84 92.448 68.536 92.976 69.032 93.632C69.528 94.288 69.776 95.128 69.776 96.152C69.776 97.176 69.512 98.08 68.984 98.864C68.472 99.632 67.736 100.24 66.776 100.688C65.832 101.12 64.712 101.336 63.416 101.336ZM72.2347 105.8V89.096H75.2107V90.536H75.6427C75.9147 90.072 76.3387 89.664 76.9147 89.312C77.4907 88.944 78.3147 88.76 79.3867 88.76C80.3467 88.76 81.2347 89 82.0507 89.48C82.8667 89.944 83.5227 90.632 84.0187 91.544C84.5147 92.456 84.7627 93.56 84.7627 94.856V95.24C84.7627 96.536 84.5147 97.64 84.0187 98.552C83.5227 99.464 82.8667 100.16 82.0507 100.64C81.2347 101.104 80.3467 101.336 79.3867 101.336C78.6667 101.336 78.0587 101.248 77.5627 101.072C77.0827 100.912 76.6907 100.704 76.3867 100.448C76.0987 100.176 75.8667 99.904 75.6907 99.632H75.2587V105.8H72.2347ZM78.4747 98.696C79.4187 98.696 80.1947 98.4 80.8027 97.808C81.4267 97.2 81.7387 96.32 81.7387 95.168V94.928C81.7387 93.776 81.4267 92.904 80.8027 92.312C80.1787 91.704 79.4027 91.4 78.4747 91.4C77.5467 91.4 76.7707 91.704 76.1467 92.312C75.5227 92.904 75.2107 93.776 75.2107 94.928V95.168C75.2107 96.32 75.5227 97.2 76.1467 97.808C76.7707 98.4 77.5467 98.696 78.4747 98.696ZM91.2354 101.336C90.3874 101.336 89.6274 101.192 88.9554 100.904C88.2834 100.6 87.7474 100.168 87.3474 99.608C86.9634 99.032 86.7714 98.336 86.7714 97.52C86.7714 96.704 86.9634 96.024 87.3474 95.48C87.7474 94.92 88.2914 94.504 88.9794 94.232C89.6834 93.944 90.4834 93.8 91.3794 93.8H94.6434V93.128C94.6434 92.568 94.4674 92.112 94.1154 91.76C93.7634 91.392 93.2034 91.208 92.4354 91.208C91.6834 91.208 91.1234 91.384 90.7554 91.736C90.3874 92.072 90.1474 92.512 90.0354 93.056L87.2514 92.12C87.4434 91.512 87.7474 90.96 88.1634 90.464C88.5954 89.952 89.1634 89.544 89.8674 89.24C90.5874 88.92 91.4594 88.76 92.4834 88.76C94.0514 88.76 95.2914 89.152 96.2034 89.936C97.1154 90.72 97.5714 91.856 97.5714 93.344V97.784C97.5714 98.264 97.7954 98.504 98.2434 98.504H99.2034V101H97.1874C96.5954 101 96.1074 100.856 95.7234 100.568C95.3394 100.28 95.1474 99.896 95.1474 99.416V99.392H94.6914C94.6274 99.584 94.4834 99.84 94.2594 100.16C94.0354 100.464 93.6834 100.736 93.2034 100.976C92.7234 101.216 92.0674 101.336 91.2354 101.336ZM91.7634 98.888C92.6114 98.888 93.2994 98.656 93.8274 98.192C94.3714 97.712 94.6434 97.08 94.6434 96.296V96.056H91.5954C91.0354 96.056 90.5954 96.176 90.2754 96.416C89.9554 96.656 89.7954 96.992 89.7954 97.424C89.7954 97.856 89.9634 98.208 90.2994 98.48C90.6354 98.752 91.1234 98.888 91.7634 98.888ZM101.414 101V89.096H104.39V90.392H104.822C105.03 89.992 105.374 89.648 105.854 89.36C106.334 89.056 106.966 88.904 107.75 88.904C108.598 88.904 109.278 89.072 109.79 89.408C110.302 89.728 110.694 90.152 110.966 90.68H111.398C111.67 90.168 112.054 89.744 112.55 89.408C113.046 89.072 113.75 88.904 114.662 88.904C115.398 88.904 116.062 89.064 116.654 89.384C117.262 89.688 117.742 90.16 118.094 90.8C118.462 91.424 118.646 92.216 118.646 93.176V101H115.622V93.392C115.622 92.736 115.454 92.248 115.118 91.928C114.782 91.592 114.31 91.424 113.702 91.424C113.014 91.424 112.478 91.648 112.094 92.096C111.726 92.528 111.542 93.152 111.542 93.968V101H108.518V93.392C108.518 92.736 108.35 92.248 108.014 91.928C107.678 91.592 107.206 91.424 106.598 91.424C105.91 91.424 105.374 91.648 104.99 92.096C104.622 92.528 104.438 93.152 104.438 93.968V101H101.414ZM127.896 101V84.2H138.457V87.08H131.065V91.136H137.881V94.016H131.065V101H127.896ZM140.813 101V89.096H143.837V101H140.813ZM142.325 87.704C141.781 87.704 141.317 87.528 140.933 87.176C140.565 86.824 140.381 86.36 140.381 85.784C140.381 85.208 140.565 84.744 140.933 84.392C141.317 84.04 141.781 83.864 142.325 83.864C142.885 83.864 143.349 84.04 143.717 84.392C144.085 84.744 144.269 85.208 144.269 85.784C144.269 86.36 144.085 86.824 143.717 87.176C143.349 87.528 142.885 87.704 142.325 87.704ZM147.188 101V84.2H150.212V101H147.188ZM158.123 101C157.339 101 156.699 100.76 156.203 100.28C155.723 99.784 155.483 99.128 155.483 98.312V91.592H152.507V89.096H155.483V85.4H158.507V89.096H161.771V91.592H158.507V97.784C158.507 98.264 158.731 98.504 159.179 98.504H161.483V101H158.123ZM169.51 101.336C168.326 101.336 167.278 101.088 166.366 100.592C165.47 100.08 164.766 99.368 164.254 98.456C163.758 97.528 163.51 96.44 163.51 95.192V94.904C163.51 93.656 163.758 92.576 164.254 91.664C164.75 90.736 165.446 90.024 166.342 89.528C167.238 89.016 168.278 88.76 169.462 88.76C170.63 88.76 171.646 89.024 172.51 89.552C173.374 90.064 174.046 90.784 174.526 91.712C175.006 92.624 175.246 93.688 175.246 94.904V95.936H166.582C166.614 96.752 166.918 97.416 167.494 97.928C168.07 98.44 168.774 98.696 169.606 98.696C170.454 98.696 171.078 98.512 171.478 98.144C171.878 97.776 172.182 97.368 172.39 96.92L174.862 98.216C174.638 98.632 174.31 99.088 173.878 99.584C173.462 100.064 172.902 100.48 172.198 100.832C171.494 101.168 170.598 101.336 169.51 101.336ZM166.606 93.68H172.174C172.11 92.992 171.83 92.44 171.334 92.024C170.854 91.608 170.222 91.4 169.438 91.4C168.622 91.4 167.974 91.608 167.494 92.024C167.014 92.44 166.718 92.992 166.606 93.68ZM177.938 101V89.096H180.914V90.44H181.346C181.522 89.96 181.81 89.608 182.21 89.384C182.626 89.16 183.106 89.048 183.65 89.048H185.09V91.736H183.602C182.834 91.736 182.202 91.944 181.706 92.36C181.21 92.76 180.962 93.384 180.962 94.232V101H177.938ZM192.116 101.336C190.564 101.336 189.292 101 188.3 100.328C187.308 99.656 186.708 98.696 186.5 97.448L189.284 96.728C189.396 97.288 189.58 97.728 189.836 98.048C190.108 98.368 190.436 98.6 190.82 98.744C191.22 98.872 191.652 98.936 192.116 98.936C192.82 98.936 193.34 98.816 193.676 98.576C194.012 98.32 194.18 98.008 194.18 97.64C194.18 97.272 194.02 96.992 193.7 96.8C193.38 96.592 192.868 96.424 192.164 96.296L191.492 96.176C190.66 96.016 189.9 95.8 189.212 95.528C188.524 95.24 187.972 94.848 187.556 94.352C187.14 93.856 186.932 93.216 186.932 92.432C186.932 91.248 187.364 90.344 188.228 89.72C189.092 89.08 190.228 88.76 191.636 88.76C192.964 88.76 194.068 89.056 194.948 89.648C195.828 90.24 196.404 91.016 196.676 91.976L193.868 92.84C193.74 92.232 193.476 91.8 193.076 91.544C192.692 91.288 192.212 91.16 191.636 91.16C191.06 91.16 190.62 91.264 190.316 91.472C190.012 91.664 189.86 91.936 189.86 92.288C189.86 92.672 190.02 92.96 190.34 93.152C190.66 93.328 191.092 93.464 191.636 93.56L192.308 93.68C193.204 93.84 194.012 94.056 194.732 94.328C195.468 94.584 196.044 94.96 196.46 95.456C196.892 95.936 197.108 96.592 197.108 97.424C197.108 98.672 196.652 99.64 195.74 100.328C194.844 101 193.636 101.336 192.116 101.336Z" fill="white"/>
<rect x="10.5" y="10.5" width="559" height="554" fill="#F4F6F8" stroke="black"/>
<rect x="103" y="113" width="424" height="381" fill="white"/>
<path d="M134.125 187.958C134.125 182.416 134.125 179.645 135.204 177.528C136.152 175.666 137.666 174.152 139.528 173.204C141.645 172.125 144.416 172.125 149.958 172.125H162.042C167.584 172.125 170.355 172.125 172.472 173.204C174.334 174.152 175.848 175.666 176.796 177.528C177.875 179.645 177.875 182.416 177.875 187.958V200.042C177.875 205.584 177.875 208.355 176.796 210.472C175.848 212.334 174.334 213.848 172.472 214.796C170.355 215.875 167.584 215.875 162.042 215.875H149.958C144.416 215.875 141.645 215.875 139.528 214.796C137.666 213.848 136.152 212.334 135.204 210.472C134.125 208.355 134.125 205.584 134.125 200.042V187.958Z" fill="#00005B"/>
<path d="M199.592 201L200.654 197.958H205.568L206.63 201H209.06L204.308 187.842H201.95L197.198 201H199.592ZM202.832 191.766C202.958 191.406 203.066 191.01 203.12 190.758C203.156 191.028 203.282 191.424 203.39 191.766L204.902 196.014H201.338L202.832 191.766ZM212.6 201V198.606L213.896 197.256L216.218 201H218.738L215.426 195.636L218.81 192.108H216.056L212.6 195.834V187.608H210.422V201H212.6ZM221.17 190.326C221.89 190.326 222.484 189.732 222.484 188.994C222.484 188.256 221.89 187.68 221.17 187.68C220.414 187.68 219.82 188.256 219.82 188.994C219.82 189.732 220.414 190.326 221.17 190.326ZM220.072 201H222.268V192.108H220.072V201ZM223.852 198.3C223.852 200.046 225.256 201.234 227.47 201.234C229.666 201.234 231.196 200.118 231.196 198.318C231.196 196.95 230.44 196.266 228.946 195.924L227.344 195.546C226.588 195.366 226.192 195.042 226.192 194.538C226.192 193.872 226.696 193.476 227.56 193.476C228.406 193.476 228.91 193.962 228.928 194.718H231.016C230.998 192.99 229.648 191.838 227.65 191.838C225.598 191.838 224.122 192.882 224.122 194.628C224.122 196.05 224.896 196.806 226.498 197.166L228.1 197.544C228.892 197.724 229.126 198.048 229.126 198.498C229.126 199.146 228.568 199.56 227.542 199.56C226.534 199.56 225.958 199.074 225.94 198.3H223.852ZM235.064 201V195.96C235.064 194.52 235.91 193.836 236.954 193.836C237.998 193.836 238.664 194.502 238.664 195.744V201H240.86V195.96C240.86 194.502 241.67 193.818 242.732 193.818C243.776 193.818 244.46 194.484 244.46 195.762V201H246.638V195.186C246.638 193.134 245.45 191.838 243.29 191.838C241.94 191.838 240.896 192.504 240.446 193.53C239.978 192.504 239.042 191.838 237.692 191.838C236.414 191.838 235.514 192.414 235.064 193.152L234.884 192.108H232.868V201H235.064ZM252.772 201.234C255.094 201.234 256.714 200.064 257.092 198.12H255.058C254.806 198.966 254.014 199.434 252.808 199.434C251.35 199.434 250.522 198.642 250.36 197.076L257.056 197.058V196.392C257.056 193.62 255.364 191.838 252.7 191.838C250.09 191.838 248.272 193.764 248.272 196.554C248.272 199.308 250.126 201.234 252.772 201.234ZM252.718 193.638C254.032 193.638 254.878 194.448 254.878 195.672H250.414C250.63 194.34 251.422 193.638 252.718 193.638ZM261.75 201V193.944H263.478V192.108H261.75V189.336H259.554V192.108H257.844V193.944H259.554V201H261.75Z" fill="#0F1922"/>
<rect x="467" y="178" width="32" height="32" rx="16" fill="#C948DE"/>
<path d="M477 194.444L480.514 198L490 190" stroke="white" stroke-width="2" stroke-linecap="round"/>
<path d="M131 235H499" stroke="black" stroke-opacity="0.1"/>
<path d="M134.125 285.958C134.125 280.416 134.125 277.645 135.204 275.528C136.152 273.666 137.666 272.152 139.528 271.204C141.645 270.125 144.416 270.125 149.958 270.125H162.042C167.584 270.125 170.355 270.125 172.472 271.204C174.334 272.152 175.848 273.666 176.796 275.528C177.875 277.645 177.875 280.416 177.875 285.958V298.042C177.875 303.584 177.875 306.355 176.796 308.472C175.848 310.334 174.334 311.848 172.472 312.796C170.355 313.875 167.584 313.875 162.042 313.875H149.958C144.416 313.875 141.645 313.875 139.528 312.796C137.666 311.848 136.152 310.334 135.204 308.472C134.125 306.355 134.125 303.584 134.125 298.042V285.958Z" fill="#00005B"/>
<path d="M204.02 299.216C207.134 299.216 209.546 297.38 210.05 294.608H207.656C207.224 296.066 205.856 297.002 204.074 297.002C201.662 297.002 200.114 295.202 200.114 292.412C200.114 289.604 201.644 287.84 204.074 287.84C205.82 287.84 207.134 288.74 207.584 290.27H210.014C209.564 287.444 207.242 285.626 204.128 285.626C200.276 285.626 197.702 288.344 197.702 292.43C197.702 296.552 200.186 299.216 204.02 299.216ZM212.688 299L213.75 295.958H218.664L219.726 299H222.156L217.404 285.842H215.046L210.294 299H212.688ZM215.928 289.766C216.054 289.406 216.162 289.01 216.216 288.758C216.252 289.028 216.378 289.424 216.486 289.766L217.998 294.014H214.434L215.928 289.766ZM229.008 294.464C231.636 294.464 233.364 292.682 233.364 290.144C233.364 287.57 231.654 285.842 229.008 285.842H223.806V299H226.11V294.464H229.008ZM228.558 287.894C230.088 287.894 230.952 288.686 230.952 290.126C230.952 291.566 230.106 292.412 228.522 292.412H226.11V287.894H228.558ZM234.15 287.966H238.002V299H240.306V287.966H244.158V285.842H234.15V287.966ZM250.954 299.216C254.068 299.216 256.48 297.38 256.984 294.608H254.59C254.158 296.066 252.79 297.002 251.008 297.002C248.596 297.002 247.048 295.202 247.048 292.412C247.048 289.604 248.578 287.84 251.008 287.84C252.754 287.84 254.068 288.74 254.518 290.27H256.948C256.498 287.444 254.176 285.626 251.062 285.626C247.21 285.626 244.636 288.344 244.636 292.43C244.636 296.552 247.12 299.216 250.954 299.216ZM261.354 299V293.42H267.186V299H269.49V285.842H267.186V291.278H261.354V285.842H259.05V299H261.354ZM273.543 299L274.605 295.958H279.519L280.581 299H283.011L278.259 285.842H275.901L271.149 299H273.543ZM276.783 289.766C276.909 289.406 277.017 289.01 277.071 288.758C277.107 289.028 277.233 289.424 277.341 289.766L278.853 294.014H275.289L276.783 289.766Z" fill="#0F1922"/>
<rect x="467.5" y="276.5" width="31" height="31" rx="15.5" stroke="#C948DE"/>
<path d="M477 292.444L480.514 296L490 288" stroke="white" stroke-width="2" stroke-linecap="round"/>
<path d="M131 329H499" stroke="black" stroke-opacity="0.1"/>
<path d="M134.125 379.958C134.125 374.416 134.125 371.645 135.204 369.528C136.152 367.666 137.666 366.152 139.528 365.204C141.645 364.125 144.416 364.125 149.958 364.125H162.042C167.584 364.125 170.355 364.125 172.472 365.204C174.334 366.152 175.848 367.666 176.796 369.528C177.875 371.645 177.875 374.416 177.875 379.958V392.042C177.875 397.584 177.875 400.355 176.796 402.472C175.848 404.334 174.334 405.848 172.472 406.796C170.355 407.875 167.584 407.875 162.042 407.875H149.958C144.416 407.875 141.645 407.875 139.528 406.796C137.666 405.848 136.152 404.334 135.204 402.472C134.125 400.355 134.125 397.584 134.125 392.042V379.958Z" fill="#470137"/>
<path d="M200.762 393V387.42H206.594V393H208.898V379.842H206.594V385.278H200.762V379.842H198.458V393H200.762ZM210.971 388.536C210.971 391.308 212.969 393.216 215.723 393.216C218.477 393.216 220.475 391.308 220.475 388.536C220.475 385.764 218.477 383.856 215.723 383.856C212.969 383.856 210.971 385.764 210.971 388.536ZM213.167 388.536C213.167 386.916 214.211 385.818 215.723 385.818C217.235 385.818 218.279 386.916 218.279 388.536C218.279 390.156 217.235 391.254 215.723 391.254C214.211 391.254 213.167 390.156 213.167 388.536ZM224.412 393V388.212C224.412 386.772 225.24 385.836 226.59 385.836C227.724 385.836 228.462 386.556 228.462 388.05V393H230.658V387.528C230.658 385.224 229.506 383.838 227.274 383.838C226.068 383.838 224.988 384.36 224.43 385.26L224.25 384.108H222.216V393H224.412ZM236.794 393.234C239.116 393.234 240.736 392.064 241.114 390.12H239.08C238.828 390.966 238.036 391.434 236.83 391.434C235.372 391.434 234.544 390.642 234.382 389.076L241.078 389.058V388.392C241.078 385.62 239.386 383.838 236.722 383.838C234.112 383.838 232.294 385.764 232.294 388.554C232.294 391.308 234.148 393.234 236.794 393.234ZM236.74 385.638C238.054 385.638 238.9 386.448 238.9 387.672H234.436C234.652 386.34 235.444 385.638 236.74 385.638ZM241.762 397.122C242.248 397.248 242.788 397.32 243.4 397.32C244.858 397.32 245.794 396.636 246.46 394.98L250.816 384.108H248.548L246.136 390.588L243.85 384.108H241.528L245.11 393.378L244.858 394.044C244.48 395.088 243.94 395.286 243.076 395.286H241.762V397.122ZM252.064 397.122H254.26V391.812C254.818 392.712 255.97 393.234 257.302 393.234C259.948 393.234 261.46 391.218 261.46 388.446C261.46 385.656 259.804 383.838 257.302 383.838C255.952 383.838 254.782 384.432 254.242 385.458L254.098 384.108H252.064V397.122ZM254.278 388.554C254.278 386.952 255.268 385.836 256.78 385.836C258.328 385.836 259.246 386.97 259.246 388.554C259.246 390.138 258.328 391.254 256.78 391.254C255.268 391.254 254.278 390.156 254.278 388.554ZM262.686 388.536C262.686 391.308 264.684 393.216 267.438 393.216C270.192 393.216 272.19 391.308 272.19 388.536C272.19 385.764 270.192 383.856 267.438 383.856C264.684 383.856 262.686 385.764 262.686 388.536ZM264.882 388.536C264.882 386.916 265.926 385.818 267.438 385.818C268.95 385.818 269.994 386.916 269.994 388.536C269.994 390.156 268.95 391.254 267.438 391.254C265.926 391.254 264.882 390.156 264.882 388.536ZM276.867 393V385.944H278.595V384.108H276.867V381.336H274.671V384.108H272.961V385.944H274.671V393H276.867Z" fill="#0F1922"/>
<rect x="467" y="370" width="32" height="32" rx="16" fill="#C948DE"/>
<path d="M477 386.444L480.514 390L490 382" stroke="white" stroke-width="2" stroke-linecap="round"/>
<path d="M131 423H499" stroke="black" stroke-opacity="0.1"/>
<path fill-rule="evenodd" clip-rule="evenodd" d="M72.2565 479.955C63.8424 477.551 55.1306 475.516 47.5809 471.368C47.1305 471.122 46.5551 471.15 46.2924 471.434C46.0334 471.719 46.1842 472.149 46.6339 472.398C54.3603 476.642 63.2617 478.755 71.8715 481.215C72.3801 481.362 72.8811 481.196 72.9862 480.849C73.095 480.502 72.7651 480.103 72.2565 479.955Z" fill="#280F2C"/>
<path fill-rule="evenodd" clip-rule="evenodd" d="M70.7619 488.579C67.6819 489.537 64.4728 490.012 60.8318 489.699C60.3118 489.653 59.9224 489.921 59.9573 490.294C59.996 490.669 60.4489 491.009 60.9653 491.053C64.9244 491.395 68.4152 490.891 71.7636 489.851C72.2051 489.715 72.3389 489.319 72.0598 488.968C71.7844 488.617 71.1998 488.442 70.7619 488.579Z" fill="#280F2C"/>
<path fill-rule="evenodd" clip-rule="evenodd" d="M73.2257 508.7C71.2566 511.218 68.2823 512.803 64.2063 513.431C63.7258 513.505 63.4943 513.865 63.6931 514.234C63.8882 514.603 64.4396 514.843 64.9201 514.769C69.4312 514.073 72.7283 512.32 74.9088 509.533C75.1435 509.235 74.9528 508.805 74.49 508.576C74.0236 508.346 73.4567 508.401 73.2257 508.7Z" fill="#280F2C"/>
<path fill-rule="evenodd" clip-rule="evenodd" d="M113.819 523.71C114.694 523.323 115.506 522.87 116.233 522.351C116.557 522.12 117.155 521.605 117.367 521.083C117.595 520.527 117.44 519.965 116.775 519.513C115.891 518.913 115.104 518.739 114.449 518.784C113.818 518.826 113.262 519.092 112.838 519.535C112.027 520.381 111.702 521.919 111.756 522.861C110.843 523.199 109.87 523.466 108.852 523.662C101.272 525.126 91.7571 521.288 85.4937 514.384C83.3018 511.967 82.9877 508.041 83.3608 503.996C83.9406 497.697 86.3319 491.129 86.9414 489.18C87.0903 488.699 87.101 488.392 87.0794 488.325C86.9813 487.994 86.6935 487.838 86.4861 487.752C86.1851 487.631 85.926 487.605 85.7068 487.623C85.4102 487.648 85.1418 487.76 84.967 487.997C84.8722 488.129 84.8028 488.329 84.7519 488.548C84.7189 488.701 84.7193 488.878 84.6459 488.974C84.1714 489.588 83.6421 490.171 83.1188 490.76C81.3683 492.743 79.3229 494.493 77.1151 496.196C70.1009 501.61 63.154 507.454 53.2541 510.357C52.8101 510.487 52.6653 510.88 52.9358 511.233C53.2027 511.586 53.7817 511.767 54.2295 511.637C64.3273 508.677 71.4445 502.746 78.5985 497.226C80.4761 495.776 82.2394 494.294 83.8104 492.67C82.7986 496.016 81.5875 500.699 81.3802 505.074C81.1954 508.965 81.8477 512.622 83.9782 514.971C90.8395 522.534 101.345 526.59 109.645 524.986C110.533 524.814 111.394 524.594 112.213 524.325C114.78 530.115 122.494 534.227 130.374 533.898C130.88 533.877 131.185 533.555 131.059 533.179C130.93 532.802 130.419 532.515 129.913 532.535C122.813 532.832 115.874 529.01 113.819 523.71ZM113.709 521.973C114.087 521.762 114.446 521.535 114.789 521.293C114.971 521.162 115.294 520.904 115.478 520.616C115.52 520.549 115.555 520.434 115.569 520.381C115.337 520.226 115.148 520.131 114.97 520.143C114.748 520.158 114.6 520.293 114.451 520.448C114.077 520.836 113.834 521.419 113.709 521.973Z" fill="#280F2C"/>
<path fill-rule="evenodd" clip-rule="evenodd" d="M448.855 81.2856C451.529 82.3026 454.166 83.3323 456.869 84.2709C457.45 84.4749 458.081 84.1704 458.281 83.5928C458.486 83.0121 458.178 82.378 457.6 82.1771C454.913 81.2416 452.298 80.2214 449.643 79.2106C449.068 78.994 448.428 79.2828 448.211 79.8509C447.995 80.4254 448.28 81.069 448.855 81.2856Z" fill="#2E1133"/>
<path fill-rule="evenodd" clip-rule="evenodd" d="M445.097 57.9195C453.582 54.796 461.904 51.2457 470.316 47.9434C470.888 47.7174 471.167 47.0738 470.944 46.5056C470.718 45.9343 470.078 45.6519 469.503 45.8747C461.106 49.174 452.8 52.7212 444.331 55.8352C443.753 56.0487 443.461 56.6858 443.671 57.2603C443.885 57.8379 444.522 58.1298 445.097 57.9195Z" fill="#2E1133"/>
<path fill-rule="evenodd" clip-rule="evenodd" d="M423.604 33.4139C428.084 27.2203 432.397 20.8919 436.945 14.7486C437.306 14.2557 437.203 13.5621 436.713 13.1979C436.22 12.8307 435.523 12.9374 435.159 13.4271C430.608 19.5798 426.288 25.9146 421.805 32.1175C421.448 32.6135 421.557 33.3072 422.053 33.6651C422.552 34.0261 423.243 33.913 423.604 33.4139Z" fill="#2E1133"/>
<rect width="207" height="63" transform="translate(24 61)" fill="#280F2C"/>
<path d="M63.416 101.336C62.12 101.336 60.976 101.104 59.984 100.64C58.992 100.176 58.216 99.512 57.656 98.648C57.096 97.784 56.816 96.744 56.816 95.528V94.856H59.936V95.528C59.936 96.536 60.248 97.296 60.872 97.808C61.496 98.304 62.344 98.552 63.416 98.552C64.504 98.552 65.312 98.336 65.84 97.904C66.384 97.472 66.656 96.92 66.656 96.248C66.656 95.784 66.52 95.408 66.248 95.12C65.992 94.832 65.608 94.6 65.096 94.424C64.6 94.232 63.992 94.056 63.272 93.896L62.72 93.776C61.568 93.52 60.576 93.2 59.744 92.816C58.928 92.416 58.296 91.896 57.848 91.256C57.416 90.616 57.2 89.784 57.2 88.76C57.2 87.736 57.44 86.864 57.92 86.144C58.416 85.408 59.104 84.848 59.984 84.464C60.88 84.064 61.928 83.864 63.128 83.864C64.328 83.864 65.392 84.072 66.32 84.488C67.264 84.888 68 85.496 68.528 86.312C69.072 87.112 69.344 88.12 69.344 89.336V90.056H66.224V89.336C66.224 88.696 66.096 88.184 65.84 87.8C65.6 87.4 65.248 87.112 64.784 86.936C64.32 86.744 63.768 86.648 63.128 86.648C62.168 86.648 61.456 86.832 60.992 87.2C60.544 87.552 60.32 88.04 60.32 88.664C60.32 89.08 60.424 89.432 60.632 89.72C60.856 90.008 61.184 90.248 61.616 90.44C62.048 90.632 62.6 90.8 63.272 90.944L63.824 91.064C65.024 91.32 66.064 91.648 66.944 92.048C67.84 92.448 68.536 92.976 69.032 93.632C69.528 94.288 69.776 95.128 69.776 96.152C69.776 97.176 69.512 98.08 68.984 98.864C68.472 99.632 67.736 100.24 66.776 100.688C65.832 101.12 64.712 101.336 63.416 101.336ZM72.2347 105.8V89.096H75.2107V90.536H75.6427C75.9147 90.072 76.3387 89.664 76.9147 89.312C77.4907 88.944 78.3147 88.76 79.3867 88.76C80.3467 88.76 81.2347 89 82.0507 89.48C82.8667 89.944 83.5227 90.632 84.0187 91.544C84.5147 92.456 84.7627 93.56 84.7627 94.856V95.24C84.7627 96.536 84.5147 97.64 84.0187 98.552C83.5227 99.464 82.8667 100.16 82.0507 100.64C81.2347 101.104 80.3467 101.336 79.3867 101.336C78.6667 101.336 78.0587 101.248 77.5627 101.072C77.0827 100.912 76.6907 100.704 76.3867 100.448C76.0987 100.176 75.8667 99.904 75.6907 99.632H75.2587V105.8H72.2347ZM78.4747 98.696C79.4187 98.696 80.1947 98.4 80.8027 97.808C81.4267 97.2 81.7387 96.32 81.7387 95.168V94.928C81.7387 93.776 81.4267 92.904 80.8027 92.312C80.1787 91.704 79.4027 91.4 78.4747 91.4C77.5467 91.4 76.7707 91.704 76.1467 92.312C75.5227 92.904 75.2107 93.776 75.2107 94.928V95.168C75.2107 96.32 75.5227 97.2 76.1467 97.808C76.7707 98.4 77.5467 98.696 78.4747 98.696ZM91.2354 101.336C90.3874 101.336 89.6274 101.192 88.9554 100.904C88.2834 100.6 87.7474 100.168 87.3474 99.608C86.9634 99.032 86.7714 98.336 86.7714 97.52C86.7714 96.704 86.9634 96.024 87.3474 95.48C87.7474 94.92 88.2914 94.504 88.9794 94.232C89.6834 93.944 90.4834 93.8 91.3794 93.8H94.6434V93.128C94.6434 92.568 94.4674 92.112 94.1154 91.76C93.7634 91.392 93.2034 91.208 92.4354 91.208C91.6834 91.208 91.1234 91.384 90.7554 91.736C90.3874 92.072 90.1474 92.512 90.0354 93.056L87.2514 92.12C87.4434 91.512 87.7474 90.96 88.1634 90.464C88.5954 89.952 89.1634 89.544 89.8674 89.24C90.5874 88.92 91.4594 88.76 92.4834 88.76C94.0514 88.76 95.2914 89.152 96.2034 89.936C97.1154 90.72 97.5714 91.856 97.5714 93.344V97.784C97.5714 98.264 97.7954 98.504 98.2434 98.504H99.2034V101H97.1874C96.5954 101 96.1074 100.856 95.7234 100.568C95.3394 100.28 95.1474 99.896 95.1474 99.416V99.392H94.6914C94.6274 99.584 94.4834 99.84 94.2594 100.16C94.0354 100.464 93.6834 100.736 93.2034 100.976C92.7234 101.216 92.0674 101.336 91.2354 101.336ZM91.7634 98.888C92.6114 98.888 93.2994 98.656 93.8274 98.192C94.3714 97.712 94.6434 97.08 94.6434 96.296V96.056H91.5954C91.0354 96.056 90.5954 96.176 90.2754 96.416C89.9554 96.656 89.7954 96.992 89.7954 97.424C89.7954 97.856 89.9634 98.208 90.2994 98.48C90.6354 98.752 91.1234 98.888 91.7634 98.888ZM101.414 101V89.096H104.39V90.392H104.822C105.03 89.992 105.374 89.648 105.854 89.36C106.334 89.056 106.966 88.904 107.75 88.904C108.598 88.904 109.278 89.072 109.79 89.408C110.302 89.728 110.694 90.152 110.966 90.68H111.398C111.67 90.168 112.054 89.744 112.55 89.408C113.046 89.072 113.75 88.904 114.662 88.904C115.398 88.904 116.062 89.064 116.654 89.384C117.262 89.688 117.742 90.16 118.094 90.8C118.462 91.424 118.646 92.216 118.646 93.176V101H115.622V93.392C115.622 92.736 115.454 92.248 115.118 91.928C114.782 91.592 114.31 91.424 113.702 91.424C113.014 91.424 112.478 91.648 112.094 92.096C111.726 92.528 111.542 93.152 111.542 93.968V101H108.518V93.392C108.518 92.736 108.35 92.248 108.014 91.928C107.678 91.592 107.206 91.424 106.598 91.424C105.91 91.424 105.374 91.648 104.99 92.096C104.622 92.528 104.438 93.152 104.438 93.968V101H101.414ZM127.896 101V84.2H138.457V87.08H131.065V91.136H137.881V94.016H131.065V101H127.896ZM140.813 101V89.096H143.837V101H140.813ZM142.325 87.704C141.781 87.704 141.317 87.528 140.933 87.176C140.565 86.824 140.381 86.36 140.381 85.784C140.381 85.208 140.565 84.744 140.933 84.392C141.317 84.04 141.781 83.864 142.325 83.864C142.885 83.864 143.349 84.04 143.717 84.392C144.085 84.744 144.269 85.208 144.269 85.784C144.269 86.36 144.085 86.824 143.717 87.176C143.349 87.528 142.885 87.704 142.325 87.704ZM147.188 101V84.2H150.212V101H147.188ZM158.123 101C157.339 101 156.699 100.76 156.203 100.28C155.723 99.784 155.483 99.128 155.483 98.312V91.592H152.507V89.096H155.483V85.4H158.507V89.096H161.771V91.592H158.507V97.784C158.507 98.264 158.731 98.504 159.179 98.504H161.483V101H158.123ZM169.51 101.336C168.326 101.336 167.278 101.088 166.366 100.592C165.47 100.08 164.766 99.368 164.254 98.456C163.758 97.528 163.51 96.44 163.51 95.192V94.904C163.51 93.656 163.758 92.576 164.254 91.664C164.75 90.736 165.446 90.024 166.342 89.528C167.238 89.016 168.278 88.76 169.462 88.76C170.63 88.76 171.646 89.024 172.51 89.552C173.374 90.064 174.046 90.784 174.526 91.712C175.006 92.624 175.246 93.688 175.246 94.904V95.936H166.582C166.614 96.752 166.918 97.416 167.494 97.928C168.07 98.44 168.774 98.696 169.606 98.696C170.454 98.696 171.078 98.512 171.478 98.144C171.878 97.776 172.182 97.368 172.39 96.92L174.862 98.216C174.638 98.632 174.31 99.088 173.878 99.584C173.462 100.064 172.902 100.48 172.198 100.832C171.494 101.168 170.598 101.336 169.51 101.336ZM166.606 93.68H172.174C172.11 92.992 171.83 92.44 171.334 92.024C170.854 91.608 170.222 91.4 169.438 91.4C168.622 91.4 167.974 91.608 167.494 92.024C167.014 92.44 166.718 92.992 166.606 93.68ZM177.938 101V89.096H180.914V90.44H181.346C181.522 89.96 181.81 89.608 182.21 89.384C182.626 89.16 183.106 89.048 183.65 89.048H185.09V91.736H183.602C182.834 91.736 182.202 91.944 181.706 92.36C181.21 92.76 180.962 93.384 180.962 94.232V101H177.938ZM192.116 101.336C190.564 101.336 189.292 101 188.3 100.328C187.308 99.656 186.708 98.696 186.5 97.448L189.284 96.728C189.396 97.288 189.58 97.728 189.836 98.048C190.108 98.368 190.436 98.6 190.82 98.744C191.22 98.872 191.652 98.936 192.116 98.936C192.82 98.936 193.34 98.816 193.676 98.576C194.012 98.32 194.18 98.008 194.18 97.64C194.18 97.272 194.02 96.992 193.7 96.8C193.38 96.592 192.868 96.424 192.164 96.296L191.492 96.176C190.66 96.016 189.9 95.8 189.212 95.528C188.524 95.24 187.972 94.848 187.556 94.352C187.14 93.856 186.932 93.216 186.932 92.432C186.932 91.248 187.364 90.344 188.228 89.72C189.092 89.08 190.228 88.76 191.636 88.76C192.964 88.76 194.068 89.056 194.948 89.648C195.828 90.24 196.404 91.016 196.676 91.976L193.868 92.84C193.74 92.232 193.476 91.8 193.076 91.544C192.692 91.288 192.212 91.16 191.636 91.16C191.06 91.16 190.62 91.264 190.316 91.472C190.012 91.664 189.86 91.936 189.86 92.288C189.86 92.672 190.02 92.96 190.34 93.152C190.66 93.328 191.092 93.464 191.636 93.56L192.308 93.68C193.204 93.84 194.012 94.056 194.732 94.328C195.468 94.584 196.044 94.96 196.46 95.456C196.892 95.936 197.108 96.592 197.108 97.424C197.108 98.672 196.652 99.64 195.74 100.328C194.844 101 193.636 101.336 192.116 101.336Z" fill="white"/>
<rect x="0.5" y="0.5" width="559" height="554" fill="#F4F6F8" stroke="black"/>
<rect x="103" y="113" width="424" height="381" fill="white"/>
<path d="M134.125 187.958C134.125 182.416 134.125 179.645 135.204 177.528C136.152 175.666 137.666 174.152 139.528 173.204C141.645 172.125 144.416 172.125 149.958 172.125H162.042C167.584 172.125 170.355 172.125 172.472 173.204C174.334 174.152 175.848 175.666 176.796 177.528C177.875 179.645 177.875 182.416 177.875 187.958V200.042C177.875 205.584 177.875 208.355 176.796 210.472C175.848 212.334 174.334 213.848 172.472 214.796C170.355 215.875 167.584 215.875 162.042 215.875H149.958C144.416 215.875 141.645 215.875 139.528 214.796C137.666 213.848 136.152 212.334 135.204 210.472C134.125 208.355 134.125 205.584 134.125 200.042V187.958Z" fill="#00005B"/>
<path d="M199.592 201L200.654 197.958H205.568L206.63 201H209.06L204.308 187.842H201.95L197.198 201H199.592ZM202.832 191.766C202.958 191.406 203.066 191.01 203.12 190.758C203.156 191.028 203.282 191.424 203.39 191.766L204.902 196.014H201.338L202.832 191.766ZM212.6 201V198.606L213.896 197.256L216.218 201H218.738L215.426 195.636L218.81 192.108H216.056L212.6 195.834V187.608H210.422V201H212.6ZM221.17 190.326C221.89 190.326 222.484 189.732 222.484 188.994C222.484 188.256 221.89 187.68 221.17 187.68C220.414 187.68 219.82 188.256 219.82 188.994C219.82 189.732 220.414 190.326 221.17 190.326ZM220.072 201H222.268V192.108H220.072V201ZM223.852 198.3C223.852 200.046 225.256 201.234 227.47 201.234C229.666 201.234 231.196 200.118 231.196 198.318C231.196 196.95 230.44 196.266 228.946 195.924L227.344 195.546C226.588 195.366 226.192 195.042 226.192 194.538C226.192 193.872 226.696 193.476 227.56 193.476C228.406 193.476 228.91 193.962 228.928 194.718H231.016C230.998 192.99 229.648 191.838 227.65 191.838C225.598 191.838 224.122 192.882 224.122 194.628C224.122 196.05 224.896 196.806 226.498 197.166L228.1 197.544C228.892 197.724 229.126 198.048 229.126 198.498C229.126 199.146 228.568 199.56 227.542 199.56C226.534 199.56 225.958 199.074 225.94 198.3H223.852ZM235.064 201V195.96C235.064 194.52 235.91 193.836 236.954 193.836C237.998 193.836 238.664 194.502 238.664 195.744V201H240.86V195.96C240.86 194.502 241.67 193.818 242.732 193.818C243.776 193.818 244.46 194.484 244.46 195.762V201H246.638V195.186C246.638 193.134 245.45 191.838 243.29 191.838C241.94 191.838 240.896 192.504 240.446 193.53C239.978 192.504 239.042 191.838 237.692 191.838C236.414 191.838 235.514 192.414 235.064 193.152L234.884 192.108H232.868V201H235.064ZM252.772 201.234C255.094 201.234 256.714 200.064 257.092 198.12H255.058C254.806 198.966 254.014 199.434 252.808 199.434C251.35 199.434 250.522 198.642 250.36 197.076L257.056 197.058V196.392C257.056 193.62 255.364 191.838 252.7 191.838C250.09 191.838 248.272 193.764 248.272 196.554C248.272 199.308 250.126 201.234 252.772 201.234ZM252.718 193.638C254.032 193.638 254.878 194.448 254.878 195.672H250.414C250.63 194.34 251.422 193.638 252.718 193.638ZM261.75 201V193.944H263.478V192.108H261.75V189.336H259.554V192.108H257.844V193.944H259.554V201H261.75Z" fill="#0F1922"/>
<rect x="467" y="178" width="32" height="32" rx="16" fill="#C948DE"/>
<path d="M477 194.444L480.514 198L490 190" stroke="white" stroke-width="2" stroke-linecap="round"/>
<path d="M131 235H499" stroke="black" stroke-opacity="0.1"/>
<path d="M134.125 285.958C134.125 280.416 134.125 277.645 135.204 275.528C136.152 273.666 137.666 272.152 139.528 271.204C141.645 270.125 144.416 270.125 149.958 270.125H162.042C167.584 270.125 170.355 270.125 172.472 271.204C174.334 272.152 175.848 273.666 176.796 275.528C177.875 277.645 177.875 280.416 177.875 285.958V298.042C177.875 303.584 177.875 306.355 176.796 308.472C175.848 310.334 174.334 311.848 172.472 312.796C170.355 313.875 167.584 313.875 162.042 313.875H149.958C144.416 313.875 141.645 313.875 139.528 312.796C137.666 311.848 136.152 310.334 135.204 308.472C134.125 306.355 134.125 303.584 134.125 298.042V285.958Z" fill="#00005B"/>
<path d="M204.02 299.216C207.134 299.216 209.546 297.38 210.05 294.608H207.656C207.224 296.066 205.856 297.002 204.074 297.002C201.662 297.002 200.114 295.202 200.114 292.412C200.114 289.604 201.644 287.84 204.074 287.84C205.82 287.84 207.134 288.74 207.584 290.27H210.014C209.564 287.444 207.242 285.626 204.128 285.626C200.276 285.626 197.702 288.344 197.702 292.43C197.702 296.552 200.186 299.216 204.02 299.216ZM212.688 299L213.75 295.958H218.664L219.726 299H222.156L217.404 285.842H215.046L210.294 299H212.688ZM215.928 289.766C216.054 289.406 216.162 289.01 216.216 288.758C216.252 289.028 216.378 289.424 216.486 289.766L217.998 294.014H214.434L215.928 289.766ZM229.008 294.464C231.636 294.464 233.364 292.682 233.364 290.144C233.364 287.57 231.654 285.842 229.008 285.842H223.806V299H226.11V294.464H229.008ZM228.558 287.894C230.088 287.894 230.952 288.686 230.952 290.126C230.952 291.566 230.106 292.412 228.522 292.412H226.11V287.894H228.558ZM234.15 287.966H238.002V299H240.306V287.966H244.158V285.842H234.15V287.966ZM250.954 299.216C254.068 299.216 256.48 297.38 256.984 294.608H254.59C254.158 296.066 252.79 297.002 251.008 297.002C248.596 297.002 247.048 295.202 247.048 292.412C247.048 289.604 248.578 287.84 251.008 287.84C252.754 287.84 254.068 288.74 254.518 290.27H256.948C256.498 287.444 254.176 285.626 251.062 285.626C247.21 285.626 244.636 288.344 244.636 292.43C244.636 296.552 247.12 299.216 250.954 299.216ZM261.354 299V293.42H267.186V299H269.49V285.842H267.186V291.278H261.354V285.842H259.05V299H261.354ZM273.543 299L274.605 295.958H279.519L280.581 299H283.011L278.259 285.842H275.901L271.149 299H273.543ZM276.783 289.766C276.909 289.406 277.017 289.01 277.071 288.758C277.107 289.028 277.233 289.424 277.341 289.766L278.853 294.014H275.289L276.783 289.766Z" fill="#0F1922"/>
<rect x="467.5" y="276.5" width="31" height="31" rx="15.5" stroke="#C948DE"/>
<path d="M477 292.444L480.514 296L490 288" stroke="white" stroke-width="2" stroke-linecap="round"/>
<path d="M131 329H499" stroke="black" stroke-opacity="0.1"/>
<path d="M134.125 379.958C134.125 374.416 134.125 371.645 135.204 369.528C136.152 367.666 137.666 366.152 139.528 365.204C141.645 364.125 144.416 364.125 149.958 364.125H162.042C167.584 364.125 170.355 364.125 172.472 365.204C174.334 366.152 175.848 367.666 176.796 369.528C177.875 371.645 177.875 374.416 177.875 379.958V392.042C177.875 397.584 177.875 400.355 176.796 402.472C175.848 404.334 174.334 405.848 172.472 406.796C170.355 407.875 167.584 407.875 162.042 407.875H149.958C144.416 407.875 141.645 407.875 139.528 406.796C137.666 405.848 136.152 404.334 135.204 402.472C134.125 400.355 134.125 397.584 134.125 392.042V379.958Z" fill="#470137"/>
<path d="M200.762 393V387.42H206.594V393H208.898V379.842H206.594V385.278H200.762V379.842H198.458V393H200.762ZM210.971 388.536C210.971 391.308 212.969 393.216 215.723 393.216C218.477 393.216 220.475 391.308 220.475 388.536C220.475 385.764 218.477 383.856 215.723 383.856C212.969 383.856 210.971 385.764 210.971 388.536ZM213.167 388.536C213.167 386.916 214.211 385.818 215.723 385.818C217.235 385.818 218.279 386.916 218.279 388.536C218.279 390.156 217.235 391.254 215.723 391.254C214.211 391.254 213.167 390.156 213.167 388.536ZM224.412 393V388.212C224.412 386.772 225.24 385.836 226.59 385.836C227.724 385.836 228.462 386.556 228.462 388.05V393H230.658V387.528C230.658 385.224 229.506 383.838 227.274 383.838C226.068 383.838 224.988 384.36 224.43 385.26L224.25 384.108H222.216V393H224.412ZM236.794 393.234C239.116 393.234 240.736 392.064 241.114 390.12H239.08C238.828 390.966 238.036 391.434 236.83 391.434C235.372 391.434 234.544 390.642 234.382 389.076L241.078 389.058V388.392C241.078 385.62 239.386 383.838 236.722 383.838C234.112 383.838 232.294 385.764 232.294 388.554C232.294 391.308 234.148 393.234 236.794 393.234ZM236.74 385.638C238.054 385.638 238.9 386.448 238.9 387.672H234.436C234.652 386.34 235.444 385.638 236.74 385.638ZM241.762 397.122C242.248 397.248 242.788 397.32 243.4 397.32C244.858 397.32 245.794 396.636 246.46 394.98L250.816 384.108H248.548L246.136 390.588L243.85 384.108H241.528L245.11 393.378L244.858 394.044C244.48 395.088 243.94 395.286 243.076 395.286H241.762V397.122ZM252.064 397.122H254.26V391.812C254.818 392.712 255.97 393.234 257.302 393.234C259.948 393.234 261.46 391.218 261.46 388.446C261.46 385.656 259.804 383.838 257.302 383.838C255.952 383.838 254.782 384.432 254.242 385.458L254.098 384.108H252.064V397.122ZM254.278 388.554C254.278 386.952 255.268 385.836 256.78 385.836C258.328 385.836 259.246 386.97 259.246 388.554C259.246 390.138 258.328 391.254 256.78 391.254C255.268 391.254 254.278 390.156 254.278 388.554ZM262.686 388.536C262.686 391.308 264.684 393.216 267.438 393.216C270.192 393.216 272.19 391.308 272.19 388.536C272.19 385.764 270.192 383.856 267.438 383.856C264.684 383.856 262.686 385.764 262.686 388.536ZM264.882 388.536C264.882 386.916 265.926 385.818 267.438 385.818C268.95 385.818 269.994 386.916 269.994 388.536C269.994 390.156 268.95 391.254 267.438 391.254C265.926 391.254 264.882 390.156 264.882 388.536ZM276.867 393V385.944H278.595V384.108H276.867V381.336H274.671V384.108H272.961V385.944H274.671V393H276.867Z" fill="#0F1922"/>
<rect x="467" y="370" width="32" height="32" rx="16" fill="#C948DE"/>
<path d="M477 386.444L480.514 390L490 382" stroke="white" stroke-width="2" stroke-linecap="round"/>
<path d="M131 423H499" stroke="black" stroke-opacity="0.1"/>
<path fill-rule="evenodd" clip-rule="evenodd" d="M72.2565 479.955C63.8424 477.551 55.1306 475.516 47.5809 471.368C47.1305 471.122 46.5551 471.15 46.2924 471.434C46.0334 471.719 46.1842 472.149 46.6339 472.398C54.3603 476.642 63.2617 478.755 71.8715 481.215C72.3801 481.362 72.8811 481.196 72.9862 480.849C73.095 480.502 72.7651 480.103 72.2565 479.955Z" fill="#280F2C"/>
<path fill-rule="evenodd" clip-rule="evenodd" d="M70.7619 488.579C67.6819 489.537 64.4728 490.012 60.8318 489.699C60.3118 489.653 59.9224 489.921 59.9573 490.294C59.996 490.669 60.4489 491.009 60.9653 491.053C64.9244 491.395 68.4152 490.891 71.7636 489.851C72.2051 489.715 72.3389 489.319 72.0598 488.968C71.7844 488.617 71.1998 488.442 70.7619 488.579Z" fill="#280F2C"/>
<path fill-rule="evenodd" clip-rule="evenodd" d="M73.2257 508.7C71.2566 511.218 68.2823 512.803 64.2063 513.431C63.7258 513.505 63.4943 513.865 63.6931 514.234C63.8882 514.603 64.4396 514.843 64.9201 514.769C69.4312 514.073 72.7283 512.32 74.9088 509.533C75.1435 509.235 74.9528 508.805 74.49 508.576C74.0236 508.346 73.4567 508.401 73.2257 508.7Z" fill="#280F2C"/>
<path fill-rule="evenodd" clip-rule="evenodd" d="M113.819 523.71C114.694 523.323 115.506 522.87 116.233 522.351C116.557 522.12 117.155 521.605 117.367 521.083C117.595 520.527 117.44 519.965 116.775 519.513C115.891 518.913 115.104 518.739 114.449 518.784C113.818 518.826 113.262 519.092 112.838 519.535C112.027 520.381 111.702 521.919 111.756 522.861C110.843 523.199 109.87 523.466 108.852 523.662C101.272 525.126 91.7571 521.288 85.4937 514.384C83.3018 511.967 82.9877 508.041 83.3608 503.996C83.9406 497.697 86.3319 491.129 86.9414 489.18C87.0903 488.699 87.101 488.392 87.0794 488.325C86.9813 487.994 86.6935 487.838 86.4861 487.752C86.1851 487.631 85.926 487.605 85.7068 487.623C85.4102 487.648 85.1418 487.76 84.967 487.997C84.8722 488.129 84.8028 488.329 84.7519 488.548C84.7189 488.701 84.7193 488.878 84.6459 488.974C84.1714 489.588 83.6421 490.171 83.1188 490.76C81.3683 492.743 79.3229 494.493 77.1151 496.196C70.1009 501.61 63.154 507.454 53.2541 510.357C52.8101 510.487 52.6653 510.88 52.9358 511.233C53.2027 511.586 53.7817 511.767 54.2295 511.637C64.3273 508.677 71.4445 502.746 78.5985 497.226C80.4761 495.776 82.2394 494.294 83.8104 492.67C82.7986 496.016 81.5875 500.699 81.3802 505.074C81.1954 508.965 81.8477 512.622 83.9782 514.971C90.8395 522.534 101.345 526.59 109.645 524.986C110.533 524.814 111.394 524.594 112.213 524.325C114.78 530.115 122.494 534.227 130.374 533.898C130.88 533.877 131.185 533.555 131.059 533.179C130.93 532.802 130.419 532.515 129.913 532.535C122.813 532.832 115.874 529.01 113.819 523.71ZM113.709 521.973C114.087 521.762 114.446 521.535 114.789 521.293C114.971 521.162 115.294 520.904 115.478 520.616C115.52 520.549 115.555 520.434 115.569 520.381C115.337 520.226 115.148 520.131 114.97 520.143C114.748 520.158 114.6 520.293 114.451 520.448C114.077 520.836 113.834 521.419 113.709 521.973Z" fill="#280F2C"/>
<path fill-rule="evenodd" clip-rule="evenodd" d="M448.855 81.2856C451.529 82.3026 454.166 83.3323 456.869 84.2709C457.45 84.4749 458.081 84.1704 458.281 83.5928C458.486 83.0121 458.178 82.378 457.6 82.1771C454.913 81.2416 452.298 80.2214 449.643 79.2106C449.068 78.994 448.428 79.2828 448.211 79.8509C447.995 80.4254 448.28 81.069 448.855 81.2856Z" fill="#2E1133"/>
<path fill-rule="evenodd" clip-rule="evenodd" d="M445.097 57.9195C453.582 54.796 461.904 51.2457 470.316 47.9434C470.888 47.7174 471.167 47.0738 470.944 46.5056C470.718 45.9343 470.078 45.6519 469.503 45.8747C461.106 49.174 452.8 52.7212 444.331 55.8352C443.753 56.0487 443.461 56.6858 443.671 57.2603C443.885 57.8379 444.522 58.1298 445.097 57.9195Z" fill="#2E1133"/>
<path fill-rule="evenodd" clip-rule="evenodd" d="M423.604 33.4139C428.084 27.2203 432.397 20.8919 436.945 14.7486C437.306 14.2557 437.203 13.5621 436.713 13.1979C436.22 12.8307 435.523 12.9374 435.159 13.4271C430.608 19.5798 426.288 25.9146 421.805 32.1175C421.448 32.6135 421.557 33.3072 422.053 33.6651C422.552 34.0261 423.243 33.913 423.604 33.4139Z" fill="#2E1133"/>
<rect width="207" height="63" transform="translate(24 61)" fill="#280F2C"/>
<path d="M63.416 101.336C62.12 101.336 60.976 101.104 59.984 100.64C58.992 100.176 58.216 99.512 57.656 98.648C57.096 97.784 56.816 96.744 56.816 95.528V94.856H59.936V95.528C59.936 96.536 60.248 97.296 60.872 97.808C61.496 98.304 62.344 98.552 63.416 98.552C64.504 98.552 65.312 98.336 65.84 97.904C66.384 97.472 66.656 96.92 66.656 96.248C66.656 95.784 66.52 95.408 66.248 95.12C65.992 94.832 65.608 94.6 65.096 94.424C64.6 94.232 63.992 94.056 63.272 93.896L62.72 93.776C61.568 93.52 60.576 93.2 59.744 92.816C58.928 92.416 58.296 91.896 57.848 91.256C57.416 90.616 57.2 89.784 57.2 88.76C57.2 87.736 57.44 86.864 57.92 86.144C58.416 85.408 59.104 84.848 59.984 84.464C60.88 84.064 61.928 83.864 63.128 83.864C64.328 83.864 65.392 84.072 66.32 84.488C67.264 84.888 68 85.496 68.528 86.312C69.072 87.112 69.344 88.12 69.344 89.336V90.056H66.224V89.336C66.224 88.696 66.096 88.184 65.84 87.8C65.6 87.4 65.248 87.112 64.784 86.936C64.32 86.744 63.768 86.648 63.128 86.648C62.168 86.648 61.456 86.832 60.992 87.2C60.544 87.552 60.32 88.04 60.32 88.664C60.32 89.08 60.424 89.432 60.632 89.72C60.856 90.008 61.184 90.248 61.616 90.44C62.048 90.632 62.6 90.8 63.272 90.944L63.824 91.064C65.024 91.32 66.064 91.648 66.944 92.048C67.84 92.448 68.536 92.976 69.032 93.632C69.528 94.288 69.776 95.128 69.776 96.152C69.776 97.176 69.512 98.08 68.984 98.864C68.472 99.632 67.736 100.24 66.776 100.688C65.832 101.12 64.712 101.336 63.416 101.336ZM72.2347 105.8V89.096H75.2107V90.536H75.6427C75.9147 90.072 76.3387 89.664 76.9147 89.312C77.4907 88.944 78.3147 88.76 79.3867 88.76C80.3467 88.76 81.2347 89 82.0507 89.48C82.8667 89.944 83.5227 90.632 84.0187 91.544C84.5147 92.456 84.7627 93.56 84.7627 94.856V95.24C84.7627 96.536 84.5147 97.64 84.0187 98.552C83.5227 99.464 82.8667 100.16 82.0507 100.64C81.2347 101.104 80.3467 101.336 79.3867 101.336C78.6667 101.336 78.0587 101.248 77.5627 101.072C77.0827 100.912 76.6907 100.704 76.3867 100.448C76.0987 100.176 75.8667 99.904 75.6907 99.632H75.2587V105.8H72.2347ZM78.4747 98.696C79.4187 98.696 80.1947 98.4 80.8027 97.808C81.4267 97.2 81.7387 96.32 81.7387 95.168V94.928C81.7387 93.776 81.4267 92.904 80.8027 92.312C80.1787 91.704 79.4027 91.4 78.4747 91.4C77.5467 91.4 76.7707 91.704 76.1467 92.312C75.5227 92.904 75.2107 93.776 75.2107 94.928V95.168C75.2107 96.32 75.5227 97.2 76.1467 97.808C76.7707 98.4 77.5467 98.696 78.4747 98.696ZM91.2354 101.336C90.3874 101.336 89.6274 101.192 88.9554 100.904C88.2834 100.6 87.7474 100.168 87.3474 99.608C86.9634 99.032 86.7714 98.336 86.7714 97.52C86.7714 96.704 86.9634 96.024 87.3474 95.48C87.7474 94.92 88.2914 94.504 88.9794 94.232C89.6834 93.944 90.4834 93.8 91.3794 93.8H94.6434V93.128C94.6434 92.568 94.4674 92.112 94.1154 91.76C93.7634 91.392 93.2034 91.208 92.4354 91.208C91.6834 91.208 91.1234 91.384 90.7554 91.736C90.3874 92.072 90.1474 92.512 90.0354 93.056L87.2514 92.12C87.4434 91.512 87.7474 90.96 88.1634 90.464C88.5954 89.952 89.1634 89.544 89.8674 89.24C90.5874 88.92 91.4594 88.76 92.4834 88.76C94.0514 88.76 95.2914 89.152 96.2034 89.936C97.1154 90.72 97.5714 91.856 97.5714 93.344V97.784C97.5714 98.264 97.7954 98.504 98.2434 98.504H99.2034V101H97.1874C96.5954 101 96.1074 100.856 95.7234 100.568C95.3394 100.28 95.1474 99.896 95.1474 99.416V99.392H94.6914C94.6274 99.584 94.4834 99.84 94.2594 100.16C94.0354 100.464 93.6834 100.736 93.2034 100.976C92.7234 101.216 92.0674 101.336 91.2354 101.336ZM91.7634 98.888C92.6114 98.888 93.2994 98.656 93.8274 98.192C94.3714 97.712 94.6434 97.08 94.6434 96.296V96.056H91.5954C91.0354 96.056 90.5954 96.176 90.2754 96.416C89.9554 96.656 89.7954 96.992 89.7954 97.424C89.7954 97.856 89.9634 98.208 90.2994 98.48C90.6354 98.752 91.1234 98.888 91.7634 98.888ZM101.414 101V89.096H104.39V90.392H104.822C105.03 89.992 105.374 89.648 105.854 89.36C106.334 89.056 106.966 88.904 107.75 88.904C108.598 88.904 109.278 89.072 109.79 89.408C110.302 89.728 110.694 90.152 110.966 90.68H111.398C111.67 90.168 112.054 89.744 112.55 89.408C113.046 89.072 113.75 88.904 114.662 88.904C115.398 88.904 116.062 89.064 116.654 89.384C117.262 89.688 117.742 90.16 118.094 90.8C118.462 91.424 118.646 92.216 118.646 93.176V101H115.622V93.392C115.622 92.736 115.454 92.248 115.118 91.928C114.782 91.592 114.31 91.424 113.702 91.424C113.014 91.424 112.478 91.648 112.094 92.096C111.726 92.528 111.542 93.152 111.542 93.968V101H108.518V93.392C108.518 92.736 108.35 92.248 108.014 91.928C107.678 91.592 107.206 91.424 106.598 91.424C105.91 91.424 105.374 91.648 104.99 92.096C104.622 92.528 104.438 93.152 104.438 93.968V101H101.414ZM127.896 101V84.2H138.457V87.08H131.065V91.136H137.881V94.016H131.065V101H127.896ZM140.813 101V89.096H143.837V101H140.813ZM142.325 87.704C141.781 87.704 141.317 87.528 140.933 87.176C140.565 86.824 140.381 86.36 140.381 85.784C140.381 85.208 140.565 84.744 140.933 84.392C141.317 84.04 141.781 83.864 142.325 83.864C142.885 83.864 143.349 84.04 143.717 84.392C144.085 84.744 144.269 85.208 144.269 85.784C144.269 86.36 144.085 86.824 143.717 87.176C143.349 87.528 142.885 87.704 142.325 87.704ZM147.188 101V84.2H150.212V101H147.188ZM158.123 101C157.339 101 156.699 100.76 156.203 100.28C155.723 99.784 155.483 99.128 155.483 98.312V91.592H152.507V89.096H155.483V85.4H158.507V89.096H161.771V91.592H158.507V97.784C158.507 98.264 158.731 98.504 159.179 98.504H161.483V101H158.123ZM169.51 101.336C168.326 101.336 167.278 101.088 166.366 100.592C165.47 100.08 164.766 99.368 164.254 98.456C163.758 97.528 163.51 96.44 163.51 95.192V94.904C163.51 93.656 163.758 92.576 164.254 91.664C164.75 90.736 165.446 90.024 166.342 89.528C167.238 89.016 168.278 88.76 169.462 88.76C170.63 88.76 171.646 89.024 172.51 89.552C173.374 90.064 174.046 90.784 174.526 91.712C175.006 92.624 175.246 93.688 175.246 94.904V95.936H166.582C166.614 96.752 166.918 97.416 167.494 97.928C168.07 98.44 168.774 98.696 169.606 98.696C170.454 98.696 171.078 98.512 171.478 98.144C171.878 97.776 172.182 97.368 172.39 96.92L174.862 98.216C174.638 98.632 174.31 99.088 173.878 99.584C173.462 100.064 172.902 100.48 172.198 100.832C171.494 101.168 170.598 101.336 169.51 101.336ZM166.606 93.68H172.174C172.11 92.992 171.83 92.44 171.334 92.024C170.854 91.608 170.222 91.4 169.438 91.4C168.622 91.4 167.974 91.608 167.494 92.024C167.014 92.44 166.718 92.992 166.606 93.68ZM177.938 101V89.096H180.914V90.44H181.346C181.522 89.96 181.81 89.608 182.21 89.384C182.626 89.16 183.106 89.048 183.65 89.048H185.09V91.736H183.602C182.834 91.736 182.202 91.944 181.706 92.36C181.21 92.76 180.962 93.384 180.962 94.232V101H177.938ZM192.116 101.336C190.564 101.336 189.292 101 188.3 100.328C187.308 99.656 186.708 98.696 186.5 97.448L189.284 96.728C189.396 97.288 189.58 97.728 189.836 98.048C190.108 98.368 190.436 98.6 190.82 98.744C191.22 98.872 191.652 98.936 192.116 98.936C192.82 98.936 193.34 98.816 193.676 98.576C194.012 98.32 194.18 98.008 194.18 97.64C194.18 97.272 194.02 96.992 193.7 96.8C193.38 96.592 192.868 96.424 192.164 96.296L191.492 96.176C190.66 96.016 189.9 95.8 189.212 95.528C188.524 95.24 187.972 94.848 187.556 94.352C187.14 93.856 186.932 93.216 186.932 92.432C186.932 91.248 187.364 90.344 188.228 89.72C189.092 89.08 190.228 88.76 191.636 88.76C192.964 88.76 194.068 89.056 194.948 89.648C195.828 90.24 196.404 91.016 196.676 91.976L193.868 92.84C193.74 92.232 193.476 91.8 193.076 91.544C192.692 91.288 192.212 91.16 191.636 91.16C191.06 91.16 190.62 91.264 190.316 91.472C190.012 91.664 189.86 91.936 189.86 92.288C189.86 92.672 190.02 92.96 190.34 93.152C190.66 93.328 191.092 93.464 191.636 93.56L192.308 93.68C193.204 93.84 194.012 94.056 194.732 94.328C195.468 94.584 196.044 94.96 196.46 95.456C196.892 95.936 197.108 96.592 197.108 97.424C197.108 98.672 196.652 99.64 195.74 100.328C194.844 101 193.636 101.336 192.116 101.336Z" fill="white"/>
</svg>
