<svg height="431pt" viewBox="0 -4 431.008 431" width="431pt" xmlns="http://www.w3.org/2000/svg"><path d="M391.504 211.61c0 97.202-78.797 176-176 176s-176-78.798-176-176 78.797-176 176-176 176 78.796 176 176zm0 0" fill="#00C0BC"/><path d="M63.504 251.32H8a8 8 0 0 0 0 16h55.504a8 8 0 0 0 0-16zm359.504-95.422H201.816l83.047-143.847a7.999 7.999 0 0 0 .035-8.031 7.996 7.996 0 0 0-13.89.03L160.406 195.61 77.36 51.77a8.002 8.002 0 0 0-6.937-4.047 7.999 7.999 0 0 0-6.918 12.047l110.601 191.55H95.504a8 8 0 0 0 0 16H229.19l-83.046 143.852a7.991 7.991 0 0 0-.036 8.027 7.988 7.988 0 0 0 6.954 4.016 7.999 7.999 0 0 0 6.937-4.043l110.602-191.563 83.046 143.84a7.996 7.996 0 0 0 13.89.031 7.999 7.999 0 0 0-.034-8.03L256.902 171.897h166.106a8 8 0 0 0 0-16zM261.359 211.61l-22.925 39.711h-45.86l-22.926-39.71 22.926-39.712h45.86zm0 0" fill="#49457B"/></svg>