<?xml version="1.0" encoding="UTF-8"?><svg id="katman_2" xmlns="http://www.w3.org/2000/svg" viewBox="0 0 140 160"><defs><style>.cls-1{fill:#00b3ff;}.cls-2{fill:#1579ff;}.cls-3{fill:#293fff;}</style></defs><g id="Layer_1"><g id="Full_Logo"><g id="Logomark"><path id="_1" class="cls-3" d="M66.56,44.73c-14.35,0-28.74-1.23-42.82-3.67-1.64-.28-2.73-1.87-2.42-3.5l5.46-29.36c.3-1.62,1.85-2.68,3.47-2.4,24.85,4.24,50.81,4.07,75.56-.52,7.21-1.34,14.37-3.06,21.31-5.14,1.58-.47,3.24,.39,3.74,1.96l9,28.48c.5,1.58-.39,3.29-1.98,3.77-8.33,2.51-16.91,4.59-25.54,6.19-15.01,2.78-30.41,4.2-45.78,4.2Z"/><path id="_2" class="cls-2" d="M66.56,102.37c-18.04,0-36.02-1.56-53.48-4.65-1.64-.29-2.72-1.88-2.42-3.51l5.51-29.35c.3-1.62,1.85-2.68,3.48-2.39,30.62,5.37,63.22,5.37,93.83,0,1.62-.28,3.17,.77,3.48,2.39l5.51,29.35c.31,1.63-.78,3.22-2.42,3.51-17.46,3.09-35.44,4.65-53.48,4.65Z"/><path id="_3" class="cls-1" d="M63.54,160c-20.51-.17-41.03-2.06-61.07-5.62-1.64-.29-2.72-1.88-2.42-3.51l5.48-29.35c.3-1.62,1.85-2.68,3.48-2.4,17.91,3.17,36.24,4.85,54.58,5.02,1.65,.01,2.98,1.34,2.98,2.99v29.86c0,1.66-1.36,3.02-3.02,3.01Z"/></g></g></g></svg>