<?xml version="1.0" encoding="utf-8"?>
<svg viewBox="106.922 121.244 371.34 74.643" width="371.34" height="74.643" xmlns="http://www.w3.org/2000/svg">
  <defs>
    <linearGradient id="linear-gradient" x1=".28" y1="3.88" x2="26" y2="3.88" gradientUnits="userSpaceOnUse">
      <stop offset="0" stop-color="#ea580c"/>
      <stop offset="1" stop-color="#ea8b0c"/>
    </linearGradient>
    <linearGradient id="linear-gradient-2" x1=".28" y1="11.53" x2="17.14" y2="11.53" gradientUnits="userSpaceOnUse">
      <stop offset="0" stop-color="#ec6e3b"/>
      <stop offset="1" stop-color="#ea8e16"/>
    </linearGradient>
    <linearGradient id="linear-gradient-3" x1=".28" y1="19.18" x2="8.93" y2="19.18" gradientUnits="userSpaceOnUse">
      <stop offset="0" stop-color="#ec7c1f"/>
      <stop offset="1" stop-color="#eaba0c"/>
    </linearGradient>
  </defs>
  <g transform="matrix(0.148248, 0, 0, 0.148248, 182.415423, 143.02759)" style="">
    <svg viewBox="0 0 396 58" data-background-color="#ffffff" preserveAspectRatio="xMidYMid meet" height="292" width="2000" xmlns="http://www.w3.org/2000/svg">
      <g id="tight-bounds" transform="matrix(1,0,0,1,0.23999676727510177,0.16401689957751842)">
        <svg viewBox="0 0 395.52 57.67196620084498" height="57.67196620084498" width="395.52">
          <g>
            <svg viewBox="0 0 395.52 57.67196620084498" height="57.67196620084498" width="395.52">
              <g>
                <svg viewBox="0 0 395.52 57.67196620084498" height="57.67196620084498" width="395.52">
                  <g>
                    <svg viewBox="0 0 395.52 57.67196620084498" height="57.67196620084498" width="395.52">
                      <g>
                        <svg viewBox="0 0 395.52 57.67196620084498" height="57.67196620084498" width="395.52">
                          <g id="textblocktransform">
                            <svg viewBox="0 0 395.52 57.67196620084498" height="57.67196620084498" width="395.52" id="textblock">
                              <g>
                                <svg viewBox="0 0 395.52 57.67196620084498" height="57.67196620084498" width="395.52">
                                  <g transform="matrix(1,0,0,1,0,0)">
                                    <svg width="395.52" viewBox="-0.2900000214576721 -32.060001373291016 225.33999633789062 32.87000274658203" height="57.67196620084498" data-palette-color="#fe753f">
                                      <path d="M2.93-20.29L0.02-20.46-0.29-16.6 2.81-16.94 3.08-5.25 0.27-3.49-0.24 0 15.77 0 16.33-4.22 11.04-5.62 10.57-17.04 16.58-16.6 16.92-20.9 10.5-20.39 10.45-21.24Q10.35-22.9 10.35-23.8L10.35-23.8Q10.35-25.34 10.61-26.25 10.86-27.15 11.52-27.15L11.52-27.15Q12.35-27.15 13.61-25.9 14.87-24.66 15.89-23L15.89-23Q16.85-23.02 17.9-23.52 18.95-24.02 19.65-25.04 20.36-26.05 20.36-27.47L20.36-27.47Q20.36-28.78 19.69-29.82 19.02-30.86 17.7-31.46 16.38-32.06 14.53-32.06L14.53-32.06Q11.89-32.06 9.39-30.48 6.88-28.91 5.14-26.21 3.39-23.51 2.93-20.29L2.93-20.29ZM28.34 0.81Q31.88 0.81 34.36-0.68 36.84-2.17 38.13-5.04 39.43-7.91 39.43-11.99L39.43-11.99Q39.43-17.53 36.74-20.39 34.06-23.24 28.85-23.24L28.85-23.24Q25.9-23.24 23.29-21.78 20.68-20.31 19.09-17.55 17.5-14.79 17.5-11.13L17.5-11.13Q17.5-5.2 20.09-2.2 22.68 0.81 28.34 0.81L28.34 0.81ZM27.93-17.92Q29.51-17.92 30.34-15.61 31.17-13.31 31.17-10.21L31.17-10.21Q31.17-7.3 30.69-5.83 30.2-4.37 29.1-4.37L29.1-4.37Q28.1-4.37 27.32-5.31 26.54-6.25 26.1-7.96 25.66-9.67 25.66-11.94L25.66-11.94Q25.66-14.97 26.16-16.44 26.66-17.92 27.93-17.92L27.93-17.92ZM40.91-3.49L40.4 0 55.93 0 56.37-4.1 50.95-5.64 50.95-12.94Q52.58-13.67 55.46-13.67L55.46-13.67Q57.17-13.67 59.44-13.09L59.44-13.09Q60.49-15.67 60.49-18.09L60.49-18.09Q60.49-20.17 59.57-21.44 58.64-22.71 56.49-22.71L56.49-22.71Q54.8-22.71 53.17-20.96 51.53-19.21 50.48-16.06L50.48-16.06 50.02-16.06 50.02-21.46 49.09-22.41 41.11-21.7 40.45-18.33 43.38-16.43 43.48-5.25 40.91-3.49ZM74.6-15.63Q75.97-15.63 76.63-14.83 77.29-14.04 77.29-12.06L77.29-12.06 77.29-4.61 77.19-3.49 76.85 0 86.88 0 87.44-3.78 85.03-5.18 85.03-14.92Q86.61-15.63 87.83-15.63L87.83-15.63Q89.06-15.63 89.65-14.83 90.25-14.04 90.25-12.06L90.25-12.06 90.25-4.61 90.15-3.49 89.81 0 99.85 0 100.41-3.78 97.99-5.18 97.99-15.65Q97.99-19.29 96.46-20.98 94.94-22.68 92.25-22.68L92.25-22.68Q90.28-22.68 88.59-21.72 86.91-20.75 85.03-18.82L85.03-18.82 84.61-18.82Q84-20.8 82.57-21.74 81.14-22.68 79.02-22.68L79.02-22.68Q77.09-22.68 75.46-21.72 73.82-20.75 71.97-18.82L71.97-18.82 71.6-18.82 71.6-21.46 70.67-22.41 61.98-21.7 61.32-18.33 64.2-16.36 64.2-5.25 61.64-3.49 61.13 0 74.28 0 74.97-3.71 71.97-5.25 71.97-14.82Q73.41-15.63 74.6-15.63L74.6-15.63ZM101.48-4.39L101.67 0 120.08 0 121.03-8.06 117.57-8.94 114.59-4.42 110.12-4.42 120.42-18.63 120.57-22.51 101.7-22.51 101.09-14.72 105.02-14.01 107.44-18.24 111.03-18.24 101.48-4.39ZM128.72-23.88Q131.41-23.88 132.73-24.99 134.05-26.1 134.05-27.76L134.05-27.76Q134.05-28.78 133.46-29.64 132.87-30.49 131.68-30.99 130.48-31.49 128.77-31.49L128.77-31.49Q126.97-31.49 125.68-31.01 124.4-30.52 123.75-29.68 123.11-28.83 123.11-27.78L123.11-27.78Q123.11-26.05 124.43-24.96 125.74-23.88 128.72-23.88L128.72-23.88ZM132.68-21.29L131.7-22.39 122.77-21.73 122.06-18.21 125.01-16.24 125.01-5.25 122.45-3.49 121.94 0 134.53 0 135.09-3.78 132.68-5.18 132.68-21.29ZM146.01-30.81L145.03-31.91 136.09-31.25 135.39-27.73 138.34-25.76 138.34-5.25 135.78-3.49 135.26 0 147.86 0 148.42-3.78 146.01-5.18 146.01-30.81ZM159.33-30.81L158.36-31.91 149.42-31.25 148.71-27.73 151.67-25.76 151.67-5.25 149.1-3.49 148.59 0 161.19 0 161.75-3.78 159.33-5.18 159.33-30.81ZM168.71-23.88Q171.39-23.88 172.71-24.99 174.03-26.1 174.03-27.76L174.03-27.76Q174.03-28.78 173.44-29.64 172.86-30.49 171.66-30.99 170.46-31.49 168.75-31.49L168.75-31.49Q166.95-31.49 165.67-31.01 164.38-30.52 163.74-29.68 163.09-28.83 163.09-27.78L163.09-27.78Q163.09-26.05 164.41-24.96 165.73-23.88 168.71-23.88L168.71-23.88ZM172.66-21.29L171.68-22.39 162.75-21.73 162.04-18.21 164.99-16.24 164.99-5.25 162.43-3.49 161.92 0 174.52 0 175.08-3.78 172.66-5.18 172.66-21.29ZM186.67 0.81Q190.21 0.81 192.69-0.68 195.17-2.17 196.46-5.04 197.76-7.91 197.76-11.99L197.76-11.99Q197.76-17.53 195.07-20.39 192.38-23.24 187.18-23.24L187.18-23.24Q184.23-23.24 181.62-21.78 179.01-20.31 177.42-17.55 175.83-14.79 175.83-11.13L175.83-11.13Q175.83-5.2 178.42-2.2 181.01 0.81 186.67 0.81L186.67 0.81ZM186.26-17.92Q187.84-17.92 188.67-15.61 189.5-13.31 189.5-10.21L189.5-10.21Q189.5-7.3 189.02-5.83 188.53-4.37 187.43-4.37L187.43-4.37Q186.43-4.37 185.65-5.31 184.87-6.25 184.43-7.96 183.99-9.67 183.99-11.94L183.99-11.94Q183.99-14.97 184.49-16.44 184.99-17.92 186.26-17.92L186.26-17.92ZM212.21-15.63Q213.57-15.63 214.23-14.83 214.89-14.04 214.89-12.06L214.89-12.06 214.89-4.61 214.79-3.49 214.45 0 224.49 0 225.05-3.78 222.63-5.18 222.63-15.65Q222.63-19.29 221.04-20.98 219.46-22.68 216.63-22.68L216.63-22.68Q214.7-22.68 213.06-21.72 211.43-20.75 209.57-18.82L209.57-18.82 209.2-18.82 209.2-21.46 208.28-22.41 199.58-21.7 198.93-18.33 201.81-16.36 201.81-5.25 199.24-3.49 198.73 0 211.89 0 212.57-3.71 209.57-5.25 209.57-14.82Q211.01-15.63 212.21-15.63L212.21-15.63Z" opacity="1" transform="matrix(1,0,0,1,0,0)" fill="#fe753f" class="undefined-text-0" data-fill-palette-color="primary" id="text-0"/>
                                    </svg>
                                  </g>
                                </svg>
                              </g>
                            </svg>
                          </g>
                        </svg>
                      </g>
                      <g/>
                    </svg>
                  </g>
                </svg>
              </g>
            </svg>
          </g>
        </svg>
        <rect width="395.52" height="57.67196620084498" fill="none" stroke="none" visibility="hidden"/>
      </g>
    </svg>
  </g>
  <g class="cls-4" transform="matrix(3.252425, 0, 0, 3.252425, 106.011598, 121.081041)" style="isolation: isolate;">
    <g id="Layer_5" data-name="Layer 5">
      <g>
        <path class="cls-2" d="m26,.05l-3.91,4.69-2.47,2.96H.28V3.38C.28,1.54,1.77.05,3.61.05h22.39Z" style="fill: url(#linear-gradient); mix-blend-mode: multiply;"/>
        <polygon class="cls-3" points="17.14 7.7 10.9 15.17 10.75 15.35 .28 15.35 .28 7.7 17.14 7.7" style="fill: url(#linear-gradient-2); mix-blend-mode: multiply;"/>
        <path class="cls-1" d="m8.93,15.35h-.01s-6.22,7.47-6.22,7.47l-.15.18h-1.08c-.65,0-1.17-.53-1.17-1.17v-6.48h8.65Z" style="fill: url(#linear-gradient-3); mix-blend-mode: multiply;"/>
      </g>
    </g>
  </g>
</svg>