<?xml version="1.0" encoding="UTF-8"?>
<svg xmlns="http://www.w3.org/2000/svg" xmlns:xlink="http://www.w3.org/1999/xlink" viewBox="0 0 103 23">
  <defs>
    <style>
      .cls-1 {
        isolation: isolate;
      }

      .cls-2 {
        fill: #ea580c;
      }

      .cls-3 {
        fill: url(#linear-gradient);
      }

      .cls-4 {
        mix-blend-mode: multiply;
      }
    </style>
    <linearGradient id="linear-gradient" x1=".46" y1="11.52" x2="16.11" y2="11.52" gradientUnits="userSpaceOnUse">
      <stop offset="0" stop-color="#ea580c"/>
      <stop offset="1" stop-color="#ea9f0c"/>
    </linearGradient>
  </defs>
  <g class="cls-1">
    <g id="Layer_8" data-name="Layer 8">
      <g>
        <path class="cls-2" d="m22.32,22.84h-2.23v-10.71h6.14v1.86h-3.9v2.76h3.63v1.85h-3.63v4.23Z"/>
        <path class="cls-2" d="m35.59,18.73c0,1.33-.35,2.38-1.05,3.13s-1.68,1.13-2.94,1.13c-.79,0-1.48-.17-2.08-.52-.6-.34-1.06-.84-1.38-1.48s-.48-1.4-.48-2.26c0-1.34.35-2.38,1.05-3.12s1.68-1.11,2.95-1.11c.79,0,1.48.17,2.08.51.6.34,1.06.83,1.38,1.47s.48,1.39.48,2.25Zm-5.66,0c0,.81.13,1.42.4,1.84.27.42.7.62,1.3.62s1.02-.21,1.29-.62c.26-.41.39-1.03.39-1.84s-.13-1.42-.4-1.82-.7-.61-1.3-.61-1.03.2-1.29.6c-.26.4-.4,1.01-.4,1.83Z"/>
        <path class="cls-2" d="m42,14.5c.3,0,.55.02.75.07l-.17,2.09c-.18-.05-.4-.07-.66-.07-.71,0-1.27.18-1.67.55-.4.37-.6.88-.6,1.54v4.17h-2.23v-8.19h1.69l.33,1.38h.11c.25-.46.6-.83,1.03-1.11.43-.28.9-.42,1.41-.42Z"/>
        <path class="cls-2" d="m51.58,22.84h-2.23v-4.78c0-.59-.1-1.03-.3-1.33-.2-.29-.51-.44-.93-.44-.57,0-.99.21-1.25.63-.26.42-.39,1.11-.39,2.07v3.85h-2.23v-8.19h1.71l.3,1.05h.12c.22-.38.54-.67.95-.88.41-.21.89-.32,1.43-.32,1.23,0,2.06.4,2.49,1.2h.2c.22-.38.54-.68.97-.89.43-.21.91-.31,1.45-.31.93,0,1.63.24,2.11.71s.71,1.24.71,2.29v5.34h-2.24v-4.78c0-.59-.1-1.03-.3-1.33-.2-.29-.51-.44-.93-.44-.55,0-.96.2-1.23.59-.27.39-.41,1.01-.41,1.86v4.11Z"/>
        <path class="cls-2" d="m64.67,22.84h-6.47v-1.32l3.79-5.16h-3.57v-1.71h6.11v1.45l-3.69,5.03h3.82v1.71Z"/>
        <path class="cls-2" d="m66.2,12.53c0-.73.41-1.09,1.22-1.09s1.21.36,1.21,1.09c0,.35-.1.62-.3.81-.2.19-.51.29-.91.29-.81,0-1.22-.37-1.22-1.1Zm2.33,10.3h-2.23v-8.19h2.23v8.19Z"/>
        <path class="cls-2" d="m73.1,22.84h-2.23v-11.4h2.23v11.4Z"/>
        <path class="cls-2" d="m77.68,22.84h-2.23v-11.4h2.23v11.4Z"/>
        <path class="cls-2" d="m79.93,12.53c0-.73.41-1.09,1.22-1.09s1.21.36,1.21,1.09c0,.35-.1.62-.3.81-.2.19-.51.29-.91.29-.81,0-1.22-.37-1.22-1.1Zm2.33,10.3h-2.23v-8.19h2.23v8.19Z"/>
        <path class="cls-2" d="m92.04,18.73c0,1.33-.35,2.38-1.05,3.13s-1.68,1.13-2.94,1.13c-.79,0-1.48-.17-2.08-.52-.6-.34-1.06-.84-1.38-1.48s-.48-1.4-.48-2.26c0-1.34.35-2.38,1.05-3.12s1.68-1.11,2.95-1.11c.79,0,1.48.17,2.08.51.6.34,1.06.83,1.38,1.47s.48,1.39.48,2.25Zm-5.66,0c0,.81.13,1.42.4,1.84.27.42.7.62,1.3.62s1.02-.21,1.29-.62c.26-.41.39-1.03.39-1.84s-.13-1.42-.4-1.82-.7-.61-1.3-.61-1.03.2-1.29.6c-.26.4-.4,1.01-.4,1.83Z"/>
        <path class="cls-2" d="m101.45,22.84h-2.23v-4.78c0-.59-.1-1.03-.31-1.33-.21-.29-.54-.44-1-.44-.62,0-1.08.21-1.35.63-.28.42-.42,1.11-.42,2.08v3.85h-2.23v-8.19h1.71l.3,1.05h.12c.25-.4.59-.7,1.03-.9.44-.2.93-.3,1.49-.3.95,0,1.67.26,2.17.77.49.51.74,1.26.74,2.23v5.34Z"/>
      </g>
      <g class="cls-4">
        <g>
          <path class="cls-3" d="m5.52,18.4V6.61H.57v14.78c.94-1.78,2.81-2.99,4.95-2.99Z"/>
          <path class="cls-3" d="m14.15,1.01H5.52C2.78,1.01.57,3.23.57,5.97h10.59c2.73,0,4.95-2.22,4.95-4.95V.05c-.45.59-1.16.97-1.96.97Z"/>
          <path class="cls-3" d="m5.46,21v-8.63c0-2.73-2.22-4.95-4.95-4.95v10.59c-.06,6.06-.67,4.84,4.95,4.95h.97c-.59-.45-.97-1.16-.97-1.96Z"/>
          <path class="cls-3" d="m9.96,10.05h-3.8v4.95h.81c2.73,0,4.95-2.22,4.95-4.95v-.97c-.45.59-1.16.97-1.96.97Z"/>
        </g>
      </g>
    </g>
  </g>
</svg>