<?xml version="1.0" encoding="UTF-8"?>
<svg xmlns="http://www.w3.org/2000/svg" xmlns:xlink="http://www.w3.org/1999/xlink" viewBox="0 0 24 24">
  <defs>
    <style>
      .cls-1 {
        isolation: isolate;
      }

      .cls-2 {
        fill: url(#linear-gradient);
      }

      .cls-3 {
        mix-blend-mode: multiply;
      }
    </style>
    <linearGradient id="linear-gradient" x1="4.35" y1="12" x2="20.72" y2="12" gradientUnits="userSpaceOnUse">
      <stop offset="0" stop-color="#ea580c"/>
      <stop offset="1" stop-color="#ea9f0c"/>
    </linearGradient>
  </defs>
  <g class="cls-1">
    <g id="Layer_8" data-name="Layer 8">
      <g class="cls-3">
        <g>
          <path class="cls-2" d="m9.64,19.2V6.87h-5.18v15.47c.98-1.86,2.93-3.13,5.18-3.13Z"/>
          <path class="cls-2" d="m18.67,1.01h-9.03c-2.86,0-5.18,2.32-5.18,5.18h11.08c2.86,0,5.18-2.32,5.18-5.18V0c-.47.61-1.21,1.01-2.05,1.01Z"/>
          <path class="cls-2" d="m9.58,21.91v-9.03c0-2.86-2.32-5.18-5.18-5.18v11.08c-.06,6.34-.7,5.07,5.18,5.18h1.01c-.61-.47-1.01-1.21-1.01-2.05Z"/>
          <path class="cls-2" d="m14.29,10.46h-3.97v5.18h.84c2.86,0,5.18-2.32,5.18-5.18v-1.01c-.47.61-1.21,1.01-2.05,1.01Z"/>
        </g>
      </g>
    </g>
  </g>
</svg>