<svg width="64" height="64" fill="none" xmlns="http://www.w3.org/2000/svg"><path opacity=".5" d="M48 56h-8v8h8v-8z" fill="#0074BF"/><path opacity=".7" d="M40 56h-8v8h8v-8zm-8 0h-8v8h8v-8z" fill="#0074BF"/><path opacity=".5" d="M24 56h-8v8h8v-8z" fill="#0074BF"/><path opacity=".7" d="M56 48h-8v8h8v-8z" fill="#0082BF"/><path opacity=".8" d="M48 48h-8v8h8v-8z" fill="#0082BF"/><path d="M40 48h-8v8h8v-8zm-8 0h-8v8h8v-8z" fill="#0082BF"/><path opacity=".8" d="M24 48h-8v8h8v-8z" fill="#0082BF"/><path opacity=".7" d="M16 48H8v8h8v-8z" fill="#0082BF"/><path opacity=".5" d="M64 40h-8v8h8v-8z" fill="#008FBF"/><path opacity=".8" d="M56 40h-8v8h8v-8z" fill="#008FBF"/><path d="M48 40h-8v8h8v-8zm-8 0h-8v8h8v-8zm-8 0h-8v8h8v-8zm-8 0h-8v8h8v-8z" fill="#008FBF"/><path opacity=".8" d="M16 40H8v8h8v-8z" fill="#008FBF"/><path opacity=".5" d="M8 40H0v8h8v-8z" fill="#008FBF"/><path opacity=".7" d="M64 32h-8v8h8v-8z" fill="#009DBF"/><path d="M56 32h-8v8h8v-8zm-8 0h-8v8h8v-8zm-8 0h-8v8h8v-8zm-8 0h-8v8h8v-8zm-8 0h-8v8h8v-8zm-8 0H8v8h8v-8z" fill="#009DBF"/><path opacity=".7" d="M8 32H0v8h8v-8z" fill="#009DBF"/><path opacity=".7" d="M64 24h-8v8h8v-8z" fill="#00ABBF"/><path d="M56 24h-8v8h8v-8zm-8 0h-8v8h8v-8zm-8 0h-8v8h8v-8zm-8 0h-8v8h8v-8zm-8 0h-8v8h8v-8zm-8 0H8v8h8v-8z" fill="#00ABBF"/><path opacity=".7" d="M8 24H0v8h8v-8z" fill="#00ABBF"/><path opacity=".5" d="M64 16h-8v8h8v-8z" fill="#00B9BF"/><path opacity=".8" d="M56 16h-8v8h8v-8z" fill="#00B9BF"/><path d="M48 16h-8v8h8v-8zm-8 0h-8v8h8v-8zm-8 0h-8v8h8v-8zm-8 0h-8v8h8v-8z" fill="#00B9BF"/><path opacity=".8" d="M16 16H8v8h8v-8z" fill="#00B9BF"/><path opacity=".5" d="M8 16H0v8h8v-8z" fill="#00B9BF"/><path opacity=".7" d="M56 8h-8v8h8V8z" fill="#00C6BF"/><path opacity=".8" d="M48 8h-8v8h8V8z" fill="#00C6BF"/><path d="M40 8h-8v8h8V8zm-8 0h-8v8h8V8z" fill="#00C6BF"/><path opacity=".8" d="M24 8h-8v8h8V8z" fill="#00C6BF"/><path opacity=".7" d="M16 8H8v8h8V8z" fill="#00C6BF"/><path opacity=".5" d="M48 0h-8v8h8V0z" fill="#00D4BF"/><path opacity=".7" d="M40 0h-8v8h8V0zm-8 0h-8v8h8V0z" fill="#00D4BF"/><path opacity=".5" d="M24 0h-8v8h8V0z" fill="#00D4BF"/><path d="m21.028 29.94 2.248-5.026c.816-1.288.716-2.863-.186-3.765a2.16 2.16 0 0 0-.401-.315 2.46 2.46 0 0 0-2.076-.243 3.436 3.436 0 0 0-1.875 1.446s-3.079 7.172-4.21 10.394c-1.13 3.22-.687 9.134 3.723 13.543 4.681 4.682 11.439 5.74 15.762 2.505.186-.085.344-.2.501-.329l13.3-11.11c.645-.53 1.604-1.632.745-2.892-.83-1.23-2.42-.386-3.078.03l-7.66 5.568a.357.357 0 0 1-.486-.043s0-.014-.015-.014c-.2-.243-.229-.873.072-1.117l11.74-9.964c1.016-.916 1.16-2.248.329-3.15-.802-.887-2.076-.859-3.093.058l-10.537 8.246a.473.473 0 0 1-.658-.072l-.014-.014c-.215-.229-.287-.63-.058-.873L47.07 21.192a2.335 2.335 0 0 0 .114-3.307 2.276 2.276 0 0 0-1.632-.702c-.63 0-1.23.23-1.675.673L31.651 29.338c-.286.287-.859 0-.93-.344a.373.373 0 0 1 .1-.343l9.363-10.652c.93-.873.988-2.333.114-3.264a2.309 2.309 0 0 0-3.264-.114c-.043.028-.072.071-.114.114L22.731 30.441c-.516.515-1.26.53-1.618.243a.54.54 0 0 1-.086-.745z" fill="#fff"/></svg>