<svg xmlns="http://www.w3.org/2000/svg" version="1.1" xmlns:xlink="http://www.w3.org/1999/xlink" xmlns:svgjs="http://svgjs.dev/svgjs" viewBox="0 0 800 800" width="800" height="800"><g stroke-width="3.5" stroke="#c948deff" fill="none"><circle r="4.289473684210526" cx="0" cy="0" fill="#c948deff" stroke="none"></circle><circle r="4.289473684210526" cx="66.66666666666667" cy="0" fill="#c948deff" stroke="none"></circle><circle r="4.289473684210526" cx="133.33333333333334" cy="0" fill="#c948deff" stroke="none"></circle><circle r="4.289473684210526" cx="200" cy="0" fill="#c948deff" stroke="none"></circle><circle r="4.289473684210526" cx="266.6666666666667" cy="0" fill="#c948deff" stroke="none"></circle><circle r="4.289473684210526" cx="333.33333333333337" cy="0" fill="#c948deff" stroke="none"></circle><circle r="4.289473684210526" cx="400.00000000000006" cy="0" fill="#c948deff" stroke="none"></circle><circle r="4.289473684210526" cx="466.66666666666674" cy="0" fill="#c948deff" stroke="none"></circle><circle r="4.289473684210526" cx="533.3333333333334" cy="0" fill="#c948deff" stroke="none"></circle><circle r="4.289473684210526" cx="600" cy="0" fill="#c948deff" stroke="none"></circle><circle r="4.289473684210526" cx="666.6666666666666" cy="0" fill="#c948deff" stroke="none"></circle><circle r="4.289473684210526" cx="733.3333333333333" cy="0" fill="#c948deff" stroke="none"></circle><circle r="4.289473684210526" cx="799.9999999999999" cy="0" fill="#c948deff" stroke="none"></circle><circle r="4.289473684210526" cx="0" cy="66.66666666666667" fill="#c948deff" stroke="none"></circle><circle r="4.289473684210526" cx="66.66666666666667" cy="66.66666666666667" fill="#c948deff" stroke="none"></circle><circle r="4.289473684210526" cx="133.33333333333334" cy="66.66666666666667" fill="#c948deff" stroke="none"></circle><circle r="4.289473684210526" cx="200" cy="66.66666666666667" fill="#c948deff" stroke="none"></circle><circle r="4.289473684210526" cx="266.6666666666667" cy="66.66666666666667" fill="#c948deff" stroke="none"></circle><circle r="4.289473684210526" cx="333.33333333333337" cy="66.66666666666667" fill="#c948deff" stroke="none"></circle><circle r="4.289473684210526" cx="400.00000000000006" cy="66.66666666666667" fill="#c948deff" stroke="none"></circle><circle r="4.289473684210526" cx="466.66666666666674" cy="66.66666666666667" fill="#c948deff" stroke="none"></circle><circle r="4.289473684210526" cx="533.3333333333334" cy="66.66666666666667" fill="#c948deff" stroke="none"></circle><circle r="4.289473684210526" cx="600" cy="66.66666666666667" fill="#c948deff" stroke="none"></circle><circle r="4.289473684210526" cx="666.6666666666666" cy="66.66666666666667" fill="#c948deff" stroke="none"></circle><circle r="4.289473684210526" cx="733.3333333333333" cy="66.66666666666667" fill="#c948deff" stroke="none"></circle><circle r="4.289473684210526" cx="799.9999999999999" cy="66.66666666666667" fill="#c948deff" stroke="none"></circle><circle r="4.289473684210526" cx="0" cy="133.33333333333334" fill="#c948deff" stroke="none"></circle><circle r="4.289473684210526" cx="66.66666666666667" cy="133.33333333333334" fill="#c948deff" stroke="none"></circle><circle r="4.289473684210526" cx="133.33333333333334" cy="133.33333333333334" fill="#c948deff" stroke="none"></circle><circle r="4.289473684210526" cx="200" cy="133.33333333333334" fill="#c948deff" stroke="none"></circle><circle r="4.289473684210526" cx="266.6666666666667" cy="133.33333333333334" fill="#c948deff" stroke="none"></circle><circle r="4.289473684210526" cx="333.33333333333337" cy="133.33333333333334" fill="#c948deff" stroke="none"></circle><circle r="4.289473684210526" cx="400.00000000000006" cy="133.33333333333334" fill="#c948deff" stroke="none"></circle><circle r="4.289473684210526" cx="466.66666666666674" cy="133.33333333333334" fill="#c948deff" stroke="none"></circle><circle r="4.289473684210526" cx="533.3333333333334" cy="133.33333333333334" fill="#c948deff" stroke="none"></circle><circle r="4.289473684210526" cx="600" cy="133.33333333333334" fill="#c948deff" stroke="none"></circle><circle r="4.289473684210526" cx="666.6666666666666" cy="133.33333333333334" fill="#c948deff" stroke="none"></circle><circle r="4.289473684210526" cx="733.3333333333333" cy="133.33333333333334" fill="#c948deff" stroke="none"></circle><circle r="4.289473684210526" cx="799.9999999999999" cy="133.33333333333334" fill="#c948deff" stroke="none"></circle><circle r="4.289473684210526" cx="0" cy="200" fill="#c948deff" stroke="none"></circle><circle r="4.289473684210526" cx="66.66666666666667" cy="200" fill="#c948deff" stroke="none"></circle><circle r="4.289473684210526" cx="133.33333333333334" cy="200" fill="#c948deff" stroke="none"></circle><circle r="4.289473684210526" cx="200" cy="200" fill="#c948deff" stroke="none"></circle><circle r="4.289473684210526" cx="266.6666666666667" cy="200" fill="#c948deff" stroke="none"></circle><circle r="4.289473684210526" cx="333.33333333333337" cy="200" fill="#c948deff" stroke="none"></circle><circle r="4.289473684210526" cx="400.00000000000006" cy="200" fill="#c948deff" stroke="none"></circle><circle r="4.289473684210526" cx="466.66666666666674" cy="200" fill="#c948deff" stroke="none"></circle><circle r="4.289473684210526" cx="533.3333333333334" cy="200" fill="#c948deff" stroke="none"></circle><circle r="4.289473684210526" cx="600" cy="200" fill="#c948deff" stroke="none"></circle><circle r="4.289473684210526" cx="666.6666666666666" cy="200" fill="#c948deff" stroke="none"></circle><circle r="4.289473684210526" cx="733.3333333333333" cy="200" fill="#c948deff" stroke="none"></circle><circle r="4.289473684210526" cx="799.9999999999999" cy="200" fill="#c948deff" stroke="none"></circle><circle r="4.289473684210526" cx="0" cy="266.6666666666667" fill="#c948deff" stroke="none"></circle><circle r="4.289473684210526" cx="66.66666666666667" cy="266.6666666666667" fill="#c948deff" stroke="none"></circle><circle r="4.289473684210526" cx="133.33333333333334" cy="266.6666666666667" fill="#c948deff" stroke="none"></circle><circle r="4.289473684210526" cx="200" cy="266.6666666666667" fill="#c948deff" stroke="none"></circle><circle r="4.289473684210526" cx="266.6666666666667" cy="266.6666666666667" fill="#c948deff" stroke="none"></circle><circle r="4.289473684210526" cx="333.33333333333337" cy="266.6666666666667" fill="#c948deff" stroke="none"></circle><circle r="4.289473684210526" cx="400.00000000000006" cy="266.6666666666667" fill="#c948deff" stroke="none"></circle><circle r="4.289473684210526" cx="466.66666666666674" cy="266.6666666666667" fill="#c948deff" stroke="none"></circle><circle r="4.289473684210526" cx="533.3333333333334" cy="266.6666666666667" fill="#c948deff" stroke="none"></circle><circle r="4.289473684210526" cx="600" cy="266.6666666666667" fill="#c948deff" stroke="none"></circle><circle r="4.289473684210526" cx="666.6666666666666" cy="266.6666666666667" fill="#c948deff" stroke="none"></circle><circle r="4.289473684210526" cx="733.3333333333333" cy="266.6666666666667" fill="#c948deff" stroke="none"></circle><circle r="4.289473684210526" cx="799.9999999999999" cy="266.6666666666667" fill="#c948deff" stroke="none"></circle><circle r="4.289473684210526" cx="0" cy="333.33333333333337" fill="#c948deff" stroke="none"></circle><circle r="4.289473684210526" cx="66.66666666666667" cy="333.33333333333337" fill="#c948deff" stroke="none"></circle><circle r="4.289473684210526" cx="133.33333333333334" cy="333.33333333333337" fill="#c948deff" stroke="none"></circle><circle r="4.289473684210526" cx="200" cy="333.33333333333337" fill="#c948deff" stroke="none"></circle><circle r="4.289473684210526" cx="266.6666666666667" cy="333.33333333333337" fill="#c948deff" stroke="none"></circle><circle r="4.289473684210526" cx="333.33333333333337" cy="333.33333333333337" fill="#c948deff" stroke="none"></circle><circle r="4.289473684210526" cx="400.00000000000006" cy="333.33333333333337" fill="#c948deff" stroke="none"></circle><circle r="4.289473684210526" cx="466.66666666666674" cy="333.33333333333337" fill="#c948deff" stroke="none"></circle><circle r="4.289473684210526" cx="533.3333333333334" cy="333.33333333333337" fill="#c948deff" stroke="none"></circle><circle r="4.289473684210526" cx="600" cy="333.33333333333337" fill="#c948deff" stroke="none"></circle><circle r="4.289473684210526" cx="666.6666666666666" cy="333.33333333333337" fill="#c948deff" stroke="none"></circle><circle r="4.289473684210526" cx="733.3333333333333" cy="333.33333333333337" fill="#c948deff" stroke="none"></circle><circle r="4.289473684210526" cx="799.9999999999999" cy="333.33333333333337" fill="#c948deff" stroke="none"></circle><circle r="4.289473684210526" cx="0" cy="400.00000000000006" fill="#c948deff" stroke="none"></circle><circle r="4.289473684210526" cx="66.66666666666667" cy="400.00000000000006" fill="#c948deff" stroke="none"></circle><circle r="4.289473684210526" cx="133.33333333333334" cy="400.00000000000006" fill="#c948deff" stroke="none"></circle><circle r="4.289473684210526" cx="200" cy="400.00000000000006" fill="#c948deff" stroke="none"></circle><circle r="4.289473684210526" cx="266.6666666666667" cy="400.00000000000006" fill="#c948deff" stroke="none"></circle><circle r="4.289473684210526" cx="333.33333333333337" cy="400.00000000000006" fill="#c948deff" stroke="none"></circle><circle r="4.289473684210526" cx="400.00000000000006" cy="400.00000000000006" fill="#c948deff" stroke="none"></circle><circle r="4.289473684210526" cx="466.66666666666674" cy="400.00000000000006" fill="#c948deff" stroke="none"></circle><circle r="4.289473684210526" cx="533.3333333333334" cy="400.00000000000006" fill="#c948deff" stroke="none"></circle><circle r="4.289473684210526" cx="600" cy="400.00000000000006" fill="#c948deff" stroke="none"></circle><circle r="4.289473684210526" cx="666.6666666666666" cy="400.00000000000006" fill="#c948deff" stroke="none"></circle><circle r="4.289473684210526" cx="733.3333333333333" cy="400.00000000000006" fill="#c948deff" stroke="none"></circle><circle r="4.289473684210526" cx="799.9999999999999" cy="400.00000000000006" fill="#c948deff" stroke="none"></circle><circle r="4.289473684210526" cx="0" cy="466.66666666666674" fill="#c948deff" stroke="none"></circle><circle r="4.289473684210526" cx="66.66666666666667" cy="466.66666666666674" fill="#c948deff" stroke="none"></circle><circle r="4.289473684210526" cx="133.33333333333334" cy="466.66666666666674" fill="#c948deff" stroke="none"></circle><circle r="4.289473684210526" cx="200" cy="466.66666666666674" fill="#c948deff" stroke="none"></circle><circle r="4.289473684210526" cx="266.6666666666667" cy="466.66666666666674" fill="#c948deff" stroke="none"></circle><circle r="4.289473684210526" cx="333.33333333333337" cy="466.66666666666674" fill="#c948deff" stroke="none"></circle><circle r="4.289473684210526" cx="400.00000000000006" cy="466.66666666666674" fill="#c948deff" stroke="none"></circle><circle r="4.289473684210526" cx="466.66666666666674" cy="466.66666666666674" fill="#c948deff" stroke="none"></circle><circle r="4.289473684210526" cx="533.3333333333334" cy="466.66666666666674" fill="#c948deff" stroke="none"></circle><circle r="4.289473684210526" cx="600" cy="466.66666666666674" fill="#c948deff" stroke="none"></circle><circle r="4.289473684210526" cx="666.6666666666666" cy="466.66666666666674" fill="#c948deff" stroke="none"></circle><circle r="4.289473684210526" cx="733.3333333333333" cy="466.66666666666674" fill="#c948deff" stroke="none"></circle><circle r="4.289473684210526" cx="799.9999999999999" cy="466.66666666666674" fill="#c948deff" stroke="none"></circle><circle r="4.289473684210526" cx="0" cy="533.3333333333334" fill="#c948deff" stroke="none"></circle><circle r="4.289473684210526" cx="66.66666666666667" cy="533.3333333333334" fill="#c948deff" stroke="none"></circle><circle r="4.289473684210526" cx="133.33333333333334" cy="533.3333333333334" fill="#c948deff" stroke="none"></circle><circle r="4.289473684210526" cx="200" cy="533.3333333333334" fill="#c948deff" stroke="none"></circle><circle r="4.289473684210526" cx="266.6666666666667" cy="533.3333333333334" fill="#c948deff" stroke="none"></circle><circle r="4.289473684210526" cx="333.33333333333337" cy="533.3333333333334" fill="#c948deff" stroke="none"></circle><circle r="4.289473684210526" cx="400.00000000000006" cy="533.3333333333334" fill="#c948deff" stroke="none"></circle><circle r="4.289473684210526" cx="466.66666666666674" cy="533.3333333333334" fill="#c948deff" stroke="none"></circle><circle r="4.289473684210526" cx="533.3333333333334" cy="533.3333333333334" fill="#c948deff" stroke="none"></circle><circle r="4.289473684210526" cx="600" cy="533.3333333333334" fill="#c948deff" stroke="none"></circle><circle r="4.289473684210526" cx="666.6666666666666" cy="533.3333333333334" fill="#c948deff" stroke="none"></circle><circle r="4.289473684210526" cx="733.3333333333333" cy="533.3333333333334" fill="#c948deff" stroke="none"></circle><circle r="4.289473684210526" cx="799.9999999999999" cy="533.3333333333334" fill="#c948deff" stroke="none"></circle><circle r="4.289473684210526" cx="0" cy="600" fill="#c948deff" stroke="none"></circle><circle r="4.289473684210526" cx="66.66666666666667" cy="600" fill="#c948deff" stroke="none"></circle><circle r="4.289473684210526" cx="133.33333333333334" cy="600" fill="#c948deff" stroke="none"></circle><circle r="4.289473684210526" cx="200" cy="600" fill="#c948deff" stroke="none"></circle><circle r="4.289473684210526" cx="266.6666666666667" cy="600" fill="#c948deff" stroke="none"></circle><circle r="4.289473684210526" cx="333.33333333333337" cy="600" fill="#c948deff" stroke="none"></circle><circle r="4.289473684210526" cx="400.00000000000006" cy="600" fill="#c948deff" stroke="none"></circle><circle r="4.289473684210526" cx="466.66666666666674" cy="600" fill="#c948deff" stroke="none"></circle><circle r="4.289473684210526" cx="533.3333333333334" cy="600" fill="#c948deff" stroke="none"></circle><circle r="4.289473684210526" cx="600" cy="600" fill="#c948deff" stroke="none"></circle><circle r="4.289473684210526" cx="666.6666666666666" cy="600" fill="#c948deff" stroke="none"></circle><circle r="4.289473684210526" cx="733.3333333333333" cy="600" fill="#c948deff" stroke="none"></circle><circle r="4.289473684210526" cx="799.9999999999999" cy="600" fill="#c948deff" stroke="none"></circle><circle r="4.289473684210526" cx="0" cy="666.6666666666666" fill="#c948deff" stroke="none"></circle><circle r="4.289473684210526" cx="66.66666666666667" cy="666.6666666666666" fill="#c948deff" stroke="none"></circle><circle r="4.289473684210526" cx="133.33333333333334" cy="666.6666666666666" fill="#c948deff" stroke="none"></circle><circle r="4.289473684210526" cx="200" cy="666.6666666666666" fill="#c948deff" stroke="none"></circle><circle r="4.289473684210526" cx="266.6666666666667" cy="666.6666666666666" fill="#c948deff" stroke="none"></circle><circle r="4.289473684210526" cx="333.33333333333337" cy="666.6666666666666" fill="#c948deff" stroke="none"></circle><circle r="4.289473684210526" cx="400.00000000000006" cy="666.6666666666666" fill="#c948deff" stroke="none"></circle><circle r="4.289473684210526" cx="466.66666666666674" cy="666.6666666666666" fill="#c948deff" stroke="none"></circle><circle r="4.289473684210526" cx="533.3333333333334" cy="666.6666666666666" fill="#c948deff" stroke="none"></circle><circle r="4.289473684210526" cx="600" cy="666.6666666666666" fill="#c948deff" stroke="none"></circle><circle r="4.289473684210526" cx="666.6666666666666" cy="666.6666666666666" fill="#c948deff" stroke="none"></circle><circle r="4.289473684210526" cx="733.3333333333333" cy="666.6666666666666" fill="#c948deff" stroke="none"></circle><circle r="4.289473684210526" cx="799.9999999999999" cy="666.6666666666666" fill="#c948deff" stroke="none"></circle><circle r="4.289473684210526" cx="0" cy="733.3333333333333" fill="#c948deff" stroke="none"></circle><circle r="4.289473684210526" cx="66.66666666666667" cy="733.3333333333333" fill="#c948deff" stroke="none"></circle><circle r="4.289473684210526" cx="133.33333333333334" cy="733.3333333333333" fill="#c948deff" stroke="none"></circle><circle r="4.289473684210526" cx="200" cy="733.3333333333333" fill="#c948deff" stroke="none"></circle><circle r="4.289473684210526" cx="266.6666666666667" cy="733.3333333333333" fill="#c948deff" stroke="none"></circle><circle r="4.289473684210526" cx="333.33333333333337" cy="733.3333333333333" fill="#c948deff" stroke="none"></circle><circle r="4.289473684210526" cx="400.00000000000006" cy="733.3333333333333" fill="#c948deff" stroke="none"></circle><circle r="4.289473684210526" cx="466.66666666666674" cy="733.3333333333333" fill="#c948deff" stroke="none"></circle><circle r="4.289473684210526" cx="533.3333333333334" cy="733.3333333333333" fill="#c948deff" stroke="none"></circle><circle r="4.289473684210526" cx="600" cy="733.3333333333333" fill="#c948deff" stroke="none"></circle><circle r="4.289473684210526" cx="666.6666666666666" cy="733.3333333333333" fill="#c948deff" stroke="none"></circle><circle r="4.289473684210526" cx="733.3333333333333" cy="733.3333333333333" fill="#c948deff" stroke="none"></circle><circle r="4.289473684210526" cx="799.9999999999999" cy="733.3333333333333" fill="#c948deff" stroke="none"></circle><circle r="4.289473684210526" cx="0" cy="799.9999999999999" fill="#c948deff" stroke="none"></circle><circle r="4.289473684210526" cx="66.66666666666667" cy="799.9999999999999" fill="#c948deff" stroke="none"></circle><circle r="4.289473684210526" cx="133.33333333333334" cy="799.9999999999999" fill="#c948deff" stroke="none"></circle><circle r="4.289473684210526" cx="200" cy="799.9999999999999" fill="#c948deff" stroke="none"></circle><circle r="4.289473684210526" cx="266.6666666666667" cy="799.9999999999999" fill="#c948deff" stroke="none"></circle><circle r="4.289473684210526" cx="333.33333333333337" cy="799.9999999999999" fill="#c948deff" stroke="none"></circle><circle r="4.289473684210526" cx="400.00000000000006" cy="799.9999999999999" fill="#c948deff" stroke="none"></circle><circle r="4.289473684210526" cx="466.66666666666674" cy="799.9999999999999" fill="#c948deff" stroke="none"></circle><circle r="4.289473684210526" cx="533.3333333333334" cy="799.9999999999999" fill="#c948deff" stroke="none"></circle><circle r="4.289473684210526" cx="600" cy="799.9999999999999" fill="#c948deff" stroke="none"></circle><circle r="4.289473684210526" cx="666.6666666666666" cy="799.9999999999999" fill="#c948deff" stroke="none"></circle><circle r="4.289473684210526" cx="733.3333333333333" cy="799.9999999999999" fill="#c948deff" stroke="none"></circle><circle r="4.289473684210526" cx="799.9999999999999" cy="799.9999999999999" fill="#c948deff" stroke="none"></circle></g></svg>