<svg width="602" height="728" viewBox="0 0 602 728" fill="none" xmlns="http://www.w3.org/2000/svg">
<g filter="url(#filter0_f_18_110)">
<path d="M202 164C202 254.575 128.575 328 38 328C-52.5747 328 -126 254.575 -126 164C-126 73.4253 -52.5747 0 38 0C128.575 0 202 73.4253 202 164Z" fill="#C948DE"/>
</g>
<path d="M26.2422 119.344C26.2422 118.602 26.844 118 27.5863 118H29.27C30.0123 118 30.6141 118.602 30.6141 119.344V121.061C30.6141 121.804 30.0123 122.405 29.27 122.405H27.5863C26.844 122.405 26.2422 121.804 26.2422 121.061V119.344Z" fill="white" fill-opacity="0.5"/>
<path d="M43.7306 119.344C43.7306 118.602 44.3324 118 45.0747 118H46.7584C47.5008 118 48.1025 118.602 48.1025 119.344V121.061C48.1025 121.804 47.5008 122.405 46.7584 122.405H45.0747C44.3324 122.405 43.7306 121.804 43.7306 121.061V119.344Z" fill="white" fill-opacity="0.5"/>
<path d="M61.2188 119.344C61.2188 118.602 61.8205 118 62.5628 118H64.2466C64.9889 118 65.5907 118.602 65.5907 119.344V121.061C65.5907 121.804 64.9889 122.405 64.2466 122.405H62.5628C61.8205 122.405 61.2188 121.804 61.2188 121.061V119.344Z" fill="white" fill-opacity="0.5"/>
<path d="M78.707 119.344C78.707 118.602 79.3088 118 80.0511 118H81.7349C82.4772 118 83.0789 118.602 83.0789 119.344V121.061C83.0789 121.804 82.4772 122.405 81.7349 122.405H80.0511C79.3088 122.405 78.707 121.804 78.707 121.061V119.344Z" fill="white" fill-opacity="0.5"/>
<path d="M96.1953 119.344C96.1953 118.602 96.7971 118 97.5394 118H99.2231C99.9655 118 100.567 118.602 100.567 119.344V121.061C100.567 121.804 99.9655 122.405 99.2231 122.405H97.5394C96.7971 122.405 96.1953 121.804 96.1953 121.061V119.344Z" fill="white" fill-opacity="0.5"/>
<path d="M113.684 119.344C113.684 118.602 114.285 118 115.028 118H116.711C117.454 118 118.056 118.602 118.056 119.344V121.061C118.056 121.804 117.454 122.405 116.711 122.405H115.028C114.285 122.405 113.684 121.804 113.684 121.061V119.344Z" fill="white" fill-opacity="0.5"/>
<path d="M131.172 119.344C131.172 118.602 131.774 118 132.516 118H134.2C134.942 118 135.544 118.602 135.544 119.344V121.061C135.544 121.804 134.942 122.405 134.2 122.405H132.516C131.774 122.405 131.172 121.804 131.172 121.061V119.344Z" fill="white" fill-opacity="0.5"/>
<path d="M148.66 119.344C148.66 118.602 149.262 118 150.004 118H151.688C152.43 118 153.032 118.602 153.032 119.344V121.061C153.032 121.804 152.43 122.405 151.688 122.405H150.004C149.262 122.405 148.66 121.804 148.66 121.061V119.344Z" fill="white" fill-opacity="0.5"/>
<path d="M166.148 119.344C166.148 118.602 166.75 118 167.493 118H169.176C169.919 118 170.52 118.602 170.52 119.344V121.061C170.52 121.804 169.919 122.405 169.176 122.405H167.493C166.75 122.405 166.148 121.804 166.148 121.061V119.344Z" fill="white" fill-opacity="0.5"/>
<path d="M183.629 119.344C183.629 118.602 184.231 118 184.973 118H186.657C187.399 118 188.001 118.602 188.001 119.344V121.061C188.001 121.804 187.399 122.405 186.657 122.405H184.973C184.231 122.405 183.629 121.804 183.629 121.061V119.344Z" fill="white" fill-opacity="0.5"/>
<path d="M26.2422 136.966C26.2422 136.223 26.844 135.622 27.5863 135.622H29.27C30.0123 135.622 30.6141 136.223 30.6141 136.966V138.683C30.6141 139.425 30.0123 140.027 29.27 140.027H27.5863C26.844 140.027 26.2422 139.425 26.2422 138.683V136.966Z" fill="white" fill-opacity="0.5"/>
<path d="M43.7306 136.966C43.7306 136.223 44.3324 135.622 45.0747 135.622H46.7584C47.5008 135.622 48.1025 136.223 48.1025 136.966V138.683C48.1025 139.425 47.5008 140.027 46.7584 140.027H45.0747C44.3324 140.027 43.7306 139.425 43.7306 138.683V136.966Z" fill="white" fill-opacity="0.5"/>
<path d="M61.2188 136.966C61.2188 136.223 61.8205 135.622 62.5628 135.622H64.2466C64.9889 135.622 65.5907 136.223 65.5907 136.966V138.683C65.5907 139.425 64.9889 140.027 64.2466 140.027H62.5628C61.8205 140.027 61.2188 139.425 61.2188 138.683V136.966Z" fill="white" fill-opacity="0.5"/>
<path d="M78.707 136.966C78.707 136.223 79.3088 135.622 80.0511 135.622H81.7349C82.4772 135.622 83.0789 136.223 83.0789 136.966V138.683C83.0789 139.425 82.4772 140.027 81.7349 140.027H80.0511C79.3088 140.027 78.707 139.425 78.707 138.683V136.966Z" fill="white" fill-opacity="0.5"/>
<path d="M96.1953 136.966C96.1953 136.223 96.7971 135.622 97.5394 135.622H99.2231C99.9655 135.622 100.567 136.223 100.567 136.966V138.683C100.567 139.425 99.9655 140.027 99.2231 140.027H97.5394C96.7971 140.027 96.1953 139.425 96.1953 138.683V136.966Z" fill="white" fill-opacity="0.5"/>
<path d="M113.684 136.966C113.684 136.223 114.285 135.622 115.028 135.622H116.711C117.454 135.622 118.056 136.223 118.056 136.966V138.683C118.056 139.425 117.454 140.027 116.711 140.027H115.028C114.285 140.027 113.684 139.425 113.684 138.683V136.966Z" fill="white" fill-opacity="0.5"/>
<path d="M131.172 136.966C131.172 136.223 131.774 135.622 132.516 135.622H134.2C134.942 135.622 135.544 136.223 135.544 136.966V138.683C135.544 139.425 134.942 140.027 134.2 140.027H132.516C131.774 140.027 131.172 139.425 131.172 138.683V136.966Z" fill="white" fill-opacity="0.5"/>
<path d="M148.66 136.966C148.66 136.223 149.262 135.622 150.004 135.622H151.688C152.43 135.622 153.032 136.223 153.032 136.966V138.683C153.032 139.425 152.43 140.027 151.688 140.027H150.004C149.262 140.027 148.66 139.425 148.66 138.683V136.966Z" fill="white" fill-opacity="0.5"/>
<path d="M166.148 136.966C166.148 136.223 166.75 135.622 167.493 135.622H169.176C169.919 135.622 170.52 136.223 170.52 136.966V138.683C170.52 139.425 169.919 140.027 169.176 140.027H167.493C166.75 140.027 166.148 139.425 166.148 138.683V136.966Z" fill="white" fill-opacity="0.5"/>
<path d="M183.629 136.966C183.629 136.223 184.231 135.622 184.973 135.622H186.657C187.399 135.622 188.001 136.223 188.001 136.966V138.683C188.001 139.425 187.399 140.027 186.657 140.027H184.973C184.231 140.027 183.629 139.425 183.629 138.683V136.966Z" fill="white" fill-opacity="0.5"/>
<path d="M26.2422 154.587C26.2422 153.845 26.844 153.243 27.5863 153.243H29.27C30.0123 153.243 30.6141 153.845 30.6141 154.587V156.305C30.6141 157.047 30.0123 157.649 29.27 157.649H27.5863C26.844 157.649 26.2422 157.047 26.2422 156.305V154.587Z" fill="white" fill-opacity="0.5"/>
<path d="M43.7306 154.587C43.7306 153.845 44.3324 153.243 45.0747 153.243H46.7584C47.5008 153.243 48.1025 153.845 48.1025 154.587V156.305C48.1025 157.047 47.5008 157.649 46.7584 157.649H45.0747C44.3324 157.649 43.7306 157.047 43.7306 156.305V154.587Z" fill="white" fill-opacity="0.5"/>
<path d="M61.2188 154.587C61.2188 153.845 61.8205 153.243 62.5628 153.243H64.2466C64.9889 153.243 65.5907 153.845 65.5907 154.587V156.305C65.5907 157.047 64.9889 157.649 64.2466 157.649H62.5628C61.8205 157.649 61.2188 157.047 61.2188 156.305V154.587Z" fill="white" fill-opacity="0.5"/>
<path d="M78.707 154.587C78.707 153.845 79.3088 153.243 80.0511 153.243H81.7349C82.4772 153.243 83.0789 153.845 83.0789 154.587V156.305C83.0789 157.047 82.4772 157.649 81.7349 157.649H80.0511C79.3088 157.649 78.707 157.047 78.707 156.305V154.587Z" fill="white" fill-opacity="0.5"/>
<path d="M96.1953 154.587C96.1953 153.845 96.7971 153.243 97.5394 153.243H99.2231C99.9655 153.243 100.567 153.845 100.567 154.587V156.305C100.567 157.047 99.9655 157.649 99.2231 157.649H97.5394C96.7971 157.649 96.1953 157.047 96.1953 156.305V154.587Z" fill="white" fill-opacity="0.5"/>
<path d="M113.684 154.587C113.684 153.845 114.285 153.243 115.028 153.243H116.711C117.454 153.243 118.056 153.845 118.056 154.587V156.305C118.056 157.047 117.454 157.649 116.711 157.649H115.028C114.285 157.649 113.684 157.047 113.684 156.305V154.587Z" fill="white" fill-opacity="0.5"/>
<path d="M131.172 154.587C131.172 153.845 131.774 153.243 132.516 153.243H134.2C134.942 153.243 135.544 153.845 135.544 154.587V156.305C135.544 157.047 134.942 157.649 134.2 157.649H132.516C131.774 157.649 131.172 157.047 131.172 156.305V154.587Z" fill="white" fill-opacity="0.5"/>
<path d="M148.66 154.587C148.66 153.845 149.262 153.243 150.004 153.243H151.688C152.43 153.243 153.032 153.845 153.032 154.587V156.305C153.032 157.047 152.43 157.649 151.688 157.649H150.004C149.262 157.649 148.66 157.047 148.66 156.305V154.587Z" fill="white" fill-opacity="0.5"/>
<path d="M166.148 154.587C166.148 153.845 166.75 153.243 167.493 153.243H169.176C169.919 153.243 170.52 153.845 170.52 154.587V156.305C170.52 157.047 169.919 157.649 169.176 157.649H167.493C166.75 157.649 166.148 157.047 166.148 156.305V154.587Z" fill="white" fill-opacity="0.5"/>
<path d="M183.629 154.587C183.629 153.845 184.231 153.243 184.973 153.243H186.657C187.399 153.243 188.001 153.845 188.001 154.587V156.305C188.001 157.047 187.399 157.649 186.657 157.649H184.973C184.231 157.649 183.629 157.047 183.629 156.305V154.587Z" fill="white" fill-opacity="0.5"/>
<path d="M26.2422 172.209C26.2422 171.467 26.844 170.865 27.5863 170.865H29.27C30.0123 170.865 30.6141 171.467 30.6141 172.209V173.926C30.6141 174.669 30.0123 175.27 29.27 175.27H27.5863C26.844 175.27 26.2422 174.669 26.2422 173.926V172.209Z" fill="white" fill-opacity="0.5"/>
<path d="M43.7306 172.209C43.7306 171.467 44.3324 170.865 45.0747 170.865H46.7584C47.5008 170.865 48.1025 171.467 48.1025 172.209V173.926C48.1025 174.669 47.5008 175.27 46.7584 175.27H45.0747C44.3324 175.27 43.7306 174.669 43.7306 173.926V172.209Z" fill="white" fill-opacity="0.5"/>
<path d="M61.2188 172.209C61.2188 171.467 61.8205 170.865 62.5628 170.865H64.2466C64.9889 170.865 65.5907 171.467 65.5907 172.209V173.926C65.5907 174.669 64.9889 175.27 64.2466 175.27H62.5628C61.8205 175.27 61.2188 174.669 61.2188 173.926V172.209Z" fill="white" fill-opacity="0.5"/>
<path d="M78.707 172.209C78.707 171.467 79.3088 170.865 80.0511 170.865H81.7349C82.4772 170.865 83.0789 171.467 83.0789 172.209V173.926C83.0789 174.669 82.4772 175.27 81.7349 175.27H80.0511C79.3088 175.27 78.707 174.669 78.707 173.926V172.209Z" fill="white" fill-opacity="0.5"/>
<path d="M96.1953 172.209C96.1953 171.467 96.7971 170.865 97.5394 170.865H99.2231C99.9655 170.865 100.567 171.467 100.567 172.209V173.926C100.567 174.669 99.9655 175.27 99.2231 175.27H97.5394C96.7971 175.27 96.1953 174.669 96.1953 173.926V172.209Z" fill="white" fill-opacity="0.5"/>
<path d="M113.684 172.209C113.684 171.467 114.285 170.865 115.028 170.865H116.711C117.454 170.865 118.056 171.467 118.056 172.209V173.926C118.056 174.669 117.454 175.27 116.711 175.27H115.028C114.285 175.27 113.684 174.669 113.684 173.926V172.209Z" fill="white" fill-opacity="0.5"/>
<path d="M131.172 172.209C131.172 171.467 131.774 170.865 132.516 170.865H134.2C134.942 170.865 135.544 171.467 135.544 172.209V173.926C135.544 174.669 134.942 175.27 134.2 175.27H132.516C131.774 175.27 131.172 174.669 131.172 173.926V172.209Z" fill="white" fill-opacity="0.5"/>
<path d="M148.66 172.209C148.66 171.467 149.262 170.865 150.004 170.865H151.688C152.43 170.865 153.032 171.467 153.032 172.209V173.926C153.032 174.669 152.43 175.27 151.688 175.27H150.004C149.262 175.27 148.66 174.669 148.66 173.926V172.209Z" fill="white" fill-opacity="0.5"/>
<path d="M166.148 172.209C166.148 171.467 166.75 170.865 167.493 170.865H169.176C169.919 170.865 170.52 171.467 170.52 172.209V173.926C170.52 174.669 169.919 175.27 169.176 175.27H167.493C166.75 175.27 166.148 174.669 166.148 173.926V172.209Z" fill="white" fill-opacity="0.5"/>
<path d="M183.629 172.209C183.629 171.467 184.231 170.865 184.973 170.865H186.657C187.399 170.865 188.001 171.467 188.001 172.209V173.926C188.001 174.669 187.399 175.27 186.657 175.27H184.973C184.231 175.27 183.629 174.669 183.629 173.926V172.209Z" fill="white" fill-opacity="0.5"/>
<path d="M26.2422 189.831C26.2422 189.088 26.844 188.487 27.5863 188.487H29.27C30.0123 188.487 30.6141 189.088 30.6141 189.831V191.548C30.6141 192.29 30.0123 192.892 29.27 192.892H27.5863C26.844 192.892 26.2422 192.29 26.2422 191.548V189.831Z" fill="white" fill-opacity="0.5"/>
<path d="M43.7306 189.831C43.7306 189.088 44.3324 188.487 45.0747 188.487H46.7584C47.5008 188.487 48.1025 189.088 48.1025 189.831V191.548C48.1025 192.29 47.5008 192.892 46.7584 192.892H45.0747C44.3324 192.892 43.7306 192.29 43.7306 191.548V189.831Z" fill="white" fill-opacity="0.5"/>
<path d="M61.2188 189.831C61.2188 189.088 61.8205 188.487 62.5628 188.487H64.2466C64.9889 188.487 65.5907 189.088 65.5907 189.831V191.548C65.5907 192.29 64.9889 192.892 64.2466 192.892H62.5628C61.8205 192.892 61.2188 192.29 61.2188 191.548V189.831Z" fill="white" fill-opacity="0.5"/>
<path d="M78.707 189.831C78.707 189.088 79.3088 188.487 80.0511 188.487H81.7349C82.4772 188.487 83.0789 189.088 83.0789 189.831V191.548C83.0789 192.29 82.4772 192.892 81.7349 192.892H80.0511C79.3088 192.892 78.707 192.29 78.707 191.548V189.831Z" fill="white" fill-opacity="0.5"/>
<path d="M96.1953 189.831C96.1953 189.088 96.7971 188.487 97.5394 188.487H99.2231C99.9655 188.487 100.567 189.088 100.567 189.831V191.548C100.567 192.29 99.9655 192.892 99.2231 192.892H97.5394C96.7971 192.892 96.1953 192.29 96.1953 191.548V189.831Z" fill="white" fill-opacity="0.5"/>
<path d="M113.684 189.831C113.684 189.088 114.285 188.487 115.028 188.487H116.711C117.454 188.487 118.056 189.088 118.056 189.831V191.548C118.056 192.29 117.454 192.892 116.711 192.892H115.028C114.285 192.892 113.684 192.29 113.684 191.548V189.831Z" fill="white" fill-opacity="0.5"/>
<path d="M131.172 189.831C131.172 189.088 131.774 188.487 132.516 188.487H134.2C134.942 188.487 135.544 189.088 135.544 189.831V191.548C135.544 192.29 134.942 192.892 134.2 192.892H132.516C131.774 192.892 131.172 192.29 131.172 191.548V189.831Z" fill="white" fill-opacity="0.5"/>
<path d="M148.66 189.831C148.66 189.088 149.262 188.487 150.004 188.487H151.688C152.43 188.487 153.032 189.088 153.032 189.831V191.548C153.032 192.29 152.43 192.892 151.688 192.892H150.004C149.262 192.892 148.66 192.29 148.66 191.548V189.831Z" fill="white" fill-opacity="0.5"/>
<path d="M166.148 189.831C166.148 189.088 166.75 188.487 167.493 188.487H169.176C169.919 188.487 170.52 189.088 170.52 189.831V191.548C170.52 192.29 169.919 192.892 169.176 192.892H167.493C166.75 192.892 166.148 192.29 166.148 191.548V189.831Z" fill="white" fill-opacity="0.5"/>
<path d="M183.629 189.831C183.629 189.088 184.231 188.487 184.973 188.487H186.657C187.399 188.487 188.001 189.088 188.001 189.831V191.548C188.001 192.29 187.399 192.892 186.657 192.892H184.973C184.231 192.892 183.629 192.29 183.629 191.548V189.831Z" fill="white" fill-opacity="0.5"/>
<path d="M26.2422 207.452C26.2422 206.71 26.844 206.108 27.5863 206.108H29.27C30.0123 206.108 30.6141 206.71 30.6141 207.452V209.169C30.6141 209.912 30.0123 210.514 29.27 210.514H27.5863C26.844 210.514 26.2422 209.912 26.2422 209.169V207.452Z" fill="white" fill-opacity="0.5"/>
<path d="M43.7306 207.452C43.7306 206.71 44.3324 206.108 45.0747 206.108H46.7584C47.5008 206.108 48.1025 206.71 48.1025 207.452V209.169C48.1025 209.912 47.5008 210.514 46.7584 210.514H45.0747C44.3324 210.514 43.7306 209.912 43.7306 209.169V207.452Z" fill="white" fill-opacity="0.5"/>
<path d="M61.2188 207.452C61.2188 206.71 61.8205 206.108 62.5628 206.108H64.2466C64.9889 206.108 65.5907 206.71 65.5907 207.452V209.169C65.5907 209.912 64.9889 210.514 64.2466 210.514H62.5628C61.8205 210.514 61.2188 209.912 61.2188 209.169V207.452Z" fill="white" fill-opacity="0.5"/>
<path d="M78.707 207.452C78.707 206.71 79.3088 206.108 80.0511 206.108H81.7349C82.4772 206.108 83.0789 206.71 83.0789 207.452V209.169C83.0789 209.912 82.4772 210.514 81.7349 210.514H80.0511C79.3088 210.514 78.707 209.912 78.707 209.169V207.452Z" fill="white" fill-opacity="0.5"/>
<path d="M96.1953 207.452C96.1953 206.71 96.7971 206.108 97.5394 206.108H99.2231C99.9655 206.108 100.567 206.71 100.567 207.452V209.169C100.567 209.912 99.9655 210.514 99.2231 210.514H97.5394C96.7971 210.514 96.1953 209.912 96.1953 209.169V207.452Z" fill="white" fill-opacity="0.5"/>
<path d="M113.684 207.452C113.684 206.71 114.285 206.108 115.028 206.108H116.711C117.454 206.108 118.056 206.71 118.056 207.452V209.169C118.056 209.912 117.454 210.514 116.711 210.514H115.028C114.285 210.514 113.684 209.912 113.684 209.169V207.452Z" fill="white" fill-opacity="0.5"/>
<path d="M131.172 207.452C131.172 206.71 131.774 206.108 132.516 206.108H134.2C134.942 206.108 135.544 206.71 135.544 207.452V209.169C135.544 209.912 134.942 210.514 134.2 210.514H132.516C131.774 210.514 131.172 209.912 131.172 209.169V207.452Z" fill="white" fill-opacity="0.5"/>
<path d="M148.66 207.452C148.66 206.71 149.262 206.108 150.004 206.108H151.688C152.43 206.108 153.032 206.71 153.032 207.452V209.169C153.032 209.912 152.43 210.514 151.688 210.514H150.004C149.262 210.514 148.66 209.912 148.66 209.169V207.452Z" fill="white" fill-opacity="0.5"/>
<path d="M166.148 207.452C166.148 206.71 166.75 206.108 167.493 206.108H169.176C169.919 206.108 170.52 206.71 170.52 207.452V209.169C170.52 209.912 169.919 210.514 169.176 210.514H167.493C166.75 210.514 166.148 209.912 166.148 209.169V207.452Z" fill="white" fill-opacity="0.5"/>
<path d="M183.629 207.452C183.629 206.71 184.231 206.108 184.973 206.108H186.657C187.399 206.108 188.001 206.71 188.001 207.452V209.169C188.001 209.912 187.399 210.514 186.657 210.514H184.973C184.231 210.514 183.629 209.912 183.629 209.169V207.452Z" fill="white" fill-opacity="0.5"/>
<path d="M26.2422 225.074C26.2422 224.332 26.844 223.73 27.5863 223.73H29.27C30.0123 223.73 30.6141 224.332 30.6141 225.074V226.791C30.6141 227.534 30.0123 228.135 29.27 228.135H27.5863C26.844 228.135 26.2422 227.534 26.2422 226.791V225.074Z" fill="white" fill-opacity="0.5"/>
<path d="M26.2422 242.069C26.2422 241.327 26.844 240.725 27.5863 240.725H29.27C30.0123 240.725 30.6141 241.327 30.6141 242.069V243.787C30.6141 244.529 30.0123 245.131 29.27 245.131H27.5863C26.844 245.131 26.2422 244.529 26.2422 243.787V242.069Z" fill="white" fill-opacity="0.5"/>
<path d="M26.2422 259.065C26.2422 258.322 26.844 257.721 27.5863 257.721H29.27C30.0123 257.721 30.6141 258.322 30.6141 259.065V260.782C30.6141 261.524 30.0123 262.126 29.27 262.126H27.5863C26.844 262.126 26.2422 261.524 26.2422 260.782V259.065Z" fill="white" fill-opacity="0.5"/>
<path d="M26.2422 276.06C26.2422 275.318 26.844 274.716 27.5863 274.716H29.27C30.0123 274.716 30.6141 275.318 30.6141 276.06V277.777C30.6141 278.52 30.0123 279.121 29.27 279.121H27.5863C26.844 279.121 26.2422 278.52 26.2422 277.777V276.06Z" fill="white" fill-opacity="0.5"/>
<path d="M43.7306 225.074C43.7306 224.332 44.3324 223.73 45.0747 223.73H46.7584C47.5008 223.73 48.1025 224.332 48.1025 225.074V226.791C48.1025 227.534 47.5008 228.135 46.7584 228.135H45.0747C44.3324 228.135 43.7306 227.534 43.7306 226.791V225.074Z" fill="white" fill-opacity="0.5"/>
<path d="M43.7306 242.069C43.7306 241.327 44.3324 240.725 45.0747 240.725H46.7584C47.5008 240.725 48.1025 241.327 48.1025 242.069V243.787C48.1025 244.529 47.5008 245.131 46.7584 245.131H45.0747C44.3324 245.131 43.7306 244.529 43.7306 243.787V242.069Z" fill="white" fill-opacity="0.5"/>
<path d="M43.7306 259.065C43.7306 258.322 44.3324 257.721 45.0747 257.721H46.7584C47.5008 257.721 48.1025 258.322 48.1025 259.065V260.782C48.1025 261.524 47.5008 262.126 46.7584 262.126H45.0747C44.3324 262.126 43.7306 261.524 43.7306 260.782V259.065Z" fill="white" fill-opacity="0.5"/>
<path d="M43.7306 276.06C43.7306 275.318 44.3324 274.716 45.0747 274.716H46.7584C47.5008 274.716 48.1025 275.318 48.1025 276.06V277.777C48.1025 278.52 47.5008 279.121 46.7584 279.121H45.0747C44.3324 279.121 43.7306 278.52 43.7306 277.777V276.06Z" fill="white" fill-opacity="0.5"/>
<path d="M61.2188 225.074C61.2188 224.332 61.8205 223.73 62.5628 223.73H64.2466C64.9889 223.73 65.5907 224.332 65.5907 225.074V226.791C65.5907 227.534 64.9889 228.135 64.2466 228.135H62.5628C61.8205 228.135 61.2188 227.534 61.2188 226.791V225.074Z" fill="white" fill-opacity="0.5"/>
<path d="M61.2188 242.069C61.2188 241.327 61.8205 240.725 62.5628 240.725H64.2466C64.9889 240.725 65.5907 241.327 65.5907 242.069V243.787C65.5907 244.529 64.9889 245.131 64.2466 245.131H62.5628C61.8205 245.131 61.2188 244.529 61.2188 243.787V242.069Z" fill="white" fill-opacity="0.5"/>
<path d="M61.2188 259.065C61.2188 258.322 61.8205 257.721 62.5628 257.721H64.2466C64.9889 257.721 65.5907 258.322 65.5907 259.065V260.782C65.5907 261.524 64.9889 262.126 64.2466 262.126H62.5628C61.8205 262.126 61.2188 261.524 61.2188 260.782V259.065Z" fill="white" fill-opacity="0.5"/>
<path d="M61.2188 276.06C61.2188 275.318 61.8205 274.716 62.5628 274.716H64.2466C64.9889 274.716 65.5907 275.318 65.5907 276.06V277.777C65.5907 278.52 64.9889 279.121 64.2466 279.121H62.5628C61.8205 279.121 61.2188 278.52 61.2188 277.777V276.06Z" fill="white" fill-opacity="0.5"/>
<path d="M78.707 225.074C78.707 224.332 79.3088 223.73 80.0511 223.73H81.7349C82.4772 223.73 83.0789 224.332 83.0789 225.074V226.791C83.0789 227.534 82.4772 228.135 81.7349 228.135H80.0511C79.3088 228.135 78.707 227.534 78.707 226.791V225.074Z" fill="white" fill-opacity="0.5"/>
<path d="M78.707 242.069C78.707 241.327 79.3088 240.725 80.0511 240.725H81.7349C82.4772 240.725 83.0789 241.327 83.0789 242.069V243.787C83.0789 244.529 82.4772 245.131 81.7349 245.131H80.0511C79.3088 245.131 78.707 244.529 78.707 243.787V242.069Z" fill="white" fill-opacity="0.5"/>
<path d="M78.707 259.065C78.707 258.322 79.3088 257.721 80.0511 257.721H81.7349C82.4772 257.721 83.0789 258.322 83.0789 259.065V260.782C83.0789 261.524 82.4772 262.126 81.7349 262.126H80.0511C79.3088 262.126 78.707 261.524 78.707 260.782V259.065Z" fill="white" fill-opacity="0.5"/>
<path d="M78.707 276.06C78.707 275.318 79.3088 274.716 80.0511 274.716H81.7349C82.4772 274.716 83.0789 275.318 83.0789 276.06V277.777C83.0789 278.52 82.4772 279.121 81.7349 279.121H80.0511C79.3088 279.121 78.707 278.52 78.707 277.777V276.06Z" fill="white" fill-opacity="0.5"/>
<path d="M96.1953 225.074C96.1953 224.332 96.7971 223.73 97.5394 223.73H99.2231C99.9655 223.73 100.567 224.332 100.567 225.074V226.791C100.567 227.534 99.9655 228.135 99.2231 228.135H97.5394C96.7971 228.135 96.1953 227.534 96.1953 226.791V225.074Z" fill="white" fill-opacity="0.5"/>
<path d="M96.1953 242.069C96.1953 241.327 96.7971 240.725 97.5394 240.725H99.2231C99.9655 240.725 100.567 241.327 100.567 242.069V243.787C100.567 244.529 99.9655 245.131 99.2231 245.131H97.5394C96.7971 245.131 96.1953 244.529 96.1953 243.787V242.069Z" fill="white" fill-opacity="0.5"/>
<path d="M96.1953 259.065C96.1953 258.322 96.7971 257.721 97.5394 257.721H99.2231C99.9655 257.721 100.567 258.322 100.567 259.065V260.782C100.567 261.524 99.9655 262.126 99.2231 262.126H97.5394C96.7971 262.126 96.1953 261.524 96.1953 260.782V259.065Z" fill="white" fill-opacity="0.5"/>
<path d="M96.1953 276.06C96.1953 275.318 96.7971 274.716 97.5394 274.716H99.2231C99.9655 274.716 100.567 275.318 100.567 276.06V277.777C100.567 278.52 99.9655 279.121 99.2231 279.121H97.5394C96.7971 279.121 96.1953 278.52 96.1953 277.777V276.06Z" fill="white" fill-opacity="0.5"/>
<path d="M113.684 225.074C113.684 224.332 114.285 223.73 115.028 223.73H116.711C117.454 223.73 118.056 224.332 118.056 225.074V226.791C118.056 227.534 117.454 228.135 116.711 228.135H115.028C114.285 228.135 113.684 227.534 113.684 226.791V225.074Z" fill="white" fill-opacity="0.5"/>
<path d="M113.684 242.069C113.684 241.327 114.285 240.725 115.028 240.725H116.711C117.454 240.725 118.056 241.327 118.056 242.069V243.787C118.056 244.529 117.454 245.131 116.711 245.131H115.028C114.285 245.131 113.684 244.529 113.684 243.787V242.069Z" fill="white" fill-opacity="0.5"/>
<path d="M113.684 259.065C113.684 258.322 114.285 257.721 115.028 257.721H116.711C117.454 257.721 118.056 258.322 118.056 259.065V260.782C118.056 261.524 117.454 262.126 116.711 262.126H115.028C114.285 262.126 113.684 261.524 113.684 260.782V259.065Z" fill="white" fill-opacity="0.5"/>
<path d="M113.684 276.06C113.684 275.318 114.285 274.716 115.028 274.716H116.711C117.454 274.716 118.056 275.318 118.056 276.06V277.777C118.056 278.52 117.454 279.121 116.711 279.121H115.028C114.285 279.121 113.684 278.52 113.684 277.777V276.06Z" fill="white" fill-opacity="0.5"/>
<path d="M131.172 225.074C131.172 224.332 131.774 223.73 132.516 223.73H134.2C134.942 223.73 135.544 224.332 135.544 225.074V226.791C135.544 227.534 134.942 228.135 134.2 228.135H132.516C131.774 228.135 131.172 227.534 131.172 226.791V225.074Z" fill="white" fill-opacity="0.5"/>
<path d="M131.172 242.069C131.172 241.327 131.774 240.725 132.516 240.725H134.2C134.942 240.725 135.544 241.327 135.544 242.069V243.787C135.544 244.529 134.942 245.131 134.2 245.131H132.516C131.774 245.131 131.172 244.529 131.172 243.787V242.069Z" fill="white" fill-opacity="0.5"/>
<path d="M131.172 259.065C131.172 258.322 131.774 257.721 132.516 257.721H134.2C134.942 257.721 135.544 258.322 135.544 259.065V260.782C135.544 261.524 134.942 262.126 134.2 262.126H132.516C131.774 262.126 131.172 261.524 131.172 260.782V259.065Z" fill="white" fill-opacity="0.5"/>
<path d="M131.172 276.06C131.172 275.318 131.774 274.716 132.516 274.716H134.2C134.942 274.716 135.544 275.318 135.544 276.06V277.777C135.544 278.52 134.942 279.121 134.2 279.121H132.516C131.774 279.121 131.172 278.52 131.172 277.777V276.06Z" fill="white" fill-opacity="0.5"/>
<path d="M148.66 225.074C148.66 224.332 149.262 223.73 150.004 223.73H151.688C152.43 223.73 153.032 224.332 153.032 225.074V226.791C153.032 227.534 152.43 228.135 151.688 228.135H150.004C149.262 228.135 148.66 227.534 148.66 226.791V225.074Z" fill="white" fill-opacity="0.5"/>
<path d="M148.66 242.069C148.66 241.327 149.262 240.725 150.004 240.725H151.688C152.43 240.725 153.032 241.327 153.032 242.069V243.787C153.032 244.529 152.43 245.131 151.688 245.131H150.004C149.262 245.131 148.66 244.529 148.66 243.787V242.069Z" fill="white" fill-opacity="0.5"/>
<path d="M148.66 259.065C148.66 258.322 149.262 257.721 150.004 257.721H151.688C152.43 257.721 153.032 258.322 153.032 259.065V260.782C153.032 261.524 152.43 262.126 151.688 262.126H150.004C149.262 262.126 148.66 261.524 148.66 260.782V259.065Z" fill="white" fill-opacity="0.5"/>
<path d="M148.66 276.06C148.66 275.318 149.262 274.716 150.004 274.716H151.688C152.43 274.716 153.032 275.318 153.032 276.06V277.777C153.032 278.52 152.43 279.121 151.688 279.121H150.004C149.262 279.121 148.66 278.52 148.66 277.777V276.06Z" fill="white" fill-opacity="0.5"/>
<path d="M166.148 225.074C166.148 224.332 166.75 223.73 167.493 223.73H169.176C169.919 223.73 170.52 224.332 170.52 225.074V226.791C170.52 227.534 169.919 228.135 169.176 228.135H167.493C166.75 228.135 166.148 227.534 166.148 226.791V225.074Z" fill="white" fill-opacity="0.5"/>
<path d="M166.148 242.069C166.148 241.327 166.75 240.725 167.493 240.725H169.176C169.919 240.725 170.52 241.327 170.52 242.069V243.787C170.52 244.529 169.919 245.131 169.176 245.131H167.493C166.75 245.131 166.148 244.529 166.148 243.787V242.069Z" fill="white" fill-opacity="0.5"/>
<path d="M166.148 259.065C166.148 258.322 166.75 257.721 167.493 257.721H169.176C169.919 257.721 170.52 258.322 170.52 259.065V260.782C170.52 261.524 169.919 262.126 169.176 262.126H167.493C166.75 262.126 166.148 261.524 166.148 260.782V259.065Z" fill="white" fill-opacity="0.5"/>
<path d="M166.148 276.06C166.148 275.318 166.75 274.716 167.493 274.716H169.176C169.919 274.716 170.52 275.318 170.52 276.06V277.777C170.52 278.52 169.919 279.121 169.176 279.121H167.493C166.75 279.121 166.148 278.52 166.148 277.777V276.06Z" fill="white" fill-opacity="0.5"/>
<path d="M183.629 225.074C183.629 224.332 184.231 223.73 184.973 223.73H186.657C187.399 223.73 188.001 224.332 188.001 225.074V226.791C188.001 227.534 187.399 228.135 186.657 228.135H184.973C184.231 228.135 183.629 227.534 183.629 226.791V225.074Z" fill="white" fill-opacity="0.5"/>
<path d="M183.629 242.069C183.629 241.327 184.231 240.725 184.973 240.725H186.657C187.399 240.725 188.001 241.327 188.001 242.069V243.787C188.001 244.529 187.399 245.131 186.657 245.131H184.973C184.231 245.131 183.629 244.529 183.629 243.787V242.069Z" fill="white" fill-opacity="0.5"/>
<path d="M183.629 259.065C183.629 258.322 184.231 257.721 184.973 257.721H186.657C187.399 257.721 188.001 258.322 188.001 259.065V260.782C188.001 261.524 187.399 262.126 186.657 262.126H184.973C184.231 262.126 183.629 261.524 183.629 260.782V259.065Z" fill="white" fill-opacity="0.5"/>
<path d="M183.629 276.06C183.629 275.318 184.231 274.716 184.973 274.716H186.657C187.399 274.716 188.001 275.318 188.001 276.06V277.777C188.001 278.52 187.399 279.121 186.657 279.121H184.973C184.231 279.121 183.629 278.52 183.629 277.777V276.06Z" fill="white" fill-opacity="0.5"/>
<defs>
<filter id="filter0_f_18_110" x="-526" y="-400" width="1128" height="1128" filterUnits="userSpaceOnUse" color-interpolation-filters="sRGB">
<feFlood flood-opacity="0" result="BackgroundImageFix"/>
<feBlend mode="normal" in="SourceGraphic" in2="BackgroundImageFix" result="shape"/>
<feGaussianBlur stdDeviation="200" result="effect1_foregroundBlur_18_110"/>
</filter>
</defs>
</svg>
