<?xml version="1.0" encoding="utf-8"?>
<svg viewBox="1.293 1.038 968.092 553.624" xmlns="http://www.w3.org/2000/svg">
  <g transform="matrix(0.1, 0, 0, -0.1, 0, 704.00001)" fill="#000000" stroke="none">
    <path d="M7533 7004 c-101 -23 -197 -58 -302 -112 -58 -29 -238 -194 -280 -256 -62 -91 -94 -145 -123 -204 -16 -35 -37 -66 -45 -69 -8 -3 -27 4 -41 16 -42 33 -83 53 -137 67 -69 19 -109 17 -201 -6 -94 -24 -247 -112 -298 -172 -24 -28 -35 -35 -39 -24 -22 56 -283 156 -410 156 -108 0 -275 -59 -386 -137 -59 -41 -65 -43 -74 -27 -17 31 -232 258 -306 323 -114 101 -336 213 -550 277 -92 27 -314 64 -385 64 -95 0 -324 -26 -361 -40 -16 -6 -64 -20 -105 -30 -217 -53 -428 -180 -506 -304 -16 -26 -61 -89 -100 -141 -39 -53 -92 -138 -118 -190 l-48 -94 -52 29 c-67 38 -153 68 -233 80 -134 22 -344 -42 -468 -140 -36 -29 -70 -61 -76 -71 -16 -30 -32 -23 -58 26 -27 51 -150 172 -231 227 -30 21 -102 59 -160 85 l-105 48 -140 -2 c-126 -2 -149 -5 -235 -33 -256 -84 -442 -226 -527 -401 -47 -97 -93 -211 -93 -231 0 -7 -8 -33 -16 -58 -11 -30 -17 -80 -17 -150 -1 -89 3 -116 25 -179 l27 -73 -85 -84 c-46 -46 -84 -88 -84 -94 0 -6 -15 -32 -33 -58 -60 -88 -100 -190 -128 -327 -19 -96 -20 -115 -9 -183 18 -115 76 -285 127 -370 56 -96 269 -343 318 -370 18 -9 18 -12 4 -29 -39 -45 -71 -120 -104 -239 -61 -223 -48 -336 68 -588 26 -56 45 -79 105 -129 39 -34 72 -65 72 -70 0 -4 5 -5 12 -1 8 5 9 0 4 -17 -32 -115 -38 -159 -33 -269 4 -91 12 -136 36 -214 57 -182 77 -225 180 -380 68 -103 306 -265 461 -314 168 -54 389 -31 620 64 112 46 294 163 365 234 l66 66 47 -44 c69 -65 138 -106 253 -153 99 -40 132 -46 329 -65 92 -9 257 26 405 85 129 52 164 74 268 164 l56 48 37 -41 c53 -58 180 -145 266 -181 148 -62 149 -62 363 -63 179 -1 209 1 285 22 47 13 103 33 125 46 22 12 60 31 85 41 65 27 198 117 245 165 21 22 42 40 46 40 3 0 20 -22 36 -48 35 -57 161 -169 201 -178 15 -4 53 -20 85 -36 62 -31 133 -54 259 -83 74 -18 82 -18 195 -1 65 9 138 22 163 28 25 6 68 14 95 19 126 19 256 90 363 196 81 82 83 83 110 69 45 -23 134 -29 249 -16 117 14 162 32 234 98 45 40 30 45 137 -51 30 -26 66 -50 80 -53 15 -4 43 -15 62 -24 69 -33 158 -45 350 -44 181 1 187 2 280 34 120 40 204 87 256 142 72 76 135 165 159 224 22 54 23 60 8 76 -18 21 -18 21 72 36 98 16 222 59 284 97 70 42 215 167 264 227 49 60 106 178 134 278 37 127 43 344 14 455 -19 73 -19 81 -5 90 97 60 173 135 272 269 79 106 171 376 197 576 21 166 5 334 -52 530 -47 161 -190 358 -306 424 l-65 36 20 72 c16 56 19 91 16 162 -4 80 -10 101 -45 176 -32 67 -53 97 -105 146 -56 52 -75 63 -142 83 -81 24 -171 32 -218 18 l-28 -7 0 102 c0 155 -35 323 -81 390 -11 14 -19 30 -19 35 0 4 -18 35 -40 68 -22 33 -40 64 -40 68 0 17 -152 182 -208 227 -74 58 -135 100 -148 100 -6 0 -28 9 -50 19 -114 55 -453 68 -641 25z m588 -171 c42 -16 96 -45 120 -64 59 -46 209 -199 209 -213 0 -6 11 -27 24 -47 114 -168 155 -349 126 -560 -11 -86 -11 -93 7 -118 11 -14 32 -32 48 -40 25 -12 34 -11 92 13 112 46 237 29 305 -41 56 -57 98 -155 98 -226 0 -77 -18 -145 -47 -180 -17 -21 -23 -41 -23 -76 0 -61 23 -86 90 -100 75 -16 129 -52 186 -123 75 -94 131 -212 155 -326 37 -177 42 -253 23 -392 -45 -341 -206 -628 -410 -729 -38 -19 -79 -43 -91 -54 -23 -21 -31 -47 -14 -47 10 0 28 -53 57 -163 33 -130 1 -365 -71 -507 -44 -88 -165 -205 -288 -279 -55 -34 -170 -63 -262 -68 -104 -6 -120 -19 -128 -109 -8 -83 -32 -137 -101 -222 -59 -74 -107 -108 -214 -149 -61 -24 -83 -26 -251 -31 -194 -5 -253 2 -338 40 -54 24 -153 111 -173 153 -18 38 -35 52 -83 66 -34 11 -39 10 -62 -11 -14 -13 -25 -27 -25 -31 0 -24 -67 -102 -103 -121 -36 -19 -59 -22 -160 -22 l-119 -1 -13 40 c-17 48 -38 65 -80 65 -38 0 -64 -26 -96 -94 -32 -70 -129 -163 -216 -209 -96 -50 -353 -106 -486 -107 -119 0 -350 82 -445 159 -39 31 -112 129 -112 149 0 15 -42 87 -58 100 -38 29 -66 15 -146 -73 -82 -90 -194 -171 -296 -214 -30 -13 -64 -29 -75 -37 -54 -35 -144 -46 -349 -42 l-201 4 -85 41 c-168 82 -250 163 -252 246 -1 63 -31 97 -83 97 -41 0 -55 -11 -82 -68 -25 -53 -73 -107 -159 -178 -48 -40 -251 -125 -338 -142 -131 -26 -345 -8 -451 37 -108 46 -155 75 -220 137 -128 123 -146 123 -262 6 -62 -62 -122 -109 -204 -160 -63 -40 -122 -72 -129 -72 -8 0 -32 -9 -54 -19 -110 -51 -246 -76 -375 -68 -116 7 -157 19 -236 69 -33 21 -80 47 -103 59 -49 25 -172 141 -172 162 0 8 -14 32 -31 53 -39 49 -83 146 -112 244 -18 63 -22 99 -22 225 1 136 3 157 27 224 38 108 25 141 -72 178 -65 24 -99 50 -132 102 -50 80 -66 152 -70 317 -2 134 0 157 21 229 29 93 57 140 101 166 17 11 37 34 44 51 21 48 4 83 -61 125 -74 47 -118 88 -216 202 -123 141 -180 250 -213 404 -18 87 -18 148 1 234 14 68 56 177 87 223 8 14 28 45 43 69 35 56 118 137 168 163 68 35 77 93 25 169 -48 72 -60 225 -25 349 31 113 108 273 155 323 36 38 164 126 233 160 111 54 168 68 300 74 l125 6 90 -38 c91 -40 204 -116 260 -176 17 -19 48 -59 67 -89 20 -30 50 -74 67 -98 16 -23 30 -46 30 -51 0 -18 42 -44 70 -44 40 0 63 23 83 85 20 60 33 78 99 132 77 62 176 97 288 103 88 5 101 3 165 -22 39 -16 99 -51 134 -78 77 -58 103 -70 134 -58 32 12 43 28 61 91 25 84 103 231 164 307 30 37 63 85 73 105 25 48 106 129 174 173 52 33 206 96 270 110 17 4 59 16 95 27 50 15 107 21 246 25 160 5 194 3 300 -17 227 -42 484 -154 623 -271 117 -99 273 -279 320 -369 46 -88 71 -107 116 -90 14 5 34 24 43 42 43 82 169 170 277 194 22 4 78 8 125 8 69 0 100 -6 164 -29 87 -31 166 -95 166 -132 0 -31 38 -73 66 -73 41 0 63 18 89 73 13 29 36 66 52 84 60 69 225 143 317 143 46 0 112 -27 139 -57 9 -11 36 -55 60 -98 32 -60 49 -81 71 -88 44 -14 77 16 97 89 26 94 84 246 118 305 38 68 182 234 219 253 16 8 35 22 43 32 20 25 153 82 239 104 41 10 84 21 95 24 11 3 115 4 230 2 208 -2 211 -3 286 -33z" style="fill: rgb(21, 17, 133);"/>
  </g>
</svg>