<?xml version="1.0" encoding="UTF-8" standalone="no"?>
<svg
   xmlns:dc="http://purl.org/dc/elements/1.1/"
   xmlns:cc="http://creativecommons.org/ns#"
   xmlns:rdf="http://www.w3.org/1999/02/22-rdf-syntax-ns#"
   xmlns:svg="http://www.w3.org/2000/svg"
   xmlns="http://www.w3.org/2000/svg"
   viewBox="0 0 4000 4000"
   height="4000"
   width="4000"
   xml:space="preserve"
   id="svg2"
   version="1.1"><metadata
     id="metadata8"><rdf:RDF><cc:Work
         rdf:about=""><dc:format>image/svg+xml</dc:format><dc:type
           rdf:resource="http://purl.org/dc/dcmitype/StillImage" /></cc:Work></rdf:RDF></metadata><defs
     id="defs6"><clipPath
       id="clipPath20"
       clipPathUnits="userSpaceOnUse"><path
         id="path18"
         d="M 0,3000 H 3000 V 0 H 0 Z" /></clipPath></defs><g
     transform="matrix(1.3333333,0,0,-1.3333333,0,4000)"
     id="g10"><path
       id="path12"
       style="fill:#32333700;fill-opacity:1;fill-rule:nonzero;stroke:none"
       d="M 0,0 H 3000 V 3000 H 0 Z" /><g
       id="g14"><g
         clip-path="url(#clipPath20)"
         id="g16"><g
           transform="translate(2058.0469,354.0703)"
           id="g22">
           <!-- leaf -->
           <path
             id="path24"
             style="fill:#323337;fill-opacity:1;fill-rule:nonzero;stroke:none"
             d="m 0,0 c -0.071,0 -0.143,0.003 -0.215,0.009 -1.375,0.117 -2.395,1.327 -2.279,2.703 12.981,152.905 2.591,305.191 -30.883,452.627 -26.779,117.95 -68.308,233.08 -123.433,342.192 -93.84,185.747 -195.862,290.885 -196.881,291.925 -0.967,0.986 -0.952,2.569 0.035,3.535 0.985,0.968 2.569,0.95 3.535,-0.035 1.025,-1.046 103.588,-106.739 197.774,-293.17 C -97.038,690.311 -55.37,574.794 -28.501,456.445 5.086,308.508 15.513,155.707 2.488,2.288 2.377,0.984 1.285,0 0,0" /></g><g
           transform="translate(1595.1875,1475.0957)"
           id="g26"><path
             id="path28"
             style="fill:#323337;fill-opacity:1;fill-rule:nonzero;stroke:none"
             d="m 0,0 c 17.623,-22.438 30.147,-26.635 44.514,-31.45 14.895,-4.992 31.779,-10.652 56.688,-38.06 26.227,-28.855 22.376,-44.7 17.917,-63.047 -3.897,-16.036 -8.314,-34.213 6.187,-66.666 15.426,-34.524 39.856,-48.86 63.481,-62.723 26.567,-15.589 51.659,-30.313 58.104,-71.942 l 0.821,-5.326 c 11.404,-74.028 17.138,-111.302 124.446,-143.832 4.329,2.669 23.53,15.272 40.546,38.56 17.679,24.195 36.567,65.266 26.151,123.522 -9.786,54.739 -28.947,61.514 -51.133,69.358 -23.181,8.196 -49.456,17.485 -66.035,85.409 -25.486,104.414 -64.535,114.187 -109.75,125.504 -18.46,4.62 -37.55,9.398 -56.89,20.904 C 85.734,21.448 66.422,14.736 44.058,6.963 32.743,3.031 20.056,-1.384 0,0 m 372.495,-488.259 c -0.242,0 -0.484,0.035 -0.721,0.107 -53.434,16.084 -83.879,33.54 -101.799,58.37 -16.997,23.55 -21.502,52.789 -27.204,89.807 l -0.822,5.322 c -6.081,39.283 -29.071,52.774 -55.692,68.394 -23.172,13.598 -49.437,29.01 -65.516,64.997 -15.198,34.013 -10.364,53.904 -6.48,69.886 4.292,17.662 7.682,31.611 -16.758,58.503 -24.034,26.445 -39.562,31.649 -54.578,36.682 -15.414,5.166 -29.973,10.045 -50.37,37.724 -0.591,0.802 -0.65,1.877 -0.15,2.738 0.5,0.862 1.465,1.337 2.452,1.229 22.276,-2.6 35.132,1.866 47.559,6.187 23.544,8.181 43.873,15.249 115.188,-27.179 18.708,-11.131 37.436,-15.819 55.547,-20.351 22.935,-5.74 44.597,-11.162 64.082,-28.768 21.711,-19.617 37.379,-51.519 49.311,-100.401 15.938,-65.296 39.784,-73.727 62.845,-81.881 22.673,-8.016 44.09,-15.587 54.388,-73.19 10.745,-60.101 -8.843,-102.526 -27.168,-127.533 -19.856,-27.098 -41.951,-39.791 -42.882,-40.319 -0.379,-0.214 -0.804,-0.324 -1.232,-0.324" /></g><g
           transform="translate(1830.127,1279.1113)"
           id="g30"><path
             id="path32"
             style="fill:#323337;fill-opacity:1;fill-rule:nonzero;stroke:none"
             d="m 0,0 c -0.398,0 -0.799,0.095 -1.165,0.288 l -88.584,46.663 c -1.222,0.644 -1.69,2.155 -1.047,3.377 0.643,1.222 2.156,1.689 3.377,1.047 L -3.487,7.163 -29.538,136.721 c -0.272,1.353 0.604,2.672 1.958,2.944 1.353,0.27 2.671,-0.604 2.944,-1.958 L 2.451,2.993 C 2.642,2.047 2.271,1.076 1.497,0.498 1.057,0.168 0.529,0 0,0" /></g><g
           transform="translate(1900.0625,1156.9248)"
           id="g34"><path
             id="path36"
             style="fill:#323337;fill-opacity:1;fill-rule:nonzero;stroke:none"
             d="M 0,0 C -0.499,0 -0.996,0.149 -1.423,0.444 L -65.147,44.57 c -1.136,0.786 -1.419,2.344 -0.633,3.479 0.786,1.137 2.344,1.42 3.478,0.633 L -3.003,7.62 -14.213,124.447 c -0.132,1.375 0.875,2.596 2.249,2.728 1.382,0.133 2.596,-0.874 2.728,-2.249 L 2.488,2.739 C 2.581,1.771 2.104,0.836 1.265,0.344 0.873,0.114 0.437,0 0,0" /></g><g
           transform="translate(1947.8027,1054.2656)"
           id="g38"><path
             id="path40"
             style="fill:#323337;fill-opacity:1;fill-rule:nonzero;stroke:none"
             d="m 0,0 c -0.329,0 -0.664,0.065 -0.985,0.204 l -84.132,36.118 c -1.269,0.544 -1.856,2.015 -1.311,3.283 0.544,1.269 2.018,1.857 3.283,1.311 L 0.987,4.798 C 2.256,4.254 2.843,2.783 2.298,1.515 1.892,0.567 0.969,0 0,0" /></g><g
           transform="translate(1988.335,694.2178)"
           id="g42"><path
             id="path44"
             style="fill:#9a3412;fill-opacity:1;fill-rule:nonzero;stroke:none"
             d="M 0,0 C 0,0 -154.346,67.748 -139.956,258.479 -125.507,450 -4.49,313.316 25.71,531.093 60.229,780 173.729,725.5 275.182,800.769 441.674,924.29 431.174,838.267 536.003,861.459 480.672,767.771 449.173,820.268 377.177,722.772 307.592,628.543 399.676,628.277 360.003,508 317.846,380.187 190.607,395.77 184.003,268.819 177.244,138.89 178.003,74 0,0" /></g><g
           transform="translate(2050.7695,1675.4058)"
           id="g46"><path
             id="path48"
             style="fill:#323337;fill-opacity:1;fill-rule:nonzero;stroke:none"
             d="M 0,0 C -0.93,0 -1.798,0.52 -2.229,1.369 L -70.317,135.572 -158.509,33.62 c -0.688,-0.798 -1.803,-1.077 -2.785,-0.7 -0.983,0.377 -1.625,1.329 -1.605,2.382 l 1.057,56.557 c 0.028,1.38 1.188,2.494 2.547,2.453 1.38,-0.026 2.479,-1.166 2.453,-2.547 l -0.929,-49.65 86.108,99.544 c 0.544,0.63 1.366,0.951 2.194,0.846 0.827,-0.101 1.549,-0.608 1.926,-1.35 L -1.389,10.765 20.075,167.29 c 0.131,0.958 0.803,1.754 1.725,2.044 0.922,0.292 1.929,0.025 2.586,-0.685 L 154.435,28.279 110.679,226.583 c -0.208,0.942 0.145,1.92 0.907,2.512 0.763,0.593 1.797,0.693 2.66,0.259 l 98.655,-49.741 -52.627,112.533 c -0.34,0.729 -0.309,1.579 0.083,2.281 0.394,0.702 1.102,1.173 1.902,1.263 L 277.955,308.762 155.8,391.891 c -0.693,0.471 -1.103,1.257 -1.094,2.094 0.009,0.837 0.437,1.614 1.139,2.07 l 116.095,75.393 -136.073,36.006 c -0.775,0.205 -1.405,0.77 -1.693,1.518 -0.288,0.749 -0.2,1.59 0.237,2.262 L 210.414,628.109 89.075,610.587 c -0.799,-0.12 -1.6,0.16 -2.158,0.74 -0.558,0.579 -0.803,1.392 -0.658,2.183 l 25.547,139.836 -98.022,-74.867 c -0.657,-0.504 -1.521,-0.648 -2.308,-0.385 -0.786,0.262 -1.391,0.896 -1.616,1.693 L -19.19,782.817 -80.842,668.09 c -0.464,-0.863 -1.394,-1.375 -2.368,-1.311 -0.978,0.065 -1.828,0.696 -2.174,1.613 l -68.602,182.078 -1.109,-190.061 c -0.006,-0.998 -0.604,-1.897 -1.523,-2.287 -0.92,-0.389 -1.984,-0.195 -2.703,0.494 l -98.3,93.919 38.896,-129.723 c 0.245,-0.813 0.059,-1.695 -0.493,-2.341 -0.552,-0.645 -1.392,-0.967 -2.235,-0.854 l -112.697,15.207 100.711,-113.853 c 0.614,-0.695 0.793,-1.673 0.464,-2.541 -0.328,-0.868 -1.11,-1.483 -2.031,-1.596 l -153.495,-18.952 56.256,-37.465 c 1.149,-0.766 1.46,-2.317 0.695,-3.467 -0.765,-1.149 -2.32,-1.46 -3.467,-0.695 l -61.866,41.201 c -0.87,0.58 -1.288,1.639 -1.047,2.657 0.241,1.017 1.089,1.777 2.126,1.905 l 155.474,19.196 -102.017,115.33 c -0.692,0.782 -0.825,1.912 -0.333,2.833 0.493,0.922 1.504,1.439 2.539,1.301 l 115.513,-15.588 -39.714,132.452 c -0.282,0.94 0.013,1.959 0.754,2.604 l 1.022,0.889 c 0.972,0.847 2.433,0.815 3.369,-0.078 l 99.136,-94.719 1.131,194.016 c 0.007,1.123 0.762,2.104 1.845,2.398 l 1.301,0.353 c 1.245,0.34 2.54,-0.325 2.995,-1.531 l 70.145,-186.173 61.978,115.333 c 0.482,0.899 1.463,1.412 2.475,1.302 1.012,-0.111 1.857,-0.826 2.133,-1.807 l 29.732,-105.443 100.235,76.558 c 0.822,0.628 1.944,0.685 2.823,0.145 0.881,-0.539 1.339,-1.565 1.154,-2.581 L 91.802,616.032 215.161,633.847 c 0.977,0.14 1.935,-0.301 2.464,-1.128 0.528,-0.827 0.524,-1.886 -0.011,-2.709 L 140.486,511.404 278.671,474.839 c 0.956,-0.253 1.673,-1.045 1.829,-2.022 0.156,-0.976 -0.277,-1.953 -1.107,-2.491 L 161.722,393.909 286.343,309.102 c 0.864,-0.589 1.271,-1.653 1.02,-2.668 -0.251,-1.015 -1.107,-1.766 -2.146,-1.884 L 166.278,291.112 220.491,175.188 c 0.451,-0.965 0.241,-2.11 -0.523,-2.853 -0.765,-0.741 -1.914,-0.918 -2.867,-0.439 L 116.695,222.519 160.381,24.534 c 0.253,-1.146 -0.326,-2.315 -1.393,-2.807 l -2.063,-0.954 c -0.985,-0.453 -2.147,-0.223 -2.882,0.571 L 24.311,161.374 2.478,2.16 C 2.329,1.077 1.494,0.216 0.416,0.035 0.276,0.011 0.138,0 0,0" /></g><g
           transform="translate(1162.7085,803.2002)"
           id="g50"><path
             id="path52"
             style="fill:#9a3412;fill-opacity:1;fill-rule:nonzero;stroke:none"
             d="m 0,0 14.934,83.14 5.8,-81.609 72.876,41.667 c 0,0 -63.161,-52.669 -61.006,-52.848 2.154,-0.179 38.467,-53.954 38.467,-53.954 L 27.383,-22.882 17.78,-101.91 6.47,-26.567 -21.534,-105.151 -6.422,-19.856 -57.195,0.848 Z" /></g><g
           transform="translate(1614.5117,2559.3457)"
           id="g54"><path
             id="path56"
             style="fill:#9a3412;fill-opacity:1;fill-rule:nonzero;stroke:none"
             d="m 0,0 68.01,-50.101 -75.788,30.82 5.217,-83.783 c 0,0 -19.378,79.923 -20.49,78.069 -1.112,-1.854 -65.393,-10.699 -65.393,-10.699 l 55.825,21.224 -66.673,43.502 72.598,-23.11 -58.152,59.817 69.864,-51.212 40.991,36.42 z" /></g><g
           transform="translate(2304.6729,746.6035)"
           id="g58"><path
             id="path60"
             style="fill:#9a3412;fill-opacity:1;fill-rule:nonzero;stroke:none"
             d="m 0,0 c -0.001,-0.001 -0.001,-0.002 -0.002,-0.002 0.001,0 0.001,0.001 0.002,0.002 m -0.003,-0.004 c -0.013,-0.019 -0.025,-0.04 -0.038,-0.06 0.013,0.02 0.025,0.041 0.038,0.06 m -0.038,-0.061 c -0.001,-0.001 -0.002,-0.002 -0.003,-0.004 0.001,0.002 0.002,0.003 0.003,0.004 m -0.003,-0.004 c -0.001,-0.002 -0.002,-0.003 -0.003,-0.005 0.001,0.002 0.002,0.003 0.003,0.005 m 2.208,1.24 c 0.12,0 0.241,-0.009 0.362,-0.027 2.217,-0.338 2.617,-0.399 12.852,-41 1.014,-4.022 2.022,-8.053 2.983,-11.916 L 14.875,4.2 c -0.054,0.858 0.338,1.684 1.036,2.185 0.697,0.503 1.604,0.612 2.401,0.286 L 75.571,-16.614 23.667,21.623 c -0.986,0.726 -1.301,2.059 -0.744,3.149 L 42.896,63.898 11.827,36.294 C 10.948,35.511 9.64,35.45 8.689,36.146 L -37.078,69.695 0.247,31.301 C 1.046,30.479 1.184,29.219 0.58,28.244 -0.023,27.269 -1.213,26.829 -2.305,27.177 L -57.357,44.701 -6.104,11.26 C -5.316,10.746 -4.885,9.833 -4.985,8.898 -5.086,7.963 -5.703,7.163 -6.582,6.829 L -41.453,-6.429 c 19.381,2.838 39.136,5.958 42.078,7.088 0.442,0.325 0.987,0.512 1.539,0.512 m 20.423,-83.1 c -1.137,0 -2.152,0.776 -2.428,1.911 -6.235,25.716 -16.364,66.282 -19.379,75.546 -3.788,-1.008 -12.153,-2.5 -31.424,-5.404 -16.039,-2.418 -32.15,-4.637 -32.311,-4.659 -1.261,-0.169 -2.449,0.626 -2.763,1.858 -0.315,1.232 0.345,2.503 1.533,2.955 l 51.234,19.479 -62.558,40.817 c -1.048,0.684 -1.429,2.036 -0.892,3.166 0.537,1.13 1.823,1.69 3.017,1.31 l 63.095,-20.085 -51.2,52.668 c -0.906,0.931 -0.947,2.402 -0.093,3.383 0.853,0.98 2.317,1.142 3.363,0.376 l 68.236,-50.019 39.48,35.079 c 0.899,0.798 2.237,0.845 3.19,0.109 0.951,-0.736 1.244,-2.043 0.697,-3.115 L 28.341,24.39 l 66.3,-48.842 c 1.015,-0.748 1.314,-2.135 0.699,-3.235 -0.616,-1.099 -1.956,-1.569 -3.123,-1.093 L 20.112,0.541 25.084,-79.273 c 0.081,-1.293 -0.84,-2.434 -2.121,-2.627 -0.127,-0.02 -0.252,-0.029 -0.376,-0.029" /></g><g
           transform="translate(950.689,1845.895)"
           id="g62"><path
             id="path64"
             style="fill:#323337;fill-opacity:1;fill-rule:nonzero;stroke:none"
             d="m 0,0 c -6.88,0 -13.776,-2.034 -19.314,-6.028 -10.939,-7.889 -20.431,-26.37 -14.268,-54.578 2.066,-9.453 5.47,-18.578 9.99,-27.141 10.947,2.227 22.189,7.971 33.548,17.158 13.897,11.24 21.497,23.005 22.59,34.969 1.13,12.375 -5.618,25.319 -16.412,31.478 C 11.272,-1.368 5.641,0 0,0 m 45.064,-149.468 c -0.223,0 -0.448,0.03 -0.673,0.092 -29.647,8.266 -55.41,29.312 -70.642,56.104 -2.596,-0.36 -5.174,-0.523 -7.747,-0.53 -29.228,0.073 -52.065,23.959 -63.69,46.287 -7.422,14.255 -12.298,29.764 -17.015,44.761 -3.193,10.153 -6.495,20.653 -10.544,30.605 -9.972,24.505 -25.211,47.263 -44.071,65.815 -10.018,9.854 -21.373,21.023 -35.152,24.568 -22.26,5.727 -42.894,5.339 -61.326,-1.155 -15.688,-5.526 -29.585,-15.564 -40.186,-29.03 -18.182,-23.091 -24.64,-54.146 -15.023,-72.236 0.648,-1.218 0.185,-2.732 -1.035,-3.38 -1.217,-0.647 -2.732,-0.186 -3.38,1.034 -10.49,19.73 -3.822,53.124 15.509,77.676 24.707,31.38 63.593,43.019 106.687,31.934 15.081,-3.881 26.945,-15.551 37.412,-25.847 19.341,-19.024 34.97,-42.364 45.196,-67.494 4.127,-10.142 7.46,-20.74 10.683,-30.99 4.651,-14.791 9.461,-30.086 16.68,-43.953 10.95,-21.03 32.27,-43.527 59.268,-43.595 1.687,0.01 3.448,0.082 5.185,0.259 -4.339,8.512 -7.628,17.54 -9.666,26.869 -2.444,11.185 -2.586,22.802 -0.4,32.713 2.574,11.667 8.323,20.999 16.627,26.988 11.801,8.509 28.217,9.382 40.852,2.174 12.636,-7.211 20.236,-21.788 18.912,-36.276 -1.22,-13.36 -9.438,-26.28 -24.425,-38.402 -11.466,-9.273 -22.904,-15.241 -34.146,-17.835 14.678,-24.949 38.941,-44.486 66.78,-52.248 1.33,-0.371 2.107,-1.749 1.737,-3.079 -0.308,-1.106 -1.313,-1.829 -2.407,-1.829" /></g><g
           transform="translate(1762.2588,508.4443)"
           id="g66"><path
             id="path68"
             style="fill:#323337;fill-opacity:1;fill-rule:nonzero;stroke:none"
             d="m 0,0 -33.715,117.843 -138.789,-29.011 29.065,-117.566 c 0,0 97.119,-80.861 143.439,28.734" /></g><g
           transform="translate(1621.0439,481.1289)"
           id="g70"><path
             id="path72"
             style="fill:#323337;fill-opacity:1;fill-rule:nonzero;stroke:none"
             d="m 0,0 c 2.567,-2.033 12.812,-9.844 26.84,-16.6 14.787,-7.121 36.952,-14.504 58.564,-9.248 22.45,5.462 40.334,23.403 53.163,53.327 L 105.736,142.235 -28.24,114.23 Z m 69.807,-32.67 c -37.908,0 -71.997,27.969 -73.631,29.33 -0.409,0.341 -0.699,0.804 -0.827,1.321 l -29.065,117.567 c -0.163,0.658 -0.051,1.355 0.311,1.93 0.361,0.575 0.94,0.978 1.604,1.117 l 138.789,29.01 c 1.279,0.268 2.555,-0.5 2.915,-1.759 L 143.618,28.003 c 0.157,-0.549 0.122,-1.135 -0.1,-1.661 C 130.011,-5.616 110.849,-24.812 86.564,-30.711 80.958,-32.073 75.34,-32.67 69.807,-32.67" /></g><g
           transform="translate(1618.0459,522.3291)"
           id="g74"><path
             id="path76"
             style="fill:#6b7280;fill-opacity:1;fill-rule:nonzero;stroke:none"
             d="m 0,0 c 0,0 9.111,-3.302 18.113,-19.75 7.14,-13.043 19.825,-22.136 34.494,-24.573 l 1.455,-0.241 c 11.186,-1.859 22.66,0.288 32.43,6.043 17.33,10.207 46.154,25.224 63.352,23.615 l 110.485,-63.928 c 0,0 18.142,-2.724 37.676,-10.714 30.122,-12.321 47.48,-44.105 42.146,-76.211 l -373.608,62.072 c 0,0 17.384,119.958 33.457,103.687" /></g><g
           transform="translate(1587.4258,420.7051)"
           id="g78"><path
             id="path80"
             style="fill:#323337;fill-opacity:1;fill-rule:nonzero;stroke:none"
             d="m 0,0 368.669,-61.251 c 1.824,14.239 -0.936,28.859 -7.864,41.435 -7.353,13.343 -19.118,23.848 -33.126,29.579 -19.007,7.773 -36.923,10.528 -37.102,10.554 -0.309,0.047 -0.608,0.152 -0.88,0.309 L 179.698,84.272 C 162.831,85.471 134.119,70.218 118.381,60.948 108.114,54.902 95.998,52.645 84.271,54.594 l -1.453,0.24 C 67.345,57.406 54.122,66.823 46.54,80.674 38.225,95.868 29.851,99.244 29.769,99.273 c -0.35,0.127 -0.666,0.33 -0.927,0.594 -0.933,0.944 -1.394,0.788 -1.615,0.717 C 25.382,99.978 18.596,94.402 8.717,48.127 4.296,27.423 1.05,6.888 0,0 m 370.771,-66.635 c -0.136,0 -0.273,0.011 -0.41,0.034 L -3.247,-4.528 c -1.342,0.222 -2.259,1.477 -2.065,2.824 0.038,0.251 3.705,25.418 9.134,50.853 10.083,47.238 17.295,54.689 21.843,56.185 1.29,0.426 3.783,0.752 6.356,-1.59 2.226,-1.016 10.701,-5.679 18.906,-20.67 C 57.766,70.58 69.688,62.085 83.638,59.767 l 1.453,-0.241 c 10.572,-1.757 21.495,0.279 30.753,5.731 20.063,11.817 47.593,25.582 64.853,23.95 0.359,-0.034 0.706,-0.144 1.019,-0.325 L 291.798,25.187 c 3.064,-0.496 19.706,-3.407 37.773,-10.797 15.064,-6.161 27.711,-17.453 35.613,-31.793 7.871,-14.285 10.731,-31.027 8.053,-47.142 -0.108,-0.653 -0.472,-1.237 -1.011,-1.623 -0.427,-0.306 -0.936,-0.467 -1.455,-0.467" /></g><g
           transform="translate(1879.1221,388.2842)"
           id="g82"><path
             id="path84"
             style="fill:#323337;fill-opacity:1;fill-rule:nonzero;stroke:none"
             d="m 0,0 c -0.148,0 -0.298,0.014 -0.446,0.04 l -263.691,47.87 c -1.248,0.227 -2.129,1.354 -2.049,2.62 0.016,0.242 1.386,24.353 -11.912,29.433 -1.289,0.492 -1.935,1.937 -1.442,3.227 0.491,1.289 1.934,1.936 3.228,1.443 14.125,-5.397 15.228,-25.395 15.183,-32.187 L -3.239,5.629 c -4.894,24.965 3.283,39.685 3.65,40.329 0.684,1.199 2.211,1.616 3.411,0.931 C 5.019,46.205 5.437,44.682 4.756,43.483 4.633,43.262 -3.575,28.175 2.432,3.082 2.628,2.261 2.396,1.396 1.816,0.782 1.34,0.278 0.681,0 0,0" /></g><g
           transform="translate(1791.168,436.3311)"
           id="g86"><path
             id="path88"
             style="fill:#323337;fill-opacity:1;fill-rule:nonzero;stroke:none"
             d="M 0,0 C -0.546,0 -1.097,0.179 -1.558,0.546 -2.637,1.407 -2.813,2.98 -1.952,4.06 l 24.558,30.775 c 0.863,1.077 2.434,1.255 3.514,0.394 1.079,-0.861 1.256,-2.434 0.395,-3.513 L 1.956,0.94 C 1.462,0.322 0.734,0 0,0" /></g><g
           transform="translate(1811.0195,575.9277)"
           id="g90"><path
             id="path92"
             style="fill:#323337;fill-opacity:1;fill-rule:nonzero;stroke:none"
             d="M 0,0 C -2.636,0 -4.941,-0.845 -6.975,-2.544 -20.651,-13.97 -19.256,-60.4 -17.004,-83.922 c 4.001,5.626 10.578,15.274 16.699,26.072 12.473,22.006 17.452,38.708 14.4,48.301 -1.387,4.361 -4.444,7.224 -9.343,8.754 C 3.058,-0.266 1.477,0 0,0 m -18.79,-93.107 c -0.217,0 -0.437,0.028 -0.652,0.086 -0.981,0.265 -1.704,1.097 -1.829,2.104 -0.382,3.067 -9.129,75.317 11.09,92.21 4.518,3.776 10.043,4.679 16.423,2.686 6.482,-2.026 10.727,-6.067 12.618,-12.013 8.297,-26.086 -33.864,-81.735 -35.663,-84.09 -0.48,-0.63 -1.22,-0.983 -1.987,-0.983" /></g><g
           transform="translate(1851.0078,528.2119)"
           id="g94"><path
             id="path96"
             style="fill:#323337;fill-opacity:1;fill-rule:nonzero;stroke:none"
             d="m 0,0 c -13.387,0 -36.558,-23.035 -48.512,-36.571 17.803,2.594 49.942,9.597 56.629,21.715 1.621,2.938 1.599,6.02 -0.068,9.421 C 6.451,-2.174 4.225,-0.419 1.24,-0.07 0.838,-0.022 0.423,0 0,0 m -54.626,-42.375 c -0.911,0 -1.761,0.499 -2.199,1.313 -0.483,0.894 -0.376,1.991 0.269,2.775 1.533,1.863 37.803,45.603 58.376,43.183 4.741,-0.554 8.347,-3.29 10.719,-8.129 2.404,-4.908 2.389,-9.631 -0.045,-14.04 -10.408,-18.856 -64.554,-24.842 -66.853,-25.088 -0.089,-0.009 -0.178,-0.014 -0.267,-0.014" /></g><g
           transform="translate(1769.5352,450.8643)"
           id="g98"><path
             id="path100"
             style="fill:#323337;fill-opacity:1;fill-rule:nonzero;stroke:none"
             d="M 0,0 C -0.546,0 -1.097,0.179 -1.558,0.546 -2.637,1.407 -2.813,2.98 -1.952,4.06 l 24.558,30.775 c 0.863,1.078 2.434,1.256 3.514,0.394 1.079,-0.861 1.256,-2.434 0.395,-3.513 L 1.956,0.94 C 1.462,0.322 0.734,0 0,0" /></g><g
           transform="translate(718.9902,1506.3779)"
           id="g102"><path
             id="path104"
             style="fill:#323337;fill-opacity:1;fill-rule:nonzero;stroke:none"
             d="M 0,0 75.164,-81.403 180.915,13.601 115.151,90.226 C 115.151,90.226 -7.969,118.714 0,0" /></g><g
           transform="translate(721.4277,1507.4229)"
           id="g106"><path
             id="path108"
             style="fill:#323337;fill-opacity:1;fill-rule:nonzero;stroke:none"
             d="M 0,0 72.89,-78.94 174.988,12.783 111.367,86.911 C 104.473,88.316 53.912,97.482 23.469,71.55 5.881,56.567 -2.013,32.497 0,0 m 72.727,-84.948 c -0.674,0 -1.345,0.27 -1.838,0.803 L -4.274,-2.741 c -0.388,0.42 -0.62,0.959 -0.658,1.529 -2.324,34.618 6.146,60.384 25.176,76.583 14.32,12.19 34.973,18.858 59.726,19.284 18.574,0.325 32.715,-2.902 33.307,-3.039 0.52,-0.12 0.987,-0.403 1.334,-0.807 l 65.763,-76.624 c 0.885,-1.032 0.785,-2.581 -0.226,-3.489 L 74.397,-84.308 c -0.478,-0.428 -1.075,-0.64 -1.67,-0.64" /></g><g
           transform="translate(854.0166,1558.8936)"
           id="g110"><path
             id="path112"
             style="fill:#6b7280;fill-opacity:1;fill-rule:nonzero;stroke:none"
             d="m 0,0 c 0,0 -9.622,-1.152 -25.064,9.483 -12.248,8.434 -27.668,10.843 -41.863,6.416 L -68.334,15.46 C -79.16,12.084 -88.439,5.003 -94.574,-4.534 c -10.881,-16.916 -29.859,-43.3 -45.941,-49.604 l -127.435,7.352 c 0,0 -17.425,-5.734 -38.465,-7.392 -32.444,-2.556 -62.252,18.012 -71.94,49.082 L -16.797,107.649 C -16.797,107.649 21.677,-7.293 0,0" /></g><g
           transform="translate(478.8369,1552.1694)"
           id="g114"><path
             id="path116"
             style="fill:#323337;fill-opacity:1;fill-rule:nonzero;stroke:none"
             d="m 0,0 c 4.781,-13.537 13.826,-25.349 25.673,-33.459 12.573,-8.606 27.806,-12.695 42.895,-11.502 20.503,1.615 37.709,7.218 37.881,7.274 0.298,0.099 0.609,0.142 0.925,0.121 l 126.874,-7.319 c 15.578,6.508 34.374,33.066 44.255,48.427 6.446,10.021 16.247,17.489 27.598,21.029 l 1.407,0.439 c 14.974,4.668 31.02,2.212 44.025,-6.744 14.296,-9.845 23.279,-9.065 23.372,-9.057 0.354,0.036 0.735,-0.002 1.072,-0.115 1.253,-0.423 1.599,-0.079 1.765,0.087 1.374,1.372 4.925,9.405 -7.084,55.174 -5.372,20.478 -11.717,40.276 -13.88,46.899 z m 63.425,-50.164 c -14.376,0 -28.6,4.38 -40.576,12.579 -13.458,9.212 -23.548,22.875 -28.411,38.469 -0.411,1.318 0.324,2.72 1.643,3.131 L 357.639,116.76 c 1.3,0.404 2.683,-0.304 3.114,-1.593 0.081,-0.241 8.135,-24.365 14.736,-49.521 12.26,-46.721 9.174,-56.621 5.785,-60.004 -0.962,-0.96 -3.039,-2.376 -6.391,-1.441 -2.445,-0.098 -12.109,0.253 -26.186,9.947 -11.732,8.079 -26.201,10.298 -39.7,6.088 l -1.407,-0.439 c -10.234,-3.191 -19.07,-9.924 -24.882,-18.96 -12.597,-19.583 -30.999,-44.255 -47.13,-50.578 -0.337,-0.132 -0.699,-0.188 -1.057,-0.168 l -126.97,7.325 c -2.959,-0.937 -19.13,-5.829 -38.59,-7.362 -1.844,-0.145 -3.692,-0.217 -5.536,-0.218" /></g><g
           transform="translate(578.3726,1517.479)"
           id="g118"><path
             id="path120"
             style="fill:#323337;fill-opacity:1;fill-rule:nonzero;stroke:none"
             d="m 0,0 c -0.043,0 -0.087,0.001 -0.132,0.003 -1.376,0.072 -2.434,1.244 -2.367,2.619 0.008,0.171 0.59,17.373 -16.109,37.125 -0.546,0.645 -0.728,1.522 -0.486,2.331 0.242,0.809 0.876,1.442 1.686,1.681 l 257.013,75.949 c 1.219,0.356 2.511,-0.251 3.009,-1.417 0.095,-0.224 9.724,-22.367 23.885,-20.921 1.373,0.146 2.601,-0.859 2.741,-2.232 0.141,-1.374 -0.859,-2.601 -2.232,-2.742 -0.633,-0.064 -1.26,-0.096 -1.875,-0.096 -13.999,-0.002 -23.281,16.174 -26.173,22.003 L -12.398,40.025 C 3.208,19.935 2.533,3.11 2.495,2.37 2.425,1.036 1.321,0 0,0" /></g><g
           transform="translate(653.7637,1514.4902)"
           id="g122"><path
             id="path124"
             style="fill:#323337;fill-opacity:1;fill-rule:nonzero;stroke:none"
             d="m 0,0 c -0.17,0 -0.342,0.018 -0.515,0.054 -1.352,0.283 -2.217,1.608 -1.934,2.959 l 8.077,38.535 c 0.283,1.352 1.608,2.215 2.959,1.934 1.352,-0.283 2.218,-1.608 1.934,-2.959 L 2.444,1.988 C 2.197,0.809 1.158,0 0,0" /></g><g
           transform="translate(683.2324,1506.7622)"
           id="g126"><path
             id="path128"
             style="fill:#323337;fill-opacity:1;fill-rule:nonzero;stroke:none"
             d="m 0,0 c -1.041,-6.825 -2.571,-18.401 -3.175,-30.797 -1.233,-25.265 1.839,-42.42 8.883,-49.614 3.202,-3.269 7.22,-4.451 12.284,-3.611 4.876,0.807 8.043,3.044 9.683,6.84 C 34.743,-60.831 12.598,-19.994 0,0 m 14.961,-89.285 c -5.023,0 -9.325,1.801 -12.827,5.377 -19.152,19.56 -6.551,88.229 -6.006,91.143 0.187,0.998 0.959,1.784 1.954,1.988 0.994,0.206 2.013,-0.212 2.58,-1.056 1.722,-2.567 42.055,-63.146 31.604,-87.333 -2.336,-5.403 -6.863,-8.697 -13.457,-9.79 -1.326,-0.218 -2.609,-0.329 -3.848,-0.329" /></g><g
           transform="translate(675.4966,1503.272)"
           id="g130"><path
             id="path132"
             style="fill:#323337;fill-opacity:1;fill-rule:nonzero;stroke:none"
             d="m 0,0 c -14.729,-10.332 -40.276,-31.051 -40.793,-44.881 -0.126,-3.354 1.281,-6.096 4.301,-8.383 2.896,-2.193 5.674,-2.755 8.495,-1.726 C -15.555,-50.44 -4.723,-18.02 0,0 m -30.754,-60.506 c -2.963,0 -5.894,1.088 -8.756,3.256 -4.356,3.298 -6.469,7.523 -6.28,12.557 C -44.983,-23.171 0.672,6.546 2.615,7.801 3.467,8.352 4.57,8.332 5.402,7.75 6.235,7.169 6.633,6.142 6.41,5.151 5.88,2.798 -6.788,-52.558 -26.28,-59.685 c -1.496,-0.548 -2.989,-0.821 -4.474,-0.821" /></g><g
           transform="translate(679.6226,1511.25)"
           id="g134"><path
             id="path136"
             style="fill:#323337;fill-opacity:1;fill-rule:nonzero;stroke:none"
             d="m 0,0 c -0.17,0 -0.342,0.018 -0.515,0.054 -1.352,0.283 -2.217,1.608 -1.934,2.959 l 8.077,38.535 c 0.284,1.352 1.61,2.215 2.959,1.934 1.352,-0.283 2.218,-1.608 1.934,-2.959 L 2.444,1.988 C 2.197,0.809 1.158,0 0,0" /></g><g
           transform="translate(2040.2891,2020.5508)"
           id="g138"><path
             id="path140"
             style="fill:#6b7280;fill-opacity:1;fill-rule:nonzero;stroke:none"
             d="m 0,0 c 0,21.21 -4.079,40.281 -10.572,53.479 v 18.656 h -21.565 c -17.748,0 -32.135,-32.296 -32.135,-72.135 0,-39.839 14.387,-72.135 32.135,-72.135 h 21.565 v 18.656 C -4.079,-40.28 0,-21.21 0,0" /></g><g
           transform="translate(2008.1523,2090.186)"
           id="g142"><path
             id="path144"
             style="fill:#323337;fill-opacity:1;fill-rule:nonzero;stroke:none"
             d="m 0,0 c -16.064,0 -29.636,-31.889 -29.636,-69.635 0,-37.746 13.572,-69.635 29.636,-69.635 h 19.064 v 16.156 c 0,0.383 0.088,0.76 0.257,1.103 6.556,13.326 10.316,32.416 10.316,52.376 0,19.96 -3.76,39.05 -10.316,52.376 -0.169,0.343 -0.257,0.72 -0.257,1.103 L 19.064,0 Z M 21.564,-144.27 H 0 c -19.422,0 -34.636,32.784 -34.636,74.635 C -34.636,-27.784 -19.422,5 0,5 h 21.564 c 1.381,0 2.5,-1.119 2.5,-2.5 v -18.08 c 6.724,-13.959 10.573,-33.615 10.573,-54.055 0,-20.44 -3.849,-40.096 -10.573,-54.055 v -18.08 c 0,-1.381 -1.119,-2.5 -2.5,-2.5" /></g><g
           transform="translate(1997.5811,2020.5508)"
           id="g146"><path
             id="path148"
             style="fill:#323337;fill-opacity:1;fill-rule:nonzero;stroke:none"
             d="m 0,0 c 0,-39.839 14.388,-72.135 32.136,-72.135 17.749,0 32.136,32.296 32.136,72.135 0,39.839 -14.387,72.135 -32.136,72.135 C 14.388,72.135 0,39.839 0,0" /></g><g
           transform="translate(2029.7168,2090.186)"
           id="g150"><path
             id="path152"
             style="fill:#323337;fill-opacity:1;fill-rule:nonzero;stroke:none"
             d="m 0,0 c -16.064,0 -29.636,-31.889 -29.636,-69.635 0,-37.746 13.572,-69.635 29.636,-69.635 16.064,0 29.637,31.889 29.637,69.635 C 29.637,-31.889 16.064,0 0,0 m 0,-144.27 c -19.422,0 -34.636,32.784 -34.636,74.635 C -34.636,-27.784 -19.422,5 0,5 19.423,5 34.637,-27.784 34.637,-69.635 34.637,-111.486 19.423,-144.27 0,-144.27" /></g><g
           transform="translate(2012.4746,2019.0366)"
           id="g154"><path
             id="path156"
             style="fill:#6b7280;fill-opacity:1;fill-rule:nonzero;stroke:none"
             d="m 0,0 c 0,-28.699 7.72,-51.965 17.242,-51.965 9.524,0 17.243,23.266 17.243,51.965 0,28.7 -7.719,51.965 -17.243,51.965 C 7.72,51.965 0,28.7 0,0" /></g><g
           transform="translate(2029.7168,2068.502)"
           id="g158"><path
             id="path160"
             style="fill:#323337;fill-opacity:1;fill-rule:nonzero;stroke:none"
             d="m 0,0 c -3.292,0 -7.055,-5.176 -9.819,-13.508 -3.175,-9.567 -4.923,-22.337 -4.923,-35.957 0,-13.62 1.748,-26.39 4.923,-35.958 2.764,-8.331 6.527,-13.507 9.819,-13.507 3.293,0 7.056,5.176 9.82,13.507 3.175,9.568 4.923,22.338 4.923,35.958 0,13.62 -1.748,26.39 -4.923,35.957 C 7.056,-5.176 3.293,0 0,0 m 0,-103.93 c -12.823,0 -19.742,28.061 -19.742,54.465 C -19.742,-23.062 -12.823,5 0,5 12.823,5 19.743,-23.062 19.743,-49.465 19.743,-75.869 12.823,-103.93 0,-103.93" /></g><g
           transform="translate(1155.5869,960.5195)"
           id="g162">
           <!-- pant -->
           <path
             id="path164"
             style="fill:#323337;fill-opacity:1;fill-rule:nonzero;stroke:none"
             d="m 0,0 c -10.437,0 -20.659,1.193 -30.609,3.583 -24.848,5.965 -47.312,19.305 -66.77,39.648 -0.059,0.062 -0.115,0.127 -0.168,0.195 L -398.715,431.27 c -0.805,1.036 -0.672,2.518 0.305,3.394 l 173.525,155.562 c 0.511,0.458 1.192,0.682 1.874,0.63 0.685,-0.057 1.316,-0.392 1.746,-0.928 l 195.046,-243.42 65.28,200.894 c -0.141,2.941 -0.604,18.181 3.729,36.436 6.305,26.559 19.898,46.61 39.309,57.985 1.192,0.698 2.722,0.299 3.421,-0.893 0.698,-1.191 0.298,-2.723 -0.893,-3.421 -44.108,-25.847 -40.59,-89.636 -40.549,-90.278 0.02,-0.314 -0.02,-0.631 -0.118,-0.931 L -22.896,340.557 c -0.283,-0.874 -1.024,-1.522 -1.928,-1.687 -0.903,-0.164 -1.825,0.18 -2.4,0.896 L -223.515,584.739 -393.337,432.496 -93.677,46.594 c 18.762,-19.586 40.374,-32.421 64.235,-38.15 21.279,-5.109 43.894,-4.529 67.215,1.72 27.684,7.417 55.318,22.821 77.811,43.373 21.245,19.411 36.254,42.109 41.179,62.272 0.021,0.087 0.047,0.173 0.078,0.258 l 123.333,340.59 c 0.276,0.763 0.906,1.345 1.689,1.56 41.62,11.421 55.213,46.991 55.345,47.348 0.479,1.294 1.919,1.954 3.212,1.478 1.296,-0.48 1.957,-1.917 1.478,-3.212 -0.572,-1.545 -14.373,-37.645 -57.46,-50.084 L 161.588,114.49 C 156.327,93.115 141.192,70.162 118.957,49.846 95.883,28.764 67.511,12.955 39.067,5.334 25.8,1.779 12.74,0.001 0,0" /></g><g
           transform="translate(1331.4526,2280.4292)"
           id="g166">
           <!-- hair -->
           <path
             id="path168"
             style="fill:#323337;fill-opacity:1;fill-rule:nonzero;stroke:none"
             d="m 0,0 c -22.544,0 -46.054,7.917 -65.868,22.657 -28.017,20.841 -45.326,52.643 -47.489,87.25 -1.781,28.487 -16.561,49.458 -43.932,62.332 -20.704,9.739 -41.058,10.946 -41.261,10.957 -1.93,0.105 -3.409,1.754 -3.304,3.684 0.104,1.931 1.75,3.427 3.684,3.305 0.885,-0.048 21.933,-1.298 43.86,-11.611 29.438,-13.847 46.015,-37.44 47.939,-68.231 2.034,-32.547 18.32,-62.46 44.682,-82.07 C -37.368,10.18 -7.218,3.024 18.953,9.132 20.837,9.573 22.718,8.401 23.157,6.519 23.596,4.637 22.426,2.754 20.544,2.315 13.883,0.761 6.986,0 0,0" /></g><g
           transform="translate(1358.5122,2298.7939)"
           id="g170"><path
             id="path172"
             style="fill:#323337;fill-opacity:1;fill-rule:nonzero;stroke:none"
             d="m 0,0 c -0.796,0 -1.597,0.271 -2.253,0.824 -43.054,36.287 -46.046,63.359 -51.004,108.21 -3.034,27.448 -6.81,61.609 -20.767,109.518 -17.96,61.646 -53.878,90.746 -80.848,104.303 -29.284,14.72 -54.711,14.878 -55.007,14.878 v 0 h -0.004 c -1.93,0 -3.498,1.563 -3.501,3.494 -0.004,1.931 1.556,3.501 3.488,3.506 1.066,0.017 27.104,-0.098 57.856,-15.468 28.327,-14.157 66.021,-44.517 84.736,-108.755 14.128,-48.494 17.941,-82.989 21.005,-110.707 C -41.372,65.219 -38.657,40.66 2.257,6.176 3.736,4.931 3.924,2.722 2.678,1.245 1.986,0.423 0.997,0 0,0" /></g><g
           transform="translate(1378.7778,2307.8804)"
           id="g174"><path
             id="path176"
             style="fill:#323337;fill-opacity:1;fill-rule:nonzero;stroke:none"
             d="m 0,0 c 0,0 -56.288,8.221 -77.93,50.445 -18.861,36.8 6,48 -29.737,151.888 -30.603,88.965 -62.263,128.112 -151.943,133.023 -97.348,5.332 -208.548,-101.289 -73.554,-179.39 84.046,-48.626 181.216,-10.859 196.888,-72.862 24.276,-96.042 79.569,-108.623 116.012,-96.177 z" /></g><g
           transform="translate(1112.2236,2640.9248)"
           id="g178"><path
             id="path180"
             style="fill:#323337;fill-opacity:1;fill-rule:nonzero;stroke:none"
             d="m 0,0 c -25.159,0 -52.076,-7.406 -74.873,-20.741 -25.286,-14.79 -42.739,-34.77 -49.142,-56.259 -10.486,-35.19 10.345,-69.963 58.657,-97.915 37.08,-21.453 76.379,-25.843 111.052,-29.716 43.529,-4.863 77.91,-8.704 87.008,-44.697 11.32,-44.785 30.95,-75.86 56.768,-89.866 23.11,-12.536 44.72,-8.358 55.725,-4.655 l 14.776,9.533 c -15.524,3.487 -55.664,15.638 -73.571,50.576 -8.237,16.071 -8.404,27.353 -8.635,42.968 -0.311,20.948 -0.736,49.638 -21.242,109.248 -16.788,48.804 -32.687,77.82 -53.163,97.021 C 80.621,-13.18 50.843,-2.596 6.808,-0.184 4.556,-0.061 2.285,0 0,0 m 222.451,-352.631 c -12.227,0 -24.295,3.036 -35.365,9.042 -27.078,14.69 -47.56,46.861 -59.232,93.036 -8.248,32.634 -41.11,36.304 -82.715,40.952 -35.161,3.929 -75.014,8.38 -113.001,30.358 -50.513,29.225 -72.158,66.043 -60.945,103.671 6.767,22.709 25.025,43.714 51.41,59.147 25.692,15.028 56.482,22.766 84.478,21.233 45.293,-2.48 76.042,-13.48 99.699,-35.664 21.11,-19.795 37.401,-49.415 54.472,-99.042 20.765,-60.364 21.197,-89.515 21.512,-110.8 0.221,-14.937 0.381,-25.73 8.085,-40.761 20.787,-40.556 75.517,-49.031 76.068,-49.112 1.03,-0.151 1.859,-0.926 2.08,-1.944 0.221,-1.017 -0.212,-2.066 -1.087,-2.63 l -20.264,-13.073 c -0.171,-0.111 -0.355,-0.2 -0.547,-0.265 -8.118,-2.773 -16.419,-4.148 -24.648,-4.148" /></g><g
           transform="translate(1389.1025,2292.7139)"
           id="g182"><path
             id="path184"
             style="fill:#9a3412;fill-opacity:1;fill-rule:nonzero;stroke:none"
             d="m 0,0 c 0,-16.012 -12.979,-28.992 -28.991,-28.992 -16.012,0 -28.991,12.98 -28.991,28.992 0,16.011 12.979,28.991 28.991,28.991 C -12.979,28.991 0,16.011 0,0" /></g><g
           transform="translate(1570.668,1695.9951)"
           id="g186"><path
             id="path188"
             style="fill:#9a3412;fill-opacity:1;fill-rule:nonzero;stroke:none"
             d="m 0,0 -76.56,-103.87 c -40.12,-31.19 -78.92,-21.87 -110.75,0 -26.58,18.26 -48.29,45.28 -61.86,64.77 -0.06,0.09 -0.09,0.14 -0.09,0.14 -8.12,11.67 -13.29,20.61 -14.82,23.33 l -0.02,0.03 c -0.3,0.54 -0.46,0.82 -0.46,0.82 0,0 -0.24,0.34 -0.69,0.99 l -0.03,0.04 c -4.55,6.58 -30.1,43.82 -56.76,89.34 l 0.62,-4.45 -52.18,-175.01 c 0,0 197.19,-190.2 391.48,0 z" /></g><g
           transform="translate(1438.1113,1763.2139)"
           id="g190"><path
             id="path192"
             style="fill:#9a3412;fill-opacity:1;fill-rule:nonzero;stroke:none"
             d="m 0,0 -82.87,150.26 c -54.797,136.74 -101.986,121.055 -101.986,121.055 14.356,11.539 86,11.539 86,11.539 0,0 48.595,-73.367 80.985,-141.427 C 10.689,212.14 31.41,272.61 31.41,272.61 L 72.3,269.7 c 26.971,-1.2 36.424,-7.022 49.686,-31.71 -6.259,-25.85 -16.72,-49.986 -35.637,-109.939 3.878,-18.547 1.202,-28.047 -4.796,-40.488 C 45.436,45.474 0,0 0,0" /></g><g
           transform="translate(1358.5171,2133.0234)"
           id="g194">
           <!--ear  -->
           <path
             id="path196"
             style="fill:#323337;fill-opacity:1;fill-rule:nonzero;stroke:none"
             d="m 0,0 c -0.072,0 -0.144,0.003 -0.216,0.009 -28.913,2.478 -42.386,18.986 -45.353,33.609 -2.484,12.242 2.055,23.745 11.293,28.624 5.508,2.911 11.484,3.221 17.762,0.922 1.297,-0.476 1.963,-1.912 1.488,-3.208 -0.474,-1.297 -1.911,-1.961 -3.207,-1.488 -4.961,1.818 -9.444,1.606 -13.707,-0.647 C -39.2,53.987 -42.708,44.66 -40.668,34.612 -38.062,21.763 -25.953,7.233 0.21,4.991 1.586,4.873 2.606,3.662 2.488,2.287 2.376,0.983 1.284,0 0,0" /></g><g
           transform="translate(1458.6108,2100.6743)"
           id="g198">
           <!-- face -->
           <path
             id="path200"
             style="fill:#323337;fill-opacity:1;fill-rule:nonzero;stroke:none"
             d="m 0,0 c -12.977,0 -29.706,4.075 -51.076,15.576 -1.216,0.655 -1.671,2.171 -1.017,3.386 0.655,1.217 2.173,1.67 3.386,1.017 C -8.447,-1.687 13.829,4.101 25.428,12.772 39.271,23.121 42.774,41.188 40.171,53.596 L 24.99,125.572 c -0.285,1.351 0.579,2.678 1.93,2.963 1.354,0.283 2.677,-0.58 2.962,-1.931 L 45.064,54.625 C 47.983,40.712 44.02,20.429 28.421,8.768 22.063,4.014 12.879,0 0,0" /></g><g
           transform="translate(1339.6133,2043.5552)"
           id="g202">
           <!-- neck -->
           <path
             id="path204"
             style="fill:#323337;fill-opacity:1;fill-rule:nonzero;stroke:none"
             d="m 0,0 c -0.305,0 -0.511,0.016 -0.596,0.024 -1.374,0.131 -2.382,1.351 -2.251,2.726 0.13,1.364 1.326,2.367 2.696,2.254 0.154,-0.009 2.593,-0.12 4.881,2.022 2.851,2.668 4.358,7.796 4.358,14.828 v 71.113 c 0,1.381 1.119,2.5 2.5,2.5 1.381,0 2.5,-1.119 2.5,-2.5 V 21.854 C 14.088,13.176 12.041,6.914 8.004,3.244 4.801,0.331 1.385,0 0,0" /></g><g
           transform="translate(1467.1157,2033.2075)"
           id="g206"><path
             id="path208"
             style="fill:#323337;fill-opacity:1;fill-rule:nonzero;stroke:none"
             d="m 0,0 c -2.16,0 -4.167,0.278 -5.995,0.831 -11.717,3.538 -12.28,16.516 -12.298,17.066 l -0.001,38.538 c 0,1.381 1.119,2.5 2.5,2.5 1.38,0 2.5,-1.119 2.5,-2.5 V 17.98 C -13.28,17.666 -12.804,8.109 -4.548,5.617 -2.62,5.034 -0.362,4.862 2.167,5.109 3.537,5.232 4.764,4.237 4.897,2.863 5.031,1.489 4.026,0.266 2.651,0.132 1.745,0.044 0.86,0 0,0" /></g><g
           transform="translate(1335.4917,2209.6577)"
           id="g210"><path
             id="path212"
             style="fill:#323337;fill-opacity:1;fill-rule:nonzero;stroke:none"
             d="m 0,0 c 4.335,-5.472 5.48,-10.673 5.018,-15.212 8.468,-1.292 16.552,-6.877 21.018,-10.476 l 1.104,0.223 C 22.801,-18.879 16.284,-4.632 37.909,-0.847 66.304,4.134 56.39,46.301 56.39,46.301 71.557,43.463 119.268,-12.91 181.89,24.463 190.646,29.688 130.5,131.556 42.044,76.22 -25.681,88.913 -13.747,17.334 0,0" /></g><g
           transform="translate(1343.106,2196.4907)"
           id="g214">
           <!-- hair face -->
           <path
             id="path216"
             style="fill:#323337;fill-opacity:1;fill-rule:nonzero;stroke:none"
             d="m 0,0 c 4.92,-1.134 9.594,-3.447 13.594,-5.978 -1.162,3.539 -1.501,7.355 0.034,10.91 2.171,5.03 7.634,8.345 16.236,9.851 5.841,1.025 10.157,3.758 13.193,8.355 8.505,12.879 3.338,35.532 3.285,35.759 -0.193,0.823 0.043,1.687 0.627,2.298 0.584,0.612 1.436,0.886 2.267,0.731 4.049,-0.758 9.336,-4.321 16.655,-9.251 22.556,-15.195 60.267,-40.602 106.744,-13.112 0.74,4.319 -10.521,26.671 -32.228,43.8 -14.075,11.105 -29.226,17.647 -45.032,19.443 -19.534,2.218 -39.59,-3.009 -59.62,-15.539 -0.531,-0.332 -1.169,-0.454 -1.786,-0.337 -21.68,4.062 -36.541,-0.291 -44.172,-12.941 -11.199,-18.565 -3.312,-49.358 4.548,-59.269 0,0 0,0 0,-0.001 C -1.934,10.022 -0.038,5.081 0,0 m 18.422,-15.021 c -0.566,0 -1.121,0.192 -1.569,0.553 -3.959,3.191 -11.799,8.726 -19.826,9.951 -1.317,0.201 -2.245,1.399 -2.11,2.725 0.463,4.549 -1.048,9.06 -4.491,13.407 -8.829,11.135 -17.4,44.253 -4.91,64.956 10.773,17.861 32.069,18.346 48.414,15.448 40.229,24.777 73.374,16.675 94.151,5.455 29.838,-16.114 49.309,-46.81 49.538,-57.487 0.057,-2.671 -1.089,-3.924 -2.062,-4.504 C 159.714,26.028 144.722,22.456 130.946,22.455 101.797,22.452 78.071,38.44 63.098,48.528 58.871,51.375 55.031,53.962 52.045,55.53 53.234,47.697 54.518,31.433 47.237,20.394 43.455,14.661 37.9,11.116 30.727,9.858 23.888,8.661 19.68,6.337 18.218,2.951 c -1.978,-4.585 1.278,-10.66 3.395,-13.873 0.457,-0.694 0.54,-1.569 0.221,-2.336 -0.319,-0.767 -0.998,-1.325 -1.812,-1.49 l -1.104,-0.224 c -0.165,-0.033 -0.331,-0.049 -0.496,-0.049" /></g><g
           transform="translate(1420.2397,1902.1406)"
           id="g218"><path
             id="path220"
             style="fill:#323337;fill-opacity:1;fill-rule:nonzero;stroke:none"
             d="m 0,0 c -0.939,0 -1.802,0.527 -2.229,1.369 -31.417,61.908 -80.385,140.448 -80.876,141.234 -0.731,1.171 -0.375,2.713 0.796,3.445 1.17,0.731 2.712,0.375 3.445,-0.797 0.479,-0.768 47.141,-75.605 78.687,-136.911 29.392,67.703 46.891,125.479 47.068,126.068 0.398,1.322 1.794,2.071 3.115,1.674 1.322,-0.398 2.071,-1.793 1.673,-3.115 C 51.497,132.361 33.075,71.537 2.289,1.494 1.9,0.609 1.036,0.028 0.07,0.001 0.046,0 0.023,0 0,0" /></g><g
           transform="translate(1396.1724,2129.397)"
           id="g222"><path
             id="path224"
             style="fill:#323337;fill-opacity:1;fill-rule:nonzero;stroke:none"
             d="m 0,0 c 0,0 18.742,-40.869 55.149,-39.731 v 14.222 c 0,0 -31.795,2.665 -55.149,25.509" /></g><g
           transform="translate(1405.9907,2118.144)"
           id="g226"><path
             id="path228"
             style="fill:#323337;fill-opacity:1;fill-rule:nonzero;stroke:none"
             d="m 0,0 c 8.068,-11.013 22.51,-25.507 42.831,-25.989 v 9.508 C 36.399,-15.601 17.724,-12.124 0,0 m 43.878,-31.001 c -15.078,0 -29.437,6.986 -41.617,20.272 -9.394,10.248 -14.154,20.508 -14.352,20.94 -0.502,1.095 -0.152,2.393 0.834,3.086 0.986,0.694 2.325,0.585 3.187,-0.257 22.451,-21.961 53.3,-24.779 53.61,-24.805 1.294,-0.109 2.291,-1.192 2.291,-2.491 v -14.222 c 0,-1.35 -1.073,-2.457 -2.422,-2.499 -0.511,-0.016 -1.021,-0.024 -1.531,-0.024" /></g><g
           transform="translate(1355.2432,2158.8984)"
           id="g230"><path
             id="path232"
             style="fill:#323337;fill-opacity:1;fill-rule:nonzero;stroke:none"
             d="m 0,0 c -0.734,0 -1.462,0.322 -1.956,0.94 -0.026,0.034 -2.745,3.396 -6.93,5.925 -5.273,3.184 -10.379,3.625 -15.177,1.311 -1.245,-0.598 -2.738,-0.077 -3.338,1.166 -0.599,1.244 -0.078,2.738 1.166,3.338 12.2,5.883 23.774,-3.07 28.191,-8.624 C 2.814,2.975 2.635,1.402 1.554,0.543 1.094,0.177 0.545,0 0,0" /></g><g
           transform="translate(1445.499,2147.2979)"
           id="g234"><path
             id="path236"
             style="fill:#323337;fill-opacity:1;fill-rule:nonzero;stroke:none"
             d="M 0,0 C 0,0 3.95,-12.855 19.46,-11.666 19.46,-11.666 -6.095,-42.805 0,0" /></g><g
           transform="translate(1463.7563,2144.0894)"
           id="g238"><path
             id="path240"
             style="fill:#323337;fill-opacity:1;fill-rule:nonzero;stroke:none"
             d="m 0,0 c -2.624,0 -4.672,0.663 -4.817,0.711 -1.31,0.435 -2.02,1.85 -1.585,3.16 0.436,1.31 1.852,2.019 3.16,1.585 0.032,-0.01 4.06,-1.28 6.842,0.403 1.455,0.88 2.361,2.459 2.771,4.828 1.428,8.258 -8.357,11.999 -8.774,12.154 -0.81,0.301 -1.414,1.002 -1.585,1.849 l -3.01,14.869 c -0.274,1.353 0.601,2.672 1.954,2.946 1.359,0.274 2.673,-0.602 2.946,-1.954 L 0.648,26.985 C 5.637,24.693 12.865,18.899 11.298,9.835 10.633,5.99 8.902,3.206 6.151,1.558 4.139,0.354 1.916,0 0,0" /></g><g
           transform="translate(1431.6445,2175.1543)"
           id="g242">
           <!--eye  -->
           <path
             id="path244"
             style="fill:#323337;fill-opacity:1;fill-rule:nonzero;stroke:none"
             d="M 0,0 C 1.07,-5.286 3.991,-9.156 6.523,-8.643 9.056,-8.13 10.242,-3.43 9.172,1.856 8.102,7.143 5.181,11.012 2.648,10.5 0.116,9.987 -1.07,5.286 0,0" /></g><g
           transform="translate(1475.0278,2183.2158)"
           id="g246">
           <path
             id="path248"
             style="fill:#323337;fill-opacity:1;fill-rule:nonzero;stroke:none"
             d="m 0,0 c 1.07,-5.286 3.991,-9.156 6.523,-8.644 2.533,0.513 3.719,5.214 2.649,10.5 C 8.102,7.143 5.181,11.012 2.648,10.5 0.116,9.987 -1.07,5.286 0,0" /></g><g
           transform="translate(1420.2407,2189.1343)"
           id="g250"><path
             id="path252"
             style="fill:#323337;fill-opacity:1;fill-rule:nonzero;stroke:none"
             d="M 0,0 C -0.256,0 -0.517,0.04 -0.773,0.123 -2.086,0.55 -2.805,1.96 -2.378,3.273 0.259,11.388 8.387,12.566 12.321,12.051 13.69,11.873 14.655,10.619 14.477,9.25 14.299,7.884 13.058,6.924 11.685,7.092 11.361,7.132 4.377,7.882 2.377,1.728 2.034,0.671 1.054,0 0,0" /></g><g
           transform="translate(1482.9473,2197.1025)"
           id="g254"><path
             id="path256"
             style="fill:#323337;fill-opacity:1;fill-rule:nonzero;stroke:none"
             d="m 0,0 c -0.359,0 -0.725,0.078 -1.071,0.243 -6.08,2.891 -11.346,2.46 -11.398,2.451 -1.379,-0.123 -2.589,0.887 -2.718,2.256 -0.128,1.371 0.871,2.588 2.241,2.722 0.265,0.024 6.629,0.6 14.021,-2.914 C 2.322,4.166 2.853,2.674 2.26,1.427 1.832,0.527 0.935,0 0,0" /></g><g
           transform="translate(1461.8452,2033.2065)"
           id="g258">
           <!-- hand -->
           <path
             id="path260"
             style="fill:#323337;fill-opacity:1;fill-rule:nonzero;stroke:none"
             d="m 0,0 h -17.286 c -1.381,0 -2.5,1.119 -2.5,2.5 0,1.381 1.119,2.5 2.5,2.5 H 0 C 1.381,5 2.5,3.881 2.5,2.5 2.5,1.119 1.381,0 0,0" /></g><g
           transform="translate(1633.1816,1986.8862)"
           id="g262"><path
             id="path264"
             style="fill:#323337;fill-opacity:1;fill-rule:nonzero;stroke:none"
             d="m 0,0 c -0.425,0 -0.854,0.108 -1.249,0.336 -1.195,0.691 -1.605,2.22 -0.914,3.415 5.902,10.213 10.677,18.257 14.89,25.353 11.13,18.753 17.859,30.088 29.112,54.227 4.658,13.783 14.231,23.669 25.011,25.811 6.01,1.195 11.727,-0.128 16.505,-3.74 2.526,11.598 11.022,17.369 18.795,18.901 10.047,1.981 19.857,-2.399 23.849,-10.651 0.601,-1.243 0.08,-2.738 -1.162,-3.339 -1.24,-0.603 -2.738,-0.082 -3.34,1.162 -3.001,6.207 -10.561,9.465 -18.38,7.922 -9.043,-1.782 -14.817,-8.986 -15.448,-19.27 -0.062,-1.013 -0.731,-1.888 -1.691,-2.214 -0.96,-0.328 -2.025,-0.04 -2.691,0.727 -4.144,4.768 -9.634,6.756 -15.463,5.598 C 58.765,102.437 50.606,93.765 46.534,81.607 46.505,81.518 46.47,81.43 46.43,81.345 35.035,56.892 28.257,45.472 17.025,26.552 12.82,19.468 8.054,11.438 2.167,1.25 1.703,0.448 0.863,0 0,0" /></g><g
           transform="translate(1732.8057,2038.144)"
           id="g266"><path
             id="path268"
             style="fill:#323337;fill-opacity:1;fill-rule:nonzero;stroke:none"
             d="m 0,0 c -0.316,0 -0.638,0.06 -0.948,0.187 -1.278,0.525 -1.888,1.985 -1.364,3.262 l 24.057,58.634 c 2.819,11.277 11.078,19.313 21.593,20.996 11.407,1.823 22.924,-4.193 30.084,-15.699 0.73,-1.172 0.371,-2.714 -0.801,-3.443 -1.173,-0.729 -2.714,-0.372 -3.443,0.801 C 63.007,74.654 53.647,79.662 44.128,78.142 35.45,76.753 28.881,70.237 26.557,60.712 26.527,60.59 26.488,60.472 26.44,60.356 L 2.313,1.552 C 1.917,0.585 0.984,0 0,0" /></g><g
           transform="translate(1837.6377,1986.2241)"
           id="g270"><path
             id="path272"
             style="fill:#323337;fill-opacity:1;fill-rule:nonzero;stroke:none"
             d="m 0,0 c -2.445,0 -4.854,0.418 -7.219,1.257 -11.865,4.21 -18.149,17.535 -18.411,18.1 -0.58,1.253 -0.035,2.739 1.218,3.319 1.253,0.578 2.739,0.034 3.319,-1.218 0.055,-0.117 5.694,-12.007 15.568,-15.496 4.538,-1.603 9.368,-1.175 14.362,1.27 4.665,2.284 7.34,5.301 8.177,9.222 C 19.057,26.023 9.53,37.591 9.435,37.707 9.34,37.82 9.256,37.94 9.184,38.068 l -38.275,67.029 c -0.684,1.199 -0.267,2.726 0.932,3.41 1.196,0.685 2.725,0.269 3.41,-0.931 L 13.422,40.729 C 14.793,39.031 24.318,26.722 21.903,15.41 20.741,9.965 17.085,5.703 11.036,2.742 7.305,0.915 3.614,0 0,0" /></g><g
           transform="translate(1439.1143,1570.9111)"
           id="g274"><path
             id="path276"
             style="fill:#323337;fill-opacity:1;fill-rule:nonzero;stroke:none"
             d="m 0,0 c -16.407,0 -36.119,4.514 -57.041,19.062 -30.858,15.628 -59.523,60.521 -62.695,65.597 -0.068,0.099 -0.121,0.191 -0.121,0.191 l -15.912,25.044 c -0.025,0.036 -0.05,0.073 -0.067,0.099 l -56.761,89.34 c -42.125,71.922 -55.073,104.505 -62.326,133.79 -9.364,37.83 -3.536,70.152 17.322,96.069 16.694,20.745 39.013,31.933 50.83,36.756 3.358,1.372 5.824,2.209 6.877,2.567 0.211,0.071 0.363,0.122 0.451,0.154 1.225,0.513 2.646,-0.02 3.223,-1.228 0.595,-1.246 0.067,-2.738 -1.178,-3.333 -0.082,-0.039 -0.382,-0.156 -0.888,-0.328 -1.01,-0.343 -3.376,-1.146 -6.595,-2.461 -11.371,-4.641 -32.835,-15.393 -48.825,-35.261 -19.827,-24.637 -25.333,-55.5 -16.363,-91.734 7.145,-28.851 19.965,-61.062 61.74,-132.387 l 56.675,-89.203 c 0.026,-0.036 0.051,-0.073 0.068,-0.099 l 15.99,-25.171 c 0.014,-0.021 0.086,-0.133 0.1,-0.155 1.237,-1.98 30.649,-48.662 60.863,-63.862 0.107,-0.053 0.209,-0.114 0.307,-0.182 C -29.86,6.202 -4.29,1.001 21.676,7.807 39.627,12.513 51.451,21.581 53.17,22.953 l 76.371,103.614 145.339,203.869 c 7.262,12.904 18.023,21.872 28.431,30.544 18.303,15.253 35.592,29.659 35.592,64.324 v 61 c 0,1.381 1.119,2.5 2.5,2.5 1.381,0 2.5,-1.119 2.5,-2.5 v -61 c 0,-37.007 -19.008,-52.846 -37.391,-68.164 -10.556,-8.796 -20.526,-17.104 -27.336,-29.267 -0.045,-0.08 -0.094,-0.157 -0.146,-0.23 L 133.59,123.633 57.006,19.73 C 56.889,19.571 56.753,19.427 56.602,19.3 56.071,18.854 43.376,8.327 22.944,2.971 16.427,1.262 8.675,0 0,0" /></g><g
           transform="translate(1438.1108,1760.7139)"
           id="g278"><path
             id="path280"
             style="fill:#323337;fill-opacity:1;fill-rule:nonzero;stroke:none"
             d="m 0,0 c -0.61,0 -1.222,0.222 -1.704,0.67 -1.01,0.942 -1.066,2.523 -0.125,3.534 l 175.101,188.004 c 0.94,1.009 2.522,1.066 3.533,0.125 1.01,-0.941 1.067,-2.522 0.125,-3.533 L 1.83,0.796 C 1.337,0.268 0.669,0 0,0" /></g><g
           transform="translate(1416.1104,1735.7139)"
           id="g282"><path
             id="path284"
             style="fill:#323337;fill-opacity:1;fill-rule:nonzero;stroke:none"
             d="m 0,0 c -0.586,0 -1.176,0.205 -1.65,0.623 -1.037,0.912 -1.138,2.492 -0.226,3.528 l 22,25 c 0.912,1.037 2.493,1.139 3.528,0.226 1.037,-0.912 1.138,-2.492 0.226,-3.528 l -22,-25 C 1.384,0.287 0.693,0 0,0" /></g><g
           transform="translate(1101.5947,1210.6123)"
           id="g286"><path
             id="path288"
             style="fill:#323337;fill-opacity:1;fill-rule:nonzero;stroke:none"
             d="m 0,0 c -0.255,0 -0.515,0.04 -0.771,0.122 -1.313,0.426 -2.033,1.835 -1.608,3.149 l 28.72,88.735 c 0.425,1.313 1.832,2.032 3.148,1.609 1.314,-0.426 2.034,-1.835 1.609,-3.148 L 2.378,1.731 C 2.036,0.674 1.055,0 0,0" /></g><g
           transform="translate(1518.2246,579.8252)"
           id="g290">
           <!-- pant -->
           <path
             id="path292"
             style="fill:#323337;fill-opacity:1;fill-rule:nonzero;stroke:none"
             d="m 0,0 c -1.136,0 -2.16,0.777 -2.431,1.926 l -150.831,638.717 c -0.317,1.343 0.515,2.689 1.859,3.006 1.346,0.321 2.69,-0.513 3.007,-1.858 L 1.875,5.445 252.973,57.933 39.437,986.543 c -0.31,1.345 0.53,2.687 1.876,2.997 1.349,0.304 2.687,-0.532 2.997,-1.877 L 258.417,56.567 c 0.15,-0.655 0.031,-1.342 -0.331,-1.908 -0.362,-0.565 -0.937,-0.962 -1.594,-1.099 L 0.514,0.053 C 0.341,0.017 0.169,0 0,0" /></g><g
           transform="translate(1719.0342,1908.1401)"
           id="g294"><path
             id="path296"
             style="fill:#323337;fill-opacity:1;fill-rule:nonzero;stroke:none"
             d="m 0,0 c -3.234,0 -6.462,0.937 -9.014,1.677 -1.526,0.443 -3.104,0.901 -3.88,0.901 -1.38,0 -2.5,1.119 -2.5,2.5 0,1.38 1.12,2.5 2.5,2.5 1.487,0 3.242,-0.51 5.273,-1.099 C -3.393,5.252 1.866,3.726 4.919,6.831 5.888,7.814 7.469,7.827 8.454,6.86 9.438,5.892 9.452,4.31 8.483,3.325 6.008,0.807 3.001,0 0,0" /></g><g
           transform="translate(1700.8047,2046.7705)"
           id="g298"><path
             id="path300"
             style="fill:#323337;fill-opacity:1;fill-rule:nonzero;stroke:none"
             d="m 0,0 c -0.352,0 -0.708,0.074 -1.049,0.232 -1.253,0.58 -1.798,2.066 -1.218,3.319 l 17.549,37.895 c 0.58,1.252 2.064,1.799 3.32,1.218 1.252,-0.58 1.797,-2.066 1.217,-3.319 L 2.271,1.45 C 1.848,0.537 0.944,0 0,0" /></g><g
           transform="translate(1779.1406,2053.7178)"
           id="g302"><path
             id="path304"
             style="fill:#323337;fill-opacity:1;fill-rule:nonzero;stroke:none"
             d="M 0,0 V -17.333 -49 -66.333 l 173.287,-22.5 V -49 -17.333 22.5 Z" /></g><g
           transform="translate(1781.6406,1989.5806)"
           id="g306"><path
             id="path308"
             style="fill:#323337;fill-opacity:1;fill-rule:nonzero;stroke:none"
             d="M 0,0 168.287,-21.851 V 83.792 L 0,61.941 Z m 170.787,-27.196 c -0.107,0 -0.215,0.007 -0.322,0.021 L -2.822,-4.675 C -4.067,-4.514 -5,-3.453 -5,-2.196 v 66.333 c 0,1.257 0.933,2.318 2.178,2.479 l 173.287,22.5 c 0.712,0.092 1.432,-0.125 1.972,-0.601 0.541,-0.474 0.85,-1.159 0.85,-1.878 V -24.696 c 0,-0.72 -0.309,-1.404 -0.85,-1.878 -0.458,-0.404 -1.046,-0.622 -1.65,-0.622" /></g><g
           transform="translate(1598.0898,1932.4785)"
           id="g310">
           <!-- left hand -->
           <path
             id="path312"
             style="fill:#323337;fill-opacity:1;fill-rule:nonzero;stroke:none"
             d="m 0,0 c -0.866,0 -1.708,0.451 -2.171,1.256 l -37.99,66.225 c -0.687,1.198 -0.273,2.726 0.925,3.413 1.198,0.687 2.724,0.273 3.413,-0.924 L 2.167,3.745 C 2.854,2.547 2.439,1.019 1.242,0.332 0.85,0.107 0.422,0 0,0" /></g><g
           transform="translate(1200.3945,1413.1299)"
           id="g314">
           <!-- pocket -->
           <path
             id="path316"
             style="fill:#323337;fill-opacity:1;fill-rule:nonzero;stroke:none"
             d="m 0,0 10.638,-19.347 127.963,83.369 -7.975,18.077 z m 9.746,-25.412 c -0.204,0 -0.407,0.024 -0.607,0.075 -0.675,0.169 -1.249,0.61 -1.584,1.221 L -5.517,-0.343 c -0.638,1.16 -0.261,2.616 0.86,3.321 l 135.072,84.894 c 0.615,0.386 1.368,0.486 2.063,0.274 0.694,-0.213 1.262,-0.717 1.555,-1.382 l 10,-22.667 c 0.494,-1.12 0.104,-2.435 -0.923,-3.104 l -132,-86 c -0.409,-0.266 -0.884,-0.405 -1.364,-0.405" /></g><g
           transform="translate(1140.6797,1109.2607)"
           id="g318"><path
             id="path320"
             style="fill:#323337;fill-opacity:1;fill-rule:nonzero;stroke:none"
             d="M 0,0 C -20.233,0 -46.012,8.029 -69.781,39.229 L -310.94,347.843 c -0.85,1.088 -0.658,2.659 0.431,3.509 1.086,0.85 2.659,0.658 3.509,-0.431 L -65.823,42.282 C -33.262,-0.455 2.957,2.61 21.65,8.235 c 20.562,6.191 44.23,24.505 45.316,40.887 0.009,0.142 0.031,0.281 0.063,0.418 l 66,275 c 0.323,1.343 1.669,2.176 3.015,1.848 1.343,-0.323 2.169,-1.672 1.848,-3.014 L 71.939,48.573 C 71.335,40.777 65.986,31.529 57.23,23.158 47.944,14.28 35.821,7.28 23.092,3.448 16.944,1.598 9.023,0.001 0,0" /></g><g
           transform="translate(1955.7002,2020.5508)"
           id="g322"><path
             id="path324"
             style="fill:#6b7280;fill-opacity:1;fill-rule:nonzero;stroke:none"
             d="m 0,0 c 0,21.21 -4.079,40.281 -10.572,53.479 v 18.656 h -21.565 c -17.748,0 -32.135,-32.296 -32.135,-72.135 0,-39.839 14.387,-72.135 32.135,-72.135 h 21.565 v 18.656 C -4.079,-40.28 0,-21.21 0,0" /></g><g
           transform="translate(1923.5635,2090.186)"
           id="g326"><path
             id="path328"
             style="fill:#6b7280;fill-opacity:1;fill-rule:nonzero;stroke:none"
             d="m 0,0 c -16.064,0 -29.636,-31.889 -29.636,-69.635 0,-37.746 13.572,-69.635 29.636,-69.635 h 19.064 v 16.156 c 0,0.383 0.088,0.76 0.257,1.103 6.556,13.326 10.316,32.416 10.316,52.376 0,19.96 -3.76,39.05 -10.316,52.376 -0.169,0.343 -0.257,0.72 -0.257,1.103 L 19.064,0 Z M 21.564,-144.27 H 0 c -19.422,0 -34.636,32.784 -34.636,74.635 C -34.636,-27.784 -19.422,5 0,5 h 21.564 c 1.381,0 2.5,-1.119 2.5,-2.5 v -18.08 c 6.724,-13.959 10.573,-33.615 10.573,-54.055 0,-20.44 -3.849,-40.096 -10.573,-54.055 v -18.08 c 0,-1.381 -1.119,-2.5 -2.5,-2.5" /></g><g
           transform="translate(1912.9922,2020.5508)"
           id="g330"><path
             id="path332"
             style="fill:#323337;fill-opacity:1;fill-rule:nonzero;stroke:none"
             d="m 0,0 c 0,-39.839 14.388,-72.135 32.136,-72.135 17.749,0 32.136,32.296 32.136,72.135 0,39.839 -14.387,72.135 -32.136,72.135 C 14.388,72.135 0,39.839 0,0" /></g><g
           transform="translate(1945.1279,2090.186)"
           id="g334"><path
             id="path336"
             style="fill:#323337;fill-opacity:1;fill-rule:nonzero;stroke:none"
             d="m 0,0 c -16.064,0 -29.636,-31.889 -29.636,-69.635 0,-37.746 13.572,-69.635 29.636,-69.635 16.064,0 29.637,31.889 29.637,69.635 C 29.637,-31.889 16.064,0 0,0 m 0,-144.27 c -19.422,0 -34.636,32.784 -34.636,74.635 C -34.636,-27.784 -19.422,5 0,5 19.423,5 34.637,-27.784 34.637,-69.635 34.637,-111.486 19.423,-144.27 0,-144.27" /></g><g
           transform="translate(1927.8857,2019.0366)"
           id="g338"><path
             id="path340"
             style="fill:#6b7280;fill-opacity:1;fill-rule:nonzero;stroke:none"
             d="m 0,0 c 0,-28.699 7.72,-51.965 17.242,-51.965 9.524,0 17.243,23.266 17.243,51.965 0,28.7 -7.719,51.965 -17.243,51.965 C 7.72,51.965 0,28.7 0,0" /></g><g
           transform="translate(1945.1279,2068.502)"
           id="g342"><path
             id="path344"
             style="fill:#323337;fill-opacity:1;fill-rule:nonzero;stroke:none"
             d="m 0,0 c -3.292,0 -7.055,-5.176 -9.819,-13.508 -3.175,-9.567 -4.923,-22.337 -4.923,-35.957 0,-13.62 1.748,-26.39 4.923,-35.958 2.764,-8.331 6.527,-13.507 9.819,-13.507 3.293,0 7.056,5.176 9.82,13.507 3.175,9.568 4.923,22.338 4.923,35.958 0,13.62 -1.748,26.39 -4.923,35.957 C 7.056,-5.176 3.293,0 0,0 m 0,-103.93 c -12.823,0 -19.742,28.061 -19.742,54.465 C -19.742,-23.062 -12.823,5 0,5 12.823,5 19.743,-23.062 19.743,-49.465 19.743,-75.869 12.823,-103.93 0,-103.93" /></g><g
           transform="translate(1985.998,2071.3145)"
           id="g346">
           <!-- left fingers -->
           <path
             id="path348"
             style="fill:#323337;fill-opacity:1;fill-rule:nonzero;stroke:none"
             d="m 0,0 c -1.081,0 -2.077,0.706 -2.397,1.795 l -11.88,40.428 c -2.134,7.259 -7.173,13.07 -13.824,15.943 -17.119,7.39 -28.51,-8.966 -28.987,-9.666 -0.43,-0.631 -1.126,-1.033 -1.887,-1.088 -0.768,-0.053 -1.507,0.238 -2.024,0.8 -6.312,6.873 -12.891,10.22 -19.536,9.936 -10.777,-0.453 -18.426,-10.177 -18.502,-10.275 -0.451,-0.583 -1.137,-0.937 -1.873,-0.968 -0.754,-0.03 -1.449,0.266 -1.947,0.81 -6.098,6.66 -13.151,8.858 -20.958,6.543 -7.195,-2.134 -13.154,-7.809 -15.94,-15.18 l -9.829,-25.996 c -0.489,-1.291 -1.934,-1.942 -3.223,-1.454 -1.292,0.488 -1.943,1.931 -1.455,3.223 l 9.829,25.995 c 3.336,8.824 10.512,15.63 19.196,18.206 6.274,1.858 15.366,2.197 24.127,-5.996 3.289,3.394 10.648,9.679 20.365,10.088 7.432,0.302 14.63,-2.867 21.395,-9.454 1.599,1.845 4.18,4.451 7.61,6.705 8.065,5.301 16.924,6.117 25.622,2.36 8.019,-3.463 14.083,-10.433 16.638,-19.122 L 2.399,3.206 C 2.789,1.881 2.03,0.491 0.706,0.102 0.471,0.033 0.233,0 0,0" /></g><g
           transform="translate(1868.7539,2062.8525)"
           id="g350"><path
             id="path352"
             style="fill:#323337;fill-opacity:1;fill-rule:nonzero;stroke:none"
             d="M 0,0 C -0.232,0 -0.47,0.033 -0.704,0.102 -2.029,0.49 -2.788,1.879 -2.4,3.204 l 16.231,55.364 c 0.389,1.326 1.778,2.086 3.103,1.696 1.325,-0.388 2.084,-1.777 1.696,-3.102 L 2.398,1.797 C 2.078,0.707 1.081,0 0,0" /></g><g
           transform="translate(1923.5664,2090.186)"
           id="g354"><path
             id="path356"
             style="fill:#323337;fill-opacity:1;fill-rule:nonzero;stroke:none"
             d="M 0,0 C -0.095,0 -0.191,0.005 -0.288,0.016 -1.66,0.174 -2.645,1.414 -2.486,2.785 l 3.277,28.532 c 0.157,1.371 1.389,2.352 2.769,2.199 1.372,-0.158 2.356,-1.398 2.198,-2.769 L 2.48,2.215 C 2.334,0.94 1.253,0 0,0" /></g><g
           transform="translate(1690.5137,1553.1753)"
           id="g358">
           <!-- left hand -->
           <path
             id="path360"
             style="fill:#323337;fill-opacity:1;fill-rule:nonzero;stroke:none"
             d="m 0,0 c -21.238,0 -42.689,8.827 -63.961,26.356 -0.248,0.205 -0.454,0.455 -0.607,0.737 l -55.296,101.879 c -0.658,1.213 -0.209,2.731 1.005,3.389 1.211,0.659 2.73,0.21 3.389,-1.005 L -60.407,29.907 C -35.513,9.518 -10.534,1.589 13.85,6.347 c 47.359,9.239 77.279,63.6 77.575,64.148 l 178.279,302.336 c 0.103,0.174 0.227,0.335 0.368,0.48 13.647,13.922 22.943,42.293 23.034,42.579 0.425,1.313 1.832,2.033 3.149,1.608 1.313,-0.425 2.034,-1.834 1.609,-3.148 -0.389,-1.203 -9.652,-29.488 -24.006,-44.318 L 95.777,68.035 C 95.51,67.536 87.979,53.725 74.256,38.524 61.52,24.417 40.87,6.532 14.83,1.444 9.902,0.481 4.957,0 0,0" /></g><g
           transform="translate(1838.0967,1941.2178)"
           id="g362">
           <path
             id="path364"
             style="fill:#323337;fill-opacity:1;fill-rule:nonzero;stroke:none"
             d="m 0,0 h 0.01 z m -179.242,-230.388 c -0.44,0 -0.885,0.116 -1.288,0.359 -1.183,0.713 -1.564,2.249 -0.852,3.432 16.364,27.153 47.153,66.347 47.461,66.74 L -2.42,0.99 c 0.858,10.336 -0.069,37.263 -0.078,37.54 -0.049,1.38 1.031,2.538 2.411,2.586 1.34,0.055 2.537,-1.03 2.585,-2.411 C 2.539,37.53 3.493,9.803 2.487,-0.249 2.438,-0.738 2.247,-1.202 1.936,-1.583 l -131.957,-161.403 c -0.278,-0.354 -30.875,-39.307 -47.078,-66.192 -0.469,-0.779 -1.297,-1.21 -2.143,-1.21" /></g><g
           transform="translate(1706.1426,1777.314)"
           id="g366"><path
             id="path368"
             style="fill:#323337;fill-opacity:1;fill-rule:nonzero;stroke:none"
             d="m 0,0 c -0.809,0 -1.603,0.393 -2.084,1.117 l -36.528,54.97 c -0.765,1.15 -0.451,2.702 0.698,3.466 1.149,0.763 2.701,0.451 3.466,-0.698 L 2.08,3.884 C 2.845,2.734 2.531,1.183 1.382,0.418 0.956,0.136 0.476,0 0,0" /></g><g
           transform="translate(1933.5986,1914.3496)"
           id="g370"><path
             id="path372"
             style="fill:#323337;fill-opacity:1;fill-rule:nonzero;stroke:none"
             d="m 0,0 c -0.938,0 -1.504,0.033 -1.617,0.04 -1.378,0.087 -2.424,1.275 -2.336,2.653 0.088,1.377 1.252,2.424 2.652,2.337 0.229,-0.011 14.642,-0.756 28.814,7.515 1.188,0.695 2.722,0.294 3.419,-0.899 0.696,-1.192 0.293,-2.723 -0.9,-3.419 C 17.175,0.723 4.429,0 0,0" /></g><g
           transform="translate(1634.0723,2046.771)"
           id="g374"><path
             id="path376"
             style="fill:#323337;fill-opacity:1;fill-rule:nonzero;stroke:none"
             d="m 0,0 c -10.124,0 -18.36,-8.236 -18.36,-18.36 0,-10.124 8.236,-18.36 18.36,-18.36 H 8.285 L 29.214,0 Z M 9.738,-41.72 H 0 c -12.881,0 -23.36,10.479 -23.36,23.36 C -23.36,-5.479 -12.881,5 0,5 h 33.517 c 0.89,0 1.713,-0.474 2.161,-1.244 0.448,-0.77 0.452,-1.72 0.01,-2.494 L 11.91,-40.458 c -0.444,-0.78 -1.273,-1.262 -2.172,-1.262" /></g><g
           transform="translate(1851.4727,1926.3843)"
           id="g378"><path
             id="path380"
             style="fill:#323337;fill-opacity:1;fill-rule:nonzero;stroke:none"
             d="M 0,0 C -0.605,0 -1.213,0.219 -1.693,0.662 L -15.07,12.996 c -1.016,0.936 -1.079,2.517 -0.144,3.532 0.937,1.014 2.518,1.08 3.532,0.143 L 1.695,4.338 C 2.711,3.402 2.774,1.82 1.839,0.805 1.346,0.271 0.674,0 0,0" /></g><g
           transform="translate(1658.8555,609.2197)"
           id="g382">
           <!-- left pant line-->
           <path
             id="path384"
             style="fill:#323337;fill-opacity:1;fill-rule:nonzero;stroke:none"
             d="m 0,0 c -1.099,0 -2.105,0.729 -2.41,1.84 l -220.745,804.604 c -0.366,1.331 0.418,2.707 1.749,3.073 1.337,0.364 2.708,-0.419 3.073,-1.75 L 2.412,3.162 C 2.777,1.831 1.994,0.455 0.662,0.09 0.441,0.029 0.219,0 0,0" /></g><g
           transform="translate(1216.8052,1489.7178)"
           id="g386"><path
             id="path388"
             style="fill:#323337;fill-opacity:1;fill-rule:nonzero;stroke:none"
             d="m 0,0 c -0.539,0 -1.082,0.174 -1.539,0.531 l -19.638,15.375 c -1.087,0.851 -1.279,2.422 -0.427,3.509 0.851,1.087 2.422,1.279 3.509,0.427 L 1.543,4.469 C 2.63,3.617 2.822,2.046 1.97,0.959 1.478,0.329 0.743,0 0,0" /></g><g
           transform="translate(1451.3242,2210.7173)"
           id="g390"><path
             id="path392"
             style="fill:#323337;fill-opacity:1;fill-rule:nonzero;stroke:none"
             d="m 0,0 c -0.155,0 -0.312,0.015 -0.469,0.044 -39.77,7.548 -62.909,44.084 -63.875,45.636 -0.729,1.172 -0.371,2.712 0.801,3.442 1.172,0.729 2.713,0.371 3.443,-0.799 C -59.875,47.961 -37.113,12.088 0.463,4.957 1.82,4.699 2.71,3.391 2.453,2.034 2.226,0.835 1.177,0 0,0" /></g><g
           transform="translate(1524.4619,1888.7642)"
           id="g394"><path
             id="path396"
             style="fill:#323337;fill-opacity:1;fill-rule:nonzero;stroke:none"
             d="m 0,0 c -0.871,0 -1.718,0.456 -2.178,1.269 -5.247,9.266 -17.062,12.145 -17.181,12.173 -1.342,0.317 -2.177,1.661 -1.863,3.003 0.315,1.344 1.656,2.18 2.997,1.867 C -17.654,18.179 -4.173,14.939 2.174,3.732 2.854,2.531 2.432,1.005 1.229,0.325 0.841,0.104 0.418,0 0,0" /></g><g
           transform="translate(1404.3901,1977.335)"
           id="g398"><path
             id="path400"
             style="fill:#323337;fill-opacity:1;fill-rule:nonzero;stroke:none"
             d="m 0,0 c -1.009,0 -1.959,0.615 -2.338,1.615 -7.98,21.061 -17.642,19.818 -17.738,19.8 -1.355,-0.265 -2.667,0.623 -2.93,1.979 -0.263,1.355 0.623,2.667 1.979,2.929 C -20.47,26.434 -7.248,28.685 2.337,3.386 2.827,2.095 2.176,0.652 0.885,0.163 0.594,0.052 0.294,0 0,0" /></g><g
           transform="translate(1429.3413,1977.3354)"
           id="g402"><path
             id="path404"
             style="fill:#323337;fill-opacity:1;fill-rule:nonzero;stroke:none"
             d="m 0,0 c -0.089,0 -0.179,0.004 -0.27,0.014 -1.373,0.148 -2.366,1.38 -2.219,2.753 2.155,20.055 12.837,23.372 13.291,23.503 1.331,0.384 2.713,-0.38 3.096,-1.706 0.381,-1.314 -0.366,-2.688 -1.67,-3.086 C 11.825,21.343 4.239,18.583 2.483,2.233 2.345,0.951 1.261,0 0,0" /></g><g
           transform="translate(1240.625,1738.2139)"
           id="g406"><path
             id="path408"
             style="fill:#323337;fill-opacity:1;fill-rule:nonzero;stroke:none"
             d="M 0,0 C 0,0 57.546,-46.279 98.63,-104.637 L 9.056,32.01 Z" /></g><g
           transform="translate(1584.9961,1456.1426)"
           id="g410">
           <!-- left pocket -->
           <path
             id="path412"
             style="fill:#323337;fill-opacity:1;fill-rule:nonzero;stroke:none"
             d="m 0,0 c -0.515,0 -1.034,0.158 -1.48,0.486 l -54.661,40.243 c -0.907,0.668 -1.255,1.861 -0.849,2.913 l 9,23.333 c 0.275,0.716 0.866,1.266 1.599,1.491 0.736,0.224 1.532,0.099 2.162,-0.339 l 33.508,-23.333 c 1.133,-0.789 1.412,-2.348 0.623,-3.481 -0.79,-1.132 -2.346,-1.412 -3.48,-0.623 L -44.473,62.203 -51.639,43.624 1.484,4.514 C 2.596,3.694 2.834,2.13 2.016,1.018 1.525,0.353 0.768,0 0,0" /></g><g
           transform="translate(1778.4551,2467.1196)"
           id="g414"><path
             id="path416"
             style="fill:#9a3412;fill-opacity:1;fill-rule:nonzero;stroke:none"
             d="m 0,0 c 0,-11.888 -9.638,-21.525 -21.525,-21.525 -11.889,0 -21.527,9.637 -21.527,21.525 0,11.888 9.638,21.525 21.527,21.525 C -9.638,21.525 0,11.888 0,0" /></g><g
           transform="translate(2335.7061,1834.7852)"
           id="g418"><path
             id="path420"
             style="fill:#9a3412;fill-opacity:1;fill-rule:nonzero;stroke:none"
             d="m 0,0 c 0,-11.888 -9.638,-21.525 -21.525,-21.525 -11.889,0 -21.526,9.637 -21.526,21.525 0,11.888 9.637,21.526 21.526,21.526 C -9.638,21.526 0,11.888 0,0" /></g><g
           transform="translate(2390.5381,2192.709)"
           id="g422"><path
             id="path424"
             style="fill:#323337;fill-opacity:1;fill-rule:nonzero;stroke:none"
             d="m 0,0 c -21.037,0 -38.151,-17.115 -38.151,-38.152 0,-21.037 17.114,-38.152 38.151,-38.152 21.037,0 38.152,17.115 38.152,38.152 C 38.152,-17.115 21.037,0 0,0 m 0,-81.304 c -23.794,0 -43.151,19.358 -43.151,43.152 C -43.151,-14.358 -23.794,5 0,5 23.794,5 43.152,-14.358 43.152,-38.152 43.152,-61.946 23.794,-81.304 0,-81.304" /></g><g
           transform="translate(2061.8535,1616.0078)"
           id="g426"><path
             id="path428"
             style="fill:#323337;fill-opacity:1;fill-rule:nonzero;stroke:none"
             d="m 0,0 c -5.949,0 -10.79,-4.84 -10.79,-10.79 0,-5.95 4.841,-10.79 10.79,-10.79 5.949,0 10.79,4.84 10.79,10.79 C 10.79,-4.84 5.949,0 0,0 m 0,-26.58 c -8.707,0 -15.79,7.083 -15.79,15.79 C -15.79,-2.083 -8.707,5 0,5 8.707,5 15.79,-2.083 15.79,-10.79 15.79,-19.497 8.707,-26.58 0,-26.58" /></g><g
           transform="translate(632.1953,1824.0498)"
           id="g430"><path
             id="path432"
             style="fill:#323337;fill-opacity:1;fill-rule:nonzero;stroke:none"
             d="m 0,0 c -5.95,0 -10.79,-4.84 -10.79,-10.79 0,-5.95 4.84,-10.79 10.79,-10.79 5.95,0 10.79,4.84 10.79,10.79 C 10.79,-4.84 5.95,0 0,0 m 0,-26.58 c -8.707,0 -15.79,7.083 -15.79,15.79 C -15.79,-2.083 -8.707,5 0,5 8.707,5 15.79,-2.083 15.79,-10.79 15.79,-19.497 8.707,-26.58 0,-26.58" /></g><g
           transform="translate(2112.9658,354.0703)"
           id="g434">
           <!-- footer line -->
           <path
             id="path436"
             style="fill:#323337;fill-opacity:1;fill-rule:nonzero;stroke:none"
             d="m 0,0 h -1230.123 c -1.381,0 -2.5,1.119 -2.5,2.5 0,1.381 1.119,2.5 2.5,2.5 H 0 C 1.381,5 2.5,3.881 2.5,2.5 2.5,1.119 1.381,0 0,0" /></g><g
           transform="translate(2008.1504,354.0693)"
           id="g438">
           <!-- leaves line -->
           <path
             id="path440"
             style="fill:#323337;fill-opacity:1;fill-rule:nonzero;stroke:none"
             d="m 0,0 c -1.112,0 -2.128,0.749 -2.419,1.877 -0.106,0.412 -10.731,42.061 -18.153,110.795 -6.845,63.396 -12.299,163.526 0.59,280.525 14.488,131.517 48.725,257.11 101.759,373.292 66.294,145.231 162.309,276.068 285.375,388.876 1.019,0.934 2.599,0.864 3.533,-0.153 0.932,-1.018 0.864,-2.6 -0.154,-3.532 C 247.961,1039.326 152.341,909.03 86.326,764.413 33.513,648.716 -0.582,523.637 -15.013,392.649 -27.853,276.099 -22.419,176.357 -15.601,113.208 -8.218,44.832 2.317,3.534 2.423,3.125 2.768,1.788 1.964,0.425 0.627,0.08 0.417,0.026 0.207,0 0,0" /></g><g
           transform="translate(2175.0371,1267.832)"
           id="g442"><path
             id="path444"
             style="fill:#323337;fill-opacity:1;fill-rule:nonzero;stroke:none"
             d="M 0,0 C -0.035,0 -0.071,0.001 -0.106,0.002 -1.486,0.061 -2.558,1.226 -2.5,2.604 L 2.368,118.49 c 0.058,1.379 1.221,2.434 2.603,2.394 1.38,-0.059 2.451,-1.224 2.393,-2.603 L 2.496,2.396 C 2.439,1.052 1.332,0 0,0" /></g><g
           transform="translate(2091.0586,1114.4912)"
           id="g446"><path
             id="path448"
             style="fill:#323337;fill-opacity:1;fill-rule:nonzero;stroke:none"
             d="m 0,0 c -0.936,0 -1.833,0.528 -2.261,1.43 -0.592,1.247 -0.06,2.738 1.188,3.33 l 173.96,82.51 c 1.247,0.592 2.738,0.059 3.33,-1.188 0.592,-1.247 0.06,-2.738 -1.188,-3.33 L 1.069,0.242 C 0.724,0.078 0.358,0 0,0" /></g><g
           transform="translate(2003.6426,833.4775)"
           id="g450"><path
             id="path452"
             style="fill:#323337;fill-opacity:1;fill-rule:nonzero;stroke:none"
             d="m 0,0 c -0.927,0 -1.816,0.518 -2.249,1.406 l -69.303,142.24 c -0.605,1.241 -0.089,2.737 1.153,3.341 1.243,0.606 2.738,0.088 3.341,-1.152 L 2.245,3.596 C 2.851,2.354 2.334,0.858 1.093,0.254 0.74,0.082 0.367,0 0,0" /></g><g
           transform="translate(2055.0273,1025.5527)"
           id="g454"><path
             id="path456"
             style="fill:#323337;fill-opacity:1;fill-rule:nonzero;stroke:none"
             d="m 0,0 c -1.381,0 -2.5,1.119 -2.5,2.5 v 171.449 c 0,1.381 1.119,2.5 2.5,2.5 1.381,0 2.5,-1.119 2.5,-2.5 V 2.5 C 2.5,1.119 1.381,0 0,0" /></g><g
           transform="translate(2017.792,900.5586)"
           id="g458">
           <!-- leaf line -->
           <path
             id="path460"
             style="fill:#323337;fill-opacity:1;fill-rule:nonzero;stroke:none"
             d="m 0,0 c -0.798,0 -1.581,0.381 -2.065,1.089 -0.78,1.14 -0.488,2.695 0.652,3.474 L 122.82,89.517 c 1.14,0.779 2.696,0.487 3.475,-0.653 0.779,-1.139 0.487,-2.695 -0.652,-3.474 L 1.409,0.437 C 0.978,0.142 0.486,0 0,0" /></g><g
           transform="translate(2244.291,1363.6201)"
           id="g462"><path
             id="path464"
             style="fill:#323337;fill-opacity:1;fill-rule:nonzero;stroke:none"
             d="m 0,0 c -1.155,0 -2.192,0.806 -2.442,1.981 -0.287,1.351 0.575,2.678 1.925,2.965 L 59.527,17.71 c 1.342,0.285 2.677,-0.574 2.965,-1.926 0.287,-1.35 -0.575,-2.678 -1.926,-2.965 L 0.522,0.056 C 0.348,0.019 0.173,0 0,0" /></g></g></g></g></svg>