<?xml version="1.0" encoding="UTF-8"?>
<svg width="47px" height="38px" viewBox="0 0 47 38" version="1.1" xmlns="http://www.w3.org/2000/svg" xmlns:xlink="http://www.w3.org/1999/xlink">
    <title>11ty</title>
    <g id="Website-v3" stroke="none" stroke-width="1" fill="none" fill-rule="evenodd">
        <g id="Landing-page" transform="translate(-699.000000, -1515.000000)" fill="#151515" fill-rule="nonzero" stroke="#151515" stroke-width="1.52238806">
            <g id="11ty" transform="translate(700.070000, 1516.000000)">
                <path d="M13.3253731,30.515565 C12.9799573,30.515565 12.8072495,30.0550107 12.8072495,29.130064 L12.8072495,6.29040512 C12.8072495,5.84904051 12.7189765,5.64179104 12.5385928,5.66865671 C11.448614,5.94498934 10.8997868,6.08315565 10.884435,6.08315565 C10.5812367,6.11002132 10.4315565,5.80682303 10.4315565,5.17356077 L10.4315565,3.18933902 C10.4315565,2.64051173 10.5965885,2.32963753 10.9266524,2.26055437 L16.3842217,0.855863541 C16.4264392,0.844349682 16.4878465,0.836673776 16.5684435,0.836673776 C16.8716418,0.836673776 17.0213219,1.15906183 17.0213219,1.80767591 L17.0213219,29.1339019 C17.0213219,30.0588486 16.8409381,30.519403 16.4840085,30.519403 L13.3253731,30.515565 L13.3253731,30.515565 Z M27.4605544,30.5577825 C26.9078891,30.5577825 26.431983,30.519403 26.0251599,30.4426439 C25.6183369,30.3658849 25.196162,30.193177 24.7547975,29.9245203 C24.3134329,29.6558635 23.9526652,29.28742 23.6686567,28.8191898 C23.3846482,28.3509595 23.154371,27.6946695 22.9778252,26.8541578 C22.8012793,26.013646 22.7091685,25.0157783 22.7091685,23.8567164 L22.7091685,13.25629 C22.7091685,12.9799573 22.6324094,12.841791 22.4827292,12.841791 L21.2008529,12.841791 C20.8554371,12.841791 20.6827292,12.5117271 20.6827292,11.8515992 L20.6827292,10.7347548 C20.6827292,10.0592751 20.8554371,9.72153515 21.2008529,9.72153515 L22.4827292,9.72153515 C22.6324094,9.72153515 22.7091685,9.53731341 22.7091685,9.16503198 L23.0814499,1.12452025 C23.1236674,0.395309168 23.3002132,0.0307036247 23.6187633,0.0307036247 L25.68742,0.0307036247 C26.0328358,0.0307036247 26.2055437,0.395309168 26.2055437,1.12452025 L26.2055437,9.16503198 C26.2055437,9.53731341 26.2861408,9.72153515 26.4550107,9.72153515 L29.0916844,9.72153515 C29.4371002,9.72153515 29.6098081,10.0592751 29.6098081,10.7347548 L29.6098081,11.8515992 C29.6098081,12.5117271 29.4371002,12.841791 29.0916844,12.841791 L26.4473348,12.841791 C26.351386,12.841791 26.2861408,12.8648188 26.2515992,12.9147121 C26.2170576,12.9607676 26.2017058,13.0759062 26.2017058,13.25629 L26.2017058,23.9219616 C26.2017058,24.7202559 26.2515992,25.3880597 26.3552239,25.9176972 C26.4588486,26.4473348 26.6085288,26.838806 26.8081024,27.084435 C27.0076759,27.330064 27.2072495,27.4989339 27.406823,27.5795309 C27.6063966,27.6639659 27.8520256,27.7023454 28.1398721,27.7023454 L29.6059701,27.7023454 C29.9782516,27.7023454 30.1624734,27.9594883 30.1624734,28.4660981 L30.1624734,29.705757 C30.1624734,30.269936 29.9628998,30.5539446 29.5637526,30.5539446 L27.4605544,30.5577825 L27.4605544,30.5577825 Z M35.3936034,33.0371002 C35.7083156,33.0371002 35.9846482,32.7799573 36.2187633,32.2618337 C36.4528784,31.74371 36.571855,31.010661 36.571855,30.0588486 C36.571855,29.8362474 36.4336887,29.0724947 36.1573561,27.7637526 L32.1044776,10.9189765 C32.077612,10.7270789 32.0622601,10.5735608 32.0622601,10.4622601 C32.0622601,9.96716421 32.1658849,9.7176972 32.3731343,9.7176972 L34.8754797,9.7176972 C35.0673774,9.7176972 35.2247335,9.7829424 35.351386,9.91343287 C35.4780384,10.0439233 35.5739872,10.308742 35.6392324,10.7078891 L38.3257996,24.9275053 C38.3795309,25.0925373 38.4140725,25.1769723 38.4294243,25.1769723 C38.4831556,25.1769723 38.5138592,25.1002132 38.5138592,24.9505331 L40.6208956,10.7692964 C40.6746269,10.3547975 40.7628998,10.0784648 40.8780384,9.93262264 C40.993177,9.78678035 41.1428572,9.71385925 41.3232409,9.71385925 L43.0579957,9.71385925 C43.2921109,9.71385925 43.4110874,9.98251602 43.4110874,10.5198294 C43.4110874,10.6426439 43.3957356,10.803838 43.3688699,10.9957356 L39.6882729,30.1586354 C39.4004264,31.74371 39.0818764,32.9565032 38.7364606,33.7970149 C38.3910448,34.6375266 38.0072495,35.2093817 37.5773987,35.51258 C37.151386,35.8157783 36.5872068,35.9731343 35.8810235,35.9884861 L35.673774,35.9884861 C34.5569296,35.9884861 33.8008529,35.6929638 33.4017058,35.098081 C33.2904051,34.9752665 33.2366737,34.6567164 33.2366737,34.1462687 C33.2366737,33.1253731 33.4017058,32.6149254 33.7317697,32.6149254 C33.7586354,32.6149254 34.0081024,32.6840085 34.4763326,32.8221748 C34.9522388,32.968017 35.2554371,33.0371002 35.3936034,33.0371002 L35.3936034,33.0371002 Z" id="Shape"></path>
                <path d="M2.92452025,30.5539446 C2.57910448,30.5539446 2.40639659,30.0933902 2.40639659,29.1684435 L2.40639659,6.32878465 C2.40639659,5.88742004 2.31812367,5.68017058 2.13773987,5.70703625 C1.0477612,5.98336887 0.498933902,6.12153518 0.48358209,6.12153518 C0.180383795,6.14840085 0.0307036247,5.84520256 0.0307036247,5.2119403 L0.0307036247,3.22771855 C0.0307036247,2.67889126 0.195735608,2.36801706 0.525799573,2.2989339 L5.98720682,0.890405118 C6.0294243,0.878891259 6.09083156,0.871215353 6.17142857,0.871215353 C6.47462687,0.871215353 6.62430704,1.19360341 6.62430704,1.84221748 L6.62430704,29.1684435 C6.62430704,30.0933902 6.44392324,30.5539446 6.0869936,30.5539446 L2.92452025,30.5539446 L2.92452025,30.5539446 Z" id="Path"></path>
            </g>
        </g>
    </g>
</svg>