<?xml version="1.0" encoding="UTF-8"?>
<svg width="37px" height="36px" viewBox="0 0 37 36" version="1.1" xmlns="http://www.w3.org/2000/svg" xmlns:xlink="http://www.w3.org/1999/xlink">
    <title>Group 4</title>
    <defs>
        <linearGradient x1="50.0000632%" y1="0%" x2="50.0000632%" y2="100.000411%" id="linearGradient-1">
            <stop stop-color="#00583E" offset="0%"></stop>
            <stop stop-color="#00835C" offset="100%"></stop>
        </linearGradient>
    </defs>
    <g id="Website-v3" stroke="none" stroke-width="1" fill="none" fill-rule="evenodd">
        <g id="Landing-page" transform="translate(-616.000000, -1516.000000)">
            <g id="Group-4" transform="translate(616.070000, 1516.000000)">
                <path d="M32.5385388,14.8716093 C34.2694776,14.7884419 35.8016082,16.1311685 35.9510449,17.8635766 C36.5984571,26.2445236 28.9284,35.6330297 18.1197306,35.9332256 C9.01115755,36.1580419 0.00252627931,28.8657644 0.00252627931,17.8396256 C0.00252627931,16.1019276 1.43844588,14.6932256 3.17132571,14.6932256 C4.90420408,14.6932256 6.30898286,16.1019276 6.30898286,17.8396256 C6.30898286,25.0923766 12.1406449,29.7861889 17.9654449,29.6424827 C25.1359102,29.4432338 29.7973959,23.2344827 29.5549469,18.165095 C29.4717796,16.4294542 30.8077469,14.9549236 32.5385388,14.8716093 Z" id="Path" fill="url(#linearGradient-1)" fill-rule="nonzero"></path>
                <path d="M24.7002367,18.083544 C24.7002367,16.3045562 26.1514041,14.8623521 27.9414122,14.8623521 L32.6649061,14.8623521 C34.4550612,14.8623521 35.9510449,16.3045562 35.9510449,18.083544 C35.9510449,19.8626787 34.4550612,21.3048827 32.6649061,21.3048827 L27.9414122,21.3048827 C26.1514041,21.3048827 24.7002367,19.8626787 24.7002367,18.083544 Z" id="Path" fill="#00A672" fill-rule="nonzero"></path>
                <path d="M14.7892163,18.088246 C14.7892163,16.3066134 16.2311265,14.8623521 18.0077633,14.8623521 C19.7845469,14.8623521 21.2264571,16.3066134 21.2264571,18.088246 C21.2264571,19.8698787 19.7845469,21.3142868 18.0077633,21.3142868 C16.2311265,21.3142868 14.7892163,19.8698787 14.7892163,18.088246 Z" id="Path" fill="#00A672" fill-rule="nonzero"></path>
                <path d="M21.1372653,3.01586887 C21.2092653,4.75206805 19.8638939,6.21797336 18.1325143,6.29007621 C10.6584,6.60133662 6.0955249,12.4757285 6.31762286,18.0535685 C6.38675755,19.789797 5.06726204,21.2536011 3.3357502,21.3229562 C1.60425306,21.3923113 0.0815832491,19.9909562 0.012446645,18.2547276 C-0.349484571,9.1650656 7.21900408,0.179231969 17.8721388,0.0027608505 C19.6035184,-0.0693424475 21.0654122,1.27967115 21.1372653,3.01586887 Z" id="Path" fill="#00A672"></path>
            </g>
        </g>
    </g>
</svg>