<?xml version="1.0" encoding="UTF-8"?>
<svg width="55px" height="36px" viewBox="0 0 55 36" version="1.1" xmlns="http://www.w3.org/2000/svg" xmlns:xlink="http://www.w3.org/1999/xlink">
    <title>nuxtjs</title>
    <g id="Website-v3" stroke="none" stroke-width="1" fill="none" fill-rule="evenodd">
        <g id="Landing-page" transform="translate(-788.000000, -1516.000000)">
            <g id="Group-45" transform="translate(354.000000, 1516.000000)">
                <g id="nuxtjs" transform="translate(434.621843, 0.000000)">
                    <path d="M23.7271792,1.94264416 C22.2207429,-0.647532468 18.4545818,-0.647579221 16.9481455,1.94264416 L0.530200519,30.1720208 C-0.97624987,32.7622442 0.906807273,35.9999942 3.9196987,35.9999942 L16.7364935,35.9999942 C15.4490494,34.8748364 14.9723065,32.9284519 15.9465506,31.2584727 L28.3807636,9.94413506 L23.7271792,1.94264416 Z" id="Path" fill="#80EEC0"></path>
                    <path d="M34.1299636,8.13492468 C35.3766857,6.01564675 38.4934442,6.01564675 39.7401662,8.13492468 L53.3272208,31.2316364 C54.5741299,33.3509143 53.0158442,36 50.5224935,36 L23.3477766,36 C20.8543792,36 19.2959532,33.3509143 20.5426753,31.2316364 L34.1299636,8.13492468 Z" id="Path" fill="#00DC82" fill-rule="nonzero"></path>
                </g>
            </g>
        </g>
    </g>
</svg>