<?xml version="1.0" encoding="UTF-8"?>
<svg width="42px" height="36px" viewBox="0 0 42 36" version="1.1" xmlns="http://www.w3.org/2000/svg" xmlns:xlink="http://www.w3.org/1999/xlink">
    <title>react</title>
    <g id="Website-v3" stroke="none" stroke-width="1" fill="none" fill-rule="evenodd">
        <g id="Landing-page" transform="translate(-527.000000, -1516.000000)" fill="#61DAFB" fill-rule="nonzero">
            <g id="react" transform="translate(527.540000, 1516.000000)">
                <path d="M40.4732265,18 C40.4732265,15.3226545 37.1203661,12.7853547 31.9798627,11.2118993 C33.1661327,5.97254005 32.6389016,1.80411899 30.3157895,0.469565217 C29.7803204,0.156521739 29.1542334,0.00823798627 28.4704805,0.00823798627 L28.4704805,1.84530892 C28.8494279,1.84530892 29.1542334,1.9194508 29.409611,2.05949657 C30.5299771,2.7020595 31.0160183,5.14874142 30.6370709,8.29565217 C30.5464531,9.07002288 30.3981693,9.88558352 30.2169336,10.7176201 C28.6022883,10.3221968 26.8393593,10.0173913 24.9858124,9.81967963 C23.8736842,8.29565217 22.7203661,6.91167048 21.5588101,5.7006865 C24.2443936,3.20457666 26.7652174,1.83707094 28.4787185,1.83707094 L28.4787185,0 C28.4787185,0 28.4787185,0 28.4787185,0 C26.2132723,0 23.2475973,1.61464531 20.2489703,4.41556064 C17.2503432,1.63112128 14.2846682,0.0329519451 12.019222,0.0329519451 L12.019222,1.87002288 C13.7244851,1.87002288 16.2535469,3.22929062 18.9391304,5.70892449 C17.7858124,6.91990847 16.6324943,8.29565217 15.5368421,9.81967963 C13.6750572,10.0173913 11.9121281,10.3221968 10.2974828,10.7258581 C10.1080092,9.9020595 9.96796339,9.10297483 9.86910755,8.33684211 C9.4819222,5.18993135 9.9597254,2.74324943 11.0718535,2.09244851 C11.3189931,1.94416476 11.6402746,1.87826087 12.019222,1.87826087 L12.019222,0.0411899314 C12.019222,0.0411899314 12.019222,0.0411899314 12.019222,0.0411899314 C11.3272311,0.0411899314 10.7011442,0.189473684 10.1574371,0.502517162 C7.84256293,1.83707094 7.32356979,5.997254 8.5180778,11.2201373 C3.39405034,12.8018307 0.0576659039,15.3308924 0.0576659039,18 C0.0576659039,20.6773455 3.41052632,23.2146453 8.55102975,24.7881007 C7.36475973,30.02746 7.89199085,34.195881 10.215103,35.5304348 C10.7505721,35.8434783 11.376659,35.991762 12.0686499,35.991762 C14.3340961,35.991762 17.2997712,34.3771167 20.2983982,31.5762014 C23.2970252,34.3606407 26.2627002,35.9588101 28.5281465,35.9588101 C29.2201373,35.9588101 29.8462243,35.8105263 30.3899314,35.4974828 C32.7048055,34.1629291 33.2237986,30.002746 32.0292906,24.7798627 C37.1368421,23.2064073 40.4732265,20.6691076 40.4732265,18 Z M29.7473684,12.5052632 C29.4425629,13.5679634 29.0636156,14.6636156 28.6352403,15.7592677 C28.2974828,15.1002288 27.9432494,14.4411899 27.5560641,13.782151 C27.1771167,13.1231121 26.7734554,12.4805492 26.3697941,11.8544622 C27.5395881,12.02746 28.6681922,12.2416476 29.7473684,12.5052632 Z M25.9743707,21.2787185 C25.3318078,22.3908467 24.6727689,23.4453089 23.989016,24.4256293 C22.7615561,24.5327231 21.5176201,24.590389 20.2654462,24.590389 C19.0215103,24.590389 17.7775744,24.5327231 16.5583524,24.4338673 C15.8745995,23.4535469 15.2073227,22.4073227 14.5647597,21.3034325 C13.9386728,20.2242563 13.3702517,19.1286041 12.8512586,18.024714 C13.3620137,16.9208238 13.9386728,15.8169336 14.5565217,14.7377574 C15.1990847,13.6256293 15.8581236,12.571167 16.5418764,11.5908467 C17.7693364,11.4837529 19.0132723,11.426087 20.2654462,11.426087 C21.5093822,11.426087 22.7533181,11.4837529 23.97254,11.5826087 C24.6562929,12.5629291 25.3235698,13.6091533 25.9661327,14.7130435 C26.5922197,15.7922197 27.1606407,16.8878719 27.6796339,17.991762 C27.1606407,19.0956522 26.5922197,20.1995423 25.9743707,21.2787185 Z M28.6352403,20.2077803 C29.0800915,21.3116705 29.4590389,22.4155606 29.7720824,23.4864989 C28.6929062,23.7501144 27.5560641,23.97254 26.378032,24.1455378 C26.7816934,23.5112128 27.1853547,22.8604119 27.5643021,22.193135 C27.9432494,21.5340961 28.2974828,20.8668192 28.6352403,20.2077803 Z M20.2819222,28.9977117 C19.5157895,28.206865 18.7496568,27.3254005 17.991762,26.3615561 C18.7331808,26.394508 19.4910755,26.419222 20.2572082,26.419222 C21.0315789,26.419222 21.7977117,26.402746 22.5473684,26.3615561 C21.8059497,27.3254005 21.0398169,28.206865 20.2819222,28.9977117 Z M14.1528604,24.1455378 C12.9830664,23.97254 11.8544622,23.7583524 10.775286,23.4947368 C11.0800915,22.4320366 11.4590389,21.3363844 11.8874142,20.2407323 C12.2251716,20.8997712 12.579405,21.5588101 12.9665904,22.217849 C13.3537757,22.8768879 13.7491991,23.5194508 14.1528604,24.1455378 Z M20.2407323,7.00228833 C21.006865,7.79313501 21.7729977,8.67459954 22.5308924,9.63844394 C21.7894737,9.60549199 21.0315789,9.58077803 20.2654462,9.58077803 C19.4910755,9.58077803 18.7249428,9.597254 17.975286,9.63844394 C18.7167048,8.67459954 19.4828375,7.79313501 20.2407323,7.00228833 Z M14.1446224,11.8544622 C13.7409611,12.4887872 13.3372998,13.1395881 12.9583524,13.806865 C12.579405,14.4659039 12.2251716,15.1249428 11.8874142,15.7839817 C11.4425629,14.6800915 11.0636156,13.5762014 10.7505721,12.5052632 C11.8297483,12.2498856 12.9665904,12.02746 14.1446224,11.8544622 Z M6.68924485,22.1684211 C3.77299771,20.9244851 1.88649886,19.2933638 1.88649886,18 C1.88649886,16.7066362 3.77299771,15.0672769 6.68924485,13.8315789 C7.39771167,13.5267735 8.17208238,13.2549199 8.97116705,12.9995423 C9.44073227,14.6141876 10.0585812,16.2947368 10.824714,18.016476 C10.0668192,19.7299771 9.45720824,21.4022883 8.99588101,23.0086957 C8.18032037,22.7533181 7.40594966,22.4732265 6.68924485,22.1684211 Z M11.1212815,33.9405034 C10.0009153,33.2979405 9.51487414,30.8512586 9.89382151,27.7043478 C9.98443936,26.9299771 10.1327231,26.1144165 10.3139588,25.2823799 C11.9286041,25.6778032 13.6915332,25.9826087 15.5450801,26.1803204 C16.6572082,27.7043478 17.8105263,29.0883295 18.9720824,30.2993135 C16.2864989,32.7954233 13.7656751,34.1629291 12.0521739,34.1629291 C11.6814645,34.1546911 11.3684211,34.0805492 11.1212815,33.9405034 Z M30.6617849,27.6631579 C31.0489703,30.8100686 30.571167,33.2567506 29.4590389,33.9075515 C29.2118993,34.0558352 28.8906178,34.1217391 28.5116705,34.1217391 C26.8064073,34.1217391 24.2773455,32.7624714 21.591762,30.2828375 C22.7450801,29.0718535 23.8983982,27.6961098 24.9940503,26.1720824 C26.8558352,25.9743707 28.6187643,25.6695652 30.2334096,25.2659039 C30.4228833,26.0979405 30.571167,26.8970252 30.6617849,27.6631579 Z M33.8334096,22.1684211 C33.1249428,22.4732265 32.3505721,22.7450801 31.5514874,23.0004577 C31.0819222,21.3858124 30.4640732,19.7052632 29.6979405,17.983524 C30.4558352,16.2700229 31.0654462,14.5977117 31.5267735,12.9913043 C32.3423341,13.2466819 33.1167048,13.5267735 33.8416476,13.8315789 C36.7578947,15.0755149 38.6443936,16.7066362 38.6443936,18 C38.6361556,19.2933638 36.7496568,20.9327231 33.8334096,22.1684211 Z" id="Shape"></path>
                <circle id="Oval" cx="20.2572082" cy="18" r="3.76475973"></circle>
            </g>
        </g>
    </g>
</svg>