<?xml version="1.0" encoding="UTF-8"?>
<svg width="57px" height="64px" viewBox="0 0 57 64" version="1.1" xmlns="http://www.w3.org/2000/svg" xmlns:xlink="http://www.w3.org/1999/xlink">
    <title>shopify_glyph</title>
    <g id="Website-v3" stroke="none" stroke-width="1" fill="none" fill-rule="evenodd">
        <g id="Installation-Guides-Index" transform="translate(-544.000000, -2270.000000)" fill-rule="nonzero">
            <g id="Group-6" transform="translate(530.000000, 2270.000000)">
                <g id="shopify_glyph" transform="translate(14.000000, 0.000000)">
                    <path d="M48.7111111,12.647619 C48.6603175,12.3428571 48.4063492,12.1396825 48.152381,12.1396825 C47.8984127,12.1396825 43.4285714,12.0380952 43.4285714,12.0380952 C43.4285714,12.0380952 39.6698413,8.38095238 39.3142857,8.02539683 C38.9587302,7.66984127 38.1968254,7.77142857 37.9428571,7.87301587 C37.9428571,7.87301587 37.231746,8.07619048 36.0634921,8.43174603 C35.8603175,7.77142857 35.5555556,7.00952381 35.1492063,6.1968254 C33.8285714,3.65714286 31.847619,2.28571429 29.5111111,2.28571429 C29.5111111,2.28571429 29.5111111,2.28571429 29.5111111,2.28571429 C29.3587302,2.28571429 29.2063492,2.28571429 29.0031746,2.33650794 C28.952381,2.23492063 28.8507937,2.18412698 28.8,2.08253968 C27.784127,0.965079365 26.4634921,0.457142857 24.8888889,0.507936508 C21.8412698,0.60952381 18.7936508,2.79365079 16.3555556,6.7047619 C14.6285714,9.44761905 13.3079365,12.9015873 12.9015873,15.5936508 C9.3968254,16.6603175 6.95873016,17.4222222 6.90793651,17.4730159 C5.13015873,18.031746 5.07936508,18.0825397 4.87619048,19.7587302 C4.72380952,21.0285714 0.0507936508,56.8380952 0.0507936508,56.8380952 L38.8571429,63.5428571 L55.6698413,59.3777778 C55.6190476,59.3269841 48.7619048,12.952381 48.7111111,12.647619 Z M34.1333333,9.04126984 C33.2190476,9.2952381 32.2031746,9.65079365 31.1365079,9.95555556 C31.1365079,8.43174603 30.9333333,6.24761905 30.2222222,4.41904762 C32.5079365,4.87619048 33.6253968,7.46666667 34.1333333,9.04126984 Z M29.0539683,10.615873 C27.0222222,11.2253968 24.7873016,11.9365079 22.552381,12.5968254 C23.1619048,10.2095238 24.3809524,7.82222222 25.8031746,6.24761905 C26.3619048,5.68888889 27.1238095,5.02857143 27.9873016,4.62222222 C28.9015873,6.4 29.1047619,8.88888889 29.0539683,10.615873 Z M24.9396825,2.53968254 C25.6507937,2.53968254 26.2603175,2.69206349 26.768254,2.9968254 C25.9555556,3.45396825 25.1428571,4.06349206 24.3809524,4.87619048 C22.4507937,6.95873016 20.9777778,10.2095238 20.368254,13.3079365 C18.5396825,13.8666667 16.7111111,14.4253968 15.0349206,14.9333333 C16.1015873,10.0571429 20.215873,2.69206349 24.9396825,2.53968254 Z" id="Shape" fill="#95BF47"></path>
                    <g id="Group" transform="translate(10.158730, 7.619048)">
                        <path d="M37.9936508,4.52063492 C37.7396825,4.52063492 33.2698413,4.41904762 33.2698413,4.41904762 C33.2698413,4.41904762 29.5111111,0.761904762 29.1555556,0.406349206 C29.0031746,0.253968254 28.8507937,0.203174603 28.647619,0.152380952 L28.647619,55.8730159 L45.4603175,51.7079365 C45.4603175,51.7079365 38.6031746,5.33333333 38.552381,4.97777778 C38.5015873,4.72380952 38.247619,4.52063492 37.9936508,4.52063492 Z" id="Path" fill="#5E8E3E"></path>
                        <path d="M19.3015873,13.1555556 L17.3714286,20.4698413 C17.3714286,20.4698413 15.1873016,19.4539683 12.5968254,19.6571429 C8.78730159,19.9111111 8.78730159,22.2984127 8.78730159,22.9079365 C8.99047619,26.1587302 17.5746032,26.8698413 18.0825397,34.5396825 C18.4380952,40.584127 14.8825397,44.6984127 9.75238095,45.0031746 C3.55555556,45.4095238 0.152380952,41.752381 0.152380952,41.752381 L1.47301587,36.1650794 C1.47301587,36.1650794 4.87619048,38.7555556 7.61904762,38.552381 C9.3968254,38.4507937 10.0571429,36.9777778 10.0063492,35.9619048 C9.75238095,31.6952381 2.74285714,31.9492063 2.28571429,24.9396825 C1.93015873,19.047619 5.79047619,13.0539683 14.3238095,12.5460317 C17.6253968,12.2920635 19.3015873,13.1555556 19.3015873,13.1555556 Z" id="Path" fill="#FFFFFF"></path>
                    </g>
                </g>
            </g>
        </g>
    </g>
</svg>