<?xml version="1.0" encoding="UTF-8"?>
<svg width="31px" height="36px" viewBox="0 0 31 36" version="1.1" xmlns="http://www.w3.org/2000/svg" xmlns:xlink="http://www.w3.org/1999/xlink">
    <title>svelte-logo-horizontal</title>
    <g id="Website-v3" stroke="none" stroke-width="1" fill="none" fill-rule="evenodd">
        <g id="Landing-page" transform="translate(-972.000000, -1516.000000)" fill-rule="nonzero">
            <g id="svelte-logo-horizontal" transform="translate(972.690000, 1516.000000)">
                <path d="M28.1086726,4.90300885 C24.7953982,0.162477876 18.2516814,-1.24247788 13.520708,1.77132743 L5.2120354,7.06619469 C2.94457901,8.49032369 1.38120334,10.8030096 0.904778761,13.4378761 C0.50746093,15.637274 0.854999217,17.9063627 1.89238938,19.8860177 C1.18140376,20.9645906 0.696918132,22.1763466 0.468318584,23.4477876 C-0.0110828437,26.1385009 0.614886592,28.9088464 2.20460177,31.1320354 C5.51787611,35.8725664 12.0615929,37.2775221 16.7925664,34.2637168 L25.1012389,28.9911504 C27.3658981,27.5641306 28.9283459,25.2528172 29.4084956,22.619469 C29.8043554,20.4207482 29.4556996,18.1528038 28.4176991,16.1745133 C29.1283188,15.0954148 29.6137684,13.8839579 29.8449558,12.6127434 C30.3228857,9.92206404 29.6970446,7.15228661 28.1086726,4.92849558" id="back" fill="#FF3E00"></path>
                <path d="M12.7083186,31.5907965 C10.0291252,32.286029 7.20063899,31.2367928 5.62300885,28.9624779 C4.66760217,27.625881 4.29198456,25.9602983 4.58123894,24.3430088 C4.62823452,24.0825979 4.69425205,23.8259814 4.77876106,23.5752212 L4.93486726,23.0973451 L5.36176991,23.4159292 C6.34303268,24.1323104 7.43851794,24.6773601 8.60176991,25.0279646 L8.92035398,25.120354 L8.89168142,25.4389381 C8.86102851,25.8757554 8.98384817,26.309568 9.23893805,26.6654867 C9.71496312,27.3496251 10.5667118,27.6648993 11.3734513,27.4555752 C11.5535642,27.4071627 11.7253899,27.331989 11.8831858,27.2325664 L20.179115,21.9376991 C20.5911195,21.6784508 20.8745584,21.2573416 20.959646,20.7780531 C21.0454389,20.2900112 20.9305629,19.788003 20.6410619,19.3858407 C20.1650369,18.7017023 19.3132882,18.3864282 18.5065487,18.5957522 C18.3262238,18.6435588 18.154309,18.7187715 17.9968142,18.8187611 L14.8109735,20.8417699 C14.2899224,21.1721556 13.7216553,21.4213767 13.1256637,21.580885 C10.4510945,22.2718913 7.62910909,21.2244517 6.05309735,18.9557522 C5.1005908,17.6179118 4.72735236,15.9526942 5.01769912,14.3362832 C5.30216698,12.7482551 6.24240498,11.353511 7.60778761,10.4941593 L15.9292035,5.19929204 C16.4471824,4.86956879 17.0121987,4.62036005 17.6049558,4.46017699 C20.2832506,3.76445989 23.1111139,4.81393682 24.6870796,7.08849558 C25.6436004,8.42462042 26.0203759,10.0902436 25.7320354,11.7079646 C25.6823326,11.9698686 25.6163642,12.2284223 25.5345133,12.4821239 L25.3752212,12.96 L24.9515044,12.6414159 C23.9682262,11.9195767 22.8693852,11.3701562 21.7019469,11.0166372 L21.3833628,10.9242478 L21.4120354,10.6056637 C21.4488295,10.1666909 21.3292124,9.72884723 21.0743363,9.36955752 C20.5954893,8.69739418 19.7506655,8.39168465 18.9525664,8.60176991 C18.7722415,8.64957645 18.6003267,8.72478918 18.4428319,8.82477876 L10.1309735,14.1100885 C9.72054612,14.3694868 9.43748102,14.7888853 9.35044248,15.2665487 C9.26631763,15.7555545 9.38100953,16.257905 9.66902655,16.6619469 C10.1426901,17.3396271 10.9858706,17.6540764 11.7876106,17.4520354 C11.9674892,17.4029574 12.1392195,17.3278255 12.2973451,17.2290265 L15.4831858,15.2092035 C16.0038475,14.8752007 16.5735721,14.6247369 17.1716814,14.4669027 C19.8493423,13.7695483 22.6775891,14.8178953 24.2538053,17.0920354 C25.2096533,18.4284621 25.5863644,20.0938005 25.2987611,21.7115044 C25.0142932,23.2995325 24.0740552,24.6942766 22.7086726,25.5536283 L14.3968142,30.8484956 C13.874784,31.1799396 13.3054677,31.4302239 12.7083186,31.5907965" id="front" fill="#FFFFFF"></path>
            </g>
        </g>
    </g>
</svg>